M48
; DRILL file {KiCad (5.1.10)-1} date 12/08/21 12:26:15
; FORMAT={-:-/ absolute / inch / decimal}
; #@! TF.CreationDate,2021-12-08T12:26:15-03:00
; #@! TF.GenerationSoftware,Kicad,Pcbnew,(5.1.10)-1
; #@! TF.FileFunction,NonPlated,1,2,NPTH
FMAT,2
INCH
T1C0.0256
T2C0.0689
T3C0.1570
%
G90
G05
T1
X13.9062Y-3.623
X14.1338Y-3.623
T2
X1.8Y-4.9688
X1.8Y-5.7188
X1.8Y-6.4688
X1.8Y-7.2188
X1.8Y-7.9688
X1.8Y-8.7188
X2.2Y-4.9688
X2.2Y-5.7188
X2.2Y-6.4688
X2.2Y-7.2188
X2.2Y-7.9688
X2.2Y-8.7188
X2.55Y-4.9688
X2.55Y-5.7188
X2.55Y-6.4688
X2.55Y-7.2188
X2.55Y-7.9688
X2.55Y-8.7188
X2.95Y-4.9688
X2.95Y-5.7188
X2.95Y-6.4688
X2.95Y-7.2188
X2.95Y-7.9688
X2.95Y-8.7188
X3.3Y-4.9688
X3.3Y-5.7188
X3.3Y-6.4688
X3.3Y-7.2188
X3.3Y-7.9688
X3.3Y-8.7188
X3.7Y-4.9688
X3.7Y-5.7188
X3.7Y-6.4688
X3.7Y-7.2188
X3.7Y-7.9688
X3.7Y-8.7188
X4.05Y-4.9688
X4.05Y-5.7188
X4.05Y-6.4688
X4.05Y-7.2188
X4.05Y-7.9688
X4.05Y-8.7188
X4.45Y-4.9688
X4.45Y-5.7188
X4.45Y-6.4688
X4.45Y-7.2188
X4.45Y-7.9688
X4.45Y-8.7188
X4.8Y-4.9688
X4.8Y-5.7188
X4.8Y-6.4688
X4.8Y-7.2188
X4.8Y-7.9688
X4.8Y-8.7188
X5.2Y-4.9688
X5.2Y-5.7188
X5.2Y-6.4688
X5.2Y-7.2188
X5.2Y-7.9688
X5.2Y-8.7188
X5.55Y-4.9688
X5.55Y-5.7188
X5.55Y-6.4688
X5.55Y-7.2188
X5.55Y-7.9688
X5.55Y-8.7188
X5.95Y-4.9688
X5.95Y-5.7188
X5.95Y-6.4688
X5.95Y-7.2188
X5.95Y-7.9688
X5.95Y-8.7188
X6.3Y-4.9688
X6.3Y-5.7188
X6.3Y-6.4688
X6.3Y-7.2188
X6.3Y-7.9688
X6.3Y-8.7188
X6.7Y-4.9688
X6.7Y-5.7188
X6.7Y-6.4688
X6.7Y-7.2188
X6.7Y-7.9688
X6.7Y-8.7188
X7.05Y-4.9688
X7.05Y-5.7188
X7.05Y-6.4688
X7.05Y-7.2188
X7.05Y-7.9688
X7.05Y-8.7188
X7.45Y-4.9688
X7.45Y-5.7188
X7.45Y-6.4688
X7.45Y-7.2188
X7.45Y-7.9688
X7.45Y-8.7188
X7.8Y-4.9688
X7.8Y-5.7188
X7.8Y-6.4688
X7.8Y-7.2188
X7.8Y-7.9688
X7.8Y-8.7188
X8.2Y-4.9688
X8.2Y-5.7188
X8.2Y-6.4688
X8.2Y-7.2188
X8.2Y-7.9688
X8.2Y-8.7188
X8.55Y-4.9688
X8.55Y-5.7188
X8.55Y-6.4688
X8.55Y-7.2188
X8.55Y-7.9688
X8.55Y-8.7188
X8.95Y-4.9688
X8.95Y-5.7188
X8.95Y-6.4688
X8.95Y-7.2188
X8.95Y-7.9688
X8.95Y-8.7188
X9.3Y-4.9688
X9.3Y-5.7188
X9.3Y-6.4688
X9.3Y-7.2188
X9.3Y-7.9688
X9.3Y-8.7188
X9.7Y-4.9688
X9.7Y-5.7188
X9.7Y-6.4688
X9.7Y-7.2188
X9.7Y-7.9688
X9.7Y-8.7188
X10.05Y-4.9688
X10.05Y-5.7188
X10.05Y-6.4688
X10.05Y-7.2188
X10.05Y-7.9688
X10.05Y-8.7188
X10.45Y-4.9688
X10.45Y-5.7188
X10.45Y-6.4688
X10.45Y-7.2188
X10.45Y-7.9688
X10.45Y-8.7188
X10.8Y-4.9688
X10.8Y-5.7188
X10.8Y-6.4688
X10.8Y-7.2188
X10.8Y-7.9688
X10.8Y-8.7188
X11.2Y-4.9688
X11.2Y-5.7188
X11.2Y-6.4688
X11.2Y-7.2188
X11.2Y-7.9688
X11.2Y-8.7188
X11.55Y-4.9688
X11.55Y-5.7188
X11.55Y-6.4688
X11.55Y-7.2188
X11.55Y-7.9688
X11.55Y-8.7188
X11.95Y-4.9688
X11.95Y-5.7188
X11.95Y-6.4688
X11.95Y-7.2188
X11.95Y-7.9688
X11.95Y-8.7188
X12.3Y-4.9688
X12.3Y-5.7188
X12.3Y-6.4688
X12.3Y-7.2188
X12.3Y-7.9688
X12.3Y-8.7188
X12.7Y-4.9688
X12.7Y-5.7188
X12.7Y-6.4688
X12.7Y-7.2188
X12.7Y-7.9688
X12.7Y-8.7188
X13.05Y-4.9688
X13.05Y-5.7188
X13.05Y-6.4688
X13.05Y-7.2188
X13.05Y-7.9688
X13.05Y-8.7188
X13.45Y-4.9688
X13.45Y-5.7188
X13.45Y-6.4688
X13.45Y-7.2188
X13.45Y-7.9688
X13.45Y-8.7188
X13.8Y-4.9688
X13.8Y-5.7188
X13.8Y-6.4688
X13.8Y-7.2188
X13.8Y-7.9688
X13.8Y-8.7188
X14.2Y-4.9688
X14.2Y-5.7188
X14.2Y-6.4688
X14.2Y-7.2188
X14.2Y-7.9688
X14.2Y-8.7188
T3
X2.0Y-4.9688
X2.0Y-5.7188
X2.0Y-6.4688
X2.0Y-7.2188
X2.0Y-7.9688
X2.0Y-8.7188
X2.75Y-4.9688
X2.75Y-5.7188
X2.75Y-6.4688
X2.75Y-7.2188
X2.75Y-7.9688
X2.75Y-8.7188
X3.5Y-4.9688
X3.5Y-5.7188
X3.5Y-6.4688
X3.5Y-7.2188
X3.5Y-7.9688
X3.5Y-8.7188
X4.25Y-4.9688
X4.25Y-5.7188
X4.25Y-6.4688
X4.25Y-7.2188
X4.25Y-7.9688
X4.25Y-8.7188
X5.0Y-4.9688
X5.0Y-5.7188
X5.0Y-6.4688
X5.0Y-7.2188
X5.0Y-7.9688
X5.0Y-8.7188
X5.75Y-4.9688
X5.75Y-5.7188
X5.75Y-6.4688
X5.75Y-7.2188
X5.75Y-7.9688
X5.75Y-8.7188
X6.5Y-4.9688
X6.5Y-5.7188
X6.5Y-6.4688
X6.5Y-7.2188
X6.5Y-7.9688
X6.5Y-8.7188
X7.25Y-4.9688
X7.25Y-5.7188
X7.25Y-6.4688
X7.25Y-7.2188
X7.25Y-7.9688
X7.25Y-8.7188
X8.0Y-4.9688
X8.0Y-5.7188
X8.0Y-6.4688
X8.0Y-7.2188
X8.0Y-7.9688
X8.0Y-8.7188
X8.75Y-4.9688
X8.75Y-5.7188
X8.75Y-6.4688
X8.75Y-7.2188
X8.75Y-7.9688
X8.75Y-8.7188
X9.5Y-4.9688
X9.5Y-5.7188
X9.5Y-6.4688
X9.5Y-7.2188
X9.5Y-7.9688
X9.5Y-8.7188
X10.25Y-4.9688
X10.25Y-5.7188
X10.25Y-6.4688
X10.25Y-7.2188
X10.25Y-7.9688
X10.25Y-8.7188
X11.0Y-4.9688
X11.0Y-5.7188
X11.0Y-6.4688
X11.0Y-7.2188
X11.0Y-7.9688
X11.0Y-8.7188
X11.75Y-4.9688
X11.75Y-5.7188
X11.75Y-6.4688
X11.75Y-7.2188
X11.75Y-7.9688
X11.75Y-8.7188
X12.5Y-4.9688
X12.5Y-5.7188
X12.5Y-6.4688
X12.5Y-7.2188
X12.5Y-7.9688
X12.5Y-8.7188
X13.25Y-4.9688
X13.25Y-5.7188
X13.25Y-6.4688
X13.25Y-7.2188
X13.25Y-7.9688
X13.25Y-8.7188
X14.0Y-4.9688
X14.0Y-5.7188
X14.0Y-6.4688
X14.0Y-7.2188
X14.0Y-7.9688
X14.0Y-8.7188
T0
M30
