G04 #@! TF.GenerationSoftware,KiCad,Pcbnew,(5.1.10)-1*
G04 #@! TF.CreationDate,2021-12-06T23:46:42-03:00*
G04 #@! TF.ProjectId,Poto-Rev2,506f746f-2d52-4657-9632-2e6b69636164,C3*
G04 #@! TF.SameCoordinates,Original*
G04 #@! TF.FileFunction,Profile,NP*
%FSLAX46Y46*%
G04 Gerber Fmt 4.6, Leading zero omitted, Abs format (unit mm)*
G04 Created by KiCad (PCBNEW (5.1.10)-1) date 2021-12-06 23:46:42*
%MOMM*%
%LPD*%
G01*
G04 APERTURE LIST*
G04 #@! TA.AperFunction,Profile*
%ADD10C,0.100000*%
G04 #@! TD*
G04 APERTURE END LIST*
D10*
X64293750Y-114300000D02*
X67468750Y-114300000D01*
X64293750Y-116681250D02*
G75*
G03*
X65087500Y-115887500I0J793750D01*
G01*
X65087500Y-115093750D02*
G75*
G03*
X64293750Y-114300000I-793750J0D01*
G01*
X54768750Y-114300000D02*
X57943750Y-114300000D01*
X47625000Y-115093750D02*
X47625000Y-115887500D01*
X59531250Y-116681250D02*
G75*
G03*
X60325000Y-115887500I0J793750D01*
G01*
X50800000Y-115093750D02*
X50800000Y-115887500D01*
X46037500Y-115093750D02*
G75*
G03*
X45243750Y-114300000I-793750J0D01*
G01*
X59531250Y-116681250D02*
X62706250Y-116681250D01*
X47625000Y-115887500D02*
G75*
G03*
X48418750Y-116681250I793750J0D01*
G01*
X42862500Y-115887500D02*
G75*
G03*
X43656250Y-116681250I793750J0D01*
G01*
X59531250Y-114300000D02*
X62706250Y-114300000D01*
X48418750Y-114300000D02*
G75*
G03*
X47625000Y-115093750I0J-793750D01*
G01*
X46037500Y-115093750D02*
X46037500Y-115887500D01*
X50006250Y-114300000D02*
X53181250Y-114300000D01*
X67468750Y-114300000D02*
G75*
G03*
X66675000Y-115093750I0J-793750D01*
G01*
X45243750Y-116681250D02*
X48418750Y-116681250D01*
X50006250Y-116681250D02*
G75*
G03*
X50800000Y-115887500I0J793750D01*
G01*
X62706250Y-114300000D02*
G75*
G03*
X61912500Y-115093750I0J-793750D01*
G01*
X42862500Y-115093750D02*
X42862500Y-115887500D01*
X53181250Y-114300000D02*
G75*
G03*
X52387500Y-115093750I0J-793750D01*
G01*
X45243750Y-114300000D02*
X48418750Y-114300000D01*
X55562500Y-115093750D02*
G75*
G03*
X54768750Y-114300000I-793750J0D01*
G01*
X43656250Y-114300000D02*
G75*
G03*
X42862500Y-115093750I0J-793750D01*
G01*
X60325000Y-115093750D02*
G75*
G03*
X59531250Y-114300000I-793750J0D01*
G01*
X54768750Y-116681250D02*
G75*
G03*
X55562500Y-115887500I0J793750D01*
G01*
X57150000Y-115887500D02*
G75*
G03*
X57943750Y-116681250I793750J0D01*
G01*
X65087500Y-115093750D02*
X65087500Y-115887500D01*
X57943750Y-114300000D02*
G75*
G03*
X57150000Y-115093750I0J-793750D01*
G01*
X52387500Y-115093750D02*
X52387500Y-115887500D01*
X50006250Y-116681250D02*
X53181250Y-116681250D01*
X45243750Y-116681250D02*
G75*
G03*
X46037500Y-115887500I0J793750D01*
G01*
X66675000Y-115887500D02*
G75*
G03*
X67468750Y-116681250I793750J0D01*
G01*
X52387500Y-115887500D02*
G75*
G03*
X53181250Y-116681250I793750J0D01*
G01*
X60325000Y-115093750D02*
X60325000Y-115887500D01*
X55562500Y-115093750D02*
X55562500Y-115887500D01*
X61912500Y-115887500D02*
G75*
G03*
X62706250Y-116681250I793750J0D01*
G01*
X50800000Y-115093750D02*
G75*
G03*
X50006250Y-114300000I-793750J0D01*
G01*
X54768750Y-116681250D02*
X57943750Y-116681250D01*
X64293750Y-116681250D02*
X67468750Y-116681250D01*
X66675000Y-115093750D02*
X66675000Y-115887500D01*
X61912500Y-115093750D02*
X61912500Y-115887500D01*
X57150000Y-115093750D02*
X57150000Y-115887500D01*
X98425000Y-113506250D02*
X98425000Y-115093750D01*
X97631250Y-116681250D02*
G75*
G03*
X98425000Y-115887500I0J793750D01*
G01*
X97631250Y-116681250D02*
X99218750Y-116681250D01*
X98425000Y-111918750D02*
G75*
G03*
X97631250Y-111125000I-793750J0D01*
G01*
X98425000Y-115093750D02*
G75*
G03*
X97631250Y-114300000I-793750J0D01*
G01*
X97631250Y-114300000D02*
G75*
G03*
X98425000Y-113506250I0J793750D01*
G01*
X99218750Y-116681250D02*
G75*
G02*
X98425000Y-115887500I0J793750D01*
G01*
X98425000Y-111918750D02*
X98425000Y-110331250D01*
X98425000Y-108743750D02*
G75*
G03*
X97631250Y-107950000I-793750J0D01*
G01*
X98425000Y-108743750D02*
X98425000Y-107156250D01*
X97631250Y-111125000D02*
G75*
G03*
X98425000Y-110331250I0J793750D01*
G01*
X97631250Y-107950000D02*
G75*
G03*
X98425000Y-107156250I0J793750D01*
G01*
X76200000Y-115093750D02*
X76200000Y-115887500D01*
X79375000Y-115093750D02*
X79375000Y-115887500D01*
X73818750Y-114300000D02*
X76993750Y-114300000D01*
X92868750Y-114300000D02*
X96043750Y-114300000D01*
X69850000Y-115093750D02*
G75*
G03*
X69056250Y-114300000I-793750J0D01*
G01*
X71437500Y-115887500D02*
G75*
G03*
X72231250Y-116681250I793750J0D01*
G01*
X69056250Y-116681250D02*
G75*
G03*
X69850000Y-115887500I0J793750D01*
G01*
X86518750Y-114300000D02*
G75*
G03*
X85725000Y-115093750I0J-793750D01*
G01*
X69056250Y-116681250D02*
X72231250Y-116681250D01*
X92868750Y-116681250D02*
G75*
G03*
X93662500Y-115887500I0J793750D01*
G01*
X74612500Y-115093750D02*
G75*
G03*
X73818750Y-114300000I-793750J0D01*
G01*
X78581250Y-116681250D02*
G75*
G03*
X79375000Y-115887500I0J793750D01*
G01*
X88106250Y-114300000D02*
X91281250Y-114300000D01*
X69850000Y-115093750D02*
X69850000Y-115887500D01*
X69056250Y-114300000D02*
X72231250Y-114300000D01*
X74612500Y-115093750D02*
X74612500Y-115887500D01*
X71437500Y-115093750D02*
X71437500Y-115887500D01*
X73818750Y-116681250D02*
G75*
G03*
X74612500Y-115887500I0J793750D01*
G01*
X72231250Y-114300000D02*
G75*
G03*
X71437500Y-115093750I0J-793750D01*
G01*
X76993750Y-114300000D02*
G75*
G03*
X76200000Y-115093750I0J-793750D01*
G01*
X73818750Y-116681250D02*
X76993750Y-116681250D01*
X76200000Y-115887500D02*
G75*
G03*
X76993750Y-116681250I793750J0D01*
G01*
X88900000Y-115093750D02*
G75*
G03*
X88106250Y-114300000I-793750J0D01*
G01*
X96043750Y-114300000D02*
G75*
G03*
X95250000Y-115093750I0J-793750D01*
G01*
X91281250Y-114300000D02*
G75*
G03*
X90487500Y-115093750I0J-793750D01*
G01*
X78581250Y-114300000D02*
X81756250Y-114300000D01*
X81756250Y-114300000D02*
G75*
G03*
X80962500Y-115093750I0J-793750D01*
G01*
X83343750Y-116681250D02*
G75*
G03*
X84137500Y-115887500I0J793750D01*
G01*
X85725000Y-115887500D02*
G75*
G03*
X86518750Y-116681250I793750J0D01*
G01*
X88106250Y-116681250D02*
X91281250Y-116681250D01*
X93662500Y-115093750D02*
G75*
G03*
X92868750Y-114300000I-793750J0D01*
G01*
X83343750Y-114300000D02*
X86518750Y-114300000D01*
X78581250Y-116681250D02*
X81756250Y-116681250D01*
X93662500Y-115093750D02*
X93662500Y-115887500D01*
X88106250Y-116681250D02*
G75*
G03*
X88900000Y-115887500I0J793750D01*
G01*
X84137500Y-115093750D02*
G75*
G03*
X83343750Y-114300000I-793750J0D01*
G01*
X80962500Y-115093750D02*
X80962500Y-115887500D01*
X90487500Y-115887500D02*
G75*
G03*
X91281250Y-116681250I793750J0D01*
G01*
X79375000Y-115093750D02*
G75*
G03*
X78581250Y-114300000I-793750J0D01*
G01*
X83343750Y-116681250D02*
X86518750Y-116681250D01*
X92868750Y-116681250D02*
X96043750Y-116681250D01*
X95250000Y-115887500D02*
G75*
G03*
X96043750Y-116681250I793750J0D01*
G01*
X95250000Y-115093750D02*
X95250000Y-115887500D01*
X85725000Y-115093750D02*
X85725000Y-115887500D01*
X80962500Y-115887500D02*
G75*
G03*
X81756250Y-116681250I793750J0D01*
G01*
X90487500Y-115093750D02*
X90487500Y-115887500D01*
X88900000Y-115093750D02*
X88900000Y-115887500D01*
X84137500Y-115093750D02*
X84137500Y-115887500D01*
X109537500Y-115093750D02*
X109537500Y-115887500D01*
X112712500Y-115093750D02*
X112712500Y-115887500D01*
X107156250Y-114300000D02*
X110331250Y-114300000D01*
X126206250Y-114300000D02*
X129381250Y-114300000D01*
X103187500Y-115093750D02*
G75*
G03*
X102393750Y-114300000I-793750J0D01*
G01*
X104775000Y-115887500D02*
G75*
G03*
X105568750Y-116681250I793750J0D01*
G01*
X102393750Y-116681250D02*
G75*
G03*
X103187500Y-115887500I0J793750D01*
G01*
X119856250Y-114300000D02*
G75*
G03*
X119062500Y-115093750I0J-793750D01*
G01*
X102393750Y-116681250D02*
X105568750Y-116681250D01*
X126206250Y-116681250D02*
G75*
G03*
X127000000Y-115887500I0J793750D01*
G01*
X107950000Y-115093750D02*
G75*
G03*
X107156250Y-114300000I-793750J0D01*
G01*
X111918750Y-116681250D02*
G75*
G03*
X112712500Y-115887500I0J793750D01*
G01*
X121443750Y-114300000D02*
X124618750Y-114300000D01*
X103187500Y-115093750D02*
X103187500Y-115887500D01*
X102393750Y-114300000D02*
X105568750Y-114300000D01*
X107950000Y-115093750D02*
X107950000Y-115887500D01*
X104775000Y-115093750D02*
X104775000Y-115887500D01*
X107156250Y-116681250D02*
G75*
G03*
X107950000Y-115887500I0J793750D01*
G01*
X105568750Y-114300000D02*
G75*
G03*
X104775000Y-115093750I0J-793750D01*
G01*
X110331250Y-114300000D02*
G75*
G03*
X109537500Y-115093750I0J-793750D01*
G01*
X107156250Y-116681250D02*
X110331250Y-116681250D01*
X109537500Y-115887500D02*
G75*
G03*
X110331250Y-116681250I793750J0D01*
G01*
X130968750Y-116681250D02*
G75*
G03*
X131762500Y-115887500I0J793750D01*
G01*
X122237500Y-115093750D02*
G75*
G03*
X121443750Y-114300000I-793750J0D01*
G01*
X130968750Y-114300000D02*
X134143750Y-114300000D01*
X129381250Y-114300000D02*
G75*
G03*
X128587500Y-115093750I0J-793750D01*
G01*
X124618750Y-114300000D02*
G75*
G03*
X123825000Y-115093750I0J-793750D01*
G01*
X133350000Y-115093750D02*
X133350000Y-115887500D01*
X111918750Y-114300000D02*
X115093750Y-114300000D01*
X115093750Y-114300000D02*
G75*
G03*
X114300000Y-115093750I0J-793750D01*
G01*
X130968750Y-116681250D02*
X134143750Y-116681250D01*
X116681250Y-116681250D02*
G75*
G03*
X117475000Y-115887500I0J793750D01*
G01*
X119062500Y-115887500D02*
G75*
G03*
X119856250Y-116681250I793750J0D01*
G01*
X121443750Y-116681250D02*
X124618750Y-116681250D01*
X131762500Y-115093750D02*
X131762500Y-115887500D01*
X127000000Y-115093750D02*
G75*
G03*
X126206250Y-114300000I-793750J0D01*
G01*
X134143750Y-114300000D02*
G75*
G03*
X133350000Y-115093750I0J-793750D01*
G01*
X116681250Y-114300000D02*
X119856250Y-114300000D01*
X111918750Y-116681250D02*
X115093750Y-116681250D01*
X127000000Y-115093750D02*
X127000000Y-115887500D01*
X121443750Y-116681250D02*
G75*
G03*
X122237500Y-115887500I0J793750D01*
G01*
X117475000Y-115093750D02*
G75*
G03*
X116681250Y-114300000I-793750J0D01*
G01*
X114300000Y-115093750D02*
X114300000Y-115887500D01*
X123825000Y-115887500D02*
G75*
G03*
X124618750Y-116681250I793750J0D01*
G01*
X112712500Y-115093750D02*
G75*
G03*
X111918750Y-114300000I-793750J0D01*
G01*
X116681250Y-116681250D02*
X119856250Y-116681250D01*
X126206250Y-116681250D02*
X129381250Y-116681250D01*
X128587500Y-115887500D02*
G75*
G03*
X129381250Y-116681250I793750J0D01*
G01*
X128587500Y-115093750D02*
X128587500Y-115887500D01*
X119062500Y-115093750D02*
X119062500Y-115887500D01*
X114300000Y-115887500D02*
G75*
G03*
X115093750Y-116681250I793750J0D01*
G01*
X123825000Y-115093750D02*
X123825000Y-115887500D01*
X133350000Y-115887500D02*
G75*
G03*
X134143750Y-116681250I793750J0D01*
G01*
X131762500Y-115093750D02*
G75*
G03*
X130968750Y-114300000I-793750J0D01*
G01*
X122237500Y-115093750D02*
X122237500Y-115887500D01*
X117475000Y-115093750D02*
X117475000Y-115887500D01*
X136525000Y-108743750D02*
G75*
G03*
X135731250Y-107950000I-793750J0D01*
G01*
X136525000Y-108743750D02*
X136525000Y-107156250D01*
X135731250Y-111125000D02*
G75*
G03*
X136525000Y-110331250I0J793750D01*
G01*
X135731250Y-107950000D02*
G75*
G03*
X136525000Y-107156250I0J793750D01*
G01*
X136525000Y-113506250D02*
X136525000Y-115093750D01*
X135731250Y-116681250D02*
X137318750Y-116681250D01*
X136525000Y-111918750D02*
X136525000Y-110331250D01*
X136525000Y-111918750D02*
G75*
G03*
X135731250Y-111125000I-793750J0D01*
G01*
X136525000Y-115093750D02*
G75*
G03*
X135731250Y-114300000I-793750J0D01*
G01*
X135731250Y-116681250D02*
G75*
G03*
X136525000Y-115887500I0J793750D01*
G01*
X135731250Y-114300000D02*
G75*
G03*
X136525000Y-113506250I0J793750D01*
G01*
X137318750Y-116681250D02*
G75*
G02*
X136525000Y-115887500I0J793750D01*
G01*
X140493750Y-116681250D02*
G75*
G03*
X141287500Y-115887500I0J793750D01*
G01*
X145256250Y-116681250D02*
G75*
G03*
X146050000Y-115887500I0J793750D01*
G01*
X140493750Y-114300000D02*
X143668750Y-114300000D01*
X142875000Y-115887500D02*
G75*
G03*
X143668750Y-116681250I793750J0D01*
G01*
X142875000Y-115093750D02*
X142875000Y-115887500D01*
X145256250Y-114300000D02*
X148431250Y-114300000D01*
X146050000Y-115093750D02*
X146050000Y-115887500D01*
X141287500Y-115093750D02*
G75*
G03*
X140493750Y-114300000I-793750J0D01*
G01*
X141287500Y-115093750D02*
X141287500Y-115887500D01*
X143668750Y-114300000D02*
G75*
G03*
X142875000Y-115093750I0J-793750D01*
G01*
X145256250Y-116681250D02*
X148431250Y-116681250D01*
X147637500Y-115887500D02*
G75*
G03*
X148431250Y-116681250I793750J0D01*
G01*
X146050000Y-115093750D02*
G75*
G03*
X145256250Y-114300000I-793750J0D01*
G01*
X140493750Y-116681250D02*
X143668750Y-116681250D01*
X147637500Y-115093750D02*
X147637500Y-115887500D01*
X148431250Y-114300000D02*
G75*
G03*
X147637500Y-115093750I0J-793750D01*
G01*
X159543750Y-114300000D02*
X162718750Y-114300000D01*
X164306250Y-116681250D02*
G75*
G03*
X165100000Y-115887500I0J793750D01*
G01*
X157956250Y-114300000D02*
G75*
G03*
X157162500Y-115093750I0J-793750D01*
G01*
X169068750Y-116681250D02*
G75*
G03*
X169862500Y-115887500I0J793750D01*
G01*
X164306250Y-114300000D02*
X167481250Y-114300000D01*
X150812500Y-115093750D02*
X150812500Y-115887500D01*
X150018750Y-116681250D02*
G75*
G03*
X150812500Y-115887500I0J793750D01*
G01*
X150812500Y-115093750D02*
G75*
G03*
X150018750Y-114300000I-793750J0D01*
G01*
X166687500Y-115887500D02*
G75*
G03*
X167481250Y-116681250I793750J0D01*
G01*
X160337500Y-115093750D02*
X160337500Y-115887500D01*
X150018750Y-114300000D02*
X153193750Y-114300000D01*
X153193750Y-114300000D02*
G75*
G03*
X152400000Y-115093750I0J-793750D01*
G01*
X160337500Y-115093750D02*
G75*
G03*
X159543750Y-114300000I-793750J0D01*
G01*
X166687500Y-115093750D02*
X166687500Y-115887500D01*
X169068750Y-114300000D02*
X172243750Y-114300000D01*
X154781250Y-116681250D02*
G75*
G03*
X155575000Y-115887500I0J793750D01*
G01*
X150018750Y-116681250D02*
X153193750Y-116681250D01*
X157162500Y-115887500D02*
G75*
G03*
X157956250Y-116681250I793750J0D01*
G01*
X162718750Y-114300000D02*
G75*
G03*
X161925000Y-115093750I0J-793750D01*
G01*
X159543750Y-116681250D02*
X162718750Y-116681250D01*
X157162500Y-115093750D02*
X157162500Y-115887500D01*
X169862500Y-115093750D02*
X169862500Y-115887500D01*
X165100000Y-115093750D02*
G75*
G03*
X164306250Y-114300000I-793750J0D01*
G01*
X165100000Y-115093750D02*
X165100000Y-115887500D01*
X152400000Y-115093750D02*
X152400000Y-115887500D01*
X167481250Y-114300000D02*
G75*
G03*
X166687500Y-115093750I0J-793750D01*
G01*
X159543750Y-116681250D02*
G75*
G03*
X160337500Y-115887500I0J793750D01*
G01*
X155575000Y-115093750D02*
G75*
G03*
X154781250Y-114300000I-793750J0D01*
G01*
X154781250Y-116681250D02*
X157956250Y-116681250D01*
X169068750Y-116681250D02*
X172243750Y-116681250D01*
X155575000Y-115093750D02*
X155575000Y-115887500D01*
X161925000Y-115887500D02*
G75*
G03*
X162718750Y-116681250I793750J0D01*
G01*
X161925000Y-115093750D02*
X161925000Y-115887500D01*
X171450000Y-115887500D02*
G75*
G03*
X172243750Y-116681250I793750J0D01*
G01*
X154781250Y-114300000D02*
X157956250Y-114300000D01*
X169862500Y-115093750D02*
G75*
G03*
X169068750Y-114300000I-793750J0D01*
G01*
X164306250Y-116681250D02*
X167481250Y-116681250D01*
X152400000Y-115887500D02*
G75*
G03*
X153193750Y-116681250I793750J0D01*
G01*
X171450000Y-115093750D02*
X171450000Y-115887500D01*
X172243750Y-114300000D02*
G75*
G03*
X171450000Y-115093750I0J-793750D01*
G01*
X175418750Y-116681250D02*
G75*
G02*
X174625000Y-115887500I0J793750D01*
G01*
X173831250Y-114300000D02*
G75*
G03*
X174625000Y-113506250I0J793750D01*
G01*
X173831250Y-116681250D02*
G75*
G03*
X174625000Y-115887500I0J793750D01*
G01*
X174625000Y-115093750D02*
G75*
G03*
X173831250Y-114300000I-793750J0D01*
G01*
X173831250Y-116681250D02*
X175418750Y-116681250D01*
X174625000Y-113506250D02*
X174625000Y-115093750D01*
X174625000Y-108743750D02*
G75*
G03*
X173831250Y-107950000I-793750J0D01*
G01*
X174625000Y-111918750D02*
G75*
G03*
X173831250Y-111125000I-793750J0D01*
G01*
X173831250Y-111125000D02*
G75*
G03*
X174625000Y-110331250I0J793750D01*
G01*
X173831250Y-107950000D02*
G75*
G03*
X174625000Y-107156250I0J793750D01*
G01*
X174625000Y-108743750D02*
X174625000Y-107156250D01*
X174625000Y-111918750D02*
X174625000Y-110331250D01*
X180975000Y-115887500D02*
G75*
G03*
X181768750Y-116681250I793750J0D01*
G01*
X179387500Y-115093750D02*
X179387500Y-115887500D01*
X178593750Y-114300000D02*
X181768750Y-114300000D01*
X178593750Y-116681250D02*
X181768750Y-116681250D01*
X178593750Y-116681250D02*
G75*
G03*
X179387500Y-115887500I0J793750D01*
G01*
X179387500Y-115093750D02*
G75*
G03*
X178593750Y-114300000I-793750J0D01*
G01*
X181768750Y-114300000D02*
G75*
G03*
X180975000Y-115093750I0J-793750D01*
G01*
X185737500Y-115887500D02*
G75*
G03*
X186531250Y-116681250I793750J0D01*
G01*
X184150000Y-115093750D02*
X184150000Y-115887500D01*
X184150000Y-115093750D02*
G75*
G03*
X183356250Y-114300000I-793750J0D01*
G01*
X183356250Y-114300000D02*
X186531250Y-114300000D01*
X183356250Y-116681250D02*
G75*
G03*
X184150000Y-115887500I0J793750D01*
G01*
X183356250Y-116681250D02*
X186531250Y-116681250D01*
X190500000Y-115887500D02*
G75*
G03*
X191293750Y-116681250I793750J0D01*
G01*
X188912500Y-115093750D02*
X188912500Y-115887500D01*
X188118750Y-116681250D02*
G75*
G03*
X188912500Y-115887500I0J793750D01*
G01*
X191293750Y-114300000D02*
G75*
G03*
X190500000Y-115093750I0J-793750D01*
G01*
X188912500Y-115093750D02*
G75*
G03*
X188118750Y-114300000I-793750J0D01*
G01*
X188118750Y-116681250D02*
X191293750Y-116681250D01*
X190500000Y-115093750D02*
X190500000Y-115887500D01*
X180975000Y-115093750D02*
X180975000Y-115887500D01*
X188118750Y-114300000D02*
X191293750Y-114300000D01*
X186531250Y-114300000D02*
G75*
G03*
X185737500Y-115093750I0J-793750D01*
G01*
X185737500Y-115093750D02*
X185737500Y-115887500D01*
X193675000Y-115093750D02*
X193675000Y-115887500D01*
X200025000Y-115887500D02*
G75*
G03*
X200818750Y-116681250I793750J0D01*
G01*
X196056250Y-114300000D02*
G75*
G03*
X195262500Y-115093750I0J-793750D01*
G01*
X192881250Y-116681250D02*
G75*
G03*
X193675000Y-115887500I0J793750D01*
G01*
X192881250Y-114300000D02*
X196056250Y-114300000D01*
X198437500Y-115093750D02*
X198437500Y-115887500D01*
X193675000Y-115093750D02*
G75*
G03*
X192881250Y-114300000I-793750J0D01*
G01*
X192881250Y-116681250D02*
X196056250Y-116681250D01*
X195262500Y-115093750D02*
X195262500Y-115887500D01*
X195262500Y-115887500D02*
G75*
G03*
X196056250Y-116681250I793750J0D01*
G01*
X197643750Y-114300000D02*
X200818750Y-114300000D01*
X197643750Y-116681250D02*
X200818750Y-116681250D01*
X197643750Y-116681250D02*
G75*
G03*
X198437500Y-115887500I0J793750D01*
G01*
X198437500Y-115093750D02*
G75*
G03*
X197643750Y-114300000I-793750J0D01*
G01*
X200818750Y-114300000D02*
G75*
G03*
X200025000Y-115093750I0J-793750D01*
G01*
X204787500Y-115887500D02*
G75*
G03*
X205581250Y-116681250I793750J0D01*
G01*
X203200000Y-115093750D02*
X203200000Y-115887500D01*
X203200000Y-115093750D02*
G75*
G03*
X202406250Y-114300000I-793750J0D01*
G01*
X202406250Y-114300000D02*
X205581250Y-114300000D01*
X202406250Y-116681250D02*
G75*
G03*
X203200000Y-115887500I0J793750D01*
G01*
X202406250Y-116681250D02*
X205581250Y-116681250D01*
X209550000Y-115887500D02*
G75*
G03*
X210343750Y-116681250I793750J0D01*
G01*
X207962500Y-115093750D02*
X207962500Y-115887500D01*
X207168750Y-116681250D02*
G75*
G03*
X207962500Y-115887500I0J793750D01*
G01*
X210343750Y-114300000D02*
G75*
G03*
X209550000Y-115093750I0J-793750D01*
G01*
X207962500Y-115093750D02*
G75*
G03*
X207168750Y-114300000I-793750J0D01*
G01*
X207168750Y-116681250D02*
X210343750Y-116681250D01*
X209550000Y-115093750D02*
X209550000Y-115887500D01*
X200025000Y-115093750D02*
X200025000Y-115887500D01*
X207168750Y-114300000D02*
X210343750Y-114300000D01*
X205581250Y-114300000D02*
G75*
G03*
X204787500Y-115093750I0J-793750D01*
G01*
X204787500Y-115093750D02*
X204787500Y-115887500D01*
X212725000Y-115093750D02*
X212725000Y-115887500D01*
X219075000Y-115887500D02*
G75*
G03*
X219868750Y-116681250I793750J0D01*
G01*
X215106250Y-114300000D02*
G75*
G03*
X214312500Y-115093750I0J-793750D01*
G01*
X211931250Y-116681250D02*
G75*
G03*
X212725000Y-115887500I0J793750D01*
G01*
X211931250Y-114300000D02*
X215106250Y-114300000D01*
X217487500Y-115093750D02*
X217487500Y-115887500D01*
X212725000Y-115093750D02*
G75*
G03*
X211931250Y-114300000I-793750J0D01*
G01*
X211931250Y-116681250D02*
X215106250Y-116681250D01*
X214312500Y-115093750D02*
X214312500Y-115887500D01*
X214312500Y-115887500D02*
G75*
G03*
X215106250Y-116681250I793750J0D01*
G01*
X216693750Y-114300000D02*
X219868750Y-114300000D01*
X216693750Y-116681250D02*
X219868750Y-116681250D01*
X216693750Y-116681250D02*
G75*
G03*
X217487500Y-115887500I0J793750D01*
G01*
X217487500Y-115093750D02*
G75*
G03*
X216693750Y-114300000I-793750J0D01*
G01*
X219868750Y-114300000D02*
G75*
G03*
X219075000Y-115093750I0J-793750D01*
G01*
X223837500Y-115887500D02*
G75*
G03*
X224631250Y-116681250I793750J0D01*
G01*
X222250000Y-115093750D02*
X222250000Y-115887500D01*
X222250000Y-115093750D02*
G75*
G03*
X221456250Y-114300000I-793750J0D01*
G01*
X221456250Y-114300000D02*
X224631250Y-114300000D01*
X221456250Y-116681250D02*
G75*
G03*
X222250000Y-115887500I0J793750D01*
G01*
X221456250Y-116681250D02*
X224631250Y-116681250D01*
X228600000Y-115887500D02*
G75*
G03*
X229393750Y-116681250I793750J0D01*
G01*
X227012500Y-115093750D02*
X227012500Y-115887500D01*
X226218750Y-116681250D02*
G75*
G03*
X227012500Y-115887500I0J793750D01*
G01*
X229393750Y-114300000D02*
G75*
G03*
X228600000Y-115093750I0J-793750D01*
G01*
X227012500Y-115093750D02*
G75*
G03*
X226218750Y-114300000I-793750J0D01*
G01*
X226218750Y-116681250D02*
X229393750Y-116681250D01*
X228600000Y-115093750D02*
X228600000Y-115887500D01*
X219075000Y-115093750D02*
X219075000Y-115887500D01*
X226218750Y-114300000D02*
X229393750Y-114300000D01*
X224631250Y-114300000D02*
G75*
G03*
X223837500Y-115093750I0J-793750D01*
G01*
X223837500Y-115093750D02*
X223837500Y-115887500D01*
X231775000Y-115093750D02*
X231775000Y-115887500D01*
X238125000Y-115887500D02*
G75*
G03*
X238918750Y-116681250I793750J0D01*
G01*
X234156250Y-114300000D02*
G75*
G03*
X233362500Y-115093750I0J-793750D01*
G01*
X230981250Y-116681250D02*
G75*
G03*
X231775000Y-115887500I0J793750D01*
G01*
X230981250Y-114300000D02*
X234156250Y-114300000D01*
X236537500Y-115093750D02*
X236537500Y-115887500D01*
X231775000Y-115093750D02*
G75*
G03*
X230981250Y-114300000I-793750J0D01*
G01*
X230981250Y-116681250D02*
X234156250Y-116681250D01*
X233362500Y-115093750D02*
X233362500Y-115887500D01*
X233362500Y-115887500D02*
G75*
G03*
X234156250Y-116681250I793750J0D01*
G01*
X235743750Y-114300000D02*
X238918750Y-114300000D01*
X235743750Y-116681250D02*
X238918750Y-116681250D01*
X235743750Y-116681250D02*
G75*
G03*
X236537500Y-115887500I0J793750D01*
G01*
X236537500Y-115093750D02*
G75*
G03*
X235743750Y-114300000I-793750J0D01*
G01*
X238918750Y-114300000D02*
G75*
G03*
X238125000Y-115093750I0J-793750D01*
G01*
X242887500Y-115887500D02*
G75*
G03*
X243681250Y-116681250I793750J0D01*
G01*
X241300000Y-115093750D02*
X241300000Y-115887500D01*
X241300000Y-115093750D02*
G75*
G03*
X240506250Y-114300000I-793750J0D01*
G01*
X240506250Y-114300000D02*
X243681250Y-114300000D01*
X240506250Y-116681250D02*
G75*
G03*
X241300000Y-115887500I0J793750D01*
G01*
X240506250Y-116681250D02*
X243681250Y-116681250D01*
X247650000Y-115887500D02*
G75*
G03*
X248443750Y-116681250I793750J0D01*
G01*
X246062500Y-115093750D02*
X246062500Y-115887500D01*
X245268750Y-116681250D02*
G75*
G03*
X246062500Y-115887500I0J793750D01*
G01*
X248443750Y-114300000D02*
G75*
G03*
X247650000Y-115093750I0J-793750D01*
G01*
X246062500Y-115093750D02*
G75*
G03*
X245268750Y-114300000I-793750J0D01*
G01*
X245268750Y-116681250D02*
X248443750Y-116681250D01*
X247650000Y-115093750D02*
X247650000Y-115887500D01*
X238125000Y-115093750D02*
X238125000Y-115887500D01*
X245268750Y-114300000D02*
X248443750Y-114300000D01*
X243681250Y-114300000D02*
G75*
G03*
X242887500Y-115093750I0J-793750D01*
G01*
X242887500Y-115093750D02*
X242887500Y-115887500D01*
X250825000Y-115093750D02*
X250825000Y-115887500D01*
X257175000Y-115887500D02*
G75*
G03*
X257968750Y-116681250I793750J0D01*
G01*
X253206250Y-114300000D02*
G75*
G03*
X252412500Y-115093750I0J-793750D01*
G01*
X250031250Y-116681250D02*
G75*
G03*
X250825000Y-115887500I0J793750D01*
G01*
X250031250Y-114300000D02*
X253206250Y-114300000D01*
X255587500Y-115093750D02*
X255587500Y-115887500D01*
X250825000Y-115093750D02*
G75*
G03*
X250031250Y-114300000I-793750J0D01*
G01*
X250031250Y-116681250D02*
X253206250Y-116681250D01*
X252412500Y-115093750D02*
X252412500Y-115887500D01*
X252412500Y-115887500D02*
G75*
G03*
X253206250Y-116681250I793750J0D01*
G01*
X254793750Y-114300000D02*
X257968750Y-114300000D01*
X254793750Y-116681250D02*
X257968750Y-116681250D01*
X254793750Y-116681250D02*
G75*
G03*
X255587500Y-115887500I0J793750D01*
G01*
X255587500Y-115093750D02*
G75*
G03*
X254793750Y-114300000I-793750J0D01*
G01*
X257968750Y-114300000D02*
G75*
G03*
X257175000Y-115093750I0J-793750D01*
G01*
X261937500Y-115887500D02*
G75*
G03*
X262731250Y-116681250I793750J0D01*
G01*
X260350000Y-115093750D02*
X260350000Y-115887500D01*
X260350000Y-115093750D02*
G75*
G03*
X259556250Y-114300000I-793750J0D01*
G01*
X259556250Y-114300000D02*
X262731250Y-114300000D01*
X259556250Y-116681250D02*
G75*
G03*
X260350000Y-115887500I0J793750D01*
G01*
X259556250Y-116681250D02*
X262731250Y-116681250D01*
X266700000Y-115887500D02*
G75*
G03*
X267493750Y-116681250I793750J0D01*
G01*
X265112500Y-115093750D02*
X265112500Y-115887500D01*
X264318750Y-116681250D02*
G75*
G03*
X265112500Y-115887500I0J793750D01*
G01*
X267493750Y-114300000D02*
G75*
G03*
X266700000Y-115093750I0J-793750D01*
G01*
X265112500Y-115093750D02*
G75*
G03*
X264318750Y-114300000I-793750J0D01*
G01*
X264318750Y-116681250D02*
X267493750Y-116681250D01*
X266700000Y-115093750D02*
X266700000Y-115887500D01*
X257175000Y-115093750D02*
X257175000Y-115887500D01*
X264318750Y-114300000D02*
X267493750Y-114300000D01*
X262731250Y-114300000D02*
G75*
G03*
X261937500Y-115093750I0J-793750D01*
G01*
X261937500Y-115093750D02*
X261937500Y-115887500D01*
X288131250Y-116681250D02*
X289718750Y-116681250D01*
X289718750Y-116681250D02*
G75*
G02*
X288925000Y-115887500I0J793750D01*
G01*
X288925000Y-108743750D02*
X288925000Y-107156250D01*
X288925000Y-111918750D02*
X288925000Y-110331250D01*
X288925000Y-113506250D02*
X288925000Y-115093750D01*
X288131250Y-107950000D02*
G75*
G03*
X288925000Y-107156250I0J793750D01*
G01*
X296862500Y-106362500D02*
X43656250Y-106362500D01*
X271462500Y-115887500D02*
G75*
G03*
X272256250Y-116681250I793750J0D01*
G01*
X269875000Y-115093750D02*
X269875000Y-115887500D01*
X272256250Y-114300000D02*
G75*
G03*
X271462500Y-115093750I0J-793750D01*
G01*
X269081250Y-116681250D02*
G75*
G03*
X269875000Y-115887500I0J793750D01*
G01*
X269875000Y-115093750D02*
G75*
G03*
X269081250Y-114300000I-793750J0D01*
G01*
X269081250Y-116681250D02*
X272256250Y-116681250D01*
X269081250Y-114300000D02*
X272256250Y-114300000D01*
X271462500Y-115093750D02*
X271462500Y-115887500D01*
X276225000Y-115887500D02*
G75*
G03*
X277018750Y-116681250I793750J0D01*
G01*
X274637500Y-115093750D02*
X274637500Y-115887500D01*
X277018750Y-114300000D02*
G75*
G03*
X276225000Y-115093750I0J-793750D01*
G01*
X273843750Y-116681250D02*
G75*
G03*
X274637500Y-115887500I0J793750D01*
G01*
X274637500Y-115093750D02*
G75*
G03*
X273843750Y-114300000I-793750J0D01*
G01*
X273843750Y-116681250D02*
X277018750Y-116681250D01*
X273843750Y-114300000D02*
X277018750Y-114300000D01*
X276225000Y-115093750D02*
X276225000Y-115887500D01*
X280987500Y-115887500D02*
G75*
G03*
X281781250Y-116681250I793750J0D01*
G01*
X279400000Y-115093750D02*
X279400000Y-115887500D01*
X281781250Y-114300000D02*
G75*
G03*
X280987500Y-115093750I0J-793750D01*
G01*
X278606250Y-116681250D02*
G75*
G03*
X279400000Y-115887500I0J793750D01*
G01*
X279400000Y-115093750D02*
G75*
G03*
X278606250Y-114300000I-793750J0D01*
G01*
X278606250Y-116681250D02*
X281781250Y-116681250D01*
X278606250Y-114300000D02*
X281781250Y-114300000D01*
X280987500Y-115093750D02*
X280987500Y-115887500D01*
X285750000Y-115887500D02*
G75*
G03*
X286543750Y-116681250I793750J0D01*
G01*
X284162500Y-115093750D02*
X284162500Y-115887500D01*
X286543750Y-114300000D02*
G75*
G03*
X285750000Y-115093750I0J-793750D01*
G01*
X283368750Y-116681250D02*
G75*
G03*
X284162500Y-115887500I0J793750D01*
G01*
X284162500Y-115093750D02*
G75*
G03*
X283368750Y-114300000I-793750J0D01*
G01*
X283368750Y-116681250D02*
X286543750Y-116681250D01*
X283368750Y-114300000D02*
X286543750Y-114300000D01*
X285750000Y-115093750D02*
X285750000Y-115887500D01*
X306387500Y-114300000D02*
X305593750Y-114300000D01*
X306387500Y-115093750D02*
X306387500Y-115887500D01*
X306387500Y-115093750D02*
G75*
G03*
X305593750Y-114300000I-793750J0D01*
G01*
X305593750Y-116681250D02*
G75*
G03*
X306387500Y-115887500I0J793750D01*
G01*
X313531250Y-107950000D02*
X315912500Y-107950000D01*
X315912500Y-107950000D02*
G75*
G03*
X315118750Y-108743750I0J-793750D01*
G01*
X315118750Y-115887500D02*
X315118750Y-108743750D01*
X315118750Y-115887500D02*
G75*
G03*
X315912500Y-116681250I793750J0D01*
G01*
X305593750Y-116681250D02*
X315912500Y-116681250D01*
X288925000Y-108743750D02*
G75*
G03*
X288131250Y-107950000I-793750J0D01*
G01*
X288925000Y-111918750D02*
G75*
G03*
X288131250Y-111125000I-793750J0D01*
G01*
X288131250Y-111125000D02*
G75*
G03*
X288925000Y-110331250I0J793750D01*
G01*
X288925000Y-115093750D02*
G75*
G03*
X288131250Y-114300000I-793750J0D01*
G01*
X288131250Y-114300000D02*
G75*
G03*
X288925000Y-113506250I0J793750D01*
G01*
X288131250Y-116681250D02*
G75*
G03*
X288925000Y-115887500I0J793750D01*
G01*
X310356250Y-106362500D02*
G75*
G03*
X311150000Y-105568750I0J793750D01*
G01*
X308768750Y-105568750D02*
G75*
G03*
X309562500Y-106362500I793750J0D01*
G01*
X310356250Y-106362500D02*
X309562500Y-106362500D01*
X309562500Y-102393750D02*
G75*
G03*
X308768750Y-103187500I0J-793750D01*
G01*
X309562500Y-100806250D02*
X310356250Y-100806250D01*
X311150000Y-100012500D02*
X311150000Y-103187500D01*
X311150000Y-103187500D02*
G75*
G03*
X310356250Y-102393750I-793750J0D01*
G01*
X308768750Y-100012500D02*
X308768750Y-103187500D01*
X310356250Y-100806250D02*
G75*
G03*
X311150000Y-100012500I0J793750D01*
G01*
X309562500Y-102393750D02*
X310356250Y-102393750D01*
X308768750Y-100012500D02*
G75*
G03*
X309562500Y-100806250I793750J0D01*
G01*
X309562500Y-97631250D02*
G75*
G03*
X308768750Y-98425000I0J-793750D01*
G01*
X309562500Y-96043750D02*
X310356250Y-96043750D01*
X311150000Y-95250000D02*
X311150000Y-98425000D01*
X311150000Y-98425000D02*
G75*
G03*
X310356250Y-97631250I-793750J0D01*
G01*
X308768750Y-95250000D02*
X308768750Y-98425000D01*
X310356250Y-96043750D02*
G75*
G03*
X311150000Y-95250000I0J793750D01*
G01*
X309562500Y-97631250D02*
X310356250Y-97631250D01*
X308768750Y-95250000D02*
G75*
G03*
X309562500Y-96043750I793750J0D01*
G01*
X361950000Y-108743750D02*
G75*
G03*
X361156250Y-107950000I-793750J0D01*
G01*
X361950000Y-108743750D02*
X361950000Y-115887500D01*
X361156250Y-116681250D02*
G75*
G03*
X361950000Y-115887500I0J793750D01*
G01*
X355600000Y-116681250D02*
X358775000Y-116681250D01*
X355600000Y-116681250D02*
G75*
G03*
X356393750Y-115887500I0J793750D01*
G01*
X356393750Y-108743750D02*
G75*
G03*
X355600000Y-107950000I-793750J0D01*
G01*
X357981250Y-115887500D02*
X357981250Y-108743750D01*
X357981250Y-115887500D02*
G75*
G03*
X358775000Y-116681250I793750J0D01*
G01*
X358775000Y-107950000D02*
X355600000Y-107950000D01*
X356393750Y-108743750D02*
X356393750Y-115887500D01*
X358775000Y-107950000D02*
G75*
G03*
X357981250Y-108743750I0J-793750D01*
G01*
X350837500Y-116681250D02*
X354012500Y-116681250D01*
X350837500Y-116681250D02*
G75*
G03*
X351631250Y-115887500I0J793750D01*
G01*
X351631250Y-108743750D02*
G75*
G03*
X350837500Y-107950000I-793750J0D01*
G01*
X353218750Y-115887500D02*
X353218750Y-108743750D01*
X353218750Y-115887500D02*
G75*
G03*
X354012500Y-116681250I793750J0D01*
G01*
X354012500Y-107950000D02*
X350837500Y-107950000D01*
X351631250Y-108743750D02*
X351631250Y-115887500D01*
X354012500Y-107950000D02*
G75*
G03*
X353218750Y-108743750I0J-793750D01*
G01*
X346075000Y-116681250D02*
X349250000Y-116681250D01*
X346075000Y-116681250D02*
G75*
G03*
X346868750Y-115887500I0J793750D01*
G01*
X346868750Y-108743750D02*
G75*
G03*
X346075000Y-107950000I-793750J0D01*
G01*
X348456250Y-115887500D02*
X348456250Y-108743750D01*
X348456250Y-115887500D02*
G75*
G03*
X349250000Y-116681250I793750J0D01*
G01*
X349250000Y-107950000D02*
X346075000Y-107950000D01*
X346868750Y-108743750D02*
X346868750Y-115887500D01*
X349250000Y-107950000D02*
G75*
G03*
X348456250Y-108743750I0J-793750D01*
G01*
X341312500Y-116681250D02*
X344487500Y-116681250D01*
X341312500Y-116681250D02*
G75*
G03*
X342106250Y-115887500I0J793750D01*
G01*
X342106250Y-108743750D02*
G75*
G03*
X341312500Y-107950000I-793750J0D01*
G01*
X343693750Y-115887500D02*
X343693750Y-108743750D01*
X343693750Y-115887500D02*
G75*
G03*
X344487500Y-116681250I793750J0D01*
G01*
X344487500Y-107950000D02*
X341312500Y-107950000D01*
X342106250Y-108743750D02*
X342106250Y-115887500D01*
X344487500Y-107950000D02*
G75*
G03*
X343693750Y-108743750I0J-793750D01*
G01*
X336550000Y-116681250D02*
X339725000Y-116681250D01*
X336550000Y-116681250D02*
G75*
G03*
X337343750Y-115887500I0J793750D01*
G01*
X337343750Y-108743750D02*
G75*
G03*
X336550000Y-107950000I-793750J0D01*
G01*
X338931250Y-115887500D02*
X338931250Y-108743750D01*
X338931250Y-115887500D02*
G75*
G03*
X339725000Y-116681250I793750J0D01*
G01*
X339725000Y-107950000D02*
X336550000Y-107950000D01*
X337343750Y-108743750D02*
X337343750Y-115887500D01*
X339725000Y-107950000D02*
G75*
G03*
X338931250Y-108743750I0J-793750D01*
G01*
X331787500Y-116681250D02*
X334962500Y-116681250D01*
X331787500Y-116681250D02*
G75*
G03*
X332581250Y-115887500I0J793750D01*
G01*
X332581250Y-108743750D02*
G75*
G03*
X331787500Y-107950000I-793750J0D01*
G01*
X334168750Y-115887500D02*
X334168750Y-108743750D01*
X334168750Y-115887500D02*
G75*
G03*
X334962500Y-116681250I793750J0D01*
G01*
X334962500Y-107950000D02*
X331787500Y-107950000D01*
X332581250Y-108743750D02*
X332581250Y-115887500D01*
X334962500Y-107950000D02*
G75*
G03*
X334168750Y-108743750I0J-793750D01*
G01*
X330200000Y-116681250D02*
G75*
G02*
X329406250Y-115887500I0J793750D01*
G01*
X327025000Y-116681250D02*
X330200000Y-116681250D01*
X327818750Y-115887500D02*
G75*
G02*
X327025000Y-116681250I-793750J0D01*
G01*
X328612500Y-114300000D02*
G75*
G03*
X327818750Y-115093750I0J-793750D01*
G01*
X327818750Y-115093750D02*
X327818750Y-115887500D01*
X329406250Y-115093750D02*
G75*
G03*
X328612500Y-114300000I-793750J0D01*
G01*
X329406250Y-115887500D02*
X329406250Y-115093750D01*
X325437500Y-116681250D02*
G75*
G02*
X324643750Y-115887500I0J793750D01*
G01*
X322262500Y-116681250D02*
X325437500Y-116681250D01*
X323056250Y-115887500D02*
G75*
G02*
X322262500Y-116681250I-793750J0D01*
G01*
X324643750Y-115093750D02*
G75*
G03*
X323850000Y-114300000I-793750J0D01*
G01*
X323056250Y-115093750D02*
X323056250Y-115887500D01*
X323850000Y-114300000D02*
G75*
G03*
X323056250Y-115093750I0J-793750D01*
G01*
X324643750Y-115887500D02*
X324643750Y-115093750D01*
X318293750Y-108743750D02*
X318293750Y-115887500D01*
X320675000Y-107950000D02*
G75*
G03*
X319881250Y-108743750I0J-793750D01*
G01*
X320675000Y-107950000D02*
X317500000Y-107950000D01*
X319881250Y-115887500D02*
G75*
G03*
X320675000Y-116681250I793750J0D01*
G01*
X319881250Y-115887500D02*
X319881250Y-108743750D01*
X318293750Y-108743750D02*
G75*
G03*
X317500000Y-107950000I-793750J0D01*
G01*
X317500000Y-116681250D02*
G75*
G03*
X318293750Y-115887500I0J793750D01*
G01*
X317500000Y-116681250D02*
X320675000Y-116681250D01*
X299243750Y-88106250D02*
G75*
G02*
X301625000Y-85725000I2381250J0D01*
G01*
X328612500Y-110331250D02*
G75*
G02*
X327818750Y-109537500I0J793750D01*
G01*
X329406250Y-109537500D02*
G75*
G02*
X328612500Y-110331250I-793750J0D01*
G01*
X323850000Y-110331250D02*
G75*
G02*
X323056250Y-109537500I0J793750D01*
G01*
X324643750Y-109537500D02*
G75*
G02*
X323850000Y-110331250I-793750J0D01*
G01*
X308768750Y-90487500D02*
G75*
G03*
X309562500Y-91281250I793750J0D01*
G01*
X309562500Y-91281250D02*
X310356250Y-91281250D01*
X308768750Y-90487500D02*
X308768750Y-93662500D01*
X310356250Y-91281250D02*
G75*
G03*
X311150000Y-90487500I0J793750D01*
G01*
X309562500Y-92868750D02*
G75*
G03*
X308768750Y-93662500I0J-793750D01*
G01*
X311150000Y-90487500D02*
X311150000Y-93662500D01*
X309562500Y-92868750D02*
X310356250Y-92868750D01*
X311150000Y-93662500D02*
G75*
G03*
X310356250Y-92868750I-793750J0D01*
G01*
X311150000Y-88106250D02*
G75*
G03*
X310356250Y-87312500I-793750J0D01*
G01*
X310356250Y-87312500D02*
X309562500Y-87312500D01*
X309562500Y-87312500D02*
G75*
G03*
X308768750Y-88106250I0J-793750D01*
G01*
X323056250Y-108743750D02*
X323056250Y-109537500D01*
X324643750Y-109537500D02*
X324643750Y-108743750D01*
X325437500Y-107950000D02*
G75*
G03*
X324643750Y-108743750I0J-793750D01*
G01*
X325437500Y-107950000D02*
X322262500Y-107950000D01*
X323056250Y-108743750D02*
G75*
G03*
X322262500Y-107950000I-793750J0D01*
G01*
X327818750Y-108743750D02*
X327818750Y-109537500D01*
X329406250Y-109537500D02*
X329406250Y-108743750D01*
X330200000Y-107950000D02*
G75*
G03*
X329406250Y-108743750I0J-793750D01*
G01*
X330200000Y-107950000D02*
X327025000Y-107950000D01*
X327818750Y-108743750D02*
G75*
G03*
X327025000Y-107950000I-793750J0D01*
G01*
X296862500Y-106362500D02*
G75*
G03*
X299243750Y-103981250I0J2381250D01*
G01*
X306387500Y-85725000D02*
X301625000Y-85725000D01*
X41275000Y-111918750D02*
X41275000Y-108743750D01*
X365125000Y-105568750D02*
X365125000Y-88106250D01*
X365125000Y-228600000D02*
X365125000Y-119062500D01*
X362743750Y-85725000D02*
X313531250Y-85725000D01*
X365125000Y-88106250D02*
G75*
G03*
X362743750Y-85725000I-2381250J0D01*
G01*
X365125000Y-119062500D02*
G75*
G03*
X362743750Y-116681250I-2381250J0D01*
G01*
X41275000Y-228600000D02*
X41275000Y-119062500D01*
X299243750Y-88106250D02*
X299243750Y-103981250D01*
X362743750Y-107950000D02*
G75*
G03*
X365125000Y-105568750I0J2381250D01*
G01*
X43656250Y-106362500D02*
G75*
G03*
X41275000Y-108743750I0J-2381250D01*
G01*
X41275000Y-111918750D02*
G75*
G03*
X43656250Y-114300000I2381250J0D01*
G01*
X308768750Y-88106250D02*
G75*
G03*
X306387500Y-85725000I-2381250J0D01*
G01*
X306387500Y-114300000D02*
G75*
G03*
X308768750Y-111918750I0J2381250D01*
G01*
X362743750Y-107950000D02*
X361156250Y-107950000D01*
X293687500Y-115093750D02*
X293687500Y-115887500D01*
X291306250Y-114300000D02*
X294481250Y-114300000D01*
X362743750Y-116681250D02*
X361156250Y-116681250D01*
X303212500Y-115093750D02*
X303212500Y-115887500D01*
X296862500Y-115093750D02*
X296862500Y-115887500D01*
X300831250Y-114300000D02*
X304006250Y-114300000D01*
X292100000Y-115093750D02*
G75*
G03*
X291306250Y-114300000I-793750J0D01*
G01*
X291306250Y-116681250D02*
X294481250Y-116681250D01*
X303212500Y-115887500D02*
G75*
G03*
X304006250Y-116681250I793750J0D01*
G01*
X301625000Y-115093750D02*
G75*
G03*
X300831250Y-114300000I-793750J0D01*
G01*
X298450000Y-115887500D02*
G75*
G03*
X299243750Y-116681250I793750J0D01*
G01*
X300831250Y-116681250D02*
G75*
G03*
X301625000Y-115887500I0J793750D01*
G01*
X296068750Y-114300000D02*
X299243750Y-114300000D01*
X304006250Y-114300000D02*
G75*
G03*
X303212500Y-115093750I0J-793750D01*
G01*
X311150000Y-105568750D02*
G75*
G03*
X313531250Y-107950000I2381250J0D01*
G01*
X308768750Y-105568750D02*
X308768750Y-111918750D01*
X313531250Y-85725000D02*
G75*
G03*
X311150000Y-88106250I0J-2381250D01*
G01*
X293687500Y-115887500D02*
G75*
G03*
X294481250Y-116681250I793750J0D01*
G01*
X296068750Y-116681250D02*
X299243750Y-116681250D01*
X300831250Y-116681250D02*
X304006250Y-116681250D01*
X298450000Y-115093750D02*
X298450000Y-115887500D01*
X292100000Y-115093750D02*
X292100000Y-115887500D01*
X291306250Y-116681250D02*
G75*
G03*
X292100000Y-115887500I0J793750D01*
G01*
X296862500Y-115093750D02*
G75*
G03*
X296068750Y-114300000I-793750J0D01*
G01*
X43656250Y-230981250D02*
X362743750Y-230981250D01*
X299243750Y-114300000D02*
G75*
G03*
X298450000Y-115093750I0J-793750D01*
G01*
X41275000Y-228600000D02*
G75*
G03*
X43656250Y-230981250I2381250J0D01*
G01*
X362743750Y-230981250D02*
G75*
G03*
X365125000Y-228600000I0J2381250D01*
G01*
X294481250Y-114300000D02*
G75*
G03*
X293687500Y-115093750I0J-793750D01*
G01*
X296068750Y-116681250D02*
G75*
G03*
X296862500Y-115887500I0J793750D01*
G01*
X301625000Y-115093750D02*
X301625000Y-115887500D01*
X43656250Y-116681250D02*
G75*
G03*
X41275000Y-119062500I0J-2381250D01*
G01*
M02*
