G04 #@! TF.GenerationSoftware,KiCad,Pcbnew,(5.1.10)-1*
G04 #@! TF.CreationDate,2021-12-08T12:26:08-03:00*
G04 #@! TF.ProjectId,Poto-Rev2,506f746f-2d52-4657-9632-2e6b69636164,C3*
G04 #@! TF.SameCoordinates,Original*
G04 #@! TF.FileFunction,Paste,Bot*
G04 #@! TF.FilePolarity,Positive*
%FSLAX46Y46*%
G04 Gerber Fmt 4.6, Leading zero omitted, Abs format (unit mm)*
G04 Created by KiCad (PCBNEW (5.1.10)-1) date 2021-12-08 12:26:08*
%MOMM*%
%LPD*%
G01*
G04 APERTURE LIST*
%ADD10R,1.800000X1.100000*%
%ADD11R,2.550000X2.500000*%
%ADD12R,0.900000X0.800000*%
%ADD13R,1.200000X0.900000*%
%ADD14R,1.200000X1.800000*%
%ADD15R,0.600000X1.550000*%
%ADD16R,1.550000X0.600000*%
%ADD17R,1.800000X1.200000*%
%ADD18R,0.250000X0.550000*%
%ADD19R,0.300000X0.550000*%
%ADD20R,2.100000X1.800000*%
G04 APERTURE END LIST*
G36*
G01*
X348095000Y-117848000D02*
X346595000Y-117848000D01*
G75*
G02*
X346345000Y-117598000I0J250000D01*
G01*
X346345000Y-117098000D01*
G75*
G02*
X346595000Y-116848000I250000J0D01*
G01*
X348095000Y-116848000D01*
G75*
G02*
X348345000Y-117098000I0J-250000D01*
G01*
X348345000Y-117598000D01*
G75*
G02*
X348095000Y-117848000I-250000J0D01*
G01*
G37*
G36*
G01*
X116340000Y-118733000D02*
X116340000Y-117233000D01*
G75*
G02*
X116590000Y-116983000I250000J0D01*
G01*
X117090000Y-116983000D01*
G75*
G02*
X117340000Y-117233000I0J-250000D01*
G01*
X117340000Y-118733000D01*
G75*
G02*
X117090000Y-118983000I-250000J0D01*
G01*
X116590000Y-118983000D01*
G75*
G02*
X116340000Y-118733000I0J250000D01*
G01*
G37*
G36*
G01*
X78240000Y-118733000D02*
X78240000Y-117233000D01*
G75*
G02*
X78490000Y-116983000I250000J0D01*
G01*
X78990000Y-116983000D01*
G75*
G02*
X79240000Y-117233000I0J-250000D01*
G01*
X79240000Y-118733000D01*
G75*
G02*
X78990000Y-118983000I-250000J0D01*
G01*
X78490000Y-118983000D01*
G75*
G02*
X78240000Y-118733000I0J250000D01*
G01*
G37*
G36*
G01*
X361176000Y-228338000D02*
X359676000Y-228338000D01*
G75*
G02*
X359426000Y-228088000I0J250000D01*
G01*
X359426000Y-227588000D01*
G75*
G02*
X359676000Y-227338000I250000J0D01*
G01*
X361176000Y-227338000D01*
G75*
G02*
X361426000Y-227588000I0J-250000D01*
G01*
X361426000Y-228088000D01*
G75*
G02*
X361176000Y-228338000I-250000J0D01*
G01*
G37*
G36*
G01*
X360541000Y-211193000D02*
X359041000Y-211193000D01*
G75*
G02*
X358791000Y-210943000I0J250000D01*
G01*
X358791000Y-210443000D01*
G75*
G02*
X359041000Y-210193000I250000J0D01*
G01*
X360541000Y-210193000D01*
G75*
G02*
X360791000Y-210443000I0J-250000D01*
G01*
X360791000Y-210943000D01*
G75*
G02*
X360541000Y-211193000I-250000J0D01*
G01*
G37*
G36*
G01*
X361176000Y-190238000D02*
X359676000Y-190238000D01*
G75*
G02*
X359426000Y-189988000I0J250000D01*
G01*
X359426000Y-189488000D01*
G75*
G02*
X359676000Y-189238000I250000J0D01*
G01*
X361176000Y-189238000D01*
G75*
G02*
X361426000Y-189488000I0J-250000D01*
G01*
X361426000Y-189988000D01*
G75*
G02*
X361176000Y-190238000I-250000J0D01*
G01*
G37*
G36*
G01*
X360668000Y-173220000D02*
X359168000Y-173220000D01*
G75*
G02*
X358918000Y-172970000I0J250000D01*
G01*
X358918000Y-172470000D01*
G75*
G02*
X359168000Y-172220000I250000J0D01*
G01*
X360668000Y-172220000D01*
G75*
G02*
X360918000Y-172470000I0J-250000D01*
G01*
X360918000Y-172970000D01*
G75*
G02*
X360668000Y-173220000I-250000J0D01*
G01*
G37*
G36*
G01*
X360795000Y-152138000D02*
X359295000Y-152138000D01*
G75*
G02*
X359045000Y-151888000I0J250000D01*
G01*
X359045000Y-151388000D01*
G75*
G02*
X359295000Y-151138000I250000J0D01*
G01*
X360795000Y-151138000D01*
G75*
G02*
X361045000Y-151388000I0J-250000D01*
G01*
X361045000Y-151888000D01*
G75*
G02*
X360795000Y-152138000I-250000J0D01*
G01*
G37*
G36*
G01*
X360541000Y-135120000D02*
X359041000Y-135120000D01*
G75*
G02*
X358791000Y-134870000I0J250000D01*
G01*
X358791000Y-134370000D01*
G75*
G02*
X359041000Y-134120000I250000J0D01*
G01*
X360541000Y-134120000D01*
G75*
G02*
X360791000Y-134370000I0J-250000D01*
G01*
X360791000Y-134870000D01*
G75*
G02*
X360541000Y-135120000I-250000J0D01*
G01*
G37*
G36*
G01*
X135878000Y-118610000D02*
X134378000Y-118610000D01*
G75*
G02*
X134128000Y-118360000I0J250000D01*
G01*
X134128000Y-117860000D01*
G75*
G02*
X134378000Y-117610000I250000J0D01*
G01*
X135878000Y-117610000D01*
G75*
G02*
X136128000Y-117860000I0J-250000D01*
G01*
X136128000Y-118360000D01*
G75*
G02*
X135878000Y-118610000I-250000J0D01*
G01*
G37*
G36*
G01*
X153428000Y-117483000D02*
X154928000Y-117483000D01*
G75*
G02*
X155178000Y-117733000I0J-250000D01*
G01*
X155178000Y-118233000D01*
G75*
G02*
X154928000Y-118483000I-250000J0D01*
G01*
X153428000Y-118483000D01*
G75*
G02*
X153178000Y-118233000I0J250000D01*
G01*
X153178000Y-117733000D01*
G75*
G02*
X153428000Y-117483000I250000J0D01*
G01*
G37*
G36*
G01*
X173978000Y-118610000D02*
X172478000Y-118610000D01*
G75*
G02*
X172228000Y-118360000I0J250000D01*
G01*
X172228000Y-117860000D01*
G75*
G02*
X172478000Y-117610000I250000J0D01*
G01*
X173978000Y-117610000D01*
G75*
G02*
X174228000Y-117860000I0J-250000D01*
G01*
X174228000Y-118360000D01*
G75*
G02*
X173978000Y-118610000I-250000J0D01*
G01*
G37*
G36*
G01*
X193155000Y-118483000D02*
X191655000Y-118483000D01*
G75*
G02*
X191405000Y-118233000I0J250000D01*
G01*
X191405000Y-117733000D01*
G75*
G02*
X191655000Y-117483000I250000J0D01*
G01*
X193155000Y-117483000D01*
G75*
G02*
X193405000Y-117733000I0J-250000D01*
G01*
X193405000Y-118233000D01*
G75*
G02*
X193155000Y-118483000I-250000J0D01*
G01*
G37*
G36*
G01*
X212078000Y-118483000D02*
X210578000Y-118483000D01*
G75*
G02*
X210328000Y-118233000I0J250000D01*
G01*
X210328000Y-117733000D01*
G75*
G02*
X210578000Y-117483000I250000J0D01*
G01*
X212078000Y-117483000D01*
G75*
G02*
X212328000Y-117733000I0J-250000D01*
G01*
X212328000Y-118233000D01*
G75*
G02*
X212078000Y-118483000I-250000J0D01*
G01*
G37*
G36*
G01*
X231255000Y-118483000D02*
X229755000Y-118483000D01*
G75*
G02*
X229505000Y-118233000I0J250000D01*
G01*
X229505000Y-117733000D01*
G75*
G02*
X229755000Y-117483000I250000J0D01*
G01*
X231255000Y-117483000D01*
G75*
G02*
X231505000Y-117733000I0J-250000D01*
G01*
X231505000Y-118233000D01*
G75*
G02*
X231255000Y-118483000I-250000J0D01*
G01*
G37*
G36*
G01*
X250305000Y-117848000D02*
X248805000Y-117848000D01*
G75*
G02*
X248555000Y-117598000I0J250000D01*
G01*
X248555000Y-117098000D01*
G75*
G02*
X248805000Y-116848000I250000J0D01*
G01*
X250305000Y-116848000D01*
G75*
G02*
X250555000Y-117098000I0J-250000D01*
G01*
X250555000Y-117598000D01*
G75*
G02*
X250305000Y-117848000I-250000J0D01*
G01*
G37*
G36*
G01*
X254750000Y-117848000D02*
X253250000Y-117848000D01*
G75*
G02*
X253000000Y-117598000I0J250000D01*
G01*
X253000000Y-117098000D01*
G75*
G02*
X253250000Y-116848000I250000J0D01*
G01*
X254750000Y-116848000D01*
G75*
G02*
X255000000Y-117098000I0J-250000D01*
G01*
X255000000Y-117598000D01*
G75*
G02*
X254750000Y-117848000I-250000J0D01*
G01*
G37*
G36*
G01*
X288405000Y-118991000D02*
X286905000Y-118991000D01*
G75*
G02*
X286655000Y-118741000I0J250000D01*
G01*
X286655000Y-118241000D01*
G75*
G02*
X286905000Y-117991000I250000J0D01*
G01*
X288405000Y-117991000D01*
G75*
G02*
X288655000Y-118241000I0J-250000D01*
G01*
X288655000Y-118741000D01*
G75*
G02*
X288405000Y-118991000I-250000J0D01*
G01*
G37*
G36*
G01*
X292342000Y-118991000D02*
X290842000Y-118991000D01*
G75*
G02*
X290592000Y-118741000I0J250000D01*
G01*
X290592000Y-118241000D01*
G75*
G02*
X290842000Y-117991000I250000J0D01*
G01*
X292342000Y-117991000D01*
G75*
G02*
X292592000Y-118241000I0J-250000D01*
G01*
X292592000Y-118741000D01*
G75*
G02*
X292342000Y-118991000I-250000J0D01*
G01*
G37*
G36*
G01*
X309995000Y-119118000D02*
X308495000Y-119118000D01*
G75*
G02*
X308245000Y-118868000I0J250000D01*
G01*
X308245000Y-118368000D01*
G75*
G02*
X308495000Y-118118000I250000J0D01*
G01*
X309995000Y-118118000D01*
G75*
G02*
X310245000Y-118368000I0J-250000D01*
G01*
X310245000Y-118868000D01*
G75*
G02*
X309995000Y-119118000I-250000J0D01*
G01*
G37*
G36*
G01*
X328287000Y-119265000D02*
X328287000Y-120765000D01*
G75*
G02*
X328037000Y-121015000I-250000J0D01*
G01*
X327537000Y-121015000D01*
G75*
G02*
X327287000Y-120765000I0J250000D01*
G01*
X327287000Y-119265000D01*
G75*
G02*
X327537000Y-119015000I250000J0D01*
G01*
X328037000Y-119015000D01*
G75*
G02*
X328287000Y-119265000I0J-250000D01*
G01*
G37*
G36*
G01*
X319787500Y-90391000D02*
X319787500Y-90711000D01*
G75*
G02*
X319627500Y-90871000I-160000J0D01*
G01*
X319182500Y-90871000D01*
G75*
G02*
X319022500Y-90711000I0J160000D01*
G01*
X319022500Y-90391000D01*
G75*
G02*
X319182500Y-90231000I160000J0D01*
G01*
X319627500Y-90231000D01*
G75*
G02*
X319787500Y-90391000I0J-160000D01*
G01*
G37*
G36*
G01*
X320932500Y-90391000D02*
X320932500Y-90711000D01*
G75*
G02*
X320772500Y-90871000I-160000J0D01*
G01*
X320327500Y-90871000D01*
G75*
G02*
X320167500Y-90711000I0J160000D01*
G01*
X320167500Y-90391000D01*
G75*
G02*
X320327500Y-90231000I160000J0D01*
G01*
X320772500Y-90231000D01*
G75*
G02*
X320932500Y-90391000I0J-160000D01*
G01*
G37*
G36*
G01*
X342609500Y-90899000D02*
X342609500Y-91219000D01*
G75*
G02*
X342449500Y-91379000I-160000J0D01*
G01*
X342004500Y-91379000D01*
G75*
G02*
X341844500Y-91219000I0J160000D01*
G01*
X341844500Y-90899000D01*
G75*
G02*
X342004500Y-90739000I160000J0D01*
G01*
X342449500Y-90739000D01*
G75*
G02*
X342609500Y-90899000I0J-160000D01*
G01*
G37*
G36*
G01*
X343754500Y-90899000D02*
X343754500Y-91219000D01*
G75*
G02*
X343594500Y-91379000I-160000J0D01*
G01*
X343149500Y-91379000D01*
G75*
G02*
X342989500Y-91219000I0J160000D01*
G01*
X342989500Y-90899000D01*
G75*
G02*
X343149500Y-90739000I160000J0D01*
G01*
X343594500Y-90739000D01*
G75*
G02*
X343754500Y-90899000I0J-160000D01*
G01*
G37*
D10*
X316749500Y-95766500D03*
X322949500Y-95766500D03*
X316749500Y-92066500D03*
X322949500Y-92066500D03*
D11*
X291365000Y-161766250D03*
X304265000Y-159226250D03*
X329465000Y-161766250D03*
X342365000Y-159226250D03*
X253265000Y-161766250D03*
X266165000Y-159226250D03*
X158015000Y-161766250D03*
X170915000Y-159226250D03*
X348515000Y-123666250D03*
X361415000Y-121126250D03*
X100865000Y-161766250D03*
X113765000Y-159226250D03*
X100865000Y-123666250D03*
X113765000Y-121126250D03*
X81815000Y-123666250D03*
X94715000Y-121126250D03*
X62765000Y-142716250D03*
X75665000Y-140176250D03*
X62765000Y-199866250D03*
X75665000Y-197326250D03*
X43715000Y-199866250D03*
X56615000Y-197326250D03*
X81815000Y-180816250D03*
X94715000Y-178276250D03*
D12*
X307101750Y-88138000D03*
X305101750Y-87188000D03*
X305101750Y-89088000D03*
G36*
G01*
X302911500Y-88563000D02*
X303386500Y-88563000D01*
G75*
G02*
X303624000Y-88800500I0J-237500D01*
G01*
X303624000Y-89300500D01*
G75*
G02*
X303386500Y-89538000I-237500J0D01*
G01*
X302911500Y-89538000D01*
G75*
G02*
X302674000Y-89300500I0J237500D01*
G01*
X302674000Y-88800500D01*
G75*
G02*
X302911500Y-88563000I237500J0D01*
G01*
G37*
G36*
G01*
X302911500Y-86738000D02*
X303386500Y-86738000D01*
G75*
G02*
X303624000Y-86975500I0J-237500D01*
G01*
X303624000Y-87475500D01*
G75*
G02*
X303386500Y-87713000I-237500J0D01*
G01*
X302911500Y-87713000D01*
G75*
G02*
X302674000Y-87475500I0J237500D01*
G01*
X302674000Y-86975500D01*
G75*
G02*
X302911500Y-86738000I237500J0D01*
G01*
G37*
D11*
X43715000Y-123666250D03*
X56615000Y-121126250D03*
X62765000Y-161766250D03*
X75665000Y-159226250D03*
G36*
G01*
X337792000Y-98315500D02*
X338102000Y-98315500D01*
G75*
G02*
X338257000Y-98470500I0J-155000D01*
G01*
X338257000Y-98895500D01*
G75*
G02*
X338102000Y-99050500I-155000J0D01*
G01*
X337792000Y-99050500D01*
G75*
G02*
X337637000Y-98895500I0J155000D01*
G01*
X337637000Y-98470500D01*
G75*
G02*
X337792000Y-98315500I155000J0D01*
G01*
G37*
G36*
G01*
X337792000Y-99450500D02*
X338102000Y-99450500D01*
G75*
G02*
X338257000Y-99605500I0J-155000D01*
G01*
X338257000Y-100030500D01*
G75*
G02*
X338102000Y-100185500I-155000J0D01*
G01*
X337792000Y-100185500D01*
G75*
G02*
X337637000Y-100030500I0J155000D01*
G01*
X337637000Y-99605500D01*
G75*
G02*
X337792000Y-99450500I155000J0D01*
G01*
G37*
X158015000Y-218916250D03*
X170915000Y-216376250D03*
X196115000Y-142716250D03*
X209015000Y-140176250D03*
X177065000Y-218916250D03*
X189965000Y-216376250D03*
X196115000Y-199866250D03*
X209015000Y-197326250D03*
X177065000Y-199866250D03*
X189965000Y-197326250D03*
X62765000Y-218916250D03*
X75665000Y-216376250D03*
X81815000Y-199866250D03*
X94715000Y-197326250D03*
X177065000Y-123666250D03*
X189965000Y-121126250D03*
X177065000Y-180816250D03*
X189965000Y-178276250D03*
X158015000Y-123666250D03*
X170915000Y-121126250D03*
X158015000Y-142716250D03*
X170915000Y-140176250D03*
X177065000Y-161766250D03*
X189965000Y-159226250D03*
X158015000Y-199866250D03*
X170915000Y-197326250D03*
X196115000Y-180816250D03*
X209015000Y-178276250D03*
X158015000Y-180816250D03*
X170915000Y-178276250D03*
X196115000Y-218916250D03*
X209015000Y-216376250D03*
G36*
G01*
X335662500Y-94338500D02*
X335662500Y-94463500D01*
G75*
G02*
X335600000Y-94526000I-62500J0D01*
G01*
X334650000Y-94526000D01*
G75*
G02*
X334587500Y-94463500I0J62500D01*
G01*
X334587500Y-94338500D01*
G75*
G02*
X334650000Y-94276000I62500J0D01*
G01*
X335600000Y-94276000D01*
G75*
G02*
X335662500Y-94338500I0J-62500D01*
G01*
G37*
G36*
G01*
X335662500Y-94838500D02*
X335662500Y-94963500D01*
G75*
G02*
X335600000Y-95026000I-62500J0D01*
G01*
X334650000Y-95026000D01*
G75*
G02*
X334587500Y-94963500I0J62500D01*
G01*
X334587500Y-94838500D01*
G75*
G02*
X334650000Y-94776000I62500J0D01*
G01*
X335600000Y-94776000D01*
G75*
G02*
X335662500Y-94838500I0J-62500D01*
G01*
G37*
G36*
G01*
X335662500Y-95338500D02*
X335662500Y-95463500D01*
G75*
G02*
X335600000Y-95526000I-62500J0D01*
G01*
X334650000Y-95526000D01*
G75*
G02*
X334587500Y-95463500I0J62500D01*
G01*
X334587500Y-95338500D01*
G75*
G02*
X334650000Y-95276000I62500J0D01*
G01*
X335600000Y-95276000D01*
G75*
G02*
X335662500Y-95338500I0J-62500D01*
G01*
G37*
G36*
G01*
X335662500Y-95838500D02*
X335662500Y-95963500D01*
G75*
G02*
X335600000Y-96026000I-62500J0D01*
G01*
X334650000Y-96026000D01*
G75*
G02*
X334587500Y-95963500I0J62500D01*
G01*
X334587500Y-95838500D01*
G75*
G02*
X334650000Y-95776000I62500J0D01*
G01*
X335600000Y-95776000D01*
G75*
G02*
X335662500Y-95838500I0J-62500D01*
G01*
G37*
G36*
G01*
X335662500Y-96338500D02*
X335662500Y-96463500D01*
G75*
G02*
X335600000Y-96526000I-62500J0D01*
G01*
X334650000Y-96526000D01*
G75*
G02*
X334587500Y-96463500I0J62500D01*
G01*
X334587500Y-96338500D01*
G75*
G02*
X334650000Y-96276000I62500J0D01*
G01*
X335600000Y-96276000D01*
G75*
G02*
X335662500Y-96338500I0J-62500D01*
G01*
G37*
G36*
G01*
X335662500Y-96838500D02*
X335662500Y-96963500D01*
G75*
G02*
X335600000Y-97026000I-62500J0D01*
G01*
X334650000Y-97026000D01*
G75*
G02*
X334587500Y-96963500I0J62500D01*
G01*
X334587500Y-96838500D01*
G75*
G02*
X334650000Y-96776000I62500J0D01*
G01*
X335600000Y-96776000D01*
G75*
G02*
X335662500Y-96838500I0J-62500D01*
G01*
G37*
G36*
G01*
X335662500Y-97338500D02*
X335662500Y-97463500D01*
G75*
G02*
X335600000Y-97526000I-62500J0D01*
G01*
X334650000Y-97526000D01*
G75*
G02*
X334587500Y-97463500I0J62500D01*
G01*
X334587500Y-97338500D01*
G75*
G02*
X334650000Y-97276000I62500J0D01*
G01*
X335600000Y-97276000D01*
G75*
G02*
X335662500Y-97338500I0J-62500D01*
G01*
G37*
G36*
G01*
X335662500Y-97838500D02*
X335662500Y-97963500D01*
G75*
G02*
X335600000Y-98026000I-62500J0D01*
G01*
X334650000Y-98026000D01*
G75*
G02*
X334587500Y-97963500I0J62500D01*
G01*
X334587500Y-97838500D01*
G75*
G02*
X334650000Y-97776000I62500J0D01*
G01*
X335600000Y-97776000D01*
G75*
G02*
X335662500Y-97838500I0J-62500D01*
G01*
G37*
G36*
G01*
X335662500Y-98338500D02*
X335662500Y-98463500D01*
G75*
G02*
X335600000Y-98526000I-62500J0D01*
G01*
X334650000Y-98526000D01*
G75*
G02*
X334587500Y-98463500I0J62500D01*
G01*
X334587500Y-98338500D01*
G75*
G02*
X334650000Y-98276000I62500J0D01*
G01*
X335600000Y-98276000D01*
G75*
G02*
X335662500Y-98338500I0J-62500D01*
G01*
G37*
G36*
G01*
X335662500Y-98838500D02*
X335662500Y-98963500D01*
G75*
G02*
X335600000Y-99026000I-62500J0D01*
G01*
X334650000Y-99026000D01*
G75*
G02*
X334587500Y-98963500I0J62500D01*
G01*
X334587500Y-98838500D01*
G75*
G02*
X334650000Y-98776000I62500J0D01*
G01*
X335600000Y-98776000D01*
G75*
G02*
X335662500Y-98838500I0J-62500D01*
G01*
G37*
G36*
G01*
X335662500Y-99338500D02*
X335662500Y-99463500D01*
G75*
G02*
X335600000Y-99526000I-62500J0D01*
G01*
X334650000Y-99526000D01*
G75*
G02*
X334587500Y-99463500I0J62500D01*
G01*
X334587500Y-99338500D01*
G75*
G02*
X334650000Y-99276000I62500J0D01*
G01*
X335600000Y-99276000D01*
G75*
G02*
X335662500Y-99338500I0J-62500D01*
G01*
G37*
G36*
G01*
X334412500Y-99763500D02*
X334412500Y-100713500D01*
G75*
G02*
X334350000Y-100776000I-62500J0D01*
G01*
X334225000Y-100776000D01*
G75*
G02*
X334162500Y-100713500I0J62500D01*
G01*
X334162500Y-99763500D01*
G75*
G02*
X334225000Y-99701000I62500J0D01*
G01*
X334350000Y-99701000D01*
G75*
G02*
X334412500Y-99763500I0J-62500D01*
G01*
G37*
G36*
G01*
X333912500Y-99763500D02*
X333912500Y-100713500D01*
G75*
G02*
X333850000Y-100776000I-62500J0D01*
G01*
X333725000Y-100776000D01*
G75*
G02*
X333662500Y-100713500I0J62500D01*
G01*
X333662500Y-99763500D01*
G75*
G02*
X333725000Y-99701000I62500J0D01*
G01*
X333850000Y-99701000D01*
G75*
G02*
X333912500Y-99763500I0J-62500D01*
G01*
G37*
G36*
G01*
X333412500Y-99763500D02*
X333412500Y-100713500D01*
G75*
G02*
X333350000Y-100776000I-62500J0D01*
G01*
X333225000Y-100776000D01*
G75*
G02*
X333162500Y-100713500I0J62500D01*
G01*
X333162500Y-99763500D01*
G75*
G02*
X333225000Y-99701000I62500J0D01*
G01*
X333350000Y-99701000D01*
G75*
G02*
X333412500Y-99763500I0J-62500D01*
G01*
G37*
G36*
G01*
X332912500Y-99763500D02*
X332912500Y-100713500D01*
G75*
G02*
X332850000Y-100776000I-62500J0D01*
G01*
X332725000Y-100776000D01*
G75*
G02*
X332662500Y-100713500I0J62500D01*
G01*
X332662500Y-99763500D01*
G75*
G02*
X332725000Y-99701000I62500J0D01*
G01*
X332850000Y-99701000D01*
G75*
G02*
X332912500Y-99763500I0J-62500D01*
G01*
G37*
G36*
G01*
X332412500Y-99763500D02*
X332412500Y-100713500D01*
G75*
G02*
X332350000Y-100776000I-62500J0D01*
G01*
X332225000Y-100776000D01*
G75*
G02*
X332162500Y-100713500I0J62500D01*
G01*
X332162500Y-99763500D01*
G75*
G02*
X332225000Y-99701000I62500J0D01*
G01*
X332350000Y-99701000D01*
G75*
G02*
X332412500Y-99763500I0J-62500D01*
G01*
G37*
G36*
G01*
X331912500Y-99763500D02*
X331912500Y-100713500D01*
G75*
G02*
X331850000Y-100776000I-62500J0D01*
G01*
X331725000Y-100776000D01*
G75*
G02*
X331662500Y-100713500I0J62500D01*
G01*
X331662500Y-99763500D01*
G75*
G02*
X331725000Y-99701000I62500J0D01*
G01*
X331850000Y-99701000D01*
G75*
G02*
X331912500Y-99763500I0J-62500D01*
G01*
G37*
G36*
G01*
X331412500Y-99763500D02*
X331412500Y-100713500D01*
G75*
G02*
X331350000Y-100776000I-62500J0D01*
G01*
X331225000Y-100776000D01*
G75*
G02*
X331162500Y-100713500I0J62500D01*
G01*
X331162500Y-99763500D01*
G75*
G02*
X331225000Y-99701000I62500J0D01*
G01*
X331350000Y-99701000D01*
G75*
G02*
X331412500Y-99763500I0J-62500D01*
G01*
G37*
G36*
G01*
X330912500Y-99763500D02*
X330912500Y-100713500D01*
G75*
G02*
X330850000Y-100776000I-62500J0D01*
G01*
X330725000Y-100776000D01*
G75*
G02*
X330662500Y-100713500I0J62500D01*
G01*
X330662500Y-99763500D01*
G75*
G02*
X330725000Y-99701000I62500J0D01*
G01*
X330850000Y-99701000D01*
G75*
G02*
X330912500Y-99763500I0J-62500D01*
G01*
G37*
G36*
G01*
X330412500Y-99763500D02*
X330412500Y-100713500D01*
G75*
G02*
X330350000Y-100776000I-62500J0D01*
G01*
X330225000Y-100776000D01*
G75*
G02*
X330162500Y-100713500I0J62500D01*
G01*
X330162500Y-99763500D01*
G75*
G02*
X330225000Y-99701000I62500J0D01*
G01*
X330350000Y-99701000D01*
G75*
G02*
X330412500Y-99763500I0J-62500D01*
G01*
G37*
G36*
G01*
X329912500Y-99763500D02*
X329912500Y-100713500D01*
G75*
G02*
X329850000Y-100776000I-62500J0D01*
G01*
X329725000Y-100776000D01*
G75*
G02*
X329662500Y-100713500I0J62500D01*
G01*
X329662500Y-99763500D01*
G75*
G02*
X329725000Y-99701000I62500J0D01*
G01*
X329850000Y-99701000D01*
G75*
G02*
X329912500Y-99763500I0J-62500D01*
G01*
G37*
G36*
G01*
X329412500Y-99763500D02*
X329412500Y-100713500D01*
G75*
G02*
X329350000Y-100776000I-62500J0D01*
G01*
X329225000Y-100776000D01*
G75*
G02*
X329162500Y-100713500I0J62500D01*
G01*
X329162500Y-99763500D01*
G75*
G02*
X329225000Y-99701000I62500J0D01*
G01*
X329350000Y-99701000D01*
G75*
G02*
X329412500Y-99763500I0J-62500D01*
G01*
G37*
G36*
G01*
X328987500Y-99338500D02*
X328987500Y-99463500D01*
G75*
G02*
X328925000Y-99526000I-62500J0D01*
G01*
X327975000Y-99526000D01*
G75*
G02*
X327912500Y-99463500I0J62500D01*
G01*
X327912500Y-99338500D01*
G75*
G02*
X327975000Y-99276000I62500J0D01*
G01*
X328925000Y-99276000D01*
G75*
G02*
X328987500Y-99338500I0J-62500D01*
G01*
G37*
G36*
G01*
X328987500Y-98838500D02*
X328987500Y-98963500D01*
G75*
G02*
X328925000Y-99026000I-62500J0D01*
G01*
X327975000Y-99026000D01*
G75*
G02*
X327912500Y-98963500I0J62500D01*
G01*
X327912500Y-98838500D01*
G75*
G02*
X327975000Y-98776000I62500J0D01*
G01*
X328925000Y-98776000D01*
G75*
G02*
X328987500Y-98838500I0J-62500D01*
G01*
G37*
G36*
G01*
X328987500Y-98338500D02*
X328987500Y-98463500D01*
G75*
G02*
X328925000Y-98526000I-62500J0D01*
G01*
X327975000Y-98526000D01*
G75*
G02*
X327912500Y-98463500I0J62500D01*
G01*
X327912500Y-98338500D01*
G75*
G02*
X327975000Y-98276000I62500J0D01*
G01*
X328925000Y-98276000D01*
G75*
G02*
X328987500Y-98338500I0J-62500D01*
G01*
G37*
G36*
G01*
X328987500Y-97838500D02*
X328987500Y-97963500D01*
G75*
G02*
X328925000Y-98026000I-62500J0D01*
G01*
X327975000Y-98026000D01*
G75*
G02*
X327912500Y-97963500I0J62500D01*
G01*
X327912500Y-97838500D01*
G75*
G02*
X327975000Y-97776000I62500J0D01*
G01*
X328925000Y-97776000D01*
G75*
G02*
X328987500Y-97838500I0J-62500D01*
G01*
G37*
G36*
G01*
X328987500Y-97338500D02*
X328987500Y-97463500D01*
G75*
G02*
X328925000Y-97526000I-62500J0D01*
G01*
X327975000Y-97526000D01*
G75*
G02*
X327912500Y-97463500I0J62500D01*
G01*
X327912500Y-97338500D01*
G75*
G02*
X327975000Y-97276000I62500J0D01*
G01*
X328925000Y-97276000D01*
G75*
G02*
X328987500Y-97338500I0J-62500D01*
G01*
G37*
G36*
G01*
X328987500Y-96838500D02*
X328987500Y-96963500D01*
G75*
G02*
X328925000Y-97026000I-62500J0D01*
G01*
X327975000Y-97026000D01*
G75*
G02*
X327912500Y-96963500I0J62500D01*
G01*
X327912500Y-96838500D01*
G75*
G02*
X327975000Y-96776000I62500J0D01*
G01*
X328925000Y-96776000D01*
G75*
G02*
X328987500Y-96838500I0J-62500D01*
G01*
G37*
G36*
G01*
X328987500Y-96338500D02*
X328987500Y-96463500D01*
G75*
G02*
X328925000Y-96526000I-62500J0D01*
G01*
X327975000Y-96526000D01*
G75*
G02*
X327912500Y-96463500I0J62500D01*
G01*
X327912500Y-96338500D01*
G75*
G02*
X327975000Y-96276000I62500J0D01*
G01*
X328925000Y-96276000D01*
G75*
G02*
X328987500Y-96338500I0J-62500D01*
G01*
G37*
G36*
G01*
X328987500Y-95838500D02*
X328987500Y-95963500D01*
G75*
G02*
X328925000Y-96026000I-62500J0D01*
G01*
X327975000Y-96026000D01*
G75*
G02*
X327912500Y-95963500I0J62500D01*
G01*
X327912500Y-95838500D01*
G75*
G02*
X327975000Y-95776000I62500J0D01*
G01*
X328925000Y-95776000D01*
G75*
G02*
X328987500Y-95838500I0J-62500D01*
G01*
G37*
G36*
G01*
X328987500Y-95338500D02*
X328987500Y-95463500D01*
G75*
G02*
X328925000Y-95526000I-62500J0D01*
G01*
X327975000Y-95526000D01*
G75*
G02*
X327912500Y-95463500I0J62500D01*
G01*
X327912500Y-95338500D01*
G75*
G02*
X327975000Y-95276000I62500J0D01*
G01*
X328925000Y-95276000D01*
G75*
G02*
X328987500Y-95338500I0J-62500D01*
G01*
G37*
G36*
G01*
X328987500Y-94838500D02*
X328987500Y-94963500D01*
G75*
G02*
X328925000Y-95026000I-62500J0D01*
G01*
X327975000Y-95026000D01*
G75*
G02*
X327912500Y-94963500I0J62500D01*
G01*
X327912500Y-94838500D01*
G75*
G02*
X327975000Y-94776000I62500J0D01*
G01*
X328925000Y-94776000D01*
G75*
G02*
X328987500Y-94838500I0J-62500D01*
G01*
G37*
G36*
G01*
X328987500Y-94338500D02*
X328987500Y-94463500D01*
G75*
G02*
X328925000Y-94526000I-62500J0D01*
G01*
X327975000Y-94526000D01*
G75*
G02*
X327912500Y-94463500I0J62500D01*
G01*
X327912500Y-94338500D01*
G75*
G02*
X327975000Y-94276000I62500J0D01*
G01*
X328925000Y-94276000D01*
G75*
G02*
X328987500Y-94338500I0J-62500D01*
G01*
G37*
G36*
G01*
X329412500Y-93088500D02*
X329412500Y-94038500D01*
G75*
G02*
X329350000Y-94101000I-62500J0D01*
G01*
X329225000Y-94101000D01*
G75*
G02*
X329162500Y-94038500I0J62500D01*
G01*
X329162500Y-93088500D01*
G75*
G02*
X329225000Y-93026000I62500J0D01*
G01*
X329350000Y-93026000D01*
G75*
G02*
X329412500Y-93088500I0J-62500D01*
G01*
G37*
G36*
G01*
X329912500Y-93088500D02*
X329912500Y-94038500D01*
G75*
G02*
X329850000Y-94101000I-62500J0D01*
G01*
X329725000Y-94101000D01*
G75*
G02*
X329662500Y-94038500I0J62500D01*
G01*
X329662500Y-93088500D01*
G75*
G02*
X329725000Y-93026000I62500J0D01*
G01*
X329850000Y-93026000D01*
G75*
G02*
X329912500Y-93088500I0J-62500D01*
G01*
G37*
G36*
G01*
X330412500Y-93088500D02*
X330412500Y-94038500D01*
G75*
G02*
X330350000Y-94101000I-62500J0D01*
G01*
X330225000Y-94101000D01*
G75*
G02*
X330162500Y-94038500I0J62500D01*
G01*
X330162500Y-93088500D01*
G75*
G02*
X330225000Y-93026000I62500J0D01*
G01*
X330350000Y-93026000D01*
G75*
G02*
X330412500Y-93088500I0J-62500D01*
G01*
G37*
G36*
G01*
X330912500Y-93088500D02*
X330912500Y-94038500D01*
G75*
G02*
X330850000Y-94101000I-62500J0D01*
G01*
X330725000Y-94101000D01*
G75*
G02*
X330662500Y-94038500I0J62500D01*
G01*
X330662500Y-93088500D01*
G75*
G02*
X330725000Y-93026000I62500J0D01*
G01*
X330850000Y-93026000D01*
G75*
G02*
X330912500Y-93088500I0J-62500D01*
G01*
G37*
G36*
G01*
X331412500Y-93088500D02*
X331412500Y-94038500D01*
G75*
G02*
X331350000Y-94101000I-62500J0D01*
G01*
X331225000Y-94101000D01*
G75*
G02*
X331162500Y-94038500I0J62500D01*
G01*
X331162500Y-93088500D01*
G75*
G02*
X331225000Y-93026000I62500J0D01*
G01*
X331350000Y-93026000D01*
G75*
G02*
X331412500Y-93088500I0J-62500D01*
G01*
G37*
G36*
G01*
X331912500Y-93088500D02*
X331912500Y-94038500D01*
G75*
G02*
X331850000Y-94101000I-62500J0D01*
G01*
X331725000Y-94101000D01*
G75*
G02*
X331662500Y-94038500I0J62500D01*
G01*
X331662500Y-93088500D01*
G75*
G02*
X331725000Y-93026000I62500J0D01*
G01*
X331850000Y-93026000D01*
G75*
G02*
X331912500Y-93088500I0J-62500D01*
G01*
G37*
G36*
G01*
X332412500Y-93088500D02*
X332412500Y-94038500D01*
G75*
G02*
X332350000Y-94101000I-62500J0D01*
G01*
X332225000Y-94101000D01*
G75*
G02*
X332162500Y-94038500I0J62500D01*
G01*
X332162500Y-93088500D01*
G75*
G02*
X332225000Y-93026000I62500J0D01*
G01*
X332350000Y-93026000D01*
G75*
G02*
X332412500Y-93088500I0J-62500D01*
G01*
G37*
G36*
G01*
X332912500Y-93088500D02*
X332912500Y-94038500D01*
G75*
G02*
X332850000Y-94101000I-62500J0D01*
G01*
X332725000Y-94101000D01*
G75*
G02*
X332662500Y-94038500I0J62500D01*
G01*
X332662500Y-93088500D01*
G75*
G02*
X332725000Y-93026000I62500J0D01*
G01*
X332850000Y-93026000D01*
G75*
G02*
X332912500Y-93088500I0J-62500D01*
G01*
G37*
G36*
G01*
X333412500Y-93088500D02*
X333412500Y-94038500D01*
G75*
G02*
X333350000Y-94101000I-62500J0D01*
G01*
X333225000Y-94101000D01*
G75*
G02*
X333162500Y-94038500I0J62500D01*
G01*
X333162500Y-93088500D01*
G75*
G02*
X333225000Y-93026000I62500J0D01*
G01*
X333350000Y-93026000D01*
G75*
G02*
X333412500Y-93088500I0J-62500D01*
G01*
G37*
G36*
G01*
X333912500Y-93088500D02*
X333912500Y-94038500D01*
G75*
G02*
X333850000Y-94101000I-62500J0D01*
G01*
X333725000Y-94101000D01*
G75*
G02*
X333662500Y-94038500I0J62500D01*
G01*
X333662500Y-93088500D01*
G75*
G02*
X333725000Y-93026000I62500J0D01*
G01*
X333850000Y-93026000D01*
G75*
G02*
X333912500Y-93088500I0J-62500D01*
G01*
G37*
G36*
G01*
X334412500Y-93088500D02*
X334412500Y-94038500D01*
G75*
G02*
X334350000Y-94101000I-62500J0D01*
G01*
X334225000Y-94101000D01*
G75*
G02*
X334162500Y-94038500I0J62500D01*
G01*
X334162500Y-93088500D01*
G75*
G02*
X334225000Y-93026000I62500J0D01*
G01*
X334350000Y-93026000D01*
G75*
G02*
X334412500Y-93088500I0J-62500D01*
G01*
G37*
G36*
G01*
X334262500Y-94675999D02*
X334262500Y-95226001D01*
G75*
G02*
X334012501Y-95476000I-249999J0D01*
G01*
X333462499Y-95476000D01*
G75*
G02*
X333212500Y-95226001I0J249999D01*
G01*
X333212500Y-94675999D01*
G75*
G02*
X333462499Y-94426000I249999J0D01*
G01*
X334012501Y-94426000D01*
G75*
G02*
X334262500Y-94675999I0J-249999D01*
G01*
G37*
G36*
G01*
X334262500Y-95975999D02*
X334262500Y-96526001D01*
G75*
G02*
X334012501Y-96776000I-249999J0D01*
G01*
X333462499Y-96776000D01*
G75*
G02*
X333212500Y-96526001I0J249999D01*
G01*
X333212500Y-95975999D01*
G75*
G02*
X333462499Y-95726000I249999J0D01*
G01*
X334012501Y-95726000D01*
G75*
G02*
X334262500Y-95975999I0J-249999D01*
G01*
G37*
G36*
G01*
X334262500Y-97275999D02*
X334262500Y-97826001D01*
G75*
G02*
X334012501Y-98076000I-249999J0D01*
G01*
X333462499Y-98076000D01*
G75*
G02*
X333212500Y-97826001I0J249999D01*
G01*
X333212500Y-97275999D01*
G75*
G02*
X333462499Y-97026000I249999J0D01*
G01*
X334012501Y-97026000D01*
G75*
G02*
X334262500Y-97275999I0J-249999D01*
G01*
G37*
G36*
G01*
X334262500Y-98575999D02*
X334262500Y-99126001D01*
G75*
G02*
X334012501Y-99376000I-249999J0D01*
G01*
X333462499Y-99376000D01*
G75*
G02*
X333212500Y-99126001I0J249999D01*
G01*
X333212500Y-98575999D01*
G75*
G02*
X333462499Y-98326000I249999J0D01*
G01*
X334012501Y-98326000D01*
G75*
G02*
X334262500Y-98575999I0J-249999D01*
G01*
G37*
G36*
G01*
X332962500Y-94675999D02*
X332962500Y-95226001D01*
G75*
G02*
X332712501Y-95476000I-249999J0D01*
G01*
X332162499Y-95476000D01*
G75*
G02*
X331912500Y-95226001I0J249999D01*
G01*
X331912500Y-94675999D01*
G75*
G02*
X332162499Y-94426000I249999J0D01*
G01*
X332712501Y-94426000D01*
G75*
G02*
X332962500Y-94675999I0J-249999D01*
G01*
G37*
G36*
G01*
X332962500Y-95975999D02*
X332962500Y-96526001D01*
G75*
G02*
X332712501Y-96776000I-249999J0D01*
G01*
X332162499Y-96776000D01*
G75*
G02*
X331912500Y-96526001I0J249999D01*
G01*
X331912500Y-95975999D01*
G75*
G02*
X332162499Y-95726000I249999J0D01*
G01*
X332712501Y-95726000D01*
G75*
G02*
X332962500Y-95975999I0J-249999D01*
G01*
G37*
G36*
G01*
X332962500Y-97275999D02*
X332962500Y-97826001D01*
G75*
G02*
X332712501Y-98076000I-249999J0D01*
G01*
X332162499Y-98076000D01*
G75*
G02*
X331912500Y-97826001I0J249999D01*
G01*
X331912500Y-97275999D01*
G75*
G02*
X332162499Y-97026000I249999J0D01*
G01*
X332712501Y-97026000D01*
G75*
G02*
X332962500Y-97275999I0J-249999D01*
G01*
G37*
G36*
G01*
X332962500Y-98575999D02*
X332962500Y-99126001D01*
G75*
G02*
X332712501Y-99376000I-249999J0D01*
G01*
X332162499Y-99376000D01*
G75*
G02*
X331912500Y-99126001I0J249999D01*
G01*
X331912500Y-98575999D01*
G75*
G02*
X332162499Y-98326000I249999J0D01*
G01*
X332712501Y-98326000D01*
G75*
G02*
X332962500Y-98575999I0J-249999D01*
G01*
G37*
G36*
G01*
X331662500Y-94675999D02*
X331662500Y-95226001D01*
G75*
G02*
X331412501Y-95476000I-249999J0D01*
G01*
X330862499Y-95476000D01*
G75*
G02*
X330612500Y-95226001I0J249999D01*
G01*
X330612500Y-94675999D01*
G75*
G02*
X330862499Y-94426000I249999J0D01*
G01*
X331412501Y-94426000D01*
G75*
G02*
X331662500Y-94675999I0J-249999D01*
G01*
G37*
G36*
G01*
X331662500Y-95975999D02*
X331662500Y-96526001D01*
G75*
G02*
X331412501Y-96776000I-249999J0D01*
G01*
X330862499Y-96776000D01*
G75*
G02*
X330612500Y-96526001I0J249999D01*
G01*
X330612500Y-95975999D01*
G75*
G02*
X330862499Y-95726000I249999J0D01*
G01*
X331412501Y-95726000D01*
G75*
G02*
X331662500Y-95975999I0J-249999D01*
G01*
G37*
G36*
G01*
X331662500Y-97275999D02*
X331662500Y-97826001D01*
G75*
G02*
X331412501Y-98076000I-249999J0D01*
G01*
X330862499Y-98076000D01*
G75*
G02*
X330612500Y-97826001I0J249999D01*
G01*
X330612500Y-97275999D01*
G75*
G02*
X330862499Y-97026000I249999J0D01*
G01*
X331412501Y-97026000D01*
G75*
G02*
X331662500Y-97275999I0J-249999D01*
G01*
G37*
G36*
G01*
X331662500Y-98575999D02*
X331662500Y-99126001D01*
G75*
G02*
X331412501Y-99376000I-249999J0D01*
G01*
X330862499Y-99376000D01*
G75*
G02*
X330612500Y-99126001I0J249999D01*
G01*
X330612500Y-98575999D01*
G75*
G02*
X330862499Y-98326000I249999J0D01*
G01*
X331412501Y-98326000D01*
G75*
G02*
X331662500Y-98575999I0J-249999D01*
G01*
G37*
G36*
G01*
X330362500Y-94675999D02*
X330362500Y-95226001D01*
G75*
G02*
X330112501Y-95476000I-249999J0D01*
G01*
X329562499Y-95476000D01*
G75*
G02*
X329312500Y-95226001I0J249999D01*
G01*
X329312500Y-94675999D01*
G75*
G02*
X329562499Y-94426000I249999J0D01*
G01*
X330112501Y-94426000D01*
G75*
G02*
X330362500Y-94675999I0J-249999D01*
G01*
G37*
G36*
G01*
X330362500Y-95975999D02*
X330362500Y-96526001D01*
G75*
G02*
X330112501Y-96776000I-249999J0D01*
G01*
X329562499Y-96776000D01*
G75*
G02*
X329312500Y-96526001I0J249999D01*
G01*
X329312500Y-95975999D01*
G75*
G02*
X329562499Y-95726000I249999J0D01*
G01*
X330112501Y-95726000D01*
G75*
G02*
X330362500Y-95975999I0J-249999D01*
G01*
G37*
G36*
G01*
X330362500Y-97275999D02*
X330362500Y-97826001D01*
G75*
G02*
X330112501Y-98076000I-249999J0D01*
G01*
X329562499Y-98076000D01*
G75*
G02*
X329312500Y-97826001I0J249999D01*
G01*
X329312500Y-97275999D01*
G75*
G02*
X329562499Y-97026000I249999J0D01*
G01*
X330112501Y-97026000D01*
G75*
G02*
X330362500Y-97275999I0J-249999D01*
G01*
G37*
G36*
G01*
X330362500Y-98575999D02*
X330362500Y-99126001D01*
G75*
G02*
X330112501Y-99376000I-249999J0D01*
G01*
X329562499Y-99376000D01*
G75*
G02*
X329312500Y-99126001I0J249999D01*
G01*
X329312500Y-98575999D01*
G75*
G02*
X329562499Y-98326000I249999J0D01*
G01*
X330112501Y-98326000D01*
G75*
G02*
X330362500Y-98575999I0J-249999D01*
G01*
G37*
G36*
G01*
X329611000Y-92174000D02*
X329611000Y-92484000D01*
G75*
G02*
X329456000Y-92639000I-155000J0D01*
G01*
X329031000Y-92639000D01*
G75*
G02*
X328876000Y-92484000I0J155000D01*
G01*
X328876000Y-92174000D01*
G75*
G02*
X329031000Y-92019000I155000J0D01*
G01*
X329456000Y-92019000D01*
G75*
G02*
X329611000Y-92174000I0J-155000D01*
G01*
G37*
G36*
G01*
X328476000Y-92174000D02*
X328476000Y-92484000D01*
G75*
G02*
X328321000Y-92639000I-155000J0D01*
G01*
X327896000Y-92639000D01*
G75*
G02*
X327741000Y-92484000I0J155000D01*
G01*
X327741000Y-92174000D01*
G75*
G02*
X327896000Y-92019000I155000J0D01*
G01*
X328321000Y-92019000D01*
G75*
G02*
X328476000Y-92174000I0J-155000D01*
G01*
G37*
G36*
G01*
X333156500Y-101681000D02*
X333466500Y-101681000D01*
G75*
G02*
X333621500Y-101836000I0J-155000D01*
G01*
X333621500Y-102261000D01*
G75*
G02*
X333466500Y-102416000I-155000J0D01*
G01*
X333156500Y-102416000D01*
G75*
G02*
X333001500Y-102261000I0J155000D01*
G01*
X333001500Y-101836000D01*
G75*
G02*
X333156500Y-101681000I155000J0D01*
G01*
G37*
G36*
G01*
X333156500Y-102816000D02*
X333466500Y-102816000D01*
G75*
G02*
X333621500Y-102971000I0J-155000D01*
G01*
X333621500Y-103396000D01*
G75*
G02*
X333466500Y-103551000I-155000J0D01*
G01*
X333156500Y-103551000D01*
G75*
G02*
X333001500Y-103396000I0J155000D01*
G01*
X333001500Y-102971000D01*
G75*
G02*
X333156500Y-102816000I155000J0D01*
G01*
G37*
G36*
G01*
X333134500Y-92230000D02*
X333134500Y-91920000D01*
G75*
G02*
X333289500Y-91765000I155000J0D01*
G01*
X333714500Y-91765000D01*
G75*
G02*
X333869500Y-91920000I0J-155000D01*
G01*
X333869500Y-92230000D01*
G75*
G02*
X333714500Y-92385000I-155000J0D01*
G01*
X333289500Y-92385000D01*
G75*
G02*
X333134500Y-92230000I0J155000D01*
G01*
G37*
G36*
G01*
X334269500Y-92230000D02*
X334269500Y-91920000D01*
G75*
G02*
X334424500Y-91765000I155000J0D01*
G01*
X334849500Y-91765000D01*
G75*
G02*
X335004500Y-91920000I0J-155000D01*
G01*
X335004500Y-92230000D01*
G75*
G02*
X334849500Y-92385000I-155000J0D01*
G01*
X334424500Y-92385000D01*
G75*
G02*
X334269500Y-92230000I0J155000D01*
G01*
G37*
G36*
G01*
X319324000Y-102905500D02*
X319324000Y-103215500D01*
G75*
G02*
X319169000Y-103370500I-155000J0D01*
G01*
X318744000Y-103370500D01*
G75*
G02*
X318589000Y-103215500I0J155000D01*
G01*
X318589000Y-102905500D01*
G75*
G02*
X318744000Y-102750500I155000J0D01*
G01*
X319169000Y-102750500D01*
G75*
G02*
X319324000Y-102905500I0J-155000D01*
G01*
G37*
G36*
G01*
X318189000Y-102905500D02*
X318189000Y-103215500D01*
G75*
G02*
X318034000Y-103370500I-155000J0D01*
G01*
X317609000Y-103370500D01*
G75*
G02*
X317454000Y-103215500I0J155000D01*
G01*
X317454000Y-102905500D01*
G75*
G02*
X317609000Y-102750500I155000J0D01*
G01*
X318034000Y-102750500D01*
G75*
G02*
X318189000Y-102905500I0J-155000D01*
G01*
G37*
G36*
G01*
X317327000Y-97627500D02*
X317327000Y-97317500D01*
G75*
G02*
X317482000Y-97162500I155000J0D01*
G01*
X317907000Y-97162500D01*
G75*
G02*
X318062000Y-97317500I0J-155000D01*
G01*
X318062000Y-97627500D01*
G75*
G02*
X317907000Y-97782500I-155000J0D01*
G01*
X317482000Y-97782500D01*
G75*
G02*
X317327000Y-97627500I0J155000D01*
G01*
G37*
G36*
G01*
X318462000Y-97627500D02*
X318462000Y-97317500D01*
G75*
G02*
X318617000Y-97162500I155000J0D01*
G01*
X319042000Y-97162500D01*
G75*
G02*
X319197000Y-97317500I0J-155000D01*
G01*
X319197000Y-97627500D01*
G75*
G02*
X319042000Y-97782500I-155000J0D01*
G01*
X318617000Y-97782500D01*
G75*
G02*
X318462000Y-97627500I0J155000D01*
G01*
G37*
G36*
G01*
X325663500Y-98887000D02*
X325973500Y-98887000D01*
G75*
G02*
X326128500Y-99042000I0J-155000D01*
G01*
X326128500Y-99467000D01*
G75*
G02*
X325973500Y-99622000I-155000J0D01*
G01*
X325663500Y-99622000D01*
G75*
G02*
X325508500Y-99467000I0J155000D01*
G01*
X325508500Y-99042000D01*
G75*
G02*
X325663500Y-98887000I155000J0D01*
G01*
G37*
G36*
G01*
X325663500Y-100022000D02*
X325973500Y-100022000D01*
G75*
G02*
X326128500Y-100177000I0J-155000D01*
G01*
X326128500Y-100602000D01*
G75*
G02*
X325973500Y-100757000I-155000J0D01*
G01*
X325663500Y-100757000D01*
G75*
G02*
X325508500Y-100602000I0J155000D01*
G01*
X325508500Y-100177000D01*
G75*
G02*
X325663500Y-100022000I155000J0D01*
G01*
G37*
G36*
G01*
X343888000Y-100089500D02*
X344198000Y-100089500D01*
G75*
G02*
X344353000Y-100244500I0J-155000D01*
G01*
X344353000Y-100669500D01*
G75*
G02*
X344198000Y-100824500I-155000J0D01*
G01*
X343888000Y-100824500D01*
G75*
G02*
X343733000Y-100669500I0J155000D01*
G01*
X343733000Y-100244500D01*
G75*
G02*
X343888000Y-100089500I155000J0D01*
G01*
G37*
G36*
G01*
X343888000Y-101224500D02*
X344198000Y-101224500D01*
G75*
G02*
X344353000Y-101379500I0J-155000D01*
G01*
X344353000Y-101804500D01*
G75*
G02*
X344198000Y-101959500I-155000J0D01*
G01*
X343888000Y-101959500D01*
G75*
G02*
X343733000Y-101804500I0J155000D01*
G01*
X343733000Y-101379500D01*
G75*
G02*
X343888000Y-101224500I155000J0D01*
G01*
G37*
D13*
X192087500Y-132618750D03*
X192087500Y-129318750D03*
X173037500Y-227931250D03*
X173037500Y-224631250D03*
X211137500Y-151668750D03*
X211137500Y-148368750D03*
X171450000Y-208818750D03*
X171450000Y-205518750D03*
X115887500Y-208818750D03*
X115887500Y-205518750D03*
X171450000Y-132618750D03*
X171450000Y-129318750D03*
X230187500Y-170718750D03*
X230187500Y-167418750D03*
X134937500Y-132618750D03*
X134937500Y-129318750D03*
X192087500Y-208818750D03*
X192087500Y-205518750D03*
X153987500Y-189768750D03*
X153987500Y-186468750D03*
X211137500Y-132618750D03*
X211137500Y-129318750D03*
X211137500Y-170718750D03*
X211137500Y-167418750D03*
X152400000Y-132618750D03*
X152400000Y-129318750D03*
X192087500Y-151668750D03*
X192087500Y-148368750D03*
X173037500Y-189768750D03*
X173037500Y-186468750D03*
X115887500Y-189768750D03*
X115887500Y-186468750D03*
X115887500Y-227868750D03*
X115887500Y-224568750D03*
X230187500Y-132618750D03*
X230187500Y-129318750D03*
X153987500Y-151668750D03*
X153987500Y-148368750D03*
X152400000Y-208818750D03*
X152400000Y-205518750D03*
X230187500Y-151668750D03*
X230187500Y-148368750D03*
X192087500Y-170718750D03*
X192087500Y-167418750D03*
X134937500Y-170718750D03*
X134937500Y-167418750D03*
X134937500Y-151668750D03*
X134937500Y-148368750D03*
X134937500Y-227868750D03*
X134937500Y-224568750D03*
X211137500Y-227931250D03*
X211137500Y-224631250D03*
X211137500Y-208818750D03*
X211137500Y-205518750D03*
X192087500Y-227868750D03*
X192087500Y-224568750D03*
X134937500Y-208818750D03*
X134937500Y-205518750D03*
X152400000Y-170718750D03*
X152400000Y-167418750D03*
X173037500Y-151668750D03*
X173037500Y-148368750D03*
X192087500Y-189768750D03*
X192087500Y-186468750D03*
X153987500Y-227868750D03*
X153987500Y-224568750D03*
X211137500Y-189768750D03*
X211137500Y-186468750D03*
X134937500Y-189768750D03*
X134937500Y-186468750D03*
X171450000Y-170718750D03*
X171450000Y-167418750D03*
X77787500Y-189768750D03*
X77787500Y-186468750D03*
X77787500Y-227868750D03*
X77787500Y-224568750D03*
X58737500Y-189768750D03*
X58737500Y-186468750D03*
X96837500Y-189768750D03*
X96837500Y-186468750D03*
X96837500Y-208818750D03*
X96837500Y-205518750D03*
X77787500Y-208818750D03*
X77787500Y-205518750D03*
X115887500Y-170718750D03*
X115887500Y-167418750D03*
G36*
G01*
X352912000Y-95136250D02*
X353462000Y-95136250D01*
G75*
G02*
X353662000Y-95336250I0J-200000D01*
G01*
X353662000Y-95736250D01*
G75*
G02*
X353462000Y-95936250I-200000J0D01*
G01*
X352912000Y-95936250D01*
G75*
G02*
X352712000Y-95736250I0J200000D01*
G01*
X352712000Y-95336250D01*
G75*
G02*
X352912000Y-95136250I200000J0D01*
G01*
G37*
G36*
G01*
X352912000Y-96786250D02*
X353462000Y-96786250D01*
G75*
G02*
X353662000Y-96986250I0J-200000D01*
G01*
X353662000Y-97386250D01*
G75*
G02*
X353462000Y-97586250I-200000J0D01*
G01*
X352912000Y-97586250D01*
G75*
G02*
X352712000Y-97386250I0J200000D01*
G01*
X352712000Y-96986250D01*
G75*
G02*
X352912000Y-96786250I200000J0D01*
G01*
G37*
X115887500Y-132618750D03*
X115887500Y-129318750D03*
X77787500Y-170718750D03*
X77787500Y-167418750D03*
X96837500Y-132618750D03*
X96837500Y-129318750D03*
G36*
G01*
X362595000Y-90414250D02*
X363845000Y-90414250D01*
G75*
G02*
X364095000Y-90664250I0J-250000D01*
G01*
X364095000Y-91414250D01*
G75*
G02*
X363845000Y-91664250I-250000J0D01*
G01*
X362595000Y-91664250D01*
G75*
G02*
X362345000Y-91414250I0J250000D01*
G01*
X362345000Y-90664250D01*
G75*
G02*
X362595000Y-90414250I250000J0D01*
G01*
G37*
G36*
G01*
X362595000Y-93214250D02*
X363845000Y-93214250D01*
G75*
G02*
X364095000Y-93464250I0J-250000D01*
G01*
X364095000Y-94214250D01*
G75*
G02*
X363845000Y-94464250I-250000J0D01*
G01*
X362595000Y-94464250D01*
G75*
G02*
X362345000Y-94214250I0J250000D01*
G01*
X362345000Y-93464250D01*
G75*
G02*
X362595000Y-93214250I250000J0D01*
G01*
G37*
X58737500Y-151668750D03*
X58737500Y-148368750D03*
X115887500Y-151668750D03*
X115887500Y-148368750D03*
X96837500Y-170718750D03*
X96837500Y-167418750D03*
X57150000Y-208818750D03*
X57150000Y-205518750D03*
X96837500Y-151668750D03*
X96837500Y-148368750D03*
X325437500Y-151668750D03*
X325437500Y-148368750D03*
X306387500Y-151668750D03*
X306387500Y-148368750D03*
D14*
X353306000Y-101125250D03*
X358906000Y-101125250D03*
D15*
X357606000Y-97250250D03*
X356606000Y-97250250D03*
X354606000Y-97250250D03*
X355606000Y-97250250D03*
D16*
X343738000Y-95131000D03*
X343738000Y-94131000D03*
X343738000Y-96131000D03*
X343738000Y-97131000D03*
D17*
X339863000Y-98431000D03*
X339863000Y-92831000D03*
D13*
X287337500Y-189768750D03*
X287337500Y-186468750D03*
G36*
G01*
X352558000Y-93925250D02*
X352558000Y-92775250D01*
G75*
G02*
X352708000Y-92625250I150000J0D01*
G01*
X353008000Y-92625250D01*
G75*
G02*
X353158000Y-92775250I0J-150000D01*
G01*
X353158000Y-93925250D01*
G75*
G02*
X353008000Y-94075250I-150000J0D01*
G01*
X352708000Y-94075250D01*
G75*
G02*
X352558000Y-93925250I0J150000D01*
G01*
G37*
G36*
G01*
X354208000Y-94000250D02*
X354208000Y-92700250D01*
G75*
G02*
X354283000Y-92625250I75000J0D01*
G01*
X354433000Y-92625250D01*
G75*
G02*
X354508000Y-92700250I0J-75000D01*
G01*
X354508000Y-94000250D01*
G75*
G02*
X354433000Y-94075250I-75000J0D01*
G01*
X354283000Y-94075250D01*
G75*
G02*
X354208000Y-94000250I0J75000D01*
G01*
G37*
G36*
G01*
X354708000Y-94000250D02*
X354708000Y-92700250D01*
G75*
G02*
X354783000Y-92625250I75000J0D01*
G01*
X354933000Y-92625250D01*
G75*
G02*
X355008000Y-92700250I0J-75000D01*
G01*
X355008000Y-94000250D01*
G75*
G02*
X354933000Y-94075250I-75000J0D01*
G01*
X354783000Y-94075250D01*
G75*
G02*
X354708000Y-94000250I0J75000D01*
G01*
G37*
G36*
G01*
X355208000Y-94000250D02*
X355208000Y-92700250D01*
G75*
G02*
X355283000Y-92625250I75000J0D01*
G01*
X355433000Y-92625250D01*
G75*
G02*
X355508000Y-92700250I0J-75000D01*
G01*
X355508000Y-94000250D01*
G75*
G02*
X355433000Y-94075250I-75000J0D01*
G01*
X355283000Y-94075250D01*
G75*
G02*
X355208000Y-94000250I0J75000D01*
G01*
G37*
G36*
G01*
X355704000Y-94000250D02*
X355704000Y-92700250D01*
G75*
G02*
X355779000Y-92625250I75000J0D01*
G01*
X355929000Y-92625250D01*
G75*
G02*
X356004000Y-92700250I0J-75000D01*
G01*
X356004000Y-94000250D01*
G75*
G02*
X355929000Y-94075250I-75000J0D01*
G01*
X355779000Y-94075250D01*
G75*
G02*
X355704000Y-94000250I0J75000D01*
G01*
G37*
G36*
G01*
X357708000Y-94000250D02*
X357708000Y-92700250D01*
G75*
G02*
X357783000Y-92625250I75000J0D01*
G01*
X357933000Y-92625250D01*
G75*
G02*
X358008000Y-92700250I0J-75000D01*
G01*
X358008000Y-94000250D01*
G75*
G02*
X357933000Y-94075250I-75000J0D01*
G01*
X357783000Y-94075250D01*
G75*
G02*
X357708000Y-94000250I0J75000D01*
G01*
G37*
G36*
G01*
X357208000Y-94000250D02*
X357208000Y-92700250D01*
G75*
G02*
X357283000Y-92625250I75000J0D01*
G01*
X357433000Y-92625250D01*
G75*
G02*
X357508000Y-92700250I0J-75000D01*
G01*
X357508000Y-94000250D01*
G75*
G02*
X357433000Y-94075250I-75000J0D01*
G01*
X357283000Y-94075250D01*
G75*
G02*
X357208000Y-94000250I0J75000D01*
G01*
G37*
G36*
G01*
X356708000Y-94000250D02*
X356708000Y-92700250D01*
G75*
G02*
X356783000Y-92625250I75000J0D01*
G01*
X356933000Y-92625250D01*
G75*
G02*
X357008000Y-92700250I0J-75000D01*
G01*
X357008000Y-94000250D01*
G75*
G02*
X356933000Y-94075250I-75000J0D01*
G01*
X356783000Y-94075250D01*
G75*
G02*
X356708000Y-94000250I0J75000D01*
G01*
G37*
G36*
G01*
X356208000Y-94000250D02*
X356208000Y-92700250D01*
G75*
G02*
X356283000Y-92625250I75000J0D01*
G01*
X356433000Y-92625250D01*
G75*
G02*
X356508000Y-92700250I0J-75000D01*
G01*
X356508000Y-94000250D01*
G75*
G02*
X356433000Y-94075250I-75000J0D01*
G01*
X356283000Y-94075250D01*
G75*
G02*
X356208000Y-94000250I0J75000D01*
G01*
G37*
G36*
G01*
X353358000Y-93925250D02*
X353358000Y-92775250D01*
G75*
G02*
X353508000Y-92625250I150000J0D01*
G01*
X353808000Y-92625250D01*
G75*
G02*
X353958000Y-92775250I0J-150000D01*
G01*
X353958000Y-93925250D01*
G75*
G02*
X353808000Y-94075250I-150000J0D01*
G01*
X353508000Y-94075250D01*
G75*
G02*
X353358000Y-93925250I0J150000D01*
G01*
G37*
G36*
G01*
X359058000Y-93925250D02*
X359058000Y-92775250D01*
G75*
G02*
X359208000Y-92625250I150000J0D01*
G01*
X359508000Y-92625250D01*
G75*
G02*
X359658000Y-92775250I0J-150000D01*
G01*
X359658000Y-93925250D01*
G75*
G02*
X359508000Y-94075250I-150000J0D01*
G01*
X359208000Y-94075250D01*
G75*
G02*
X359058000Y-93925250I0J150000D01*
G01*
G37*
G36*
G01*
X358258000Y-93925250D02*
X358258000Y-92775250D01*
G75*
G02*
X358408000Y-92625250I150000J0D01*
G01*
X358708000Y-92625250D01*
G75*
G02*
X358858000Y-92775250I0J-150000D01*
G01*
X358858000Y-93925250D01*
G75*
G02*
X358708000Y-94075250I-150000J0D01*
G01*
X358408000Y-94075250D01*
G75*
G02*
X358258000Y-93925250I0J150000D01*
G01*
G37*
G36*
G01*
X349823001Y-97206250D02*
X348422999Y-97206250D01*
G75*
G02*
X348173000Y-96956251I0J249999D01*
G01*
X348173000Y-96406249D01*
G75*
G02*
X348422999Y-96156250I249999J0D01*
G01*
X349823001Y-96156250D01*
G75*
G02*
X350073000Y-96406249I0J-249999D01*
G01*
X350073000Y-96956251D01*
G75*
G02*
X349823001Y-97206250I-249999J0D01*
G01*
G37*
G36*
G01*
X349823001Y-94056250D02*
X348422999Y-94056250D01*
G75*
G02*
X348173000Y-93806251I0J249999D01*
G01*
X348173000Y-93256249D01*
G75*
G02*
X348422999Y-93006250I249999J0D01*
G01*
X349823001Y-93006250D01*
G75*
G02*
X350073000Y-93256249I0J-249999D01*
G01*
X350073000Y-93806251D01*
G75*
G02*
X349823001Y-94056250I-249999J0D01*
G01*
G37*
G36*
G01*
X363608000Y-96472250D02*
X363608000Y-95772250D01*
G75*
G02*
X363858000Y-95522250I250000J0D01*
G01*
X364358000Y-95522250D01*
G75*
G02*
X364608000Y-95772250I0J-250000D01*
G01*
X364608000Y-96472250D01*
G75*
G02*
X364358000Y-96722250I-250000J0D01*
G01*
X363858000Y-96722250D01*
G75*
G02*
X363608000Y-96472250I0J250000D01*
G01*
G37*
G36*
G01*
X360308000Y-96472250D02*
X360308000Y-95772250D01*
G75*
G02*
X360558000Y-95522250I250000J0D01*
G01*
X361058000Y-95522250D01*
G75*
G02*
X361308000Y-95772250I0J-250000D01*
G01*
X361308000Y-96472250D01*
G75*
G02*
X361058000Y-96722250I-250000J0D01*
G01*
X360558000Y-96722250D01*
G75*
G02*
X360308000Y-96472250I0J250000D01*
G01*
G37*
X287337500Y-208818750D03*
X287337500Y-205518750D03*
G36*
G01*
X357233000Y-95493650D02*
X357233000Y-95793650D01*
G75*
G02*
X357108000Y-95918650I-125000J0D01*
G01*
X357108000Y-95918650D01*
G75*
G02*
X356983000Y-95793650I0J125000D01*
G01*
X356983000Y-95493650D01*
G75*
G02*
X357108000Y-95368650I125000J0D01*
G01*
X357108000Y-95368650D01*
G75*
G02*
X357233000Y-95493650I0J-125000D01*
G01*
G37*
D18*
X356608000Y-95643650D03*
D19*
X356108000Y-95643650D03*
D18*
X355608000Y-95643650D03*
X355108000Y-95643650D03*
X356608000Y-94873650D03*
X355108000Y-94873650D03*
X355608000Y-94873650D03*
X357108000Y-94873650D03*
D19*
X356108000Y-94873650D03*
D13*
X342900000Y-170718750D03*
X342900000Y-167418750D03*
G36*
G01*
X358881000Y-95136250D02*
X359431000Y-95136250D01*
G75*
G02*
X359631000Y-95336250I0J-200000D01*
G01*
X359631000Y-95736250D01*
G75*
G02*
X359431000Y-95936250I-200000J0D01*
G01*
X358881000Y-95936250D01*
G75*
G02*
X358681000Y-95736250I0J200000D01*
G01*
X358681000Y-95336250D01*
G75*
G02*
X358881000Y-95136250I200000J0D01*
G01*
G37*
G36*
G01*
X358881000Y-96786250D02*
X359431000Y-96786250D01*
G75*
G02*
X359631000Y-96986250I0J-200000D01*
G01*
X359631000Y-97386250D01*
G75*
G02*
X359431000Y-97586250I-200000J0D01*
G01*
X358881000Y-97586250D01*
G75*
G02*
X358681000Y-97386250I0J200000D01*
G01*
X358681000Y-96986250D01*
G75*
G02*
X358881000Y-96786250I200000J0D01*
G01*
G37*
X304800000Y-208818750D03*
X304800000Y-205518750D03*
X325437500Y-227868750D03*
X325437500Y-224568750D03*
X342900000Y-132618750D03*
X342900000Y-129318750D03*
X344487500Y-151668750D03*
X344487500Y-148368750D03*
X306387500Y-227868750D03*
X306387500Y-224568750D03*
X344487500Y-227868750D03*
X344487500Y-224568750D03*
X325437500Y-208818750D03*
X325437500Y-205518750D03*
X287337500Y-227868750D03*
X287337500Y-224568750D03*
D11*
X43715000Y-218916250D03*
X56615000Y-216376250D03*
D13*
X306387500Y-189768750D03*
X306387500Y-186468750D03*
X342900000Y-208818750D03*
X342900000Y-205518750D03*
X325437500Y-132618750D03*
X325437500Y-129318750D03*
X304800000Y-170718750D03*
X304800000Y-167418750D03*
X325437500Y-170718750D03*
X325437500Y-167418750D03*
X363537500Y-151668750D03*
X363537500Y-148368750D03*
X363537500Y-227868750D03*
X363537500Y-224568750D03*
X325437500Y-189768750D03*
X325437500Y-186468750D03*
X304800000Y-132618750D03*
X304800000Y-129318750D03*
X344487500Y-189768750D03*
X344487500Y-186468750D03*
D11*
X310415000Y-161766250D03*
X323315000Y-159226250D03*
D13*
X363537500Y-170718750D03*
X363537500Y-167418750D03*
X363537500Y-132618750D03*
X363537500Y-129318750D03*
D11*
X348515000Y-161766250D03*
X361415000Y-159226250D03*
X62765000Y-123666250D03*
X75665000Y-121126250D03*
D13*
X363537500Y-208881250D03*
X363537500Y-205581250D03*
X363537500Y-189768750D03*
X363537500Y-186468750D03*
D11*
X43715000Y-142716250D03*
X56615000Y-140176250D03*
X43715000Y-161766250D03*
X56615000Y-159226250D03*
X310415000Y-180816250D03*
X323315000Y-178276250D03*
X310415000Y-199866250D03*
X323315000Y-197326250D03*
X329465000Y-199866250D03*
X342365000Y-197326250D03*
X43715000Y-180816250D03*
X56615000Y-178276250D03*
X81815000Y-218916250D03*
X94715000Y-216376250D03*
X348515000Y-180816250D03*
X361415000Y-178276250D03*
X329465000Y-218916250D03*
X342365000Y-216376250D03*
X348515000Y-142716250D03*
X361415000Y-140176250D03*
X62765000Y-180816250D03*
X75665000Y-178276250D03*
X81815000Y-142716250D03*
X94715000Y-140176250D03*
X291365000Y-218916250D03*
X304265000Y-216376250D03*
X329465000Y-180816250D03*
X342365000Y-178276250D03*
X310415000Y-142716250D03*
X323315000Y-140176250D03*
X310415000Y-218916250D03*
X323315000Y-216376250D03*
X291365000Y-199866250D03*
X304265000Y-197326250D03*
X329465000Y-123666250D03*
X342365000Y-121126250D03*
X81815000Y-161766250D03*
X94715000Y-159226250D03*
X291365000Y-180816250D03*
X304265000Y-178276250D03*
X310415000Y-123666250D03*
X323315000Y-121126250D03*
G36*
G01*
X338706000Y-91233000D02*
X338706000Y-90758000D01*
G75*
G02*
X338943500Y-90520500I237500J0D01*
G01*
X339443500Y-90520500D01*
G75*
G02*
X339681000Y-90758000I0J-237500D01*
G01*
X339681000Y-91233000D01*
G75*
G02*
X339443500Y-91470500I-237500J0D01*
G01*
X338943500Y-91470500D01*
G75*
G02*
X338706000Y-91233000I0J237500D01*
G01*
G37*
G36*
G01*
X340531000Y-91233000D02*
X340531000Y-90758000D01*
G75*
G02*
X340768500Y-90520500I237500J0D01*
G01*
X341268500Y-90520500D01*
G75*
G02*
X341506000Y-90758000I0J-237500D01*
G01*
X341506000Y-91233000D01*
G75*
G02*
X341268500Y-91470500I-237500J0D01*
G01*
X340768500Y-91470500D01*
G75*
G02*
X340531000Y-91233000I0J237500D01*
G01*
G37*
X177065000Y-142716250D03*
X189965000Y-140176250D03*
X196115000Y-123666250D03*
X209015000Y-121126250D03*
D20*
X316938999Y-99116500D03*
X319838999Y-99116500D03*
X319838999Y-101416500D03*
X316938999Y-101416500D03*
G36*
G01*
X325752000Y-91296500D02*
X325752000Y-90821500D01*
G75*
G02*
X325989500Y-90584000I237500J0D01*
G01*
X326489500Y-90584000D01*
G75*
G02*
X326727000Y-90821500I0J-237500D01*
G01*
X326727000Y-91296500D01*
G75*
G02*
X326489500Y-91534000I-237500J0D01*
G01*
X325989500Y-91534000D01*
G75*
G02*
X325752000Y-91296500I0J237500D01*
G01*
G37*
G36*
G01*
X327577000Y-91296500D02*
X327577000Y-90821500D01*
G75*
G02*
X327814500Y-90584000I237500J0D01*
G01*
X328314500Y-90584000D01*
G75*
G02*
X328552000Y-90821500I0J-237500D01*
G01*
X328552000Y-91296500D01*
G75*
G02*
X328314500Y-91534000I-237500J0D01*
G01*
X327814500Y-91534000D01*
G75*
G02*
X327577000Y-91296500I0J237500D01*
G01*
G37*
G36*
G01*
X322755612Y-100523988D02*
X323091488Y-100188112D01*
G75*
G02*
X323427364Y-100188112I167938J-167938D01*
G01*
X323780918Y-100541666D01*
G75*
G02*
X323780918Y-100877542I-167938J-167938D01*
G01*
X323445042Y-101213418D01*
G75*
G02*
X323109166Y-101213418I-167938J167938D01*
G01*
X322755612Y-100859864D01*
G75*
G02*
X322755612Y-100523988I167938J167938D01*
G01*
G37*
G36*
G01*
X324046082Y-101814458D02*
X324381958Y-101478582D01*
G75*
G02*
X324717834Y-101478582I167938J-167938D01*
G01*
X325071388Y-101832136D01*
G75*
G02*
X325071388Y-102168012I-167938J-167938D01*
G01*
X324735512Y-102503888D01*
G75*
G02*
X324399636Y-102503888I-167938J167938D01*
G01*
X324046082Y-102150334D01*
G75*
G02*
X324046082Y-101814458I167938J167938D01*
G01*
G37*
D11*
X196115000Y-161766250D03*
X209015000Y-159226250D03*
G36*
G01*
X318646000Y-90059500D02*
X318646000Y-90534500D01*
G75*
G02*
X318408500Y-90772000I-237500J0D01*
G01*
X317908500Y-90772000D01*
G75*
G02*
X317671000Y-90534500I0J237500D01*
G01*
X317671000Y-90059500D01*
G75*
G02*
X317908500Y-89822000I237500J0D01*
G01*
X318408500Y-89822000D01*
G75*
G02*
X318646000Y-90059500I0J-237500D01*
G01*
G37*
G36*
G01*
X316821000Y-90059500D02*
X316821000Y-90534500D01*
G75*
G02*
X316583500Y-90772000I-237500J0D01*
G01*
X316083500Y-90772000D01*
G75*
G02*
X315846000Y-90534500I0J237500D01*
G01*
X315846000Y-90059500D01*
G75*
G02*
X316083500Y-89822000I237500J0D01*
G01*
X316583500Y-89822000D01*
G75*
G02*
X316821000Y-90059500I0J-237500D01*
G01*
G37*
X215165000Y-142716250D03*
X228065000Y-140176250D03*
X253265000Y-123666250D03*
X266165000Y-121126250D03*
X253265000Y-180816250D03*
X266165000Y-178276250D03*
X138965000Y-161766250D03*
X151865000Y-159226250D03*
X234215000Y-142716250D03*
X247115000Y-140176250D03*
X215165000Y-123666250D03*
X228065000Y-121126250D03*
X215165000Y-218916250D03*
X228065000Y-216376250D03*
X253265000Y-199866250D03*
X266165000Y-197326250D03*
X272315000Y-123666250D03*
X285215000Y-121126250D03*
X272315000Y-199866250D03*
X285215000Y-197326250D03*
X253265000Y-218916250D03*
X266165000Y-216376250D03*
X138965000Y-180816250D03*
X151865000Y-178276250D03*
X215165000Y-199866250D03*
X228065000Y-197326250D03*
X234215000Y-218916250D03*
X247115000Y-216376250D03*
X234215000Y-123666250D03*
X247115000Y-121126250D03*
X234215000Y-180816250D03*
X247115000Y-178276250D03*
X215165000Y-180816250D03*
X228065000Y-178276250D03*
X138965000Y-142716250D03*
X151865000Y-140176250D03*
X215165000Y-161766250D03*
X228065000Y-159226250D03*
X234215000Y-161766250D03*
X247115000Y-159226250D03*
X272315000Y-161766250D03*
X285215000Y-159226250D03*
X291365000Y-123666250D03*
X304265000Y-121126250D03*
X272315000Y-142716250D03*
X285215000Y-140176250D03*
X119915000Y-199866250D03*
X132815000Y-197326250D03*
X291365000Y-142716250D03*
X304265000Y-140176250D03*
X272315000Y-180816250D03*
X285215000Y-178276250D03*
X234215000Y-199866250D03*
X247115000Y-197326250D03*
X119915000Y-142716250D03*
X132815000Y-140176250D03*
X100865000Y-180816250D03*
X113765000Y-178276250D03*
X253265000Y-142716250D03*
X266165000Y-140176250D03*
X272315000Y-218916250D03*
X285215000Y-216376250D03*
X138965000Y-218916250D03*
X151865000Y-216376250D03*
X138965000Y-123666250D03*
X151865000Y-121126250D03*
D13*
X268287500Y-189768750D03*
X268287500Y-186468750D03*
X77787500Y-132618750D03*
X77787500Y-129318750D03*
X77787500Y-151668750D03*
X77787500Y-148368750D03*
X57150000Y-170718750D03*
X57150000Y-167418750D03*
D11*
X119915000Y-180816250D03*
X132815000Y-178276250D03*
D13*
X230187500Y-208818750D03*
X230187500Y-205518750D03*
D11*
X100865000Y-199866250D03*
X113765000Y-197326250D03*
X100865000Y-218916250D03*
X113765000Y-216376250D03*
X119915000Y-123666250D03*
X132815000Y-121126250D03*
X138965000Y-199866250D03*
X151865000Y-197326250D03*
X119915000Y-161766250D03*
X132815000Y-159226250D03*
D13*
X249237500Y-227868750D03*
X249237500Y-224568750D03*
X249237500Y-151668750D03*
X249237500Y-148368750D03*
D11*
X100865000Y-142716250D03*
X113765000Y-140176250D03*
X119915000Y-218916250D03*
X132815000Y-216376250D03*
X348515000Y-199866250D03*
X361415000Y-197326250D03*
X348515000Y-218916250D03*
X361415000Y-216376250D03*
D13*
X57150000Y-132618750D03*
X57150000Y-129318750D03*
X268287500Y-227868750D03*
X268287500Y-224568750D03*
X287337500Y-132618750D03*
X287337500Y-129318750D03*
X266700000Y-132618750D03*
X266700000Y-129318750D03*
X230187500Y-189768750D03*
X230187500Y-186468750D03*
X266700000Y-170718750D03*
X266700000Y-167418750D03*
X266700000Y-208881250D03*
X266700000Y-205581250D03*
X287337500Y-151668750D03*
X287337500Y-148368750D03*
D11*
X329465000Y-142716250D03*
X342365000Y-140176250D03*
D13*
X96837500Y-227931250D03*
X96837500Y-224631250D03*
X268287500Y-151668750D03*
X268287500Y-148368750D03*
X249237500Y-170718750D03*
X249237500Y-167418750D03*
X58737500Y-227868750D03*
X58737500Y-224568750D03*
X249237500Y-132618750D03*
X249237500Y-129318750D03*
X230187500Y-227868750D03*
X230187500Y-224568750D03*
X287337500Y-170718750D03*
X287337500Y-167418750D03*
X249237500Y-208881250D03*
X249237500Y-205581250D03*
X249237500Y-189768750D03*
X249237500Y-186468750D03*
M02*
