%FSLAX45Y45*%
G04 Gerber Fmt 4.5, Leading zero omitted, Abs format (unit mm)*
G04 Created by KiCad (PCBNEW (5.1.10)-1) date 2021-12-06 23:46:47*
%MOMM*%
%LPD*%
G01*
G04 APERTURE LIST*
%TA.AperFunction,Profile*%
%ADD10C,0.100000*%
%TD*%
%ADD11C,0.200000*%
%ADD12C,0.300000*%
G04 APERTURE END LIST*
D10*
X6429375Y-11430000D02*
X6746875Y-11430000D01*
X6429375Y-11668125D02*
G75*
G03*
X6508750Y-11588750I0J79375D01*
G01*
X6508750Y-11509375D02*
G75*
G03*
X6429375Y-11430000I-79375J0D01*
G01*
X5476875Y-11430000D02*
X5794375Y-11430000D01*
X4762500Y-11509375D02*
X4762500Y-11588750D01*
X5953125Y-11668125D02*
G75*
G03*
X6032500Y-11588750I0J79375D01*
G01*
X5080000Y-11509375D02*
X5080000Y-11588750D01*
X4603750Y-11509375D02*
G75*
G03*
X4524375Y-11430000I-79375J0D01*
G01*
X5953125Y-11668125D02*
X6270625Y-11668125D01*
X4762500Y-11588750D02*
G75*
G03*
X4841875Y-11668125I79375J0D01*
G01*
X4286250Y-11588750D02*
G75*
G03*
X4365625Y-11668125I79375J0D01*
G01*
X5953125Y-11430000D02*
X6270625Y-11430000D01*
X4841875Y-11430000D02*
G75*
G03*
X4762500Y-11509375I0J-79375D01*
G01*
X4603750Y-11509375D02*
X4603750Y-11588750D01*
X5000625Y-11430000D02*
X5318125Y-11430000D01*
X6746875Y-11430000D02*
G75*
G03*
X6667500Y-11509375I0J-79375D01*
G01*
X4524375Y-11668125D02*
X4841875Y-11668125D01*
X5000625Y-11668125D02*
G75*
G03*
X5080000Y-11588750I0J79375D01*
G01*
X6270625Y-11430000D02*
G75*
G03*
X6191250Y-11509375I0J-79375D01*
G01*
X4286250Y-11509375D02*
X4286250Y-11588750D01*
X5318125Y-11430000D02*
G75*
G03*
X5238750Y-11509375I0J-79375D01*
G01*
X4524375Y-11430000D02*
X4841875Y-11430000D01*
X5556250Y-11509375D02*
G75*
G03*
X5476875Y-11430000I-79375J0D01*
G01*
X4365625Y-11430000D02*
G75*
G03*
X4286250Y-11509375I0J-79375D01*
G01*
X6032500Y-11509375D02*
G75*
G03*
X5953125Y-11430000I-79375J0D01*
G01*
X5476875Y-11668125D02*
G75*
G03*
X5556250Y-11588750I0J79375D01*
G01*
X5715000Y-11588750D02*
G75*
G03*
X5794375Y-11668125I79375J0D01*
G01*
X6508750Y-11509375D02*
X6508750Y-11588750D01*
X5794375Y-11430000D02*
G75*
G03*
X5715000Y-11509375I0J-79375D01*
G01*
X5238750Y-11509375D02*
X5238750Y-11588750D01*
X5000625Y-11668125D02*
X5318125Y-11668125D01*
X4524375Y-11668125D02*
G75*
G03*
X4603750Y-11588750I0J79375D01*
G01*
X6667500Y-11588750D02*
G75*
G03*
X6746875Y-11668125I79375J0D01*
G01*
X5238750Y-11588750D02*
G75*
G03*
X5318125Y-11668125I79375J0D01*
G01*
X6032500Y-11509375D02*
X6032500Y-11588750D01*
X5556250Y-11509375D02*
X5556250Y-11588750D01*
X6191250Y-11588750D02*
G75*
G03*
X6270625Y-11668125I79375J0D01*
G01*
X5080000Y-11509375D02*
G75*
G03*
X5000625Y-11430000I-79375J0D01*
G01*
X5476875Y-11668125D02*
X5794375Y-11668125D01*
X6429375Y-11668125D02*
X6746875Y-11668125D01*
X6667500Y-11509375D02*
X6667500Y-11588750D01*
X6191250Y-11509375D02*
X6191250Y-11588750D01*
X5715000Y-11509375D02*
X5715000Y-11588750D01*
X9842500Y-11350625D02*
X9842500Y-11509375D01*
X9763125Y-11668125D02*
G75*
G03*
X9842500Y-11588750I0J79375D01*
G01*
X9763125Y-11668125D02*
X9921875Y-11668125D01*
X9842500Y-11191875D02*
G75*
G03*
X9763125Y-11112500I-79375J0D01*
G01*
X9842500Y-11509375D02*
G75*
G03*
X9763125Y-11430000I-79375J0D01*
G01*
X9763125Y-11430000D02*
G75*
G03*
X9842500Y-11350625I0J79375D01*
G01*
X9921875Y-11668125D02*
G75*
G02*
X9842500Y-11588750I0J79375D01*
G01*
X9842500Y-11191875D02*
X9842500Y-11033125D01*
X9842500Y-10874375D02*
G75*
G03*
X9763125Y-10795000I-79375J0D01*
G01*
X9842500Y-10874375D02*
X9842500Y-10715625D01*
X9763125Y-11112500D02*
G75*
G03*
X9842500Y-11033125I0J79375D01*
G01*
X9763125Y-10795000D02*
G75*
G03*
X9842500Y-10715625I0J79375D01*
G01*
X7620000Y-11509375D02*
X7620000Y-11588750D01*
X7937500Y-11509375D02*
X7937500Y-11588750D01*
X7381875Y-11430000D02*
X7699375Y-11430000D01*
X9286875Y-11430000D02*
X9604375Y-11430000D01*
X6985000Y-11509375D02*
G75*
G03*
X6905625Y-11430000I-79375J0D01*
G01*
X7143750Y-11588750D02*
G75*
G03*
X7223125Y-11668125I79375J0D01*
G01*
X6905625Y-11668125D02*
G75*
G03*
X6985000Y-11588750I0J79375D01*
G01*
X8651875Y-11430000D02*
G75*
G03*
X8572500Y-11509375I0J-79375D01*
G01*
X6905625Y-11668125D02*
X7223125Y-11668125D01*
X9286875Y-11668125D02*
G75*
G03*
X9366250Y-11588750I0J79375D01*
G01*
X7461250Y-11509375D02*
G75*
G03*
X7381875Y-11430000I-79375J0D01*
G01*
X7858125Y-11668125D02*
G75*
G03*
X7937500Y-11588750I0J79375D01*
G01*
X8810625Y-11430000D02*
X9128125Y-11430000D01*
X6985000Y-11509375D02*
X6985000Y-11588750D01*
X6905625Y-11430000D02*
X7223125Y-11430000D01*
X7461250Y-11509375D02*
X7461250Y-11588750D01*
X7143750Y-11509375D02*
X7143750Y-11588750D01*
X7381875Y-11668125D02*
G75*
G03*
X7461250Y-11588750I0J79375D01*
G01*
X7223125Y-11430000D02*
G75*
G03*
X7143750Y-11509375I0J-79375D01*
G01*
X7699375Y-11430000D02*
G75*
G03*
X7620000Y-11509375I0J-79375D01*
G01*
X7381875Y-11668125D02*
X7699375Y-11668125D01*
X7620000Y-11588750D02*
G75*
G03*
X7699375Y-11668125I79375J0D01*
G01*
X8890000Y-11509375D02*
G75*
G03*
X8810625Y-11430000I-79375J0D01*
G01*
X9604375Y-11430000D02*
G75*
G03*
X9525000Y-11509375I0J-79375D01*
G01*
X9128125Y-11430000D02*
G75*
G03*
X9048750Y-11509375I0J-79375D01*
G01*
X7858125Y-11430000D02*
X8175625Y-11430000D01*
X8175625Y-11430000D02*
G75*
G03*
X8096250Y-11509375I0J-79375D01*
G01*
X8334375Y-11668125D02*
G75*
G03*
X8413750Y-11588750I0J79375D01*
G01*
X8572500Y-11588750D02*
G75*
G03*
X8651875Y-11668125I79375J0D01*
G01*
X8810625Y-11668125D02*
X9128125Y-11668125D01*
X9366250Y-11509375D02*
G75*
G03*
X9286875Y-11430000I-79375J0D01*
G01*
X8334375Y-11430000D02*
X8651875Y-11430000D01*
X7858125Y-11668125D02*
X8175625Y-11668125D01*
X9366250Y-11509375D02*
X9366250Y-11588750D01*
X8810625Y-11668125D02*
G75*
G03*
X8890000Y-11588750I0J79375D01*
G01*
X8413750Y-11509375D02*
G75*
G03*
X8334375Y-11430000I-79375J0D01*
G01*
X8096250Y-11509375D02*
X8096250Y-11588750D01*
X9048750Y-11588750D02*
G75*
G03*
X9128125Y-11668125I79375J0D01*
G01*
X7937500Y-11509375D02*
G75*
G03*
X7858125Y-11430000I-79375J0D01*
G01*
X8334375Y-11668125D02*
X8651875Y-11668125D01*
X9286875Y-11668125D02*
X9604375Y-11668125D01*
X9525000Y-11588750D02*
G75*
G03*
X9604375Y-11668125I79375J0D01*
G01*
X9525000Y-11509375D02*
X9525000Y-11588750D01*
X8572500Y-11509375D02*
X8572500Y-11588750D01*
X8096250Y-11588750D02*
G75*
G03*
X8175625Y-11668125I79375J0D01*
G01*
X9048750Y-11509375D02*
X9048750Y-11588750D01*
X8890000Y-11509375D02*
X8890000Y-11588750D01*
X8413750Y-11509375D02*
X8413750Y-11588750D01*
X10953750Y-11509375D02*
X10953750Y-11588750D01*
X11271250Y-11509375D02*
X11271250Y-11588750D01*
X10715625Y-11430000D02*
X11033125Y-11430000D01*
X12620625Y-11430000D02*
X12938125Y-11430000D01*
X10318750Y-11509375D02*
G75*
G03*
X10239375Y-11430000I-79375J0D01*
G01*
X10477500Y-11588750D02*
G75*
G03*
X10556875Y-11668125I79375J0D01*
G01*
X10239375Y-11668125D02*
G75*
G03*
X10318750Y-11588750I0J79375D01*
G01*
X11985625Y-11430000D02*
G75*
G03*
X11906250Y-11509375I0J-79375D01*
G01*
X10239375Y-11668125D02*
X10556875Y-11668125D01*
X12620625Y-11668125D02*
G75*
G03*
X12700000Y-11588750I0J79375D01*
G01*
X10795000Y-11509375D02*
G75*
G03*
X10715625Y-11430000I-79375J0D01*
G01*
X11191875Y-11668125D02*
G75*
G03*
X11271250Y-11588750I0J79375D01*
G01*
X12144375Y-11430000D02*
X12461875Y-11430000D01*
X10318750Y-11509375D02*
X10318750Y-11588750D01*
X10239375Y-11430000D02*
X10556875Y-11430000D01*
X10795000Y-11509375D02*
X10795000Y-11588750D01*
X10477500Y-11509375D02*
X10477500Y-11588750D01*
X10715625Y-11668125D02*
G75*
G03*
X10795000Y-11588750I0J79375D01*
G01*
X10556875Y-11430000D02*
G75*
G03*
X10477500Y-11509375I0J-79375D01*
G01*
X11033125Y-11430000D02*
G75*
G03*
X10953750Y-11509375I0J-79375D01*
G01*
X10715625Y-11668125D02*
X11033125Y-11668125D01*
X10953750Y-11588750D02*
G75*
G03*
X11033125Y-11668125I79375J0D01*
G01*
X13096875Y-11668125D02*
G75*
G03*
X13176250Y-11588750I0J79375D01*
G01*
X12223750Y-11509375D02*
G75*
G03*
X12144375Y-11430000I-79375J0D01*
G01*
X13096875Y-11430000D02*
X13414375Y-11430000D01*
X12938125Y-11430000D02*
G75*
G03*
X12858750Y-11509375I0J-79375D01*
G01*
X12461875Y-11430000D02*
G75*
G03*
X12382500Y-11509375I0J-79375D01*
G01*
X13335000Y-11509375D02*
X13335000Y-11588750D01*
X11191875Y-11430000D02*
X11509375Y-11430000D01*
X11509375Y-11430000D02*
G75*
G03*
X11430000Y-11509375I0J-79375D01*
G01*
X13096875Y-11668125D02*
X13414375Y-11668125D01*
X11668125Y-11668125D02*
G75*
G03*
X11747500Y-11588750I0J79375D01*
G01*
X11906250Y-11588750D02*
G75*
G03*
X11985625Y-11668125I79375J0D01*
G01*
X12144375Y-11668125D02*
X12461875Y-11668125D01*
X13176250Y-11509375D02*
X13176250Y-11588750D01*
X12700000Y-11509375D02*
G75*
G03*
X12620625Y-11430000I-79375J0D01*
G01*
X13414375Y-11430000D02*
G75*
G03*
X13335000Y-11509375I0J-79375D01*
G01*
X11668125Y-11430000D02*
X11985625Y-11430000D01*
X11191875Y-11668125D02*
X11509375Y-11668125D01*
X12700000Y-11509375D02*
X12700000Y-11588750D01*
X12144375Y-11668125D02*
G75*
G03*
X12223750Y-11588750I0J79375D01*
G01*
X11747500Y-11509375D02*
G75*
G03*
X11668125Y-11430000I-79375J0D01*
G01*
X11430000Y-11509375D02*
X11430000Y-11588750D01*
X12382500Y-11588750D02*
G75*
G03*
X12461875Y-11668125I79375J0D01*
G01*
X11271250Y-11509375D02*
G75*
G03*
X11191875Y-11430000I-79375J0D01*
G01*
X11668125Y-11668125D02*
X11985625Y-11668125D01*
X12620625Y-11668125D02*
X12938125Y-11668125D01*
X12858750Y-11588750D02*
G75*
G03*
X12938125Y-11668125I79375J0D01*
G01*
X12858750Y-11509375D02*
X12858750Y-11588750D01*
X11906250Y-11509375D02*
X11906250Y-11588750D01*
X11430000Y-11588750D02*
G75*
G03*
X11509375Y-11668125I79375J0D01*
G01*
X12382500Y-11509375D02*
X12382500Y-11588750D01*
X13335000Y-11588750D02*
G75*
G03*
X13414375Y-11668125I79375J0D01*
G01*
X13176250Y-11509375D02*
G75*
G03*
X13096875Y-11430000I-79375J0D01*
G01*
X12223750Y-11509375D02*
X12223750Y-11588750D01*
X11747500Y-11509375D02*
X11747500Y-11588750D01*
X13652500Y-10874375D02*
G75*
G03*
X13573125Y-10795000I-79375J0D01*
G01*
X13652500Y-10874375D02*
X13652500Y-10715625D01*
X13573125Y-11112500D02*
G75*
G03*
X13652500Y-11033125I0J79375D01*
G01*
X13573125Y-10795000D02*
G75*
G03*
X13652500Y-10715625I0J79375D01*
G01*
X13652500Y-11350625D02*
X13652500Y-11509375D01*
X13573125Y-11668125D02*
X13731875Y-11668125D01*
X13652500Y-11191875D02*
X13652500Y-11033125D01*
X13652500Y-11191875D02*
G75*
G03*
X13573125Y-11112500I-79375J0D01*
G01*
X13652500Y-11509375D02*
G75*
G03*
X13573125Y-11430000I-79375J0D01*
G01*
X13573125Y-11668125D02*
G75*
G03*
X13652500Y-11588750I0J79375D01*
G01*
X13573125Y-11430000D02*
G75*
G03*
X13652500Y-11350625I0J79375D01*
G01*
X13731875Y-11668125D02*
G75*
G02*
X13652500Y-11588750I0J79375D01*
G01*
X14049375Y-11668125D02*
G75*
G03*
X14128750Y-11588750I0J79375D01*
G01*
X14525625Y-11668125D02*
G75*
G03*
X14605000Y-11588750I0J79375D01*
G01*
X14049375Y-11430000D02*
X14366875Y-11430000D01*
X14287500Y-11588750D02*
G75*
G03*
X14366875Y-11668125I79375J0D01*
G01*
X14287500Y-11509375D02*
X14287500Y-11588750D01*
X14525625Y-11430000D02*
X14843125Y-11430000D01*
X14605000Y-11509375D02*
X14605000Y-11588750D01*
X14128750Y-11509375D02*
G75*
G03*
X14049375Y-11430000I-79375J0D01*
G01*
X14128750Y-11509375D02*
X14128750Y-11588750D01*
X14366875Y-11430000D02*
G75*
G03*
X14287500Y-11509375I0J-79375D01*
G01*
X14525625Y-11668125D02*
X14843125Y-11668125D01*
X14763750Y-11588750D02*
G75*
G03*
X14843125Y-11668125I79375J0D01*
G01*
X14605000Y-11509375D02*
G75*
G03*
X14525625Y-11430000I-79375J0D01*
G01*
X14049375Y-11668125D02*
X14366875Y-11668125D01*
X14763750Y-11509375D02*
X14763750Y-11588750D01*
X14843125Y-11430000D02*
G75*
G03*
X14763750Y-11509375I0J-79375D01*
G01*
X15954375Y-11430000D02*
X16271875Y-11430000D01*
X16430625Y-11668125D02*
G75*
G03*
X16510000Y-11588750I0J79375D01*
G01*
X15795625Y-11430000D02*
G75*
G03*
X15716250Y-11509375I0J-79375D01*
G01*
X16906875Y-11668125D02*
G75*
G03*
X16986250Y-11588750I0J79375D01*
G01*
X16430625Y-11430000D02*
X16748125Y-11430000D01*
X15081250Y-11509375D02*
X15081250Y-11588750D01*
X15001875Y-11668125D02*
G75*
G03*
X15081250Y-11588750I0J79375D01*
G01*
X15081250Y-11509375D02*
G75*
G03*
X15001875Y-11430000I-79375J0D01*
G01*
X16668750Y-11588750D02*
G75*
G03*
X16748125Y-11668125I79375J0D01*
G01*
X16033750Y-11509375D02*
X16033750Y-11588750D01*
X15001875Y-11430000D02*
X15319375Y-11430000D01*
X15319375Y-11430000D02*
G75*
G03*
X15240000Y-11509375I0J-79375D01*
G01*
X16033750Y-11509375D02*
G75*
G03*
X15954375Y-11430000I-79375J0D01*
G01*
X16668750Y-11509375D02*
X16668750Y-11588750D01*
X16906875Y-11430000D02*
X17224375Y-11430000D01*
X15478125Y-11668125D02*
G75*
G03*
X15557500Y-11588750I0J79375D01*
G01*
X15001875Y-11668125D02*
X15319375Y-11668125D01*
X15716250Y-11588750D02*
G75*
G03*
X15795625Y-11668125I79375J0D01*
G01*
X16271875Y-11430000D02*
G75*
G03*
X16192500Y-11509375I0J-79375D01*
G01*
X15954375Y-11668125D02*
X16271875Y-11668125D01*
X15716250Y-11509375D02*
X15716250Y-11588750D01*
X16986250Y-11509375D02*
X16986250Y-11588750D01*
X16510000Y-11509375D02*
G75*
G03*
X16430625Y-11430000I-79375J0D01*
G01*
X16510000Y-11509375D02*
X16510000Y-11588750D01*
X15240000Y-11509375D02*
X15240000Y-11588750D01*
X16748125Y-11430000D02*
G75*
G03*
X16668750Y-11509375I0J-79375D01*
G01*
X15954375Y-11668125D02*
G75*
G03*
X16033750Y-11588750I0J79375D01*
G01*
X15557500Y-11509375D02*
G75*
G03*
X15478125Y-11430000I-79375J0D01*
G01*
X15478125Y-11668125D02*
X15795625Y-11668125D01*
X16906875Y-11668125D02*
X17224375Y-11668125D01*
X15557500Y-11509375D02*
X15557500Y-11588750D01*
X16192500Y-11588750D02*
G75*
G03*
X16271875Y-11668125I79375J0D01*
G01*
X16192500Y-11509375D02*
X16192500Y-11588750D01*
X17145000Y-11588750D02*
G75*
G03*
X17224375Y-11668125I79375J0D01*
G01*
X15478125Y-11430000D02*
X15795625Y-11430000D01*
X16986250Y-11509375D02*
G75*
G03*
X16906875Y-11430000I-79375J0D01*
G01*
X16430625Y-11668125D02*
X16748125Y-11668125D01*
X15240000Y-11588750D02*
G75*
G03*
X15319375Y-11668125I79375J0D01*
G01*
X17145000Y-11509375D02*
X17145000Y-11588750D01*
X17224375Y-11430000D02*
G75*
G03*
X17145000Y-11509375I0J-79375D01*
G01*
X17541875Y-11668125D02*
G75*
G02*
X17462500Y-11588750I0J79375D01*
G01*
X17383125Y-11430000D02*
G75*
G03*
X17462500Y-11350625I0J79375D01*
G01*
X17383125Y-11668125D02*
G75*
G03*
X17462500Y-11588750I0J79375D01*
G01*
X17462500Y-11509375D02*
G75*
G03*
X17383125Y-11430000I-79375J0D01*
G01*
X17383125Y-11668125D02*
X17541875Y-11668125D01*
X17462500Y-11350625D02*
X17462500Y-11509375D01*
X17462500Y-10874375D02*
G75*
G03*
X17383125Y-10795000I-79375J0D01*
G01*
X17462500Y-11191875D02*
G75*
G03*
X17383125Y-11112500I-79375J0D01*
G01*
X17383125Y-11112500D02*
G75*
G03*
X17462500Y-11033125I0J79375D01*
G01*
X17383125Y-10795000D02*
G75*
G03*
X17462500Y-10715625I0J79375D01*
G01*
X17462500Y-10874375D02*
X17462500Y-10715625D01*
X17462500Y-11191875D02*
X17462500Y-11033125D01*
X18097500Y-11588750D02*
G75*
G03*
X18176875Y-11668125I79375J0D01*
G01*
X17938750Y-11509375D02*
X17938750Y-11588750D01*
X17859375Y-11430000D02*
X18176875Y-11430000D01*
X17859375Y-11668125D02*
X18176875Y-11668125D01*
X17859375Y-11668125D02*
G75*
G03*
X17938750Y-11588750I0J79375D01*
G01*
X17938750Y-11509375D02*
G75*
G03*
X17859375Y-11430000I-79375J0D01*
G01*
X18176875Y-11430000D02*
G75*
G03*
X18097500Y-11509375I0J-79375D01*
G01*
X18573750Y-11588750D02*
G75*
G03*
X18653125Y-11668125I79375J0D01*
G01*
X18415000Y-11509375D02*
X18415000Y-11588750D01*
X18415000Y-11509375D02*
G75*
G03*
X18335625Y-11430000I-79375J0D01*
G01*
X18335625Y-11430000D02*
X18653125Y-11430000D01*
X18335625Y-11668125D02*
G75*
G03*
X18415000Y-11588750I0J79375D01*
G01*
X18335625Y-11668125D02*
X18653125Y-11668125D01*
X19050000Y-11588750D02*
G75*
G03*
X19129375Y-11668125I79375J0D01*
G01*
X18891250Y-11509375D02*
X18891250Y-11588750D01*
X18811875Y-11668125D02*
G75*
G03*
X18891250Y-11588750I0J79375D01*
G01*
X19129375Y-11430000D02*
G75*
G03*
X19050000Y-11509375I0J-79375D01*
G01*
X18891250Y-11509375D02*
G75*
G03*
X18811875Y-11430000I-79375J0D01*
G01*
X18811875Y-11668125D02*
X19129375Y-11668125D01*
X19050000Y-11509375D02*
X19050000Y-11588750D01*
X18097500Y-11509375D02*
X18097500Y-11588750D01*
X18811875Y-11430000D02*
X19129375Y-11430000D01*
X18653125Y-11430000D02*
G75*
G03*
X18573750Y-11509375I0J-79375D01*
G01*
X18573750Y-11509375D02*
X18573750Y-11588750D01*
X19367500Y-11509375D02*
X19367500Y-11588750D01*
X20002500Y-11588750D02*
G75*
G03*
X20081875Y-11668125I79375J0D01*
G01*
X19605625Y-11430000D02*
G75*
G03*
X19526250Y-11509375I0J-79375D01*
G01*
X19288125Y-11668125D02*
G75*
G03*
X19367500Y-11588750I0J79375D01*
G01*
X19288125Y-11430000D02*
X19605625Y-11430000D01*
X19843750Y-11509375D02*
X19843750Y-11588750D01*
X19367500Y-11509375D02*
G75*
G03*
X19288125Y-11430000I-79375J0D01*
G01*
X19288125Y-11668125D02*
X19605625Y-11668125D01*
X19526250Y-11509375D02*
X19526250Y-11588750D01*
X19526250Y-11588750D02*
G75*
G03*
X19605625Y-11668125I79375J0D01*
G01*
X19764375Y-11430000D02*
X20081875Y-11430000D01*
X19764375Y-11668125D02*
X20081875Y-11668125D01*
X19764375Y-11668125D02*
G75*
G03*
X19843750Y-11588750I0J79375D01*
G01*
X19843750Y-11509375D02*
G75*
G03*
X19764375Y-11430000I-79375J0D01*
G01*
X20081875Y-11430000D02*
G75*
G03*
X20002500Y-11509375I0J-79375D01*
G01*
X20478750Y-11588750D02*
G75*
G03*
X20558125Y-11668125I79375J0D01*
G01*
X20320000Y-11509375D02*
X20320000Y-11588750D01*
X20320000Y-11509375D02*
G75*
G03*
X20240625Y-11430000I-79375J0D01*
G01*
X20240625Y-11430000D02*
X20558125Y-11430000D01*
X20240625Y-11668125D02*
G75*
G03*
X20320000Y-11588750I0J79375D01*
G01*
X20240625Y-11668125D02*
X20558125Y-11668125D01*
X20955000Y-11588750D02*
G75*
G03*
X21034375Y-11668125I79375J0D01*
G01*
X20796250Y-11509375D02*
X20796250Y-11588750D01*
X20716875Y-11668125D02*
G75*
G03*
X20796250Y-11588750I0J79375D01*
G01*
X21034375Y-11430000D02*
G75*
G03*
X20955000Y-11509375I0J-79375D01*
G01*
X20796250Y-11509375D02*
G75*
G03*
X20716875Y-11430000I-79375J0D01*
G01*
X20716875Y-11668125D02*
X21034375Y-11668125D01*
X20955000Y-11509375D02*
X20955000Y-11588750D01*
X20002500Y-11509375D02*
X20002500Y-11588750D01*
X20716875Y-11430000D02*
X21034375Y-11430000D01*
X20558125Y-11430000D02*
G75*
G03*
X20478750Y-11509375I0J-79375D01*
G01*
X20478750Y-11509375D02*
X20478750Y-11588750D01*
X21272500Y-11509375D02*
X21272500Y-11588750D01*
X21907500Y-11588750D02*
G75*
G03*
X21986875Y-11668125I79375J0D01*
G01*
X21510625Y-11430000D02*
G75*
G03*
X21431250Y-11509375I0J-79375D01*
G01*
X21193125Y-11668125D02*
G75*
G03*
X21272500Y-11588750I0J79375D01*
G01*
X21193125Y-11430000D02*
X21510625Y-11430000D01*
X21748750Y-11509375D02*
X21748750Y-11588750D01*
X21272500Y-11509375D02*
G75*
G03*
X21193125Y-11430000I-79375J0D01*
G01*
X21193125Y-11668125D02*
X21510625Y-11668125D01*
X21431250Y-11509375D02*
X21431250Y-11588750D01*
X21431250Y-11588750D02*
G75*
G03*
X21510625Y-11668125I79375J0D01*
G01*
X21669375Y-11430000D02*
X21986875Y-11430000D01*
X21669375Y-11668125D02*
X21986875Y-11668125D01*
X21669375Y-11668125D02*
G75*
G03*
X21748750Y-11588750I0J79375D01*
G01*
X21748750Y-11509375D02*
G75*
G03*
X21669375Y-11430000I-79375J0D01*
G01*
X21986875Y-11430000D02*
G75*
G03*
X21907500Y-11509375I0J-79375D01*
G01*
X22383750Y-11588750D02*
G75*
G03*
X22463125Y-11668125I79375J0D01*
G01*
X22225000Y-11509375D02*
X22225000Y-11588750D01*
X22225000Y-11509375D02*
G75*
G03*
X22145625Y-11430000I-79375J0D01*
G01*
X22145625Y-11430000D02*
X22463125Y-11430000D01*
X22145625Y-11668125D02*
G75*
G03*
X22225000Y-11588750I0J79375D01*
G01*
X22145625Y-11668125D02*
X22463125Y-11668125D01*
X22860000Y-11588750D02*
G75*
G03*
X22939375Y-11668125I79375J0D01*
G01*
X22701250Y-11509375D02*
X22701250Y-11588750D01*
X22621875Y-11668125D02*
G75*
G03*
X22701250Y-11588750I0J79375D01*
G01*
X22939375Y-11430000D02*
G75*
G03*
X22860000Y-11509375I0J-79375D01*
G01*
X22701250Y-11509375D02*
G75*
G03*
X22621875Y-11430000I-79375J0D01*
G01*
X22621875Y-11668125D02*
X22939375Y-11668125D01*
X22860000Y-11509375D02*
X22860000Y-11588750D01*
X21907500Y-11509375D02*
X21907500Y-11588750D01*
X22621875Y-11430000D02*
X22939375Y-11430000D01*
X22463125Y-11430000D02*
G75*
G03*
X22383750Y-11509375I0J-79375D01*
G01*
X22383750Y-11509375D02*
X22383750Y-11588750D01*
X23177500Y-11509375D02*
X23177500Y-11588750D01*
X23812500Y-11588750D02*
G75*
G03*
X23891875Y-11668125I79375J0D01*
G01*
X23415625Y-11430000D02*
G75*
G03*
X23336250Y-11509375I0J-79375D01*
G01*
X23098125Y-11668125D02*
G75*
G03*
X23177500Y-11588750I0J79375D01*
G01*
X23098125Y-11430000D02*
X23415625Y-11430000D01*
X23653750Y-11509375D02*
X23653750Y-11588750D01*
X23177500Y-11509375D02*
G75*
G03*
X23098125Y-11430000I-79375J0D01*
G01*
X23098125Y-11668125D02*
X23415625Y-11668125D01*
X23336250Y-11509375D02*
X23336250Y-11588750D01*
X23336250Y-11588750D02*
G75*
G03*
X23415625Y-11668125I79375J0D01*
G01*
X23574375Y-11430000D02*
X23891875Y-11430000D01*
X23574375Y-11668125D02*
X23891875Y-11668125D01*
X23574375Y-11668125D02*
G75*
G03*
X23653750Y-11588750I0J79375D01*
G01*
X23653750Y-11509375D02*
G75*
G03*
X23574375Y-11430000I-79375J0D01*
G01*
X23891875Y-11430000D02*
G75*
G03*
X23812500Y-11509375I0J-79375D01*
G01*
X24288750Y-11588750D02*
G75*
G03*
X24368125Y-11668125I79375J0D01*
G01*
X24130000Y-11509375D02*
X24130000Y-11588750D01*
X24130000Y-11509375D02*
G75*
G03*
X24050625Y-11430000I-79375J0D01*
G01*
X24050625Y-11430000D02*
X24368125Y-11430000D01*
X24050625Y-11668125D02*
G75*
G03*
X24130000Y-11588750I0J79375D01*
G01*
X24050625Y-11668125D02*
X24368125Y-11668125D01*
X24765000Y-11588750D02*
G75*
G03*
X24844375Y-11668125I79375J0D01*
G01*
X24606250Y-11509375D02*
X24606250Y-11588750D01*
X24526875Y-11668125D02*
G75*
G03*
X24606250Y-11588750I0J79375D01*
G01*
X24844375Y-11430000D02*
G75*
G03*
X24765000Y-11509375I0J-79375D01*
G01*
X24606250Y-11509375D02*
G75*
G03*
X24526875Y-11430000I-79375J0D01*
G01*
X24526875Y-11668125D02*
X24844375Y-11668125D01*
X24765000Y-11509375D02*
X24765000Y-11588750D01*
X23812500Y-11509375D02*
X23812500Y-11588750D01*
X24526875Y-11430000D02*
X24844375Y-11430000D01*
X24368125Y-11430000D02*
G75*
G03*
X24288750Y-11509375I0J-79375D01*
G01*
X24288750Y-11509375D02*
X24288750Y-11588750D01*
X25082500Y-11509375D02*
X25082500Y-11588750D01*
X25717500Y-11588750D02*
G75*
G03*
X25796875Y-11668125I79375J0D01*
G01*
X25320625Y-11430000D02*
G75*
G03*
X25241250Y-11509375I0J-79375D01*
G01*
X25003125Y-11668125D02*
G75*
G03*
X25082500Y-11588750I0J79375D01*
G01*
X25003125Y-11430000D02*
X25320625Y-11430000D01*
X25558750Y-11509375D02*
X25558750Y-11588750D01*
X25082500Y-11509375D02*
G75*
G03*
X25003125Y-11430000I-79375J0D01*
G01*
X25003125Y-11668125D02*
X25320625Y-11668125D01*
X25241250Y-11509375D02*
X25241250Y-11588750D01*
X25241250Y-11588750D02*
G75*
G03*
X25320625Y-11668125I79375J0D01*
G01*
X25479375Y-11430000D02*
X25796875Y-11430000D01*
X25479375Y-11668125D02*
X25796875Y-11668125D01*
X25479375Y-11668125D02*
G75*
G03*
X25558750Y-11588750I0J79375D01*
G01*
X25558750Y-11509375D02*
G75*
G03*
X25479375Y-11430000I-79375J0D01*
G01*
X25796875Y-11430000D02*
G75*
G03*
X25717500Y-11509375I0J-79375D01*
G01*
X26193750Y-11588750D02*
G75*
G03*
X26273125Y-11668125I79375J0D01*
G01*
X26035000Y-11509375D02*
X26035000Y-11588750D01*
X26035000Y-11509375D02*
G75*
G03*
X25955625Y-11430000I-79375J0D01*
G01*
X25955625Y-11430000D02*
X26273125Y-11430000D01*
X25955625Y-11668125D02*
G75*
G03*
X26035000Y-11588750I0J79375D01*
G01*
X25955625Y-11668125D02*
X26273125Y-11668125D01*
X26670000Y-11588750D02*
G75*
G03*
X26749375Y-11668125I79375J0D01*
G01*
X26511250Y-11509375D02*
X26511250Y-11588750D01*
X26431875Y-11668125D02*
G75*
G03*
X26511250Y-11588750I0J79375D01*
G01*
X26749375Y-11430000D02*
G75*
G03*
X26670000Y-11509375I0J-79375D01*
G01*
X26511250Y-11509375D02*
G75*
G03*
X26431875Y-11430000I-79375J0D01*
G01*
X26431875Y-11668125D02*
X26749375Y-11668125D01*
X26670000Y-11509375D02*
X26670000Y-11588750D01*
X25717500Y-11509375D02*
X25717500Y-11588750D01*
X26431875Y-11430000D02*
X26749375Y-11430000D01*
X26273125Y-11430000D02*
G75*
G03*
X26193750Y-11509375I0J-79375D01*
G01*
X26193750Y-11509375D02*
X26193750Y-11588750D01*
X28813125Y-11668125D02*
X28971875Y-11668125D01*
X28971875Y-11668125D02*
G75*
G02*
X28892500Y-11588750I0J79375D01*
G01*
X28892500Y-10874375D02*
X28892500Y-10715625D01*
X28892500Y-11191875D02*
X28892500Y-11033125D01*
X28892500Y-11350625D02*
X28892500Y-11509375D01*
X28813125Y-10795000D02*
G75*
G03*
X28892500Y-10715625I0J79375D01*
G01*
X29686250Y-10636250D02*
X4365625Y-10636250D01*
X27146250Y-11588750D02*
G75*
G03*
X27225625Y-11668125I79375J0D01*
G01*
X26987500Y-11509375D02*
X26987500Y-11588750D01*
X27225625Y-11430000D02*
G75*
G03*
X27146250Y-11509375I0J-79375D01*
G01*
X26908125Y-11668125D02*
G75*
G03*
X26987500Y-11588750I0J79375D01*
G01*
X26987500Y-11509375D02*
G75*
G03*
X26908125Y-11430000I-79375J0D01*
G01*
X26908125Y-11668125D02*
X27225625Y-11668125D01*
X26908125Y-11430000D02*
X27225625Y-11430000D01*
X27146250Y-11509375D02*
X27146250Y-11588750D01*
X27622500Y-11588750D02*
G75*
G03*
X27701875Y-11668125I79375J0D01*
G01*
X27463750Y-11509375D02*
X27463750Y-11588750D01*
X27701875Y-11430000D02*
G75*
G03*
X27622500Y-11509375I0J-79375D01*
G01*
X27384375Y-11668125D02*
G75*
G03*
X27463750Y-11588750I0J79375D01*
G01*
X27463750Y-11509375D02*
G75*
G03*
X27384375Y-11430000I-79375J0D01*
G01*
X27384375Y-11668125D02*
X27701875Y-11668125D01*
X27384375Y-11430000D02*
X27701875Y-11430000D01*
X27622500Y-11509375D02*
X27622500Y-11588750D01*
X28098750Y-11588750D02*
G75*
G03*
X28178125Y-11668125I79375J0D01*
G01*
X27940000Y-11509375D02*
X27940000Y-11588750D01*
X28178125Y-11430000D02*
G75*
G03*
X28098750Y-11509375I0J-79375D01*
G01*
X27860625Y-11668125D02*
G75*
G03*
X27940000Y-11588750I0J79375D01*
G01*
X27940000Y-11509375D02*
G75*
G03*
X27860625Y-11430000I-79375J0D01*
G01*
X27860625Y-11668125D02*
X28178125Y-11668125D01*
X27860625Y-11430000D02*
X28178125Y-11430000D01*
X28098750Y-11509375D02*
X28098750Y-11588750D01*
X28575000Y-11588750D02*
G75*
G03*
X28654375Y-11668125I79375J0D01*
G01*
X28416250Y-11509375D02*
X28416250Y-11588750D01*
X28654375Y-11430000D02*
G75*
G03*
X28575000Y-11509375I0J-79375D01*
G01*
X28336875Y-11668125D02*
G75*
G03*
X28416250Y-11588750I0J79375D01*
G01*
X28416250Y-11509375D02*
G75*
G03*
X28336875Y-11430000I-79375J0D01*
G01*
X28336875Y-11668125D02*
X28654375Y-11668125D01*
X28336875Y-11430000D02*
X28654375Y-11430000D01*
X28575000Y-11509375D02*
X28575000Y-11588750D01*
X30638750Y-11430000D02*
X30559375Y-11430000D01*
X30638750Y-11509375D02*
X30638750Y-11588750D01*
X30638750Y-11509375D02*
G75*
G03*
X30559375Y-11430000I-79375J0D01*
G01*
X30559375Y-11668125D02*
G75*
G03*
X30638750Y-11588750I0J79375D01*
G01*
X31353125Y-10795000D02*
X31591250Y-10795000D01*
X31591250Y-10795000D02*
G75*
G03*
X31511875Y-10874375I0J-79375D01*
G01*
X31511875Y-11588750D02*
X31511875Y-10874375D01*
X31511875Y-11588750D02*
G75*
G03*
X31591250Y-11668125I79375J0D01*
G01*
X30559375Y-11668125D02*
X31591250Y-11668125D01*
X28892500Y-10874375D02*
G75*
G03*
X28813125Y-10795000I-79375J0D01*
G01*
X28892500Y-11191875D02*
G75*
G03*
X28813125Y-11112500I-79375J0D01*
G01*
X28813125Y-11112500D02*
G75*
G03*
X28892500Y-11033125I0J79375D01*
G01*
X28892500Y-11509375D02*
G75*
G03*
X28813125Y-11430000I-79375J0D01*
G01*
X28813125Y-11430000D02*
G75*
G03*
X28892500Y-11350625I0J79375D01*
G01*
X28813125Y-11668125D02*
G75*
G03*
X28892500Y-11588750I0J79375D01*
G01*
X31035625Y-10636250D02*
G75*
G03*
X31115000Y-10556875I0J79375D01*
G01*
X30876875Y-10556875D02*
G75*
G03*
X30956250Y-10636250I79375J0D01*
G01*
X31035625Y-10636250D02*
X30956250Y-10636250D01*
X30956250Y-10239375D02*
G75*
G03*
X30876875Y-10318750I0J-79375D01*
G01*
X30956250Y-10080625D02*
X31035625Y-10080625D01*
X31115000Y-10001250D02*
X31115000Y-10318750D01*
X31115000Y-10318750D02*
G75*
G03*
X31035625Y-10239375I-79375J0D01*
G01*
X30876875Y-10001250D02*
X30876875Y-10318750D01*
X31035625Y-10080625D02*
G75*
G03*
X31115000Y-10001250I0J79375D01*
G01*
X30956250Y-10239375D02*
X31035625Y-10239375D01*
X30876875Y-10001250D02*
G75*
G03*
X30956250Y-10080625I79375J0D01*
G01*
X30956250Y-9763125D02*
G75*
G03*
X30876875Y-9842500I0J-79375D01*
G01*
X30956250Y-9604375D02*
X31035625Y-9604375D01*
X31115000Y-9525000D02*
X31115000Y-9842500D01*
X31115000Y-9842500D02*
G75*
G03*
X31035625Y-9763125I-79375J0D01*
G01*
X30876875Y-9525000D02*
X30876875Y-9842500D01*
X31035625Y-9604375D02*
G75*
G03*
X31115000Y-9525000I0J79375D01*
G01*
X30956250Y-9763125D02*
X31035625Y-9763125D01*
X30876875Y-9525000D02*
G75*
G03*
X30956250Y-9604375I79375J0D01*
G01*
X36195000Y-10874375D02*
G75*
G03*
X36115625Y-10795000I-79375J0D01*
G01*
X36195000Y-10874375D02*
X36195000Y-11588750D01*
X36115625Y-11668125D02*
G75*
G03*
X36195000Y-11588750I0J79375D01*
G01*
X35560000Y-11668125D02*
X35877500Y-11668125D01*
X35560000Y-11668125D02*
G75*
G03*
X35639375Y-11588750I0J79375D01*
G01*
X35639375Y-10874375D02*
G75*
G03*
X35560000Y-10795000I-79375J0D01*
G01*
X35798125Y-11588750D02*
X35798125Y-10874375D01*
X35798125Y-11588750D02*
G75*
G03*
X35877500Y-11668125I79375J0D01*
G01*
X35877500Y-10795000D02*
X35560000Y-10795000D01*
X35639375Y-10874375D02*
X35639375Y-11588750D01*
X35877500Y-10795000D02*
G75*
G03*
X35798125Y-10874375I0J-79375D01*
G01*
X35083750Y-11668125D02*
X35401250Y-11668125D01*
X35083750Y-11668125D02*
G75*
G03*
X35163125Y-11588750I0J79375D01*
G01*
X35163125Y-10874375D02*
G75*
G03*
X35083750Y-10795000I-79375J0D01*
G01*
X35321875Y-11588750D02*
X35321875Y-10874375D01*
X35321875Y-11588750D02*
G75*
G03*
X35401250Y-11668125I79375J0D01*
G01*
X35401250Y-10795000D02*
X35083750Y-10795000D01*
X35163125Y-10874375D02*
X35163125Y-11588750D01*
X35401250Y-10795000D02*
G75*
G03*
X35321875Y-10874375I0J-79375D01*
G01*
X34607500Y-11668125D02*
X34925000Y-11668125D01*
X34607500Y-11668125D02*
G75*
G03*
X34686875Y-11588750I0J79375D01*
G01*
X34686875Y-10874375D02*
G75*
G03*
X34607500Y-10795000I-79375J0D01*
G01*
X34845625Y-11588750D02*
X34845625Y-10874375D01*
X34845625Y-11588750D02*
G75*
G03*
X34925000Y-11668125I79375J0D01*
G01*
X34925000Y-10795000D02*
X34607500Y-10795000D01*
X34686875Y-10874375D02*
X34686875Y-11588750D01*
X34925000Y-10795000D02*
G75*
G03*
X34845625Y-10874375I0J-79375D01*
G01*
X34131250Y-11668125D02*
X34448750Y-11668125D01*
X34131250Y-11668125D02*
G75*
G03*
X34210625Y-11588750I0J79375D01*
G01*
X34210625Y-10874375D02*
G75*
G03*
X34131250Y-10795000I-79375J0D01*
G01*
X34369375Y-11588750D02*
X34369375Y-10874375D01*
X34369375Y-11588750D02*
G75*
G03*
X34448750Y-11668125I79375J0D01*
G01*
X34448750Y-10795000D02*
X34131250Y-10795000D01*
X34210625Y-10874375D02*
X34210625Y-11588750D01*
X34448750Y-10795000D02*
G75*
G03*
X34369375Y-10874375I0J-79375D01*
G01*
X33655000Y-11668125D02*
X33972500Y-11668125D01*
X33655000Y-11668125D02*
G75*
G03*
X33734375Y-11588750I0J79375D01*
G01*
X33734375Y-10874375D02*
G75*
G03*
X33655000Y-10795000I-79375J0D01*
G01*
X33893125Y-11588750D02*
X33893125Y-10874375D01*
X33893125Y-11588750D02*
G75*
G03*
X33972500Y-11668125I79375J0D01*
G01*
X33972500Y-10795000D02*
X33655000Y-10795000D01*
X33734375Y-10874375D02*
X33734375Y-11588750D01*
X33972500Y-10795000D02*
G75*
G03*
X33893125Y-10874375I0J-79375D01*
G01*
X33178750Y-11668125D02*
X33496250Y-11668125D01*
X33178750Y-11668125D02*
G75*
G03*
X33258125Y-11588750I0J79375D01*
G01*
X33258125Y-10874375D02*
G75*
G03*
X33178750Y-10795000I-79375J0D01*
G01*
X33416875Y-11588750D02*
X33416875Y-10874375D01*
X33416875Y-11588750D02*
G75*
G03*
X33496250Y-11668125I79375J0D01*
G01*
X33496250Y-10795000D02*
X33178750Y-10795000D01*
X33258125Y-10874375D02*
X33258125Y-11588750D01*
X33496250Y-10795000D02*
G75*
G03*
X33416875Y-10874375I0J-79375D01*
G01*
X33020000Y-11668125D02*
G75*
G02*
X32940625Y-11588750I0J79375D01*
G01*
X32702500Y-11668125D02*
X33020000Y-11668125D01*
X32781875Y-11588750D02*
G75*
G02*
X32702500Y-11668125I-79375J0D01*
G01*
X32861250Y-11430000D02*
G75*
G03*
X32781875Y-11509375I0J-79375D01*
G01*
X32781875Y-11509375D02*
X32781875Y-11588750D01*
X32940625Y-11509375D02*
G75*
G03*
X32861250Y-11430000I-79375J0D01*
G01*
X32940625Y-11588750D02*
X32940625Y-11509375D01*
X32543750Y-11668125D02*
G75*
G02*
X32464375Y-11588750I0J79375D01*
G01*
X32226250Y-11668125D02*
X32543750Y-11668125D01*
X32305625Y-11588750D02*
G75*
G02*
X32226250Y-11668125I-79375J0D01*
G01*
X32464375Y-11509375D02*
G75*
G03*
X32385000Y-11430000I-79375J0D01*
G01*
X32305625Y-11509375D02*
X32305625Y-11588750D01*
X32385000Y-11430000D02*
G75*
G03*
X32305625Y-11509375I0J-79375D01*
G01*
X32464375Y-11588750D02*
X32464375Y-11509375D01*
X31829375Y-10874375D02*
X31829375Y-11588750D01*
X32067500Y-10795000D02*
G75*
G03*
X31988125Y-10874375I0J-79375D01*
G01*
X32067500Y-10795000D02*
X31750000Y-10795000D01*
X31988125Y-11588750D02*
G75*
G03*
X32067500Y-11668125I79375J0D01*
G01*
X31988125Y-11588750D02*
X31988125Y-10874375D01*
X31829375Y-10874375D02*
G75*
G03*
X31750000Y-10795000I-79375J0D01*
G01*
X31750000Y-11668125D02*
G75*
G03*
X31829375Y-11588750I0J79375D01*
G01*
X31750000Y-11668125D02*
X32067500Y-11668125D01*
X29924375Y-8810625D02*
G75*
G02*
X30162500Y-8572500I238125J0D01*
G01*
X32861250Y-11033125D02*
G75*
G02*
X32781875Y-10953750I0J79375D01*
G01*
X32940625Y-10953750D02*
G75*
G02*
X32861250Y-11033125I-79375J0D01*
G01*
X32385000Y-11033125D02*
G75*
G02*
X32305625Y-10953750I0J79375D01*
G01*
X32464375Y-10953750D02*
G75*
G02*
X32385000Y-11033125I-79375J0D01*
G01*
X30876875Y-9048750D02*
G75*
G03*
X30956250Y-9128125I79375J0D01*
G01*
X30956250Y-9128125D02*
X31035625Y-9128125D01*
X30876875Y-9048750D02*
X30876875Y-9366250D01*
X31035625Y-9128125D02*
G75*
G03*
X31115000Y-9048750I0J79375D01*
G01*
X30956250Y-9286875D02*
G75*
G03*
X30876875Y-9366250I0J-79375D01*
G01*
X31115000Y-9048750D02*
X31115000Y-9366250D01*
X30956250Y-9286875D02*
X31035625Y-9286875D01*
X31115000Y-9366250D02*
G75*
G03*
X31035625Y-9286875I-79375J0D01*
G01*
X31115000Y-8810625D02*
G75*
G03*
X31035625Y-8731250I-79375J0D01*
G01*
X31035625Y-8731250D02*
X30956250Y-8731250D01*
X30956250Y-8731250D02*
G75*
G03*
X30876875Y-8810625I0J-79375D01*
G01*
X32305625Y-10874375D02*
X32305625Y-10953750D01*
X32464375Y-10953750D02*
X32464375Y-10874375D01*
X32543750Y-10795000D02*
G75*
G03*
X32464375Y-10874375I0J-79375D01*
G01*
X32543750Y-10795000D02*
X32226250Y-10795000D01*
X32305625Y-10874375D02*
G75*
G03*
X32226250Y-10795000I-79375J0D01*
G01*
X32781875Y-10874375D02*
X32781875Y-10953750D01*
X32940625Y-10953750D02*
X32940625Y-10874375D01*
X33020000Y-10795000D02*
G75*
G03*
X32940625Y-10874375I0J-79375D01*
G01*
X33020000Y-10795000D02*
X32702500Y-10795000D01*
X32781875Y-10874375D02*
G75*
G03*
X32702500Y-10795000I-79375J0D01*
G01*
X29686250Y-10636250D02*
G75*
G03*
X29924375Y-10398125I0J238125D01*
G01*
X30638750Y-8572500D02*
X30162500Y-8572500D01*
X4127500Y-11191875D02*
X4127500Y-10874375D01*
X36512500Y-10556875D02*
X36512500Y-8810625D01*
X36512500Y-22860000D02*
X36512500Y-11906250D01*
X36274375Y-8572500D02*
X31353125Y-8572500D01*
X36512500Y-8810625D02*
G75*
G03*
X36274375Y-8572500I-238125J0D01*
G01*
X36512500Y-11906250D02*
G75*
G03*
X36274375Y-11668125I-238125J0D01*
G01*
X4127500Y-22860000D02*
X4127500Y-11906250D01*
X29924375Y-8810625D02*
X29924375Y-10398125D01*
X36274375Y-10795000D02*
G75*
G03*
X36512500Y-10556875I0J238125D01*
G01*
X4365625Y-10636250D02*
G75*
G03*
X4127500Y-10874375I0J-238125D01*
G01*
X4127500Y-11191875D02*
G75*
G03*
X4365625Y-11430000I238125J0D01*
G01*
X30876875Y-8810625D02*
G75*
G03*
X30638750Y-8572500I-238125J0D01*
G01*
X30638750Y-11430000D02*
G75*
G03*
X30876875Y-11191875I0J238125D01*
G01*
X36274375Y-10795000D02*
X36115625Y-10795000D01*
X29368750Y-11509375D02*
X29368750Y-11588750D01*
X29130625Y-11430000D02*
X29448125Y-11430000D01*
X36274375Y-11668125D02*
X36115625Y-11668125D01*
X30321250Y-11509375D02*
X30321250Y-11588750D01*
X29686250Y-11509375D02*
X29686250Y-11588750D01*
X30083125Y-11430000D02*
X30400625Y-11430000D01*
X29210000Y-11509375D02*
G75*
G03*
X29130625Y-11430000I-79375J0D01*
G01*
X29130625Y-11668125D02*
X29448125Y-11668125D01*
X30321250Y-11588750D02*
G75*
G03*
X30400625Y-11668125I79375J0D01*
G01*
X30162500Y-11509375D02*
G75*
G03*
X30083125Y-11430000I-79375J0D01*
G01*
X29845000Y-11588750D02*
G75*
G03*
X29924375Y-11668125I79375J0D01*
G01*
X30083125Y-11668125D02*
G75*
G03*
X30162500Y-11588750I0J79375D01*
G01*
X29606875Y-11430000D02*
X29924375Y-11430000D01*
X30400625Y-11430000D02*
G75*
G03*
X30321250Y-11509375I0J-79375D01*
G01*
X31115000Y-10556875D02*
G75*
G03*
X31353125Y-10795000I238125J0D01*
G01*
X30876875Y-10556875D02*
X30876875Y-11191875D01*
X31353125Y-8572500D02*
G75*
G03*
X31115000Y-8810625I0J-238125D01*
G01*
X29368750Y-11588750D02*
G75*
G03*
X29448125Y-11668125I79375J0D01*
G01*
X29606875Y-11668125D02*
X29924375Y-11668125D01*
X30083125Y-11668125D02*
X30400625Y-11668125D01*
X29845000Y-11509375D02*
X29845000Y-11588750D01*
X29210000Y-11509375D02*
X29210000Y-11588750D01*
X29130625Y-11668125D02*
G75*
G03*
X29210000Y-11588750I0J79375D01*
G01*
X29686250Y-11509375D02*
G75*
G03*
X29606875Y-11430000I-79375J0D01*
G01*
X4365625Y-23098125D02*
X36274375Y-23098125D01*
X29924375Y-11430000D02*
G75*
G03*
X29845000Y-11509375I0J-79375D01*
G01*
X4127500Y-22860000D02*
G75*
G03*
X4365625Y-23098125I238125J0D01*
G01*
X36274375Y-23098125D02*
G75*
G03*
X36512500Y-22860000I0J238125D01*
G01*
X29448125Y-11430000D02*
G75*
G03*
X29368750Y-11509375I0J-79375D01*
G01*
X29606875Y-11668125D02*
G75*
G03*
X29686250Y-11588750I0J79375D01*
G01*
X30162500Y-11509375D02*
X30162500Y-11588750D01*
X4365625Y-11668125D02*
G75*
G03*
X4127500Y-11906250I0J-238125D01*
G01*
D11*
X35350560Y-9431885D02*
X35381040Y-9462365D01*
X35381040Y-9431885D02*
X35350560Y-9462365D01*
X35468560Y-9596985D02*
X35499040Y-9627465D01*
X35499040Y-9596985D02*
X35468560Y-9627465D01*
X35545560Y-9709585D02*
X35576040Y-9740065D01*
X35576040Y-9709585D02*
X35545560Y-9740065D01*
X35595560Y-9510625D02*
X35626040Y-9541105D01*
X35626040Y-9510625D02*
X35595560Y-9541105D01*
X35645360Y-9709785D02*
X35675840Y-9740265D01*
X35675840Y-9709785D02*
X35645360Y-9740265D01*
X35722560Y-9596985D02*
X35753040Y-9627465D01*
X35753040Y-9596985D02*
X35722560Y-9627465D01*
X35840560Y-9431885D02*
X35871040Y-9462365D01*
X35871040Y-9431885D02*
X35840560Y-9462365D01*
X4211000Y-12290425D02*
G75*
G03*
X4211000Y-12290425I-20000J0D01*
G01*
X4211000Y-12442825D02*
G75*
G03*
X4211000Y-12442825I-20000J0D01*
G01*
X4211000Y-14195425D02*
G75*
G03*
X4211000Y-14195425I-20000J0D01*
G01*
X4211000Y-14347825D02*
G75*
G03*
X4211000Y-14347825I-20000J0D01*
G01*
X4211000Y-16100425D02*
G75*
G03*
X4211000Y-16100425I-20000J0D01*
G01*
X4211000Y-16252825D02*
G75*
G03*
X4211000Y-16252825I-20000J0D01*
G01*
X4211000Y-18005425D02*
G75*
G03*
X4211000Y-18005425I-20000J0D01*
G01*
X4211000Y-18157825D02*
G75*
G03*
X4211000Y-18157825I-20000J0D01*
G01*
X4211000Y-19910425D02*
G75*
G03*
X4211000Y-19910425I-20000J0D01*
G01*
X4211000Y-20062825D02*
G75*
G03*
X4211000Y-20062825I-20000J0D01*
G01*
X4211000Y-21815425D02*
G75*
G03*
X4211000Y-21815425I-20000J0D01*
G01*
X4211000Y-21967825D02*
G75*
G03*
X4211000Y-21967825I-20000J0D01*
G01*
X5862000Y-12036425D02*
G75*
G03*
X5862000Y-12036425I-20000J0D01*
G01*
X5862000Y-12188825D02*
G75*
G03*
X5862000Y-12188825I-20000J0D01*
G01*
X5862000Y-13941425D02*
G75*
G03*
X5862000Y-13941425I-20000J0D01*
G01*
X5862000Y-14093825D02*
G75*
G03*
X5862000Y-14093825I-20000J0D01*
G01*
X5862000Y-15846425D02*
G75*
G03*
X5862000Y-15846425I-20000J0D01*
G01*
X5862000Y-15998825D02*
G75*
G03*
X5862000Y-15998825I-20000J0D01*
G01*
X5862000Y-17751425D02*
G75*
G03*
X5862000Y-17751425I-20000J0D01*
G01*
X5862000Y-17903825D02*
G75*
G03*
X5862000Y-17903825I-20000J0D01*
G01*
X5862000Y-19656425D02*
G75*
G03*
X5862000Y-19656425I-20000J0D01*
G01*
X5862000Y-19808825D02*
G75*
G03*
X5862000Y-19808825I-20000J0D01*
G01*
X5862000Y-21561425D02*
G75*
G03*
X5862000Y-21561425I-20000J0D01*
G01*
X5862000Y-21713825D02*
G75*
G03*
X5862000Y-21713825I-20000J0D01*
G01*
X6116000Y-12290425D02*
G75*
G03*
X6116000Y-12290425I-20000J0D01*
G01*
X6116000Y-12442825D02*
G75*
G03*
X6116000Y-12442825I-20000J0D01*
G01*
X6116000Y-14195425D02*
G75*
G03*
X6116000Y-14195425I-20000J0D01*
G01*
X6116000Y-14347825D02*
G75*
G03*
X6116000Y-14347825I-20000J0D01*
G01*
X6116000Y-16100425D02*
G75*
G03*
X6116000Y-16100425I-20000J0D01*
G01*
X6116000Y-16252825D02*
G75*
G03*
X6116000Y-16252825I-20000J0D01*
G01*
X6116000Y-18005425D02*
G75*
G03*
X6116000Y-18005425I-20000J0D01*
G01*
X6116000Y-18157825D02*
G75*
G03*
X6116000Y-18157825I-20000J0D01*
G01*
X6116000Y-19910425D02*
G75*
G03*
X6116000Y-19910425I-20000J0D01*
G01*
X6116000Y-20062825D02*
G75*
G03*
X6116000Y-20062825I-20000J0D01*
G01*
X6116000Y-21815425D02*
G75*
G03*
X6116000Y-21815425I-20000J0D01*
G01*
X6116000Y-21967825D02*
G75*
G03*
X6116000Y-21967825I-20000J0D01*
G01*
X7767000Y-12036425D02*
G75*
G03*
X7767000Y-12036425I-20000J0D01*
G01*
X7767000Y-12188825D02*
G75*
G03*
X7767000Y-12188825I-20000J0D01*
G01*
X7767000Y-13941425D02*
G75*
G03*
X7767000Y-13941425I-20000J0D01*
G01*
X7767000Y-14093825D02*
G75*
G03*
X7767000Y-14093825I-20000J0D01*
G01*
X7767000Y-15846425D02*
G75*
G03*
X7767000Y-15846425I-20000J0D01*
G01*
X7767000Y-15998825D02*
G75*
G03*
X7767000Y-15998825I-20000J0D01*
G01*
X7767000Y-17751425D02*
G75*
G03*
X7767000Y-17751425I-20000J0D01*
G01*
X7767000Y-17903825D02*
G75*
G03*
X7767000Y-17903825I-20000J0D01*
G01*
X7767000Y-19656425D02*
G75*
G03*
X7767000Y-19656425I-20000J0D01*
G01*
X7767000Y-19808825D02*
G75*
G03*
X7767000Y-19808825I-20000J0D01*
G01*
X7767000Y-21561425D02*
G75*
G03*
X7767000Y-21561425I-20000J0D01*
G01*
X7767000Y-21713825D02*
G75*
G03*
X7767000Y-21713825I-20000J0D01*
G01*
X8021000Y-12290425D02*
G75*
G03*
X8021000Y-12290425I-20000J0D01*
G01*
X8021000Y-12442825D02*
G75*
G03*
X8021000Y-12442825I-20000J0D01*
G01*
X8021000Y-14195425D02*
G75*
G03*
X8021000Y-14195425I-20000J0D01*
G01*
X8021000Y-14347825D02*
G75*
G03*
X8021000Y-14347825I-20000J0D01*
G01*
X8021000Y-16100425D02*
G75*
G03*
X8021000Y-16100425I-20000J0D01*
G01*
X8021000Y-16252825D02*
G75*
G03*
X8021000Y-16252825I-20000J0D01*
G01*
X8021000Y-18005425D02*
G75*
G03*
X8021000Y-18005425I-20000J0D01*
G01*
X8021000Y-18157825D02*
G75*
G03*
X8021000Y-18157825I-20000J0D01*
G01*
X8021000Y-19910425D02*
G75*
G03*
X8021000Y-19910425I-20000J0D01*
G01*
X8021000Y-20062825D02*
G75*
G03*
X8021000Y-20062825I-20000J0D01*
G01*
X8021000Y-21815425D02*
G75*
G03*
X8021000Y-21815425I-20000J0D01*
G01*
X8021000Y-21967825D02*
G75*
G03*
X8021000Y-21967825I-20000J0D01*
G01*
X9672000Y-12036425D02*
G75*
G03*
X9672000Y-12036425I-20000J0D01*
G01*
X9672000Y-12188825D02*
G75*
G03*
X9672000Y-12188825I-20000J0D01*
G01*
X9672000Y-13941425D02*
G75*
G03*
X9672000Y-13941425I-20000J0D01*
G01*
X9672000Y-14093825D02*
G75*
G03*
X9672000Y-14093825I-20000J0D01*
G01*
X9672000Y-15846425D02*
G75*
G03*
X9672000Y-15846425I-20000J0D01*
G01*
X9672000Y-15998825D02*
G75*
G03*
X9672000Y-15998825I-20000J0D01*
G01*
X9672000Y-17751425D02*
G75*
G03*
X9672000Y-17751425I-20000J0D01*
G01*
X9672000Y-17903825D02*
G75*
G03*
X9672000Y-17903825I-20000J0D01*
G01*
X9672000Y-19656425D02*
G75*
G03*
X9672000Y-19656425I-20000J0D01*
G01*
X9672000Y-19808825D02*
G75*
G03*
X9672000Y-19808825I-20000J0D01*
G01*
X9672000Y-21561425D02*
G75*
G03*
X9672000Y-21561425I-20000J0D01*
G01*
X9672000Y-21713825D02*
G75*
G03*
X9672000Y-21713825I-20000J0D01*
G01*
X9926000Y-12290425D02*
G75*
G03*
X9926000Y-12290425I-20000J0D01*
G01*
X9926000Y-12442825D02*
G75*
G03*
X9926000Y-12442825I-20000J0D01*
G01*
X9926000Y-14195425D02*
G75*
G03*
X9926000Y-14195425I-20000J0D01*
G01*
X9926000Y-14347825D02*
G75*
G03*
X9926000Y-14347825I-20000J0D01*
G01*
X9926000Y-16100425D02*
G75*
G03*
X9926000Y-16100425I-20000J0D01*
G01*
X9926000Y-16252825D02*
G75*
G03*
X9926000Y-16252825I-20000J0D01*
G01*
X9926000Y-18005425D02*
G75*
G03*
X9926000Y-18005425I-20000J0D01*
G01*
X9926000Y-18157825D02*
G75*
G03*
X9926000Y-18157825I-20000J0D01*
G01*
X9926000Y-19910425D02*
G75*
G03*
X9926000Y-19910425I-20000J0D01*
G01*
X9926000Y-20062825D02*
G75*
G03*
X9926000Y-20062825I-20000J0D01*
G01*
X9926000Y-21815425D02*
G75*
G03*
X9926000Y-21815425I-20000J0D01*
G01*
X9926000Y-21967825D02*
G75*
G03*
X9926000Y-21967825I-20000J0D01*
G01*
X11577000Y-12036425D02*
G75*
G03*
X11577000Y-12036425I-20000J0D01*
G01*
X11577000Y-12188825D02*
G75*
G03*
X11577000Y-12188825I-20000J0D01*
G01*
X11577000Y-13941425D02*
G75*
G03*
X11577000Y-13941425I-20000J0D01*
G01*
X11577000Y-14093825D02*
G75*
G03*
X11577000Y-14093825I-20000J0D01*
G01*
X11577000Y-15846425D02*
G75*
G03*
X11577000Y-15846425I-20000J0D01*
G01*
X11577000Y-15998825D02*
G75*
G03*
X11577000Y-15998825I-20000J0D01*
G01*
X11577000Y-17751425D02*
G75*
G03*
X11577000Y-17751425I-20000J0D01*
G01*
X11577000Y-17903825D02*
G75*
G03*
X11577000Y-17903825I-20000J0D01*
G01*
X11577000Y-19656425D02*
G75*
G03*
X11577000Y-19656425I-20000J0D01*
G01*
X11577000Y-19808825D02*
G75*
G03*
X11577000Y-19808825I-20000J0D01*
G01*
X11577000Y-21561425D02*
G75*
G03*
X11577000Y-21561425I-20000J0D01*
G01*
X11577000Y-21713825D02*
G75*
G03*
X11577000Y-21713825I-20000J0D01*
G01*
X11831000Y-12290425D02*
G75*
G03*
X11831000Y-12290425I-20000J0D01*
G01*
X11831000Y-12442825D02*
G75*
G03*
X11831000Y-12442825I-20000J0D01*
G01*
X11831000Y-14195425D02*
G75*
G03*
X11831000Y-14195425I-20000J0D01*
G01*
X11831000Y-14347825D02*
G75*
G03*
X11831000Y-14347825I-20000J0D01*
G01*
X11831000Y-16100425D02*
G75*
G03*
X11831000Y-16100425I-20000J0D01*
G01*
X11831000Y-16252825D02*
G75*
G03*
X11831000Y-16252825I-20000J0D01*
G01*
X11831000Y-18005425D02*
G75*
G03*
X11831000Y-18005425I-20000J0D01*
G01*
X11831000Y-18157825D02*
G75*
G03*
X11831000Y-18157825I-20000J0D01*
G01*
X11831000Y-19910425D02*
G75*
G03*
X11831000Y-19910425I-20000J0D01*
G01*
X11831000Y-20062825D02*
G75*
G03*
X11831000Y-20062825I-20000J0D01*
G01*
X11831000Y-21815425D02*
G75*
G03*
X11831000Y-21815425I-20000J0D01*
G01*
X11831000Y-21967825D02*
G75*
G03*
X11831000Y-21967825I-20000J0D01*
G01*
X12123100Y-15405100D02*
G75*
G03*
X12123100Y-15405100I-20000J0D01*
G01*
X12123100Y-17310100D02*
G75*
G03*
X12123100Y-17310100I-20000J0D01*
G01*
X12123100Y-19215100D02*
G75*
G03*
X12123100Y-19215100I-20000J0D01*
G01*
X12123100Y-21120100D02*
G75*
G03*
X12123100Y-21120100I-20000J0D01*
G01*
X12212000Y-11715750D02*
G75*
G03*
X12212000Y-11715750I-20000J0D01*
G01*
X12212000Y-13620750D02*
G75*
G03*
X12212000Y-13620750I-20000J0D01*
G01*
X12224700Y-15538450D02*
G75*
G03*
X12224700Y-15538450I-20000J0D01*
G01*
X12224700Y-17443450D02*
G75*
G03*
X12224700Y-17443450I-20000J0D01*
G01*
X12224700Y-19361150D02*
G75*
G03*
X12224700Y-19361150I-20000J0D01*
G01*
X12231050Y-21259800D02*
G75*
G03*
X12231050Y-21259800I-20000J0D01*
G01*
X13482000Y-12036425D02*
G75*
G03*
X13482000Y-12036425I-20000J0D01*
G01*
X13482000Y-12188825D02*
G75*
G03*
X13482000Y-12188825I-20000J0D01*
G01*
X13482000Y-13941425D02*
G75*
G03*
X13482000Y-13941425I-20000J0D01*
G01*
X13482000Y-14093825D02*
G75*
G03*
X13482000Y-14093825I-20000J0D01*
G01*
X13482000Y-15846425D02*
G75*
G03*
X13482000Y-15846425I-20000J0D01*
G01*
X13482000Y-15998825D02*
G75*
G03*
X13482000Y-15998825I-20000J0D01*
G01*
X13482000Y-17751425D02*
G75*
G03*
X13482000Y-17751425I-20000J0D01*
G01*
X13482000Y-17903825D02*
G75*
G03*
X13482000Y-17903825I-20000J0D01*
G01*
X13482000Y-19656425D02*
G75*
G03*
X13482000Y-19656425I-20000J0D01*
G01*
X13482000Y-19808825D02*
G75*
G03*
X13482000Y-19808825I-20000J0D01*
G01*
X13482000Y-21561425D02*
G75*
G03*
X13482000Y-21561425I-20000J0D01*
G01*
X13482000Y-21713825D02*
G75*
G03*
X13482000Y-21713825I-20000J0D01*
G01*
X13736000Y-12290425D02*
G75*
G03*
X13736000Y-12290425I-20000J0D01*
G01*
X13736000Y-12442825D02*
G75*
G03*
X13736000Y-12442825I-20000J0D01*
G01*
X13736000Y-14195425D02*
G75*
G03*
X13736000Y-14195425I-20000J0D01*
G01*
X13736000Y-14347825D02*
G75*
G03*
X13736000Y-14347825I-20000J0D01*
G01*
X13736000Y-16100425D02*
G75*
G03*
X13736000Y-16100425I-20000J0D01*
G01*
X13736000Y-16252825D02*
G75*
G03*
X13736000Y-16252825I-20000J0D01*
G01*
X13736000Y-18005425D02*
G75*
G03*
X13736000Y-18005425I-20000J0D01*
G01*
X13736000Y-18157825D02*
G75*
G03*
X13736000Y-18157825I-20000J0D01*
G01*
X13736000Y-19910425D02*
G75*
G03*
X13736000Y-19910425I-20000J0D01*
G01*
X13736000Y-20062825D02*
G75*
G03*
X13736000Y-20062825I-20000J0D01*
G01*
X13736000Y-21815425D02*
G75*
G03*
X13736000Y-21815425I-20000J0D01*
G01*
X13736000Y-21967825D02*
G75*
G03*
X13736000Y-21967825I-20000J0D01*
G01*
X13926500Y-15405100D02*
G75*
G03*
X13926500Y-15405100I-20000J0D01*
G01*
X15387000Y-12036425D02*
G75*
G03*
X15387000Y-12036425I-20000J0D01*
G01*
X15387000Y-12188825D02*
G75*
G03*
X15387000Y-12188825I-20000J0D01*
G01*
X15387000Y-13941425D02*
G75*
G03*
X15387000Y-13941425I-20000J0D01*
G01*
X15387000Y-14093825D02*
G75*
G03*
X15387000Y-14093825I-20000J0D01*
G01*
X15387000Y-15846425D02*
G75*
G03*
X15387000Y-15846425I-20000J0D01*
G01*
X15387000Y-15998825D02*
G75*
G03*
X15387000Y-15998825I-20000J0D01*
G01*
X15387000Y-17751425D02*
G75*
G03*
X15387000Y-17751425I-20000J0D01*
G01*
X15387000Y-17903825D02*
G75*
G03*
X15387000Y-17903825I-20000J0D01*
G01*
X15387000Y-19656425D02*
G75*
G03*
X15387000Y-19656425I-20000J0D01*
G01*
X15387000Y-19808825D02*
G75*
G03*
X15387000Y-19808825I-20000J0D01*
G01*
X15387000Y-21561425D02*
G75*
G03*
X15387000Y-21561425I-20000J0D01*
G01*
X15387000Y-21713825D02*
G75*
G03*
X15387000Y-21713825I-20000J0D01*
G01*
X15641000Y-12290425D02*
G75*
G03*
X15641000Y-12290425I-20000J0D01*
G01*
X15641000Y-12442825D02*
G75*
G03*
X15641000Y-12442825I-20000J0D01*
G01*
X15641000Y-14195425D02*
G75*
G03*
X15641000Y-14195425I-20000J0D01*
G01*
X15641000Y-14347825D02*
G75*
G03*
X15641000Y-14347825I-20000J0D01*
G01*
X15641000Y-16100425D02*
G75*
G03*
X15641000Y-16100425I-20000J0D01*
G01*
X15641000Y-16252825D02*
G75*
G03*
X15641000Y-16252825I-20000J0D01*
G01*
X15641000Y-18005425D02*
G75*
G03*
X15641000Y-18005425I-20000J0D01*
G01*
X15641000Y-18157825D02*
G75*
G03*
X15641000Y-18157825I-20000J0D01*
G01*
X15641000Y-19910425D02*
G75*
G03*
X15641000Y-19910425I-20000J0D01*
G01*
X15641000Y-20062825D02*
G75*
G03*
X15641000Y-20062825I-20000J0D01*
G01*
X15641000Y-21815425D02*
G75*
G03*
X15641000Y-21815425I-20000J0D01*
G01*
X15641000Y-21967825D02*
G75*
G03*
X15641000Y-21967825I-20000J0D01*
G01*
X15831500Y-17310100D02*
G75*
G03*
X15831500Y-17310100I-20000J0D01*
G01*
X17292000Y-12036425D02*
G75*
G03*
X17292000Y-12036425I-20000J0D01*
G01*
X17292000Y-12188825D02*
G75*
G03*
X17292000Y-12188825I-20000J0D01*
G01*
X17292000Y-13941425D02*
G75*
G03*
X17292000Y-13941425I-20000J0D01*
G01*
X17292000Y-14093825D02*
G75*
G03*
X17292000Y-14093825I-20000J0D01*
G01*
X17292000Y-15846425D02*
G75*
G03*
X17292000Y-15846425I-20000J0D01*
G01*
X17292000Y-15998825D02*
G75*
G03*
X17292000Y-15998825I-20000J0D01*
G01*
X17292000Y-17751425D02*
G75*
G03*
X17292000Y-17751425I-20000J0D01*
G01*
X17292000Y-17903825D02*
G75*
G03*
X17292000Y-17903825I-20000J0D01*
G01*
X17292000Y-19656425D02*
G75*
G03*
X17292000Y-19656425I-20000J0D01*
G01*
X17292000Y-19808825D02*
G75*
G03*
X17292000Y-19808825I-20000J0D01*
G01*
X17292000Y-21561425D02*
G75*
G03*
X17292000Y-21561425I-20000J0D01*
G01*
X17292000Y-21713825D02*
G75*
G03*
X17292000Y-21713825I-20000J0D01*
G01*
X17546000Y-12290425D02*
G75*
G03*
X17546000Y-12290425I-20000J0D01*
G01*
X17546000Y-12442825D02*
G75*
G03*
X17546000Y-12442825I-20000J0D01*
G01*
X17546000Y-14195425D02*
G75*
G03*
X17546000Y-14195425I-20000J0D01*
G01*
X17546000Y-14347825D02*
G75*
G03*
X17546000Y-14347825I-20000J0D01*
G01*
X17546000Y-16100425D02*
G75*
G03*
X17546000Y-16100425I-20000J0D01*
G01*
X17546000Y-16252825D02*
G75*
G03*
X17546000Y-16252825I-20000J0D01*
G01*
X17546000Y-18005425D02*
G75*
G03*
X17546000Y-18005425I-20000J0D01*
G01*
X17546000Y-18157825D02*
G75*
G03*
X17546000Y-18157825I-20000J0D01*
G01*
X17546000Y-19910425D02*
G75*
G03*
X17546000Y-19910425I-20000J0D01*
G01*
X17546000Y-20062825D02*
G75*
G03*
X17546000Y-20062825I-20000J0D01*
G01*
X17546000Y-21815425D02*
G75*
G03*
X17546000Y-21815425I-20000J0D01*
G01*
X17546000Y-21967825D02*
G75*
G03*
X17546000Y-21967825I-20000J0D01*
G01*
X17736500Y-19215100D02*
G75*
G03*
X17736500Y-19215100I-20000J0D01*
G01*
X19197000Y-12036425D02*
G75*
G03*
X19197000Y-12036425I-20000J0D01*
G01*
X19197000Y-12188825D02*
G75*
G03*
X19197000Y-12188825I-20000J0D01*
G01*
X19197000Y-13941425D02*
G75*
G03*
X19197000Y-13941425I-20000J0D01*
G01*
X19197000Y-14093825D02*
G75*
G03*
X19197000Y-14093825I-20000J0D01*
G01*
X19197000Y-15846425D02*
G75*
G03*
X19197000Y-15846425I-20000J0D01*
G01*
X19197000Y-15998825D02*
G75*
G03*
X19197000Y-15998825I-20000J0D01*
G01*
X19197000Y-17751425D02*
G75*
G03*
X19197000Y-17751425I-20000J0D01*
G01*
X19197000Y-17903825D02*
G75*
G03*
X19197000Y-17903825I-20000J0D01*
G01*
X19197000Y-19656425D02*
G75*
G03*
X19197000Y-19656425I-20000J0D01*
G01*
X19197000Y-19808825D02*
G75*
G03*
X19197000Y-19808825I-20000J0D01*
G01*
X19197000Y-21561425D02*
G75*
G03*
X19197000Y-21561425I-20000J0D01*
G01*
X19197000Y-21713825D02*
G75*
G03*
X19197000Y-21713825I-20000J0D01*
G01*
X19451000Y-12290425D02*
G75*
G03*
X19451000Y-12290425I-20000J0D01*
G01*
X19451000Y-12442825D02*
G75*
G03*
X19451000Y-12442825I-20000J0D01*
G01*
X19451000Y-14195425D02*
G75*
G03*
X19451000Y-14195425I-20000J0D01*
G01*
X19451000Y-14347825D02*
G75*
G03*
X19451000Y-14347825I-20000J0D01*
G01*
X19451000Y-16100425D02*
G75*
G03*
X19451000Y-16100425I-20000J0D01*
G01*
X19451000Y-16252825D02*
G75*
G03*
X19451000Y-16252825I-20000J0D01*
G01*
X19451000Y-18005425D02*
G75*
G03*
X19451000Y-18005425I-20000J0D01*
G01*
X19451000Y-18157825D02*
G75*
G03*
X19451000Y-18157825I-20000J0D01*
G01*
X19451000Y-19910425D02*
G75*
G03*
X19451000Y-19910425I-20000J0D01*
G01*
X19451000Y-20062825D02*
G75*
G03*
X19451000Y-20062825I-20000J0D01*
G01*
X19451000Y-21815425D02*
G75*
G03*
X19451000Y-21815425I-20000J0D01*
G01*
X19451000Y-21967825D02*
G75*
G03*
X19451000Y-21967825I-20000J0D01*
G01*
X19641500Y-21120100D02*
G75*
G03*
X19641500Y-21120100I-20000J0D01*
G01*
X21102000Y-12036425D02*
G75*
G03*
X21102000Y-12036425I-20000J0D01*
G01*
X21102000Y-12188825D02*
G75*
G03*
X21102000Y-12188825I-20000J0D01*
G01*
X21102000Y-13941425D02*
G75*
G03*
X21102000Y-13941425I-20000J0D01*
G01*
X21102000Y-14093825D02*
G75*
G03*
X21102000Y-14093825I-20000J0D01*
G01*
X21102000Y-15846425D02*
G75*
G03*
X21102000Y-15846425I-20000J0D01*
G01*
X21102000Y-15998825D02*
G75*
G03*
X21102000Y-15998825I-20000J0D01*
G01*
X21102000Y-17751425D02*
G75*
G03*
X21102000Y-17751425I-20000J0D01*
G01*
X21102000Y-17903825D02*
G75*
G03*
X21102000Y-17903825I-20000J0D01*
G01*
X21102000Y-19656425D02*
G75*
G03*
X21102000Y-19656425I-20000J0D01*
G01*
X21102000Y-19808825D02*
G75*
G03*
X21102000Y-19808825I-20000J0D01*
G01*
X21102000Y-21561425D02*
G75*
G03*
X21102000Y-21561425I-20000J0D01*
G01*
X21102000Y-21713825D02*
G75*
G03*
X21102000Y-21713825I-20000J0D01*
G01*
X21356000Y-12290425D02*
G75*
G03*
X21356000Y-12290425I-20000J0D01*
G01*
X21356000Y-12442825D02*
G75*
G03*
X21356000Y-12442825I-20000J0D01*
G01*
X21356000Y-14195425D02*
G75*
G03*
X21356000Y-14195425I-20000J0D01*
G01*
X21356000Y-14347825D02*
G75*
G03*
X21356000Y-14347825I-20000J0D01*
G01*
X21356000Y-16100425D02*
G75*
G03*
X21356000Y-16100425I-20000J0D01*
G01*
X21356000Y-16252825D02*
G75*
G03*
X21356000Y-16252825I-20000J0D01*
G01*
X21356000Y-18005425D02*
G75*
G03*
X21356000Y-18005425I-20000J0D01*
G01*
X21356000Y-18157825D02*
G75*
G03*
X21356000Y-18157825I-20000J0D01*
G01*
X21356000Y-19910425D02*
G75*
G03*
X21356000Y-19910425I-20000J0D01*
G01*
X21356000Y-20062825D02*
G75*
G03*
X21356000Y-20062825I-20000J0D01*
G01*
X21356000Y-21815425D02*
G75*
G03*
X21356000Y-21815425I-20000J0D01*
G01*
X21356000Y-21967825D02*
G75*
G03*
X21356000Y-21967825I-20000J0D01*
G01*
X23007000Y-12036425D02*
G75*
G03*
X23007000Y-12036425I-20000J0D01*
G01*
X23007000Y-12188825D02*
G75*
G03*
X23007000Y-12188825I-20000J0D01*
G01*
X23007000Y-13941425D02*
G75*
G03*
X23007000Y-13941425I-20000J0D01*
G01*
X23007000Y-14093825D02*
G75*
G03*
X23007000Y-14093825I-20000J0D01*
G01*
X23007000Y-15846425D02*
G75*
G03*
X23007000Y-15846425I-20000J0D01*
G01*
X23007000Y-15998825D02*
G75*
G03*
X23007000Y-15998825I-20000J0D01*
G01*
X23007000Y-17751425D02*
G75*
G03*
X23007000Y-17751425I-20000J0D01*
G01*
X23007000Y-17903825D02*
G75*
G03*
X23007000Y-17903825I-20000J0D01*
G01*
X23007000Y-19656425D02*
G75*
G03*
X23007000Y-19656425I-20000J0D01*
G01*
X23007000Y-19808825D02*
G75*
G03*
X23007000Y-19808825I-20000J0D01*
G01*
X23007000Y-21561425D02*
G75*
G03*
X23007000Y-21561425I-20000J0D01*
G01*
X23007000Y-21713825D02*
G75*
G03*
X23007000Y-21713825I-20000J0D01*
G01*
X23261000Y-12290425D02*
G75*
G03*
X23261000Y-12290425I-20000J0D01*
G01*
X23261000Y-12442825D02*
G75*
G03*
X23261000Y-12442825I-20000J0D01*
G01*
X23261000Y-14195425D02*
G75*
G03*
X23261000Y-14195425I-20000J0D01*
G01*
X23261000Y-14347825D02*
G75*
G03*
X23261000Y-14347825I-20000J0D01*
G01*
X23261000Y-16100425D02*
G75*
G03*
X23261000Y-16100425I-20000J0D01*
G01*
X23261000Y-16252825D02*
G75*
G03*
X23261000Y-16252825I-20000J0D01*
G01*
X23261000Y-18005425D02*
G75*
G03*
X23261000Y-18005425I-20000J0D01*
G01*
X23261000Y-18157825D02*
G75*
G03*
X23261000Y-18157825I-20000J0D01*
G01*
X23261000Y-19910425D02*
G75*
G03*
X23261000Y-19910425I-20000J0D01*
G01*
X23261000Y-20062825D02*
G75*
G03*
X23261000Y-20062825I-20000J0D01*
G01*
X23261000Y-21815425D02*
G75*
G03*
X23261000Y-21815425I-20000J0D01*
G01*
X23261000Y-21967825D02*
G75*
G03*
X23261000Y-21967825I-20000J0D01*
G01*
X24912000Y-12036425D02*
G75*
G03*
X24912000Y-12036425I-20000J0D01*
G01*
X24912000Y-12188825D02*
G75*
G03*
X24912000Y-12188825I-20000J0D01*
G01*
X24912000Y-13941425D02*
G75*
G03*
X24912000Y-13941425I-20000J0D01*
G01*
X24912000Y-14093825D02*
G75*
G03*
X24912000Y-14093825I-20000J0D01*
G01*
X24912000Y-15846425D02*
G75*
G03*
X24912000Y-15846425I-20000J0D01*
G01*
X24912000Y-15998825D02*
G75*
G03*
X24912000Y-15998825I-20000J0D01*
G01*
X24912000Y-17751425D02*
G75*
G03*
X24912000Y-17751425I-20000J0D01*
G01*
X24912000Y-17903825D02*
G75*
G03*
X24912000Y-17903825I-20000J0D01*
G01*
X24912000Y-19656425D02*
G75*
G03*
X24912000Y-19656425I-20000J0D01*
G01*
X24912000Y-19808825D02*
G75*
G03*
X24912000Y-19808825I-20000J0D01*
G01*
X24912000Y-21561425D02*
G75*
G03*
X24912000Y-21561425I-20000J0D01*
G01*
X24912000Y-21713825D02*
G75*
G03*
X24912000Y-21713825I-20000J0D01*
G01*
X25166000Y-12290425D02*
G75*
G03*
X25166000Y-12290425I-20000J0D01*
G01*
X25166000Y-12442825D02*
G75*
G03*
X25166000Y-12442825I-20000J0D01*
G01*
X25166000Y-14195425D02*
G75*
G03*
X25166000Y-14195425I-20000J0D01*
G01*
X25166000Y-14347825D02*
G75*
G03*
X25166000Y-14347825I-20000J0D01*
G01*
X25166000Y-16100425D02*
G75*
G03*
X25166000Y-16100425I-20000J0D01*
G01*
X25166000Y-16252825D02*
G75*
G03*
X25166000Y-16252825I-20000J0D01*
G01*
X25166000Y-18005425D02*
G75*
G03*
X25166000Y-18005425I-20000J0D01*
G01*
X25166000Y-18157825D02*
G75*
G03*
X25166000Y-18157825I-20000J0D01*
G01*
X25166000Y-19910425D02*
G75*
G03*
X25166000Y-19910425I-20000J0D01*
G01*
X25166000Y-20062825D02*
G75*
G03*
X25166000Y-20062825I-20000J0D01*
G01*
X25166000Y-21815425D02*
G75*
G03*
X25166000Y-21815425I-20000J0D01*
G01*
X25166000Y-21967825D02*
G75*
G03*
X25166000Y-21967825I-20000J0D01*
G01*
X25940700Y-17443450D02*
G75*
G03*
X25940700Y-17443450I-20000J0D01*
G01*
X25953400Y-19361150D02*
G75*
G03*
X25953400Y-19361150I-20000J0D01*
G01*
X25972450Y-15538450D02*
G75*
G03*
X25972450Y-15538450I-20000J0D01*
G01*
X26213750Y-21259800D02*
G75*
G03*
X26213750Y-21259800I-20000J0D01*
G01*
X26353450Y-19088100D02*
G75*
G03*
X26353450Y-19088100I-20000J0D01*
G01*
X26359800Y-18865850D02*
G75*
G03*
X26359800Y-18865850I-20000J0D01*
G01*
X26370979Y-21172801D02*
G75*
G03*
X26370979Y-21172801I-20000J0D01*
G01*
X26372500Y-20789900D02*
G75*
G03*
X26372500Y-20789900I-20000J0D01*
G01*
X26385200Y-16935450D02*
G75*
G03*
X26385200Y-16935450I-20000J0D01*
G01*
X26385200Y-17183100D02*
G75*
G03*
X26385200Y-17183100I-20000J0D01*
G01*
X26391550Y-15055850D02*
G75*
G03*
X26391550Y-15055850I-20000J0D01*
G01*
X26391550Y-15284450D02*
G75*
G03*
X26391550Y-15284450I-20000J0D01*
G01*
X26404250Y-13157200D02*
G75*
G03*
X26404250Y-13157200I-20000J0D01*
G01*
X26404250Y-13373100D02*
G75*
G03*
X26404250Y-13373100I-20000J0D01*
G01*
X26817000Y-12036425D02*
G75*
G03*
X26817000Y-12036425I-20000J0D01*
G01*
X26817000Y-12188825D02*
G75*
G03*
X26817000Y-12188825I-20000J0D01*
G01*
X26817000Y-13941425D02*
G75*
G03*
X26817000Y-13941425I-20000J0D01*
G01*
X26817000Y-14093825D02*
G75*
G03*
X26817000Y-14093825I-20000J0D01*
G01*
X26817000Y-15846425D02*
G75*
G03*
X26817000Y-15846425I-20000J0D01*
G01*
X26817000Y-15998825D02*
G75*
G03*
X26817000Y-15998825I-20000J0D01*
G01*
X26817000Y-17751425D02*
G75*
G03*
X26817000Y-17751425I-20000J0D01*
G01*
X26817000Y-17903825D02*
G75*
G03*
X26817000Y-17903825I-20000J0D01*
G01*
X26817000Y-19656425D02*
G75*
G03*
X26817000Y-19656425I-20000J0D01*
G01*
X26817000Y-19808825D02*
G75*
G03*
X26817000Y-19808825I-20000J0D01*
G01*
X26817000Y-21561425D02*
G75*
G03*
X26817000Y-21561425I-20000J0D01*
G01*
X26817000Y-21713825D02*
G75*
G03*
X26817000Y-21713825I-20000J0D01*
G01*
X27071000Y-12290425D02*
G75*
G03*
X27071000Y-12290425I-20000J0D01*
G01*
X27071000Y-12442825D02*
G75*
G03*
X27071000Y-12442825I-20000J0D01*
G01*
X27071000Y-14195425D02*
G75*
G03*
X27071000Y-14195425I-20000J0D01*
G01*
X27071000Y-14347825D02*
G75*
G03*
X27071000Y-14347825I-20000J0D01*
G01*
X27071000Y-16100425D02*
G75*
G03*
X27071000Y-16100425I-20000J0D01*
G01*
X27071000Y-16252825D02*
G75*
G03*
X27071000Y-16252825I-20000J0D01*
G01*
X27071000Y-18005425D02*
G75*
G03*
X27071000Y-18005425I-20000J0D01*
G01*
X27071000Y-18157825D02*
G75*
G03*
X27071000Y-18157825I-20000J0D01*
G01*
X27071000Y-19910425D02*
G75*
G03*
X27071000Y-19910425I-20000J0D01*
G01*
X27071000Y-20062825D02*
G75*
G03*
X27071000Y-20062825I-20000J0D01*
G01*
X27071000Y-21815425D02*
G75*
G03*
X27071000Y-21815425I-20000J0D01*
G01*
X27071000Y-21967825D02*
G75*
G03*
X27071000Y-21967825I-20000J0D01*
G01*
X27452000Y-19361150D02*
G75*
G03*
X27452000Y-19361150I-20000J0D01*
G01*
X27452000Y-21259800D02*
G75*
G03*
X27452000Y-21259800I-20000J0D01*
G01*
X27477400Y-17443450D02*
G75*
G03*
X27477400Y-17443450I-20000J0D01*
G01*
X27883800Y-17443450D02*
G75*
G03*
X27883800Y-17443450I-20000J0D01*
G01*
X28252100Y-13385800D02*
G75*
G03*
X28252100Y-13385800I-20000J0D01*
G01*
X28258450Y-13144500D02*
G75*
G03*
X28258450Y-13144500I-20000J0D01*
G01*
X28264800Y-15036800D02*
G75*
G03*
X28264800Y-15036800I-20000J0D01*
G01*
X28264800Y-15290800D02*
G75*
G03*
X28264800Y-15290800I-20000J0D01*
G01*
X28271150Y-16973550D02*
G75*
G03*
X28271150Y-16973550I-20000J0D01*
G01*
X28271150Y-17176750D02*
G75*
G03*
X28271150Y-17176750I-20000J0D01*
G01*
X28315600Y-18872200D02*
G75*
G03*
X28315600Y-18872200I-20000J0D01*
G01*
X28321950Y-19088100D02*
G75*
G03*
X28321950Y-19088100I-20000J0D01*
G01*
X28575950Y-19361150D02*
G75*
G03*
X28575950Y-19361150I-20000J0D01*
G01*
X28722000Y-12036425D02*
G75*
G03*
X28722000Y-12036425I-20000J0D01*
G01*
X28722000Y-12188825D02*
G75*
G03*
X28722000Y-12188825I-20000J0D01*
G01*
X28722000Y-13941425D02*
G75*
G03*
X28722000Y-13941425I-20000J0D01*
G01*
X28722000Y-14093825D02*
G75*
G03*
X28722000Y-14093825I-20000J0D01*
G01*
X28722000Y-15846425D02*
G75*
G03*
X28722000Y-15846425I-20000J0D01*
G01*
X28722000Y-15998825D02*
G75*
G03*
X28722000Y-15998825I-20000J0D01*
G01*
X28722000Y-17751425D02*
G75*
G03*
X28722000Y-17751425I-20000J0D01*
G01*
X28722000Y-17903825D02*
G75*
G03*
X28722000Y-17903825I-20000J0D01*
G01*
X28722000Y-19656425D02*
G75*
G03*
X28722000Y-19656425I-20000J0D01*
G01*
X28722000Y-19808825D02*
G75*
G03*
X28722000Y-19808825I-20000J0D01*
G01*
X28722000Y-21561425D02*
G75*
G03*
X28722000Y-21561425I-20000J0D01*
G01*
X28722000Y-21713825D02*
G75*
G03*
X28722000Y-21713825I-20000J0D01*
G01*
X28976000Y-12290425D02*
G75*
G03*
X28976000Y-12290425I-20000J0D01*
G01*
X28976000Y-12442825D02*
G75*
G03*
X28976000Y-12442825I-20000J0D01*
G01*
X28976000Y-14195425D02*
G75*
G03*
X28976000Y-14195425I-20000J0D01*
G01*
X28976000Y-14347825D02*
G75*
G03*
X28976000Y-14347825I-20000J0D01*
G01*
X28976000Y-16100425D02*
G75*
G03*
X28976000Y-16100425I-20000J0D01*
G01*
X28976000Y-16252825D02*
G75*
G03*
X28976000Y-16252825I-20000J0D01*
G01*
X28976000Y-18005425D02*
G75*
G03*
X28976000Y-18005425I-20000J0D01*
G01*
X28976000Y-18157825D02*
G75*
G03*
X28976000Y-18157825I-20000J0D01*
G01*
X28976000Y-19910425D02*
G75*
G03*
X28976000Y-19910425I-20000J0D01*
G01*
X28976000Y-20062825D02*
G75*
G03*
X28976000Y-20062825I-20000J0D01*
G01*
X28976000Y-21815425D02*
G75*
G03*
X28976000Y-21815425I-20000J0D01*
G01*
X28976000Y-21967825D02*
G75*
G03*
X28976000Y-21967825I-20000J0D01*
G01*
X29388750Y-19361150D02*
G75*
G03*
X29388750Y-19361150I-20000J0D01*
G01*
X30117099Y-10515675D02*
G75*
G03*
X30117099Y-10515675I-20000J0D01*
G01*
X30147994Y-10631245D02*
G75*
G03*
X30147994Y-10631245I-20000J0D01*
G01*
X30169800Y-15271750D02*
G75*
G03*
X30169800Y-15271750I-20000J0D01*
G01*
X30176150Y-15036800D02*
G75*
G03*
X30176150Y-15036800I-20000J0D01*
G01*
X30182500Y-13373100D02*
G75*
G03*
X30182500Y-13373100I-20000J0D01*
G01*
X30188850Y-13157200D02*
G75*
G03*
X30188850Y-13157200I-20000J0D01*
G01*
X30195200Y-16967200D02*
G75*
G03*
X30195200Y-16967200I-20000J0D01*
G01*
X30201550Y-17176750D02*
G75*
G03*
X30201550Y-17176750I-20000J0D01*
G01*
X30451103Y-10591800D02*
G75*
G03*
X30451103Y-10591800I-20000J0D01*
G01*
X30473921Y-9394641D02*
G75*
G03*
X30473921Y-9394641I-20000J0D01*
G01*
X30476503Y-10322751D02*
G75*
G03*
X30476503Y-10322751I-20000J0D01*
G01*
X30476503Y-10469051D02*
G75*
G03*
X30476503Y-10469051I-20000J0D01*
G01*
X30501901Y-9483590D02*
G75*
G03*
X30501901Y-9483590I-20000J0D01*
G01*
X30554822Y-9223421D02*
G75*
G03*
X30554822Y-9223421I-20000J0D01*
G01*
X30559522Y-9092620D02*
G75*
G03*
X30559522Y-9092620I-20000J0D01*
G01*
X30627000Y-12036425D02*
G75*
G03*
X30627000Y-12036425I-20000J0D01*
G01*
X30627000Y-12188825D02*
G75*
G03*
X30627000Y-12188825I-20000J0D01*
G01*
X30627000Y-13941425D02*
G75*
G03*
X30627000Y-13941425I-20000J0D01*
G01*
X30627000Y-14093825D02*
G75*
G03*
X30627000Y-14093825I-20000J0D01*
G01*
X30627000Y-15846425D02*
G75*
G03*
X30627000Y-15846425I-20000J0D01*
G01*
X30627000Y-15998825D02*
G75*
G03*
X30627000Y-15998825I-20000J0D01*
G01*
X30627000Y-17751425D02*
G75*
G03*
X30627000Y-17751425I-20000J0D01*
G01*
X30627000Y-17903825D02*
G75*
G03*
X30627000Y-17903825I-20000J0D01*
G01*
X30627000Y-19656425D02*
G75*
G03*
X30627000Y-19656425I-20000J0D01*
G01*
X30627000Y-19808825D02*
G75*
G03*
X30627000Y-19808825I-20000J0D01*
G01*
X30627000Y-21561425D02*
G75*
G03*
X30627000Y-21561425I-20000J0D01*
G01*
X30627000Y-21713825D02*
G75*
G03*
X30627000Y-21713825I-20000J0D01*
G01*
X30701285Y-9339343D02*
G75*
G03*
X30701285Y-9339343I-20000J0D01*
G01*
X30741300Y-8699500D02*
G75*
G03*
X30741300Y-8699500I-20000J0D01*
G01*
X30835911Y-10272399D02*
G75*
G03*
X30835911Y-10272399I-20000J0D01*
G01*
X30881000Y-12290425D02*
G75*
G03*
X30881000Y-12290425I-20000J0D01*
G01*
X30881000Y-12442825D02*
G75*
G03*
X30881000Y-12442825I-20000J0D01*
G01*
X30881000Y-14195425D02*
G75*
G03*
X30881000Y-14195425I-20000J0D01*
G01*
X30881000Y-14347825D02*
G75*
G03*
X30881000Y-14347825I-20000J0D01*
G01*
X30881000Y-16100425D02*
G75*
G03*
X30881000Y-16100425I-20000J0D01*
G01*
X30881000Y-16252825D02*
G75*
G03*
X30881000Y-16252825I-20000J0D01*
G01*
X30881000Y-18005425D02*
G75*
G03*
X30881000Y-18005425I-20000J0D01*
G01*
X30881000Y-18157825D02*
G75*
G03*
X30881000Y-18157825I-20000J0D01*
G01*
X30881000Y-19910425D02*
G75*
G03*
X30881000Y-19910425I-20000J0D01*
G01*
X30881000Y-20062825D02*
G75*
G03*
X30881000Y-20062825I-20000J0D01*
G01*
X30881000Y-21815425D02*
G75*
G03*
X30881000Y-21815425I-20000J0D01*
G01*
X30881000Y-21967825D02*
G75*
G03*
X30881000Y-21967825I-20000J0D01*
G01*
X31071500Y-19361150D02*
G75*
G03*
X31071500Y-19361150I-20000J0D01*
G01*
X31396467Y-10320748D02*
G75*
G03*
X31396467Y-10320748I-20000J0D01*
G01*
X31580041Y-9149301D02*
G75*
G03*
X31580041Y-9149301I-20000J0D01*
G01*
X31693900Y-9740455D02*
G75*
G03*
X31693900Y-9740455I-20000J0D01*
G01*
X31782700Y-9385300D02*
G75*
G03*
X31782700Y-9385300I-20000J0D01*
G01*
X31843663Y-10051029D02*
G75*
G03*
X31843663Y-10051029I-20000J0D01*
G01*
X31909700Y-9156700D02*
G75*
G03*
X31909700Y-9156700I-20000J0D01*
G01*
X32087500Y-13379450D02*
G75*
G03*
X32087500Y-13379450I-20000J0D01*
G01*
X32093850Y-13125450D02*
G75*
G03*
X32093850Y-13125450I-20000J0D01*
G01*
X32093850Y-15290800D02*
G75*
G03*
X32093850Y-15290800I-20000J0D01*
G01*
X32100200Y-15030450D02*
G75*
G03*
X32100200Y-15030450I-20000J0D01*
G01*
X32109157Y-9628306D02*
G75*
G03*
X32109157Y-9628306I-20000J0D01*
G01*
X32231636Y-9786631D02*
G75*
G03*
X32231636Y-9786631I-20000J0D01*
G01*
X32265300Y-9385300D02*
G75*
G03*
X32265300Y-9385300I-20000J0D01*
G01*
X32279902Y-10208807D02*
G75*
G03*
X32279902Y-10208807I-20000J0D01*
G01*
X32322397Y-9684351D02*
G75*
G03*
X32322397Y-9684351I-20000J0D01*
G01*
X32325625Y-9128125D02*
G75*
G03*
X32325625Y-9128125I-20000J0D01*
G01*
X32465904Y-9810973D02*
G75*
G03*
X32465904Y-9810973I-20000J0D01*
G01*
X32478345Y-9982415D02*
G75*
G03*
X32478345Y-9982415I-20000J0D01*
G01*
X32501349Y-10074837D02*
G75*
G03*
X32501349Y-10074837I-20000J0D01*
G01*
X32532000Y-12036425D02*
G75*
G03*
X32532000Y-12036425I-20000J0D01*
G01*
X32532000Y-12188825D02*
G75*
G03*
X32532000Y-12188825I-20000J0D01*
G01*
X32532000Y-13941425D02*
G75*
G03*
X32532000Y-13941425I-20000J0D01*
G01*
X32532000Y-14093825D02*
G75*
G03*
X32532000Y-14093825I-20000J0D01*
G01*
X32532000Y-15846425D02*
G75*
G03*
X32532000Y-15846425I-20000J0D01*
G01*
X32532000Y-15998825D02*
G75*
G03*
X32532000Y-15998825I-20000J0D01*
G01*
X32532000Y-17751425D02*
G75*
G03*
X32532000Y-17751425I-20000J0D01*
G01*
X32532000Y-17903825D02*
G75*
G03*
X32532000Y-17903825I-20000J0D01*
G01*
X32532000Y-19656425D02*
G75*
G03*
X32532000Y-19656425I-20000J0D01*
G01*
X32532000Y-19808825D02*
G75*
G03*
X32532000Y-19808825I-20000J0D01*
G01*
X32532000Y-21561425D02*
G75*
G03*
X32532000Y-21561425I-20000J0D01*
G01*
X32532000Y-21713825D02*
G75*
G03*
X32532000Y-21713825I-20000J0D01*
G01*
X32610105Y-9494117D02*
G75*
G03*
X32610105Y-9494117I-20000J0D01*
G01*
X32671847Y-9563265D02*
G75*
G03*
X32671847Y-9563265I-20000J0D01*
G01*
X32722500Y-9207500D02*
G75*
G03*
X32722500Y-9207500I-20000J0D01*
G01*
X32728850Y-10058400D02*
G75*
G03*
X32728850Y-10058400I-20000J0D01*
G01*
X32786000Y-12290425D02*
G75*
G03*
X32786000Y-12290425I-20000J0D01*
G01*
X32786000Y-12442825D02*
G75*
G03*
X32786000Y-12442825I-20000J0D01*
G01*
X32786000Y-14195425D02*
G75*
G03*
X32786000Y-14195425I-20000J0D01*
G01*
X32786000Y-14347825D02*
G75*
G03*
X32786000Y-14347825I-20000J0D01*
G01*
X32786000Y-16100425D02*
G75*
G03*
X32786000Y-16100425I-20000J0D01*
G01*
X32786000Y-16252825D02*
G75*
G03*
X32786000Y-16252825I-20000J0D01*
G01*
X32786000Y-18005425D02*
G75*
G03*
X32786000Y-18005425I-20000J0D01*
G01*
X32786000Y-18157825D02*
G75*
G03*
X32786000Y-18157825I-20000J0D01*
G01*
X32786000Y-19910425D02*
G75*
G03*
X32786000Y-19910425I-20000J0D01*
G01*
X32786000Y-20062825D02*
G75*
G03*
X32786000Y-20062825I-20000J0D01*
G01*
X32786000Y-21815425D02*
G75*
G03*
X32786000Y-21815425I-20000J0D01*
G01*
X32786000Y-21967825D02*
G75*
G03*
X32786000Y-21967825I-20000J0D01*
G01*
X32938400Y-9093200D02*
G75*
G03*
X32938400Y-9093200I-20000J0D01*
G01*
X32976500Y-21259800D02*
G75*
G03*
X32976500Y-21259800I-20000J0D01*
G01*
X32995550Y-9486900D02*
G75*
G03*
X32995550Y-9486900I-20000J0D01*
G01*
X32995550Y-9569450D02*
G75*
G03*
X32995550Y-9569450I-20000J0D01*
G01*
X32995550Y-9652000D02*
G75*
G03*
X32995550Y-9652000I-20000J0D01*
G01*
X32995550Y-9734550D02*
G75*
G03*
X32995550Y-9734550I-20000J0D01*
G01*
X32995550Y-9817100D02*
G75*
G03*
X32995550Y-9817100I-20000J0D01*
G01*
X32995550Y-9899650D02*
G75*
G03*
X32995550Y-9899650I-20000J0D01*
G01*
X33064366Y-10329585D02*
G75*
G03*
X33064366Y-10329585I-20000J0D01*
G01*
X33078100Y-9486900D02*
G75*
G03*
X33078100Y-9486900I-20000J0D01*
G01*
X33078100Y-9569450D02*
G75*
G03*
X33078100Y-9569450I-20000J0D01*
G01*
X33078100Y-9652000D02*
G75*
G03*
X33078100Y-9652000I-20000J0D01*
G01*
X33078100Y-9734550D02*
G75*
G03*
X33078100Y-9734550I-20000J0D01*
G01*
X33078100Y-9817100D02*
G75*
G03*
X33078100Y-9817100I-20000J0D01*
G01*
X33078100Y-9899650D02*
G75*
G03*
X33078100Y-9899650I-20000J0D01*
G01*
X33160650Y-9486900D02*
G75*
G03*
X33160650Y-9486900I-20000J0D01*
G01*
X33160650Y-9569450D02*
G75*
G03*
X33160650Y-9569450I-20000J0D01*
G01*
X33160650Y-9652000D02*
G75*
G03*
X33160650Y-9652000I-20000J0D01*
G01*
X33160650Y-9734550D02*
G75*
G03*
X33160650Y-9734550I-20000J0D01*
G01*
X33160650Y-9817100D02*
G75*
G03*
X33160650Y-9817100I-20000J0D01*
G01*
X33160650Y-9899650D02*
G75*
G03*
X33160650Y-9899650I-20000J0D01*
G01*
X33229407Y-10329585D02*
G75*
G03*
X33229407Y-10329585I-20000J0D01*
G01*
X33243200Y-9486900D02*
G75*
G03*
X33243200Y-9486900I-20000J0D01*
G01*
X33243200Y-9569450D02*
G75*
G03*
X33243200Y-9569450I-20000J0D01*
G01*
X33243200Y-9652000D02*
G75*
G03*
X33243200Y-9652000I-20000J0D01*
G01*
X33243200Y-9734550D02*
G75*
G03*
X33243200Y-9734550I-20000J0D01*
G01*
X33243200Y-9817100D02*
G75*
G03*
X33243200Y-9817100I-20000J0D01*
G01*
X33243200Y-9899650D02*
G75*
G03*
X33243200Y-9899650I-20000J0D01*
G01*
X33325750Y-9486900D02*
G75*
G03*
X33325750Y-9486900I-20000J0D01*
G01*
X33325750Y-9569450D02*
G75*
G03*
X33325750Y-9569450I-20000J0D01*
G01*
X33325750Y-9652000D02*
G75*
G03*
X33325750Y-9652000I-20000J0D01*
G01*
X33325750Y-9734550D02*
G75*
G03*
X33325750Y-9734550I-20000J0D01*
G01*
X33325750Y-9817100D02*
G75*
G03*
X33325750Y-9817100I-20000J0D01*
G01*
X33325750Y-9899650D02*
G75*
G03*
X33325750Y-9899650I-20000J0D01*
G01*
X33408300Y-9486900D02*
G75*
G03*
X33408300Y-9486900I-20000J0D01*
G01*
X33408300Y-9569450D02*
G75*
G03*
X33408300Y-9569450I-20000J0D01*
G01*
X33408300Y-9652000D02*
G75*
G03*
X33408300Y-9652000I-20000J0D01*
G01*
X33408300Y-9734550D02*
G75*
G03*
X33408300Y-9734550I-20000J0D01*
G01*
X33408300Y-9817100D02*
G75*
G03*
X33408300Y-9817100I-20000J0D01*
G01*
X33408300Y-9899650D02*
G75*
G03*
X33408300Y-9899650I-20000J0D01*
G01*
X33414375Y-10226032D02*
G75*
G03*
X33414375Y-10226032I-20000J0D01*
G01*
X33428998Y-10131920D02*
G75*
G03*
X33428998Y-10131920I-20000J0D01*
G01*
X33528950Y-9315450D02*
G75*
G03*
X33528950Y-9315450I-20000J0D01*
G01*
X33701652Y-9771129D02*
G75*
G03*
X33701652Y-9771129I-20000J0D01*
G01*
X33706128Y-9462201D02*
G75*
G03*
X33706128Y-9462201I-20000J0D01*
G01*
X33755794Y-10242840D02*
G75*
G03*
X33755794Y-10242840I-20000J0D01*
G01*
X33789300Y-9658350D02*
G75*
G03*
X33789300Y-9658350I-20000J0D01*
G01*
X33837533Y-9782727D02*
G75*
G03*
X33837533Y-9782727I-20000J0D01*
G01*
X33878200Y-9448800D02*
G75*
G03*
X33878200Y-9448800I-20000J0D01*
G01*
X33954400Y-10007600D02*
G75*
G03*
X33954400Y-10007600I-20000J0D01*
G01*
X34011550Y-13138150D02*
G75*
G03*
X34011550Y-13138150I-20000J0D01*
G01*
X34011550Y-13411200D02*
G75*
G03*
X34011550Y-13411200I-20000J0D01*
G01*
X34437000Y-10382250D02*
G75*
G03*
X34437000Y-10382250I-20000J0D01*
G01*
X34437000Y-12036425D02*
G75*
G03*
X34437000Y-12036425I-20000J0D01*
G01*
X34437000Y-12188825D02*
G75*
G03*
X34437000Y-12188825I-20000J0D01*
G01*
X34437000Y-13941425D02*
G75*
G03*
X34437000Y-13941425I-20000J0D01*
G01*
X34437000Y-14093825D02*
G75*
G03*
X34437000Y-14093825I-20000J0D01*
G01*
X34437000Y-15846425D02*
G75*
G03*
X34437000Y-15846425I-20000J0D01*
G01*
X34437000Y-15998825D02*
G75*
G03*
X34437000Y-15998825I-20000J0D01*
G01*
X34437000Y-17751425D02*
G75*
G03*
X34437000Y-17751425I-20000J0D01*
G01*
X34437000Y-17903825D02*
G75*
G03*
X34437000Y-17903825I-20000J0D01*
G01*
X34437000Y-19656425D02*
G75*
G03*
X34437000Y-19656425I-20000J0D01*
G01*
X34437000Y-19808825D02*
G75*
G03*
X34437000Y-19808825I-20000J0D01*
G01*
X34437000Y-21561425D02*
G75*
G03*
X34437000Y-21561425I-20000J0D01*
G01*
X34437000Y-21713825D02*
G75*
G03*
X34437000Y-21713825I-20000J0D01*
G01*
X34691000Y-12290425D02*
G75*
G03*
X34691000Y-12290425I-20000J0D01*
G01*
X34691000Y-12442825D02*
G75*
G03*
X34691000Y-12442825I-20000J0D01*
G01*
X34691000Y-14195425D02*
G75*
G03*
X34691000Y-14195425I-20000J0D01*
G01*
X34691000Y-14347825D02*
G75*
G03*
X34691000Y-14347825I-20000J0D01*
G01*
X34691000Y-16100425D02*
G75*
G03*
X34691000Y-16100425I-20000J0D01*
G01*
X34691000Y-16252825D02*
G75*
G03*
X34691000Y-16252825I-20000J0D01*
G01*
X34691000Y-18005425D02*
G75*
G03*
X34691000Y-18005425I-20000J0D01*
G01*
X34691000Y-18157825D02*
G75*
G03*
X34691000Y-18157825I-20000J0D01*
G01*
X34691000Y-19910425D02*
G75*
G03*
X34691000Y-19910425I-20000J0D01*
G01*
X34691000Y-20062825D02*
G75*
G03*
X34691000Y-20062825I-20000J0D01*
G01*
X34691000Y-21815425D02*
G75*
G03*
X34691000Y-21815425I-20000J0D01*
G01*
X34691000Y-21967825D02*
G75*
G03*
X34691000Y-21967825I-20000J0D01*
G01*
X36342000Y-12036425D02*
G75*
G03*
X36342000Y-12036425I-20000J0D01*
G01*
X36342000Y-12188825D02*
G75*
G03*
X36342000Y-12188825I-20000J0D01*
G01*
X36342000Y-13941425D02*
G75*
G03*
X36342000Y-13941425I-20000J0D01*
G01*
X36342000Y-14093825D02*
G75*
G03*
X36342000Y-14093825I-20000J0D01*
G01*
X36342000Y-15846425D02*
G75*
G03*
X36342000Y-15846425I-20000J0D01*
G01*
X36342000Y-15998825D02*
G75*
G03*
X36342000Y-15998825I-20000J0D01*
G01*
X36342000Y-17751425D02*
G75*
G03*
X36342000Y-17751425I-20000J0D01*
G01*
X36342000Y-17903825D02*
G75*
G03*
X36342000Y-17903825I-20000J0D01*
G01*
X36342000Y-19656425D02*
G75*
G03*
X36342000Y-19656425I-20000J0D01*
G01*
X36342000Y-19808825D02*
G75*
G03*
X36342000Y-19808825I-20000J0D01*
G01*
X36342000Y-21561425D02*
G75*
G03*
X36342000Y-21561425I-20000J0D01*
G01*
X36342000Y-21713825D02*
G75*
G03*
X36342000Y-21713825I-20000J0D01*
G01*
X32651700Y-9347600D02*
X32651700Y-9397600D01*
X32626700Y-9372600D02*
X32676700Y-9372600D01*
X35202013Y-8858738D02*
X35202013Y-8816312D01*
X35159587Y-8816312D01*
X35159587Y-8858738D01*
X35202013Y-8858738D01*
X35160800Y-8807525D02*
X35160800Y-8867525D01*
X35200800Y-8807525D02*
X35200800Y-8867525D01*
X35160800Y-8867525D02*
G75*
G03*
X35200800Y-8867525I20000J0D01*
G01*
X35200800Y-8807525D02*
G75*
G03*
X35160800Y-8807525I-20000J0D01*
G01*
X35202013Y-9278738D02*
X35202013Y-9236312D01*
X35159587Y-9236312D01*
X35159587Y-9278738D01*
X35202013Y-9278738D01*
X35160800Y-9202525D02*
X35160800Y-9312525D01*
X35200800Y-9202525D02*
X35200800Y-9312525D01*
X35160800Y-9312525D02*
G75*
G03*
X35200800Y-9312525I20000J0D01*
G01*
X35200800Y-9202525D02*
G75*
G03*
X35160800Y-9202525I-20000J0D01*
G01*
X36062013Y-8858738D02*
X36062013Y-8816312D01*
X36019587Y-8816312D01*
X36019587Y-8858738D01*
X36062013Y-8858738D01*
X36020800Y-8807525D02*
X36020800Y-8867525D01*
X36060800Y-8807525D02*
X36060800Y-8867525D01*
X36020800Y-8867525D02*
G75*
G03*
X36060800Y-8867525I20000J0D01*
G01*
X36060800Y-8807525D02*
G75*
G03*
X36020800Y-8807525I-20000J0D01*
G01*
X36062013Y-9278738D02*
X36062013Y-9236312D01*
X36019587Y-9236312D01*
X36019587Y-9278738D01*
X36062013Y-9278738D01*
X36020800Y-9202525D02*
X36020800Y-9312525D01*
X36060800Y-9202525D02*
X36060800Y-9312525D01*
X36020800Y-9312525D02*
G75*
G03*
X36060800Y-9312525I20000J0D01*
G01*
X36060800Y-9202525D02*
G75*
G03*
X36020800Y-9202525I-20000J0D01*
G01*
X30111700Y-9257500D02*
X30161700Y-9207500D01*
X30111700Y-9157500D01*
X30061700Y-9207500D01*
X30111700Y-9257500D01*
X30111700Y-9511500D02*
X30161700Y-9461500D01*
X30111700Y-9411500D01*
X30061700Y-9461500D01*
X30111700Y-9511500D01*
X30111700Y-9765500D02*
X30161700Y-9715500D01*
X30111700Y-9665500D01*
X30061700Y-9715500D01*
X30111700Y-9765500D01*
X30111700Y-10130625D02*
X30161700Y-10080625D01*
X30111700Y-10030625D01*
X30061700Y-10080625D01*
X30111700Y-10130625D01*
X31381700Y-8895550D02*
X31431700Y-8845550D01*
X31381700Y-8795550D01*
X31331700Y-8845550D01*
X31381700Y-8895550D01*
X31381700Y-9213050D02*
X31431700Y-9163050D01*
X31381700Y-9113050D01*
X31331700Y-9163050D01*
X31381700Y-9213050D01*
X31381700Y-9467050D02*
X31431700Y-9417050D01*
X31381700Y-9367050D01*
X31331700Y-9417050D01*
X31381700Y-9467050D01*
X31381700Y-9721050D02*
X31431700Y-9671050D01*
X31381700Y-9621050D01*
X31331700Y-9671050D01*
X31381700Y-9721050D01*
X31381700Y-9975050D02*
X31431700Y-9925050D01*
X31381700Y-9875050D01*
X31331700Y-9925050D01*
X31381700Y-9975050D01*
X31381700Y-10229050D02*
X31431700Y-10179050D01*
X31381700Y-10129050D01*
X31331700Y-10179050D01*
X31381700Y-10229050D01*
X31381700Y-10584650D02*
X31431700Y-10534650D01*
X31381700Y-10484650D01*
X31331700Y-10534650D01*
X31381700Y-10584650D01*
X31635700Y-8895550D02*
X31685700Y-8845550D01*
X31635700Y-8795550D01*
X31585700Y-8845550D01*
X31635700Y-8895550D01*
X31635700Y-10584650D02*
X31685700Y-10534650D01*
X31635700Y-10484650D01*
X31585700Y-10534650D01*
X31635700Y-10584650D01*
X31889700Y-8895550D02*
X31939700Y-8845550D01*
X31889700Y-8795550D01*
X31839700Y-8845550D01*
X31889700Y-8895550D01*
X31889700Y-10584650D02*
X31939700Y-10534650D01*
X31889700Y-10484650D01*
X31839700Y-10534650D01*
X31889700Y-10584650D01*
X32143700Y-8895550D02*
X32193700Y-8845550D01*
X32143700Y-8795550D01*
X32093700Y-8845550D01*
X32143700Y-8895550D01*
X32143700Y-10584650D02*
X32193700Y-10534650D01*
X32143700Y-10484650D01*
X32093700Y-10534650D01*
X32143700Y-10584650D01*
X32397700Y-8895550D02*
X32447700Y-8845550D01*
X32397700Y-8795550D01*
X32347700Y-8845550D01*
X32397700Y-8895550D01*
X32397700Y-10584650D02*
X32447700Y-10534650D01*
X32397700Y-10484650D01*
X32347700Y-10534650D01*
X32397700Y-10584650D01*
X32512000Y-11302200D02*
X32562000Y-11252200D01*
X32512000Y-11202200D01*
X32462000Y-11252200D01*
X32512000Y-11302200D01*
X32651700Y-8895550D02*
X32701700Y-8845550D01*
X32651700Y-8795550D01*
X32601700Y-8845550D01*
X32651700Y-8895550D01*
X32651700Y-10584650D02*
X32701700Y-10534650D01*
X32651700Y-10484650D01*
X32601700Y-10534650D01*
X32651700Y-10584650D01*
X32766000Y-11302200D02*
X32816000Y-11252200D01*
X32766000Y-11202200D01*
X32716000Y-11252200D01*
X32766000Y-11302200D01*
X32905700Y-8895550D02*
X32955700Y-8845550D01*
X32905700Y-8795550D01*
X32855700Y-8845550D01*
X32905700Y-8895550D01*
X32905700Y-10584650D02*
X32955700Y-10534650D01*
X32905700Y-10484650D01*
X32855700Y-10534650D01*
X32905700Y-10584650D01*
X33159700Y-8895550D02*
X33209700Y-8845550D01*
X33159700Y-8795550D01*
X33109700Y-8845550D01*
X33159700Y-8895550D01*
X33159700Y-10584650D02*
X33209700Y-10534650D01*
X33159700Y-10484650D01*
X33109700Y-10534650D01*
X33159700Y-10584650D01*
X33413700Y-8895550D02*
X33463700Y-8845550D01*
X33413700Y-8795550D01*
X33363700Y-8845550D01*
X33413700Y-8895550D01*
X33413700Y-10584650D02*
X33463700Y-10534650D01*
X33413700Y-10484650D01*
X33363700Y-10534650D01*
X33413700Y-10584650D01*
X33667700Y-8895550D02*
X33717700Y-8845550D01*
X33667700Y-8795550D01*
X33617700Y-8845550D01*
X33667700Y-8895550D01*
X33667700Y-9181300D02*
X33717700Y-9131300D01*
X33667700Y-9081300D01*
X33617700Y-9131300D01*
X33667700Y-9181300D01*
X33667700Y-10584650D02*
X33717700Y-10534650D01*
X33667700Y-10484650D01*
X33617700Y-10534650D01*
X33667700Y-10584650D01*
X33921700Y-8895550D02*
X33971700Y-8845550D01*
X33921700Y-8795550D01*
X33871700Y-8845550D01*
X33921700Y-8895550D01*
X33921700Y-10584650D02*
X33971700Y-10534650D01*
X33921700Y-10484650D01*
X33871700Y-10534650D01*
X33921700Y-10584650D01*
X34175700Y-8895550D02*
X34225700Y-8845550D01*
X34175700Y-8795550D01*
X34125700Y-8845550D01*
X34175700Y-8895550D01*
X34175700Y-10222700D02*
X34225700Y-10172700D01*
X34175700Y-10122700D01*
X34125700Y-10172700D01*
X34175700Y-10222700D01*
X34175700Y-10584650D02*
X34225700Y-10534650D01*
X34175700Y-10484650D01*
X34125700Y-10534650D01*
X34175700Y-10584650D01*
X5922500Y-13145625D02*
X6142500Y-13365625D01*
X6142500Y-13145625D02*
X5922500Y-13365625D01*
X6142500Y-13255625D02*
G75*
G03*
X6142500Y-13255625I-110000J0D01*
G01*
X5922500Y-16955625D02*
X6142500Y-17175625D01*
X6142500Y-16955625D02*
X5922500Y-17175625D01*
X6142500Y-17065625D02*
G75*
G03*
X6142500Y-17065625I-110000J0D01*
G01*
X5922500Y-20765625D02*
X6142500Y-20985625D01*
X6142500Y-20765625D02*
X5922500Y-20985625D01*
X6142500Y-20875625D02*
G75*
G03*
X6142500Y-20875625I-110000J0D01*
G01*
X15447500Y-13145625D02*
X15667500Y-13365625D01*
X15667500Y-13145625D02*
X15447500Y-13365625D01*
X15667500Y-13255625D02*
G75*
G03*
X15667500Y-13255625I-110000J0D01*
G01*
X15447500Y-16955625D02*
X15667500Y-17175625D01*
X15667500Y-16955625D02*
X15447500Y-17175625D01*
X15667500Y-17065625D02*
G75*
G03*
X15667500Y-17065625I-110000J0D01*
G01*
X15447500Y-20765625D02*
X15667500Y-20985625D01*
X15667500Y-20765625D02*
X15447500Y-20985625D01*
X15667500Y-20875625D02*
G75*
G03*
X15667500Y-20875625I-110000J0D01*
G01*
X17352500Y-13145625D02*
X17572500Y-13365625D01*
X17572500Y-13145625D02*
X17352500Y-13365625D01*
X17572500Y-13255625D02*
G75*
G03*
X17572500Y-13255625I-110000J0D01*
G01*
X17352500Y-16955625D02*
X17572500Y-17175625D01*
X17572500Y-16955625D02*
X17352500Y-17175625D01*
X17572500Y-17065625D02*
G75*
G03*
X17572500Y-17065625I-110000J0D01*
G01*
X17352500Y-20765625D02*
X17572500Y-20985625D01*
X17572500Y-20765625D02*
X17352500Y-20985625D01*
X17572500Y-20875625D02*
G75*
G03*
X17572500Y-20875625I-110000J0D01*
G01*
X26877500Y-13145625D02*
X27097500Y-13365625D01*
X27097500Y-13145625D02*
X26877500Y-13365625D01*
X27097500Y-13255625D02*
G75*
G03*
X27097500Y-13255625I-110000J0D01*
G01*
X26877500Y-16955625D02*
X27097500Y-17175625D01*
X27097500Y-16955625D02*
X26877500Y-17175625D01*
X27097500Y-17065625D02*
G75*
G03*
X27097500Y-17065625I-110000J0D01*
G01*
X26877500Y-20765625D02*
X27097500Y-20985625D01*
X27097500Y-20765625D02*
X26877500Y-20985625D01*
X27097500Y-20875625D02*
G75*
G03*
X27097500Y-20875625I-110000J0D01*
G01*
X30687500Y-13145625D02*
X30907500Y-13365625D01*
X30907500Y-13145625D02*
X30687500Y-13365625D01*
X30907500Y-13255625D02*
G75*
G03*
X30907500Y-13255625I-110000J0D01*
G01*
X30687500Y-16955625D02*
X30907500Y-17175625D01*
X30907500Y-16955625D02*
X30687500Y-17175625D01*
X30907500Y-17065625D02*
G75*
G03*
X30907500Y-17065625I-110000J0D01*
G01*
X30687500Y-20765625D02*
X30907500Y-20985625D01*
X30907500Y-20765625D02*
X30687500Y-20985625D01*
X30907500Y-20875625D02*
G75*
G03*
X30907500Y-20875625I-110000J0D01*
G01*
X34497500Y-13145625D02*
X34717500Y-13365625D01*
X34717500Y-13145625D02*
X34497500Y-13365625D01*
X34717500Y-13255625D02*
G75*
G03*
X34717500Y-13255625I-110000J0D01*
G01*
X34497500Y-16955625D02*
X34717500Y-17175625D01*
X34717500Y-16955625D02*
X34497500Y-17175625D01*
X34717500Y-17065625D02*
G75*
G03*
X34717500Y-17065625I-110000J0D01*
G01*
X34497500Y-20765625D02*
X34717500Y-20985625D01*
X34717500Y-20765625D02*
X34497500Y-20985625D01*
X34717500Y-20875625D02*
G75*
G03*
X34717500Y-20875625I-110000J0D01*
G01*
X34800600Y-8667525D02*
X35020600Y-8887525D01*
X35020600Y-8667525D02*
X34800600Y-8887525D01*
X35020600Y-8777525D02*
G75*
G03*
X35020600Y-8777525I-110000J0D01*
G01*
X34800600Y-9917525D02*
X35020600Y-10137525D01*
X35020600Y-9917525D02*
X34800600Y-10137525D01*
X35020600Y-10027525D02*
G75*
G03*
X35020600Y-10027525I-110000J0D01*
G01*
X36200600Y-8667525D02*
X36420600Y-8887525D01*
X36420600Y-8667525D02*
X36200600Y-8887525D01*
X36420600Y-8777525D02*
G75*
G03*
X36420600Y-8777525I-110000J0D01*
G01*
X36200600Y-9917525D02*
X36420600Y-10137525D01*
X36420600Y-9917525D02*
X36200600Y-10137525D01*
X36420600Y-10027525D02*
G75*
G03*
X36420600Y-10027525I-110000J0D01*
G01*
X4549000Y-12216625D02*
X4849000Y-12516625D01*
X4849000Y-12216625D02*
X4549000Y-12516625D01*
X4699000Y-12216625D02*
X4699000Y-12516625D01*
X4549000Y-12366625D02*
X4849000Y-12366625D01*
X4549000Y-14121625D02*
X4849000Y-14421625D01*
X4849000Y-14121625D02*
X4549000Y-14421625D01*
X4699000Y-14121625D02*
X4699000Y-14421625D01*
X4549000Y-14271625D02*
X4849000Y-14271625D01*
X4549000Y-16026625D02*
X4849000Y-16326625D01*
X4849000Y-16026625D02*
X4549000Y-16326625D01*
X4699000Y-16026625D02*
X4699000Y-16326625D01*
X4549000Y-16176625D02*
X4849000Y-16176625D01*
X4549000Y-17931625D02*
X4849000Y-18231625D01*
X4849000Y-17931625D02*
X4549000Y-18231625D01*
X4699000Y-17931625D02*
X4699000Y-18231625D01*
X4549000Y-18081625D02*
X4849000Y-18081625D01*
X4549000Y-19836625D02*
X4849000Y-20136625D01*
X4849000Y-19836625D02*
X4549000Y-20136625D01*
X4699000Y-19836625D02*
X4699000Y-20136625D01*
X4549000Y-19986625D02*
X4849000Y-19986625D01*
X4549000Y-21741625D02*
X4849000Y-22041625D01*
X4849000Y-21741625D02*
X4549000Y-22041625D01*
X4699000Y-21741625D02*
X4699000Y-22041625D01*
X4549000Y-21891625D02*
X4849000Y-21891625D01*
X5184000Y-11962625D02*
X5484000Y-12262625D01*
X5484000Y-11962625D02*
X5184000Y-12262625D01*
X5334000Y-11962625D02*
X5334000Y-12262625D01*
X5184000Y-12112625D02*
X5484000Y-12112625D01*
X5184000Y-13867625D02*
X5484000Y-14167625D01*
X5484000Y-13867625D02*
X5184000Y-14167625D01*
X5334000Y-13867625D02*
X5334000Y-14167625D01*
X5184000Y-14017625D02*
X5484000Y-14017625D01*
X5184000Y-15772625D02*
X5484000Y-16072625D01*
X5484000Y-15772625D02*
X5184000Y-16072625D01*
X5334000Y-15772625D02*
X5334000Y-16072625D01*
X5184000Y-15922625D02*
X5484000Y-15922625D01*
X5184000Y-17677625D02*
X5484000Y-17977625D01*
X5484000Y-17677625D02*
X5184000Y-17977625D01*
X5334000Y-17677625D02*
X5334000Y-17977625D01*
X5184000Y-17827625D02*
X5484000Y-17827625D01*
X5184000Y-19582625D02*
X5484000Y-19882625D01*
X5484000Y-19582625D02*
X5184000Y-19882625D01*
X5334000Y-19582625D02*
X5334000Y-19882625D01*
X5184000Y-19732625D02*
X5484000Y-19732625D01*
X5184000Y-21487625D02*
X5484000Y-21787625D01*
X5484000Y-21487625D02*
X5184000Y-21787625D01*
X5334000Y-21487625D02*
X5334000Y-21787625D01*
X5184000Y-21637625D02*
X5484000Y-21637625D01*
X6454000Y-12216625D02*
X6754000Y-12516625D01*
X6754000Y-12216625D02*
X6454000Y-12516625D01*
X6604000Y-12216625D02*
X6604000Y-12516625D01*
X6454000Y-12366625D02*
X6754000Y-12366625D01*
X6454000Y-14121625D02*
X6754000Y-14421625D01*
X6754000Y-14121625D02*
X6454000Y-14421625D01*
X6604000Y-14121625D02*
X6604000Y-14421625D01*
X6454000Y-14271625D02*
X6754000Y-14271625D01*
X6454000Y-16026625D02*
X6754000Y-16326625D01*
X6754000Y-16026625D02*
X6454000Y-16326625D01*
X6604000Y-16026625D02*
X6604000Y-16326625D01*
X6454000Y-16176625D02*
X6754000Y-16176625D01*
X6454000Y-17931625D02*
X6754000Y-18231625D01*
X6754000Y-17931625D02*
X6454000Y-18231625D01*
X6604000Y-17931625D02*
X6604000Y-18231625D01*
X6454000Y-18081625D02*
X6754000Y-18081625D01*
X6454000Y-19836625D02*
X6754000Y-20136625D01*
X6754000Y-19836625D02*
X6454000Y-20136625D01*
X6604000Y-19836625D02*
X6604000Y-20136625D01*
X6454000Y-19986625D02*
X6754000Y-19986625D01*
X6454000Y-21741625D02*
X6754000Y-22041625D01*
X6754000Y-21741625D02*
X6454000Y-22041625D01*
X6604000Y-21741625D02*
X6604000Y-22041625D01*
X6454000Y-21891625D02*
X6754000Y-21891625D01*
X7089000Y-11962625D02*
X7389000Y-12262625D01*
X7389000Y-11962625D02*
X7089000Y-12262625D01*
X7239000Y-11962625D02*
X7239000Y-12262625D01*
X7089000Y-12112625D02*
X7389000Y-12112625D01*
X7089000Y-13867625D02*
X7389000Y-14167625D01*
X7389000Y-13867625D02*
X7089000Y-14167625D01*
X7239000Y-13867625D02*
X7239000Y-14167625D01*
X7089000Y-14017625D02*
X7389000Y-14017625D01*
X7089000Y-15772625D02*
X7389000Y-16072625D01*
X7389000Y-15772625D02*
X7089000Y-16072625D01*
X7239000Y-15772625D02*
X7239000Y-16072625D01*
X7089000Y-15922625D02*
X7389000Y-15922625D01*
X7089000Y-17677625D02*
X7389000Y-17977625D01*
X7389000Y-17677625D02*
X7089000Y-17977625D01*
X7239000Y-17677625D02*
X7239000Y-17977625D01*
X7089000Y-17827625D02*
X7389000Y-17827625D01*
X7089000Y-19582625D02*
X7389000Y-19882625D01*
X7389000Y-19582625D02*
X7089000Y-19882625D01*
X7239000Y-19582625D02*
X7239000Y-19882625D01*
X7089000Y-19732625D02*
X7389000Y-19732625D01*
X7089000Y-21487625D02*
X7389000Y-21787625D01*
X7389000Y-21487625D02*
X7089000Y-21787625D01*
X7239000Y-21487625D02*
X7239000Y-21787625D01*
X7089000Y-21637625D02*
X7389000Y-21637625D01*
X8359000Y-12216625D02*
X8659000Y-12516625D01*
X8659000Y-12216625D02*
X8359000Y-12516625D01*
X8509000Y-12216625D02*
X8509000Y-12516625D01*
X8359000Y-12366625D02*
X8659000Y-12366625D01*
X8359000Y-14121625D02*
X8659000Y-14421625D01*
X8659000Y-14121625D02*
X8359000Y-14421625D01*
X8509000Y-14121625D02*
X8509000Y-14421625D01*
X8359000Y-14271625D02*
X8659000Y-14271625D01*
X8359000Y-16026625D02*
X8659000Y-16326625D01*
X8659000Y-16026625D02*
X8359000Y-16326625D01*
X8509000Y-16026625D02*
X8509000Y-16326625D01*
X8359000Y-16176625D02*
X8659000Y-16176625D01*
X8359000Y-17931625D02*
X8659000Y-18231625D01*
X8659000Y-17931625D02*
X8359000Y-18231625D01*
X8509000Y-17931625D02*
X8509000Y-18231625D01*
X8359000Y-18081625D02*
X8659000Y-18081625D01*
X8359000Y-19836625D02*
X8659000Y-20136625D01*
X8659000Y-19836625D02*
X8359000Y-20136625D01*
X8509000Y-19836625D02*
X8509000Y-20136625D01*
X8359000Y-19986625D02*
X8659000Y-19986625D01*
X8359000Y-21741625D02*
X8659000Y-22041625D01*
X8659000Y-21741625D02*
X8359000Y-22041625D01*
X8509000Y-21741625D02*
X8509000Y-22041625D01*
X8359000Y-21891625D02*
X8659000Y-21891625D01*
X8994000Y-11962625D02*
X9294000Y-12262625D01*
X9294000Y-11962625D02*
X8994000Y-12262625D01*
X9144000Y-11962625D02*
X9144000Y-12262625D01*
X8994000Y-12112625D02*
X9294000Y-12112625D01*
X8994000Y-13867625D02*
X9294000Y-14167625D01*
X9294000Y-13867625D02*
X8994000Y-14167625D01*
X9144000Y-13867625D02*
X9144000Y-14167625D01*
X8994000Y-14017625D02*
X9294000Y-14017625D01*
X8994000Y-15772625D02*
X9294000Y-16072625D01*
X9294000Y-15772625D02*
X8994000Y-16072625D01*
X9144000Y-15772625D02*
X9144000Y-16072625D01*
X8994000Y-15922625D02*
X9294000Y-15922625D01*
X8994000Y-17677625D02*
X9294000Y-17977625D01*
X9294000Y-17677625D02*
X8994000Y-17977625D01*
X9144000Y-17677625D02*
X9144000Y-17977625D01*
X8994000Y-17827625D02*
X9294000Y-17827625D01*
X8994000Y-19582625D02*
X9294000Y-19882625D01*
X9294000Y-19582625D02*
X8994000Y-19882625D01*
X9144000Y-19582625D02*
X9144000Y-19882625D01*
X8994000Y-19732625D02*
X9294000Y-19732625D01*
X8994000Y-21487625D02*
X9294000Y-21787625D01*
X9294000Y-21487625D02*
X8994000Y-21787625D01*
X9144000Y-21487625D02*
X9144000Y-21787625D01*
X8994000Y-21637625D02*
X9294000Y-21637625D01*
X10264000Y-12216625D02*
X10564000Y-12516625D01*
X10564000Y-12216625D02*
X10264000Y-12516625D01*
X10414000Y-12216625D02*
X10414000Y-12516625D01*
X10264000Y-12366625D02*
X10564000Y-12366625D01*
X10264000Y-14121625D02*
X10564000Y-14421625D01*
X10564000Y-14121625D02*
X10264000Y-14421625D01*
X10414000Y-14121625D02*
X10414000Y-14421625D01*
X10264000Y-14271625D02*
X10564000Y-14271625D01*
X10264000Y-16026625D02*
X10564000Y-16326625D01*
X10564000Y-16026625D02*
X10264000Y-16326625D01*
X10414000Y-16026625D02*
X10414000Y-16326625D01*
X10264000Y-16176625D02*
X10564000Y-16176625D01*
X10264000Y-17931625D02*
X10564000Y-18231625D01*
X10564000Y-17931625D02*
X10264000Y-18231625D01*
X10414000Y-17931625D02*
X10414000Y-18231625D01*
X10264000Y-18081625D02*
X10564000Y-18081625D01*
X10264000Y-19836625D02*
X10564000Y-20136625D01*
X10564000Y-19836625D02*
X10264000Y-20136625D01*
X10414000Y-19836625D02*
X10414000Y-20136625D01*
X10264000Y-19986625D02*
X10564000Y-19986625D01*
X10264000Y-21741625D02*
X10564000Y-22041625D01*
X10564000Y-21741625D02*
X10264000Y-22041625D01*
X10414000Y-21741625D02*
X10414000Y-22041625D01*
X10264000Y-21891625D02*
X10564000Y-21891625D01*
X10899000Y-11962625D02*
X11199000Y-12262625D01*
X11199000Y-11962625D02*
X10899000Y-12262625D01*
X11049000Y-11962625D02*
X11049000Y-12262625D01*
X10899000Y-12112625D02*
X11199000Y-12112625D01*
X10899000Y-13867625D02*
X11199000Y-14167625D01*
X11199000Y-13867625D02*
X10899000Y-14167625D01*
X11049000Y-13867625D02*
X11049000Y-14167625D01*
X10899000Y-14017625D02*
X11199000Y-14017625D01*
X10899000Y-15772625D02*
X11199000Y-16072625D01*
X11199000Y-15772625D02*
X10899000Y-16072625D01*
X11049000Y-15772625D02*
X11049000Y-16072625D01*
X10899000Y-15922625D02*
X11199000Y-15922625D01*
X10899000Y-17677625D02*
X11199000Y-17977625D01*
X11199000Y-17677625D02*
X10899000Y-17977625D01*
X11049000Y-17677625D02*
X11049000Y-17977625D01*
X10899000Y-17827625D02*
X11199000Y-17827625D01*
X10899000Y-19582625D02*
X11199000Y-19882625D01*
X11199000Y-19582625D02*
X10899000Y-19882625D01*
X11049000Y-19582625D02*
X11049000Y-19882625D01*
X10899000Y-19732625D02*
X11199000Y-19732625D01*
X10899000Y-21487625D02*
X11199000Y-21787625D01*
X11199000Y-21487625D02*
X10899000Y-21787625D01*
X11049000Y-21487625D02*
X11049000Y-21787625D01*
X10899000Y-21637625D02*
X11199000Y-21637625D01*
X12169000Y-12216625D02*
X12469000Y-12516625D01*
X12469000Y-12216625D02*
X12169000Y-12516625D01*
X12319000Y-12216625D02*
X12319000Y-12516625D01*
X12169000Y-12366625D02*
X12469000Y-12366625D01*
X12169000Y-14121625D02*
X12469000Y-14421625D01*
X12469000Y-14121625D02*
X12169000Y-14421625D01*
X12319000Y-14121625D02*
X12319000Y-14421625D01*
X12169000Y-14271625D02*
X12469000Y-14271625D01*
X12169000Y-16026625D02*
X12469000Y-16326625D01*
X12469000Y-16026625D02*
X12169000Y-16326625D01*
X12319000Y-16026625D02*
X12319000Y-16326625D01*
X12169000Y-16176625D02*
X12469000Y-16176625D01*
X12169000Y-17931625D02*
X12469000Y-18231625D01*
X12469000Y-17931625D02*
X12169000Y-18231625D01*
X12319000Y-17931625D02*
X12319000Y-18231625D01*
X12169000Y-18081625D02*
X12469000Y-18081625D01*
X12169000Y-19836625D02*
X12469000Y-20136625D01*
X12469000Y-19836625D02*
X12169000Y-20136625D01*
X12319000Y-19836625D02*
X12319000Y-20136625D01*
X12169000Y-19986625D02*
X12469000Y-19986625D01*
X12169000Y-21741625D02*
X12469000Y-22041625D01*
X12469000Y-21741625D02*
X12169000Y-22041625D01*
X12319000Y-21741625D02*
X12319000Y-22041625D01*
X12169000Y-21891625D02*
X12469000Y-21891625D01*
X12804000Y-11962625D02*
X13104000Y-12262625D01*
X13104000Y-11962625D02*
X12804000Y-12262625D01*
X12954000Y-11962625D02*
X12954000Y-12262625D01*
X12804000Y-12112625D02*
X13104000Y-12112625D01*
X12804000Y-13867625D02*
X13104000Y-14167625D01*
X13104000Y-13867625D02*
X12804000Y-14167625D01*
X12954000Y-13867625D02*
X12954000Y-14167625D01*
X12804000Y-14017625D02*
X13104000Y-14017625D01*
X12804000Y-15772625D02*
X13104000Y-16072625D01*
X13104000Y-15772625D02*
X12804000Y-16072625D01*
X12954000Y-15772625D02*
X12954000Y-16072625D01*
X12804000Y-15922625D02*
X13104000Y-15922625D01*
X12804000Y-17677625D02*
X13104000Y-17977625D01*
X13104000Y-17677625D02*
X12804000Y-17977625D01*
X12954000Y-17677625D02*
X12954000Y-17977625D01*
X12804000Y-17827625D02*
X13104000Y-17827625D01*
X12804000Y-19582625D02*
X13104000Y-19882625D01*
X13104000Y-19582625D02*
X12804000Y-19882625D01*
X12954000Y-19582625D02*
X12954000Y-19882625D01*
X12804000Y-19732625D02*
X13104000Y-19732625D01*
X12804000Y-21487625D02*
X13104000Y-21787625D01*
X13104000Y-21487625D02*
X12804000Y-21787625D01*
X12954000Y-21487625D02*
X12954000Y-21787625D01*
X12804000Y-21637625D02*
X13104000Y-21637625D01*
X14074000Y-12216625D02*
X14374000Y-12516625D01*
X14374000Y-12216625D02*
X14074000Y-12516625D01*
X14224000Y-12216625D02*
X14224000Y-12516625D01*
X14074000Y-12366625D02*
X14374000Y-12366625D01*
X14074000Y-14121625D02*
X14374000Y-14421625D01*
X14374000Y-14121625D02*
X14074000Y-14421625D01*
X14224000Y-14121625D02*
X14224000Y-14421625D01*
X14074000Y-14271625D02*
X14374000Y-14271625D01*
X14074000Y-16026625D02*
X14374000Y-16326625D01*
X14374000Y-16026625D02*
X14074000Y-16326625D01*
X14224000Y-16026625D02*
X14224000Y-16326625D01*
X14074000Y-16176625D02*
X14374000Y-16176625D01*
X14074000Y-17931625D02*
X14374000Y-18231625D01*
X14374000Y-17931625D02*
X14074000Y-18231625D01*
X14224000Y-17931625D02*
X14224000Y-18231625D01*
X14074000Y-18081625D02*
X14374000Y-18081625D01*
X14074000Y-19836625D02*
X14374000Y-20136625D01*
X14374000Y-19836625D02*
X14074000Y-20136625D01*
X14224000Y-19836625D02*
X14224000Y-20136625D01*
X14074000Y-19986625D02*
X14374000Y-19986625D01*
X14074000Y-21741625D02*
X14374000Y-22041625D01*
X14374000Y-21741625D02*
X14074000Y-22041625D01*
X14224000Y-21741625D02*
X14224000Y-22041625D01*
X14074000Y-21891625D02*
X14374000Y-21891625D01*
X14709000Y-11962625D02*
X15009000Y-12262625D01*
X15009000Y-11962625D02*
X14709000Y-12262625D01*
X14859000Y-11962625D02*
X14859000Y-12262625D01*
X14709000Y-12112625D02*
X15009000Y-12112625D01*
X14709000Y-13867625D02*
X15009000Y-14167625D01*
X15009000Y-13867625D02*
X14709000Y-14167625D01*
X14859000Y-13867625D02*
X14859000Y-14167625D01*
X14709000Y-14017625D02*
X15009000Y-14017625D01*
X14709000Y-15772625D02*
X15009000Y-16072625D01*
X15009000Y-15772625D02*
X14709000Y-16072625D01*
X14859000Y-15772625D02*
X14859000Y-16072625D01*
X14709000Y-15922625D02*
X15009000Y-15922625D01*
X14709000Y-17677625D02*
X15009000Y-17977625D01*
X15009000Y-17677625D02*
X14709000Y-17977625D01*
X14859000Y-17677625D02*
X14859000Y-17977625D01*
X14709000Y-17827625D02*
X15009000Y-17827625D01*
X14709000Y-19582625D02*
X15009000Y-19882625D01*
X15009000Y-19582625D02*
X14709000Y-19882625D01*
X14859000Y-19582625D02*
X14859000Y-19882625D01*
X14709000Y-19732625D02*
X15009000Y-19732625D01*
X14709000Y-21487625D02*
X15009000Y-21787625D01*
X15009000Y-21487625D02*
X14709000Y-21787625D01*
X14859000Y-21487625D02*
X14859000Y-21787625D01*
X14709000Y-21637625D02*
X15009000Y-21637625D01*
X15979000Y-12216625D02*
X16279000Y-12516625D01*
X16279000Y-12216625D02*
X15979000Y-12516625D01*
X16129000Y-12216625D02*
X16129000Y-12516625D01*
X15979000Y-12366625D02*
X16279000Y-12366625D01*
X15979000Y-14121625D02*
X16279000Y-14421625D01*
X16279000Y-14121625D02*
X15979000Y-14421625D01*
X16129000Y-14121625D02*
X16129000Y-14421625D01*
X15979000Y-14271625D02*
X16279000Y-14271625D01*
X15979000Y-16026625D02*
X16279000Y-16326625D01*
X16279000Y-16026625D02*
X15979000Y-16326625D01*
X16129000Y-16026625D02*
X16129000Y-16326625D01*
X15979000Y-16176625D02*
X16279000Y-16176625D01*
X15979000Y-17931625D02*
X16279000Y-18231625D01*
X16279000Y-17931625D02*
X15979000Y-18231625D01*
X16129000Y-17931625D02*
X16129000Y-18231625D01*
X15979000Y-18081625D02*
X16279000Y-18081625D01*
X15979000Y-19836625D02*
X16279000Y-20136625D01*
X16279000Y-19836625D02*
X15979000Y-20136625D01*
X16129000Y-19836625D02*
X16129000Y-20136625D01*
X15979000Y-19986625D02*
X16279000Y-19986625D01*
X15979000Y-21741625D02*
X16279000Y-22041625D01*
X16279000Y-21741625D02*
X15979000Y-22041625D01*
X16129000Y-21741625D02*
X16129000Y-22041625D01*
X15979000Y-21891625D02*
X16279000Y-21891625D01*
X16614000Y-11962625D02*
X16914000Y-12262625D01*
X16914000Y-11962625D02*
X16614000Y-12262625D01*
X16764000Y-11962625D02*
X16764000Y-12262625D01*
X16614000Y-12112625D02*
X16914000Y-12112625D01*
X16614000Y-13867625D02*
X16914000Y-14167625D01*
X16914000Y-13867625D02*
X16614000Y-14167625D01*
X16764000Y-13867625D02*
X16764000Y-14167625D01*
X16614000Y-14017625D02*
X16914000Y-14017625D01*
X16614000Y-15772625D02*
X16914000Y-16072625D01*
X16914000Y-15772625D02*
X16614000Y-16072625D01*
X16764000Y-15772625D02*
X16764000Y-16072625D01*
X16614000Y-15922625D02*
X16914000Y-15922625D01*
X16614000Y-17677625D02*
X16914000Y-17977625D01*
X16914000Y-17677625D02*
X16614000Y-17977625D01*
X16764000Y-17677625D02*
X16764000Y-17977625D01*
X16614000Y-17827625D02*
X16914000Y-17827625D01*
X16614000Y-19582625D02*
X16914000Y-19882625D01*
X16914000Y-19582625D02*
X16614000Y-19882625D01*
X16764000Y-19582625D02*
X16764000Y-19882625D01*
X16614000Y-19732625D02*
X16914000Y-19732625D01*
X16614000Y-21487625D02*
X16914000Y-21787625D01*
X16914000Y-21487625D02*
X16614000Y-21787625D01*
X16764000Y-21487625D02*
X16764000Y-21787625D01*
X16614000Y-21637625D02*
X16914000Y-21637625D01*
X17884000Y-12216625D02*
X18184000Y-12516625D01*
X18184000Y-12216625D02*
X17884000Y-12516625D01*
X18034000Y-12216625D02*
X18034000Y-12516625D01*
X17884000Y-12366625D02*
X18184000Y-12366625D01*
X17884000Y-14121625D02*
X18184000Y-14421625D01*
X18184000Y-14121625D02*
X17884000Y-14421625D01*
X18034000Y-14121625D02*
X18034000Y-14421625D01*
X17884000Y-14271625D02*
X18184000Y-14271625D01*
X17884000Y-16026625D02*
X18184000Y-16326625D01*
X18184000Y-16026625D02*
X17884000Y-16326625D01*
X18034000Y-16026625D02*
X18034000Y-16326625D01*
X17884000Y-16176625D02*
X18184000Y-16176625D01*
X17884000Y-17931625D02*
X18184000Y-18231625D01*
X18184000Y-17931625D02*
X17884000Y-18231625D01*
X18034000Y-17931625D02*
X18034000Y-18231625D01*
X17884000Y-18081625D02*
X18184000Y-18081625D01*
X17884000Y-19836625D02*
X18184000Y-20136625D01*
X18184000Y-19836625D02*
X17884000Y-20136625D01*
X18034000Y-19836625D02*
X18034000Y-20136625D01*
X17884000Y-19986625D02*
X18184000Y-19986625D01*
X17884000Y-21741625D02*
X18184000Y-22041625D01*
X18184000Y-21741625D02*
X17884000Y-22041625D01*
X18034000Y-21741625D02*
X18034000Y-22041625D01*
X17884000Y-21891625D02*
X18184000Y-21891625D01*
X18519000Y-11962625D02*
X18819000Y-12262625D01*
X18819000Y-11962625D02*
X18519000Y-12262625D01*
X18669000Y-11962625D02*
X18669000Y-12262625D01*
X18519000Y-12112625D02*
X18819000Y-12112625D01*
X18519000Y-13867625D02*
X18819000Y-14167625D01*
X18819000Y-13867625D02*
X18519000Y-14167625D01*
X18669000Y-13867625D02*
X18669000Y-14167625D01*
X18519000Y-14017625D02*
X18819000Y-14017625D01*
X18519000Y-15772625D02*
X18819000Y-16072625D01*
X18819000Y-15772625D02*
X18519000Y-16072625D01*
X18669000Y-15772625D02*
X18669000Y-16072625D01*
X18519000Y-15922625D02*
X18819000Y-15922625D01*
X18519000Y-17677625D02*
X18819000Y-17977625D01*
X18819000Y-17677625D02*
X18519000Y-17977625D01*
X18669000Y-17677625D02*
X18669000Y-17977625D01*
X18519000Y-17827625D02*
X18819000Y-17827625D01*
X18519000Y-19582625D02*
X18819000Y-19882625D01*
X18819000Y-19582625D02*
X18519000Y-19882625D01*
X18669000Y-19582625D02*
X18669000Y-19882625D01*
X18519000Y-19732625D02*
X18819000Y-19732625D01*
X18519000Y-21487625D02*
X18819000Y-21787625D01*
X18819000Y-21487625D02*
X18519000Y-21787625D01*
X18669000Y-21487625D02*
X18669000Y-21787625D01*
X18519000Y-21637625D02*
X18819000Y-21637625D01*
X19789000Y-12216625D02*
X20089000Y-12516625D01*
X20089000Y-12216625D02*
X19789000Y-12516625D01*
X19939000Y-12216625D02*
X19939000Y-12516625D01*
X19789000Y-12366625D02*
X20089000Y-12366625D01*
X19789000Y-14121625D02*
X20089000Y-14421625D01*
X20089000Y-14121625D02*
X19789000Y-14421625D01*
X19939000Y-14121625D02*
X19939000Y-14421625D01*
X19789000Y-14271625D02*
X20089000Y-14271625D01*
X19789000Y-16026625D02*
X20089000Y-16326625D01*
X20089000Y-16026625D02*
X19789000Y-16326625D01*
X19939000Y-16026625D02*
X19939000Y-16326625D01*
X19789000Y-16176625D02*
X20089000Y-16176625D01*
X19789000Y-17931625D02*
X20089000Y-18231625D01*
X20089000Y-17931625D02*
X19789000Y-18231625D01*
X19939000Y-17931625D02*
X19939000Y-18231625D01*
X19789000Y-18081625D02*
X20089000Y-18081625D01*
X19789000Y-19836625D02*
X20089000Y-20136625D01*
X20089000Y-19836625D02*
X19789000Y-20136625D01*
X19939000Y-19836625D02*
X19939000Y-20136625D01*
X19789000Y-19986625D02*
X20089000Y-19986625D01*
X19789000Y-21741625D02*
X20089000Y-22041625D01*
X20089000Y-21741625D02*
X19789000Y-22041625D01*
X19939000Y-21741625D02*
X19939000Y-22041625D01*
X19789000Y-21891625D02*
X20089000Y-21891625D01*
X20424000Y-11962625D02*
X20724000Y-12262625D01*
X20724000Y-11962625D02*
X20424000Y-12262625D01*
X20574000Y-11962625D02*
X20574000Y-12262625D01*
X20424000Y-12112625D02*
X20724000Y-12112625D01*
X20424000Y-13867625D02*
X20724000Y-14167625D01*
X20724000Y-13867625D02*
X20424000Y-14167625D01*
X20574000Y-13867625D02*
X20574000Y-14167625D01*
X20424000Y-14017625D02*
X20724000Y-14017625D01*
X20424000Y-15772625D02*
X20724000Y-16072625D01*
X20724000Y-15772625D02*
X20424000Y-16072625D01*
X20574000Y-15772625D02*
X20574000Y-16072625D01*
X20424000Y-15922625D02*
X20724000Y-15922625D01*
X20424000Y-17677625D02*
X20724000Y-17977625D01*
X20724000Y-17677625D02*
X20424000Y-17977625D01*
X20574000Y-17677625D02*
X20574000Y-17977625D01*
X20424000Y-17827625D02*
X20724000Y-17827625D01*
X20424000Y-19582625D02*
X20724000Y-19882625D01*
X20724000Y-19582625D02*
X20424000Y-19882625D01*
X20574000Y-19582625D02*
X20574000Y-19882625D01*
X20424000Y-19732625D02*
X20724000Y-19732625D01*
X20424000Y-21487625D02*
X20724000Y-21787625D01*
X20724000Y-21487625D02*
X20424000Y-21787625D01*
X20574000Y-21487625D02*
X20574000Y-21787625D01*
X20424000Y-21637625D02*
X20724000Y-21637625D01*
X21694000Y-12216625D02*
X21994000Y-12516625D01*
X21994000Y-12216625D02*
X21694000Y-12516625D01*
X21844000Y-12216625D02*
X21844000Y-12516625D01*
X21694000Y-12366625D02*
X21994000Y-12366625D01*
X21694000Y-14121625D02*
X21994000Y-14421625D01*
X21994000Y-14121625D02*
X21694000Y-14421625D01*
X21844000Y-14121625D02*
X21844000Y-14421625D01*
X21694000Y-14271625D02*
X21994000Y-14271625D01*
X21694000Y-16026625D02*
X21994000Y-16326625D01*
X21994000Y-16026625D02*
X21694000Y-16326625D01*
X21844000Y-16026625D02*
X21844000Y-16326625D01*
X21694000Y-16176625D02*
X21994000Y-16176625D01*
X21694000Y-17931625D02*
X21994000Y-18231625D01*
X21994000Y-17931625D02*
X21694000Y-18231625D01*
X21844000Y-17931625D02*
X21844000Y-18231625D01*
X21694000Y-18081625D02*
X21994000Y-18081625D01*
X21694000Y-19836625D02*
X21994000Y-20136625D01*
X21994000Y-19836625D02*
X21694000Y-20136625D01*
X21844000Y-19836625D02*
X21844000Y-20136625D01*
X21694000Y-19986625D02*
X21994000Y-19986625D01*
X21694000Y-21741625D02*
X21994000Y-22041625D01*
X21994000Y-21741625D02*
X21694000Y-22041625D01*
X21844000Y-21741625D02*
X21844000Y-22041625D01*
X21694000Y-21891625D02*
X21994000Y-21891625D01*
X22329000Y-11962625D02*
X22629000Y-12262625D01*
X22629000Y-11962625D02*
X22329000Y-12262625D01*
X22479000Y-11962625D02*
X22479000Y-12262625D01*
X22329000Y-12112625D02*
X22629000Y-12112625D01*
X22329000Y-13867625D02*
X22629000Y-14167625D01*
X22629000Y-13867625D02*
X22329000Y-14167625D01*
X22479000Y-13867625D02*
X22479000Y-14167625D01*
X22329000Y-14017625D02*
X22629000Y-14017625D01*
X22329000Y-15772625D02*
X22629000Y-16072625D01*
X22629000Y-15772625D02*
X22329000Y-16072625D01*
X22479000Y-15772625D02*
X22479000Y-16072625D01*
X22329000Y-15922625D02*
X22629000Y-15922625D01*
X22329000Y-17677625D02*
X22629000Y-17977625D01*
X22629000Y-17677625D02*
X22329000Y-17977625D01*
X22479000Y-17677625D02*
X22479000Y-17977625D01*
X22329000Y-17827625D02*
X22629000Y-17827625D01*
X22329000Y-19582625D02*
X22629000Y-19882625D01*
X22629000Y-19582625D02*
X22329000Y-19882625D01*
X22479000Y-19582625D02*
X22479000Y-19882625D01*
X22329000Y-19732625D02*
X22629000Y-19732625D01*
X22329000Y-21487625D02*
X22629000Y-21787625D01*
X22629000Y-21487625D02*
X22329000Y-21787625D01*
X22479000Y-21487625D02*
X22479000Y-21787625D01*
X22329000Y-21637625D02*
X22629000Y-21637625D01*
X23599000Y-12216625D02*
X23899000Y-12516625D01*
X23899000Y-12216625D02*
X23599000Y-12516625D01*
X23749000Y-12216625D02*
X23749000Y-12516625D01*
X23599000Y-12366625D02*
X23899000Y-12366625D01*
X23599000Y-14121625D02*
X23899000Y-14421625D01*
X23899000Y-14121625D02*
X23599000Y-14421625D01*
X23749000Y-14121625D02*
X23749000Y-14421625D01*
X23599000Y-14271625D02*
X23899000Y-14271625D01*
X23599000Y-16026625D02*
X23899000Y-16326625D01*
X23899000Y-16026625D02*
X23599000Y-16326625D01*
X23749000Y-16026625D02*
X23749000Y-16326625D01*
X23599000Y-16176625D02*
X23899000Y-16176625D01*
X23599000Y-17931625D02*
X23899000Y-18231625D01*
X23899000Y-17931625D02*
X23599000Y-18231625D01*
X23749000Y-17931625D02*
X23749000Y-18231625D01*
X23599000Y-18081625D02*
X23899000Y-18081625D01*
X23599000Y-19836625D02*
X23899000Y-20136625D01*
X23899000Y-19836625D02*
X23599000Y-20136625D01*
X23749000Y-19836625D02*
X23749000Y-20136625D01*
X23599000Y-19986625D02*
X23899000Y-19986625D01*
X23599000Y-21741625D02*
X23899000Y-22041625D01*
X23899000Y-21741625D02*
X23599000Y-22041625D01*
X23749000Y-21741625D02*
X23749000Y-22041625D01*
X23599000Y-21891625D02*
X23899000Y-21891625D01*
X24234000Y-11962625D02*
X24534000Y-12262625D01*
X24534000Y-11962625D02*
X24234000Y-12262625D01*
X24384000Y-11962625D02*
X24384000Y-12262625D01*
X24234000Y-12112625D02*
X24534000Y-12112625D01*
X24234000Y-13867625D02*
X24534000Y-14167625D01*
X24534000Y-13867625D02*
X24234000Y-14167625D01*
X24384000Y-13867625D02*
X24384000Y-14167625D01*
X24234000Y-14017625D02*
X24534000Y-14017625D01*
X24234000Y-15772625D02*
X24534000Y-16072625D01*
X24534000Y-15772625D02*
X24234000Y-16072625D01*
X24384000Y-15772625D02*
X24384000Y-16072625D01*
X24234000Y-15922625D02*
X24534000Y-15922625D01*
X24234000Y-17677625D02*
X24534000Y-17977625D01*
X24534000Y-17677625D02*
X24234000Y-17977625D01*
X24384000Y-17677625D02*
X24384000Y-17977625D01*
X24234000Y-17827625D02*
X24534000Y-17827625D01*
X24234000Y-19582625D02*
X24534000Y-19882625D01*
X24534000Y-19582625D02*
X24234000Y-19882625D01*
X24384000Y-19582625D02*
X24384000Y-19882625D01*
X24234000Y-19732625D02*
X24534000Y-19732625D01*
X24234000Y-21487625D02*
X24534000Y-21787625D01*
X24534000Y-21487625D02*
X24234000Y-21787625D01*
X24384000Y-21487625D02*
X24384000Y-21787625D01*
X24234000Y-21637625D02*
X24534000Y-21637625D01*
X25504000Y-12216625D02*
X25804000Y-12516625D01*
X25804000Y-12216625D02*
X25504000Y-12516625D01*
X25654000Y-12216625D02*
X25654000Y-12516625D01*
X25504000Y-12366625D02*
X25804000Y-12366625D01*
X25504000Y-14121625D02*
X25804000Y-14421625D01*
X25804000Y-14121625D02*
X25504000Y-14421625D01*
X25654000Y-14121625D02*
X25654000Y-14421625D01*
X25504000Y-14271625D02*
X25804000Y-14271625D01*
X25504000Y-16026625D02*
X25804000Y-16326625D01*
X25804000Y-16026625D02*
X25504000Y-16326625D01*
X25654000Y-16026625D02*
X25654000Y-16326625D01*
X25504000Y-16176625D02*
X25804000Y-16176625D01*
X25504000Y-17931625D02*
X25804000Y-18231625D01*
X25804000Y-17931625D02*
X25504000Y-18231625D01*
X25654000Y-17931625D02*
X25654000Y-18231625D01*
X25504000Y-18081625D02*
X25804000Y-18081625D01*
X25504000Y-19836625D02*
X25804000Y-20136625D01*
X25804000Y-19836625D02*
X25504000Y-20136625D01*
X25654000Y-19836625D02*
X25654000Y-20136625D01*
X25504000Y-19986625D02*
X25804000Y-19986625D01*
X25504000Y-21741625D02*
X25804000Y-22041625D01*
X25804000Y-21741625D02*
X25504000Y-22041625D01*
X25654000Y-21741625D02*
X25654000Y-22041625D01*
X25504000Y-21891625D02*
X25804000Y-21891625D01*
X26139000Y-11962625D02*
X26439000Y-12262625D01*
X26439000Y-11962625D02*
X26139000Y-12262625D01*
X26289000Y-11962625D02*
X26289000Y-12262625D01*
X26139000Y-12112625D02*
X26439000Y-12112625D01*
X26139000Y-13867625D02*
X26439000Y-14167625D01*
X26439000Y-13867625D02*
X26139000Y-14167625D01*
X26289000Y-13867625D02*
X26289000Y-14167625D01*
X26139000Y-14017625D02*
X26439000Y-14017625D01*
X26139000Y-15772625D02*
X26439000Y-16072625D01*
X26439000Y-15772625D02*
X26139000Y-16072625D01*
X26289000Y-15772625D02*
X26289000Y-16072625D01*
X26139000Y-15922625D02*
X26439000Y-15922625D01*
X26139000Y-17677625D02*
X26439000Y-17977625D01*
X26439000Y-17677625D02*
X26139000Y-17977625D01*
X26289000Y-17677625D02*
X26289000Y-17977625D01*
X26139000Y-17827625D02*
X26439000Y-17827625D01*
X26139000Y-19582625D02*
X26439000Y-19882625D01*
X26439000Y-19582625D02*
X26139000Y-19882625D01*
X26289000Y-19582625D02*
X26289000Y-19882625D01*
X26139000Y-19732625D02*
X26439000Y-19732625D01*
X26139000Y-21487625D02*
X26439000Y-21787625D01*
X26439000Y-21487625D02*
X26139000Y-21787625D01*
X26289000Y-21487625D02*
X26289000Y-21787625D01*
X26139000Y-21637625D02*
X26439000Y-21637625D01*
X27409000Y-12216625D02*
X27709000Y-12516625D01*
X27709000Y-12216625D02*
X27409000Y-12516625D01*
X27559000Y-12216625D02*
X27559000Y-12516625D01*
X27409000Y-12366625D02*
X27709000Y-12366625D01*
X27409000Y-14121625D02*
X27709000Y-14421625D01*
X27709000Y-14121625D02*
X27409000Y-14421625D01*
X27559000Y-14121625D02*
X27559000Y-14421625D01*
X27409000Y-14271625D02*
X27709000Y-14271625D01*
X27409000Y-16026625D02*
X27709000Y-16326625D01*
X27709000Y-16026625D02*
X27409000Y-16326625D01*
X27559000Y-16026625D02*
X27559000Y-16326625D01*
X27409000Y-16176625D02*
X27709000Y-16176625D01*
X27409000Y-17931625D02*
X27709000Y-18231625D01*
X27709000Y-17931625D02*
X27409000Y-18231625D01*
X27559000Y-17931625D02*
X27559000Y-18231625D01*
X27409000Y-18081625D02*
X27709000Y-18081625D01*
X27409000Y-19836625D02*
X27709000Y-20136625D01*
X27709000Y-19836625D02*
X27409000Y-20136625D01*
X27559000Y-19836625D02*
X27559000Y-20136625D01*
X27409000Y-19986625D02*
X27709000Y-19986625D01*
X27409000Y-21741625D02*
X27709000Y-22041625D01*
X27709000Y-21741625D02*
X27409000Y-22041625D01*
X27559000Y-21741625D02*
X27559000Y-22041625D01*
X27409000Y-21891625D02*
X27709000Y-21891625D01*
X28044000Y-11962625D02*
X28344000Y-12262625D01*
X28344000Y-11962625D02*
X28044000Y-12262625D01*
X28194000Y-11962625D02*
X28194000Y-12262625D01*
X28044000Y-12112625D02*
X28344000Y-12112625D01*
X28044000Y-13867625D02*
X28344000Y-14167625D01*
X28344000Y-13867625D02*
X28044000Y-14167625D01*
X28194000Y-13867625D02*
X28194000Y-14167625D01*
X28044000Y-14017625D02*
X28344000Y-14017625D01*
X28044000Y-15772625D02*
X28344000Y-16072625D01*
X28344000Y-15772625D02*
X28044000Y-16072625D01*
X28194000Y-15772625D02*
X28194000Y-16072625D01*
X28044000Y-15922625D02*
X28344000Y-15922625D01*
X28044000Y-17677625D02*
X28344000Y-17977625D01*
X28344000Y-17677625D02*
X28044000Y-17977625D01*
X28194000Y-17677625D02*
X28194000Y-17977625D01*
X28044000Y-17827625D02*
X28344000Y-17827625D01*
X28044000Y-19582625D02*
X28344000Y-19882625D01*
X28344000Y-19582625D02*
X28044000Y-19882625D01*
X28194000Y-19582625D02*
X28194000Y-19882625D01*
X28044000Y-19732625D02*
X28344000Y-19732625D01*
X28044000Y-21487625D02*
X28344000Y-21787625D01*
X28344000Y-21487625D02*
X28044000Y-21787625D01*
X28194000Y-21487625D02*
X28194000Y-21787625D01*
X28044000Y-21637625D02*
X28344000Y-21637625D01*
X29314000Y-12216625D02*
X29614000Y-12516625D01*
X29614000Y-12216625D02*
X29314000Y-12516625D01*
X29464000Y-12216625D02*
X29464000Y-12516625D01*
X29314000Y-12366625D02*
X29614000Y-12366625D01*
X29314000Y-14121625D02*
X29614000Y-14421625D01*
X29614000Y-14121625D02*
X29314000Y-14421625D01*
X29464000Y-14121625D02*
X29464000Y-14421625D01*
X29314000Y-14271625D02*
X29614000Y-14271625D01*
X29314000Y-16026625D02*
X29614000Y-16326625D01*
X29614000Y-16026625D02*
X29314000Y-16326625D01*
X29464000Y-16026625D02*
X29464000Y-16326625D01*
X29314000Y-16176625D02*
X29614000Y-16176625D01*
X29314000Y-17931625D02*
X29614000Y-18231625D01*
X29614000Y-17931625D02*
X29314000Y-18231625D01*
X29464000Y-17931625D02*
X29464000Y-18231625D01*
X29314000Y-18081625D02*
X29614000Y-18081625D01*
X29314000Y-19836625D02*
X29614000Y-20136625D01*
X29614000Y-19836625D02*
X29314000Y-20136625D01*
X29464000Y-19836625D02*
X29464000Y-20136625D01*
X29314000Y-19986625D02*
X29614000Y-19986625D01*
X29314000Y-21741625D02*
X29614000Y-22041625D01*
X29614000Y-21741625D02*
X29314000Y-22041625D01*
X29464000Y-21741625D02*
X29464000Y-22041625D01*
X29314000Y-21891625D02*
X29614000Y-21891625D01*
X29949000Y-11962625D02*
X30249000Y-12262625D01*
X30249000Y-11962625D02*
X29949000Y-12262625D01*
X30099000Y-11962625D02*
X30099000Y-12262625D01*
X29949000Y-12112625D02*
X30249000Y-12112625D01*
X29949000Y-13867625D02*
X30249000Y-14167625D01*
X30249000Y-13867625D02*
X29949000Y-14167625D01*
X30099000Y-13867625D02*
X30099000Y-14167625D01*
X29949000Y-14017625D02*
X30249000Y-14017625D01*
X29949000Y-15772625D02*
X30249000Y-16072625D01*
X30249000Y-15772625D02*
X29949000Y-16072625D01*
X30099000Y-15772625D02*
X30099000Y-16072625D01*
X29949000Y-15922625D02*
X30249000Y-15922625D01*
X29949000Y-17677625D02*
X30249000Y-17977625D01*
X30249000Y-17677625D02*
X29949000Y-17977625D01*
X30099000Y-17677625D02*
X30099000Y-17977625D01*
X29949000Y-17827625D02*
X30249000Y-17827625D01*
X29949000Y-19582625D02*
X30249000Y-19882625D01*
X30249000Y-19582625D02*
X29949000Y-19882625D01*
X30099000Y-19582625D02*
X30099000Y-19882625D01*
X29949000Y-19732625D02*
X30249000Y-19732625D01*
X29949000Y-21487625D02*
X30249000Y-21787625D01*
X30249000Y-21487625D02*
X29949000Y-21787625D01*
X30099000Y-21487625D02*
X30099000Y-21787625D01*
X29949000Y-21637625D02*
X30249000Y-21637625D01*
X31219000Y-12216625D02*
X31519000Y-12516625D01*
X31519000Y-12216625D02*
X31219000Y-12516625D01*
X31369000Y-12216625D02*
X31369000Y-12516625D01*
X31219000Y-12366625D02*
X31519000Y-12366625D01*
X31219000Y-14121625D02*
X31519000Y-14421625D01*
X31519000Y-14121625D02*
X31219000Y-14421625D01*
X31369000Y-14121625D02*
X31369000Y-14421625D01*
X31219000Y-14271625D02*
X31519000Y-14271625D01*
X31219000Y-16026625D02*
X31519000Y-16326625D01*
X31519000Y-16026625D02*
X31219000Y-16326625D01*
X31369000Y-16026625D02*
X31369000Y-16326625D01*
X31219000Y-16176625D02*
X31519000Y-16176625D01*
X31219000Y-17931625D02*
X31519000Y-18231625D01*
X31519000Y-17931625D02*
X31219000Y-18231625D01*
X31369000Y-17931625D02*
X31369000Y-18231625D01*
X31219000Y-18081625D02*
X31519000Y-18081625D01*
X31219000Y-19836625D02*
X31519000Y-20136625D01*
X31519000Y-19836625D02*
X31219000Y-20136625D01*
X31369000Y-19836625D02*
X31369000Y-20136625D01*
X31219000Y-19986625D02*
X31519000Y-19986625D01*
X31219000Y-21741625D02*
X31519000Y-22041625D01*
X31519000Y-21741625D02*
X31219000Y-22041625D01*
X31369000Y-21741625D02*
X31369000Y-22041625D01*
X31219000Y-21891625D02*
X31519000Y-21891625D01*
X31854000Y-11962625D02*
X32154000Y-12262625D01*
X32154000Y-11962625D02*
X31854000Y-12262625D01*
X32004000Y-11962625D02*
X32004000Y-12262625D01*
X31854000Y-12112625D02*
X32154000Y-12112625D01*
X31854000Y-13867625D02*
X32154000Y-14167625D01*
X32154000Y-13867625D02*
X31854000Y-14167625D01*
X32004000Y-13867625D02*
X32004000Y-14167625D01*
X31854000Y-14017625D02*
X32154000Y-14017625D01*
X31854000Y-15772625D02*
X32154000Y-16072625D01*
X32154000Y-15772625D02*
X31854000Y-16072625D01*
X32004000Y-15772625D02*
X32004000Y-16072625D01*
X31854000Y-15922625D02*
X32154000Y-15922625D01*
X31854000Y-17677625D02*
X32154000Y-17977625D01*
X32154000Y-17677625D02*
X31854000Y-17977625D01*
X32004000Y-17677625D02*
X32004000Y-17977625D01*
X31854000Y-17827625D02*
X32154000Y-17827625D01*
X31854000Y-19582625D02*
X32154000Y-19882625D01*
X32154000Y-19582625D02*
X31854000Y-19882625D01*
X32004000Y-19582625D02*
X32004000Y-19882625D01*
X31854000Y-19732625D02*
X32154000Y-19732625D01*
X31854000Y-21487625D02*
X32154000Y-21787625D01*
X32154000Y-21487625D02*
X31854000Y-21787625D01*
X32004000Y-21487625D02*
X32004000Y-21787625D01*
X31854000Y-21637625D02*
X32154000Y-21637625D01*
X33124000Y-12216625D02*
X33424000Y-12516625D01*
X33424000Y-12216625D02*
X33124000Y-12516625D01*
X33274000Y-12216625D02*
X33274000Y-12516625D01*
X33124000Y-12366625D02*
X33424000Y-12366625D01*
X33124000Y-14121625D02*
X33424000Y-14421625D01*
X33424000Y-14121625D02*
X33124000Y-14421625D01*
X33274000Y-14121625D02*
X33274000Y-14421625D01*
X33124000Y-14271625D02*
X33424000Y-14271625D01*
X33124000Y-16026625D02*
X33424000Y-16326625D01*
X33424000Y-16026625D02*
X33124000Y-16326625D01*
X33274000Y-16026625D02*
X33274000Y-16326625D01*
X33124000Y-16176625D02*
X33424000Y-16176625D01*
X33124000Y-17931625D02*
X33424000Y-18231625D01*
X33424000Y-17931625D02*
X33124000Y-18231625D01*
X33274000Y-17931625D02*
X33274000Y-18231625D01*
X33124000Y-18081625D02*
X33424000Y-18081625D01*
X33124000Y-19836625D02*
X33424000Y-20136625D01*
X33424000Y-19836625D02*
X33124000Y-20136625D01*
X33274000Y-19836625D02*
X33274000Y-20136625D01*
X33124000Y-19986625D02*
X33424000Y-19986625D01*
X33124000Y-21741625D02*
X33424000Y-22041625D01*
X33424000Y-21741625D02*
X33124000Y-22041625D01*
X33274000Y-21741625D02*
X33274000Y-22041625D01*
X33124000Y-21891625D02*
X33424000Y-21891625D01*
X33759000Y-11962625D02*
X34059000Y-12262625D01*
X34059000Y-11962625D02*
X33759000Y-12262625D01*
X33909000Y-11962625D02*
X33909000Y-12262625D01*
X33759000Y-12112625D02*
X34059000Y-12112625D01*
X33759000Y-13867625D02*
X34059000Y-14167625D01*
X34059000Y-13867625D02*
X33759000Y-14167625D01*
X33909000Y-13867625D02*
X33909000Y-14167625D01*
X33759000Y-14017625D02*
X34059000Y-14017625D01*
X33759000Y-15772625D02*
X34059000Y-16072625D01*
X34059000Y-15772625D02*
X33759000Y-16072625D01*
X33909000Y-15772625D02*
X33909000Y-16072625D01*
X33759000Y-15922625D02*
X34059000Y-15922625D01*
X33759000Y-17677625D02*
X34059000Y-17977625D01*
X34059000Y-17677625D02*
X33759000Y-17977625D01*
X33909000Y-17677625D02*
X33909000Y-17977625D01*
X33759000Y-17827625D02*
X34059000Y-17827625D01*
X33759000Y-19582625D02*
X34059000Y-19882625D01*
X34059000Y-19582625D02*
X33759000Y-19882625D01*
X33909000Y-19582625D02*
X33909000Y-19882625D01*
X33759000Y-19732625D02*
X34059000Y-19732625D01*
X33759000Y-21487625D02*
X34059000Y-21787625D01*
X34059000Y-21487625D02*
X33759000Y-21787625D01*
X33909000Y-21487625D02*
X33909000Y-21787625D01*
X33759000Y-21637625D02*
X34059000Y-21637625D01*
X35029000Y-12216625D02*
X35329000Y-12516625D01*
X35329000Y-12216625D02*
X35029000Y-12516625D01*
X35179000Y-12216625D02*
X35179000Y-12516625D01*
X35029000Y-12366625D02*
X35329000Y-12366625D01*
X35029000Y-14121625D02*
X35329000Y-14421625D01*
X35329000Y-14121625D02*
X35029000Y-14421625D01*
X35179000Y-14121625D02*
X35179000Y-14421625D01*
X35029000Y-14271625D02*
X35329000Y-14271625D01*
X35029000Y-16026625D02*
X35329000Y-16326625D01*
X35329000Y-16026625D02*
X35029000Y-16326625D01*
X35179000Y-16026625D02*
X35179000Y-16326625D01*
X35029000Y-16176625D02*
X35329000Y-16176625D01*
X35029000Y-17931625D02*
X35329000Y-18231625D01*
X35329000Y-17931625D02*
X35029000Y-18231625D01*
X35179000Y-17931625D02*
X35179000Y-18231625D01*
X35029000Y-18081625D02*
X35329000Y-18081625D01*
X35029000Y-19836625D02*
X35329000Y-20136625D01*
X35329000Y-19836625D02*
X35029000Y-20136625D01*
X35179000Y-19836625D02*
X35179000Y-20136625D01*
X35029000Y-19986625D02*
X35329000Y-19986625D01*
X35029000Y-21741625D02*
X35329000Y-22041625D01*
X35329000Y-21741625D02*
X35029000Y-22041625D01*
X35179000Y-21741625D02*
X35179000Y-22041625D01*
X35029000Y-21891625D02*
X35329000Y-21891625D01*
X35664000Y-11962625D02*
X35964000Y-12262625D01*
X35964000Y-11962625D02*
X35664000Y-12262625D01*
X35814000Y-11962625D02*
X35814000Y-12262625D01*
X35664000Y-12112625D02*
X35964000Y-12112625D01*
X35664000Y-13867625D02*
X35964000Y-14167625D01*
X35964000Y-13867625D02*
X35664000Y-14167625D01*
X35814000Y-13867625D02*
X35814000Y-14167625D01*
X35664000Y-14017625D02*
X35964000Y-14017625D01*
X35664000Y-15772625D02*
X35964000Y-16072625D01*
X35964000Y-15772625D02*
X35664000Y-16072625D01*
X35814000Y-15772625D02*
X35814000Y-16072625D01*
X35664000Y-15922625D02*
X35964000Y-15922625D01*
X35664000Y-17677625D02*
X35964000Y-17977625D01*
X35964000Y-17677625D02*
X35664000Y-17977625D01*
X35814000Y-17677625D02*
X35814000Y-17977625D01*
X35664000Y-17827625D02*
X35964000Y-17827625D01*
X35664000Y-19582625D02*
X35964000Y-19882625D01*
X35964000Y-19582625D02*
X35664000Y-19882625D01*
X35814000Y-19582625D02*
X35814000Y-19882625D01*
X35664000Y-19732625D02*
X35964000Y-19732625D01*
X35664000Y-21487625D02*
X35964000Y-21787625D01*
X35964000Y-21487625D02*
X35664000Y-21787625D01*
X35814000Y-21487625D02*
X35814000Y-21787625D01*
X35664000Y-21637625D02*
X35964000Y-21637625D01*
D12*
X4408928Y-23568839D02*
X4408928Y-23268839D01*
X4480357Y-23268839D01*
X4523214Y-23283125D01*
X4551786Y-23311696D01*
X4566071Y-23340268D01*
X4580357Y-23397411D01*
X4580357Y-23440268D01*
X4566071Y-23497411D01*
X4551786Y-23525982D01*
X4523214Y-23554554D01*
X4480357Y-23568839D01*
X4408928Y-23568839D01*
X4708928Y-23568839D02*
X4708928Y-23368839D01*
X4708928Y-23425982D02*
X4723214Y-23397411D01*
X4737500Y-23383125D01*
X4766071Y-23368839D01*
X4794643Y-23368839D01*
X4894643Y-23568839D02*
X4894643Y-23368839D01*
X4894643Y-23268839D02*
X4880357Y-23283125D01*
X4894643Y-23297411D01*
X4908928Y-23283125D01*
X4894643Y-23268839D01*
X4894643Y-23297411D01*
X5080357Y-23568839D02*
X5051786Y-23554554D01*
X5037500Y-23525982D01*
X5037500Y-23268839D01*
X5237500Y-23568839D02*
X5208928Y-23554554D01*
X5194643Y-23525982D01*
X5194643Y-23268839D01*
X5580357Y-23568839D02*
X5580357Y-23268839D01*
X5680357Y-23483125D01*
X5780357Y-23268839D01*
X5780357Y-23568839D01*
X6051786Y-23568839D02*
X6051786Y-23411696D01*
X6037500Y-23383125D01*
X6008928Y-23368839D01*
X5951786Y-23368839D01*
X5923214Y-23383125D01*
X6051786Y-23554554D02*
X6023214Y-23568839D01*
X5951786Y-23568839D01*
X5923214Y-23554554D01*
X5908928Y-23525982D01*
X5908928Y-23497411D01*
X5923214Y-23468839D01*
X5951786Y-23454554D01*
X6023214Y-23454554D01*
X6051786Y-23440268D01*
X6194643Y-23368839D02*
X6194643Y-23668839D01*
X6194643Y-23383125D02*
X6223214Y-23368839D01*
X6280357Y-23368839D01*
X6308928Y-23383125D01*
X6323214Y-23397411D01*
X6337500Y-23425982D01*
X6337500Y-23511696D01*
X6323214Y-23540268D01*
X6308928Y-23554554D01*
X6280357Y-23568839D01*
X6223214Y-23568839D01*
X6194643Y-23554554D01*
X6466071Y-23540268D02*
X6480357Y-23554554D01*
X6466071Y-23568839D01*
X6451786Y-23554554D01*
X6466071Y-23540268D01*
X6466071Y-23568839D01*
X6466071Y-23383125D02*
X6480357Y-23397411D01*
X6466071Y-23411696D01*
X6451786Y-23397411D01*
X6466071Y-23383125D01*
X6466071Y-23411696D01*
X4092020Y-24047885D02*
X4122500Y-24078365D01*
X4122500Y-24047885D02*
X4092020Y-24078365D01*
X4466071Y-23898839D02*
X4494643Y-23898839D01*
X4523214Y-23913125D01*
X4537500Y-23927411D01*
X4551786Y-23955982D01*
X4566071Y-24013125D01*
X4566071Y-24084554D01*
X4551786Y-24141696D01*
X4537500Y-24170268D01*
X4523214Y-24184554D01*
X4494643Y-24198839D01*
X4466071Y-24198839D01*
X4437500Y-24184554D01*
X4423214Y-24170268D01*
X4408928Y-24141696D01*
X4394643Y-24084554D01*
X4394643Y-24013125D01*
X4408928Y-23955982D01*
X4423214Y-23927411D01*
X4437500Y-23913125D01*
X4466071Y-23898839D01*
X4694643Y-24170268D02*
X4708928Y-24184554D01*
X4694643Y-24198839D01*
X4680357Y-24184554D01*
X4694643Y-24170268D01*
X4694643Y-24198839D01*
X4808928Y-23898839D02*
X4994643Y-23898839D01*
X4894643Y-24013125D01*
X4937500Y-24013125D01*
X4966071Y-24027411D01*
X4980357Y-24041696D01*
X4994643Y-24070268D01*
X4994643Y-24141696D01*
X4980357Y-24170268D01*
X4966071Y-24184554D01*
X4937500Y-24198839D01*
X4851786Y-24198839D01*
X4823214Y-24184554D01*
X4808928Y-24170268D01*
X5180357Y-23898839D02*
X5208928Y-23898839D01*
X5237500Y-23913125D01*
X5251786Y-23927411D01*
X5266071Y-23955982D01*
X5280357Y-24013125D01*
X5280357Y-24084554D01*
X5266071Y-24141696D01*
X5251786Y-24170268D01*
X5237500Y-24184554D01*
X5208928Y-24198839D01*
X5180357Y-24198839D01*
X5151786Y-24184554D01*
X5137500Y-24170268D01*
X5123214Y-24141696D01*
X5108928Y-24084554D01*
X5108928Y-24013125D01*
X5123214Y-23955982D01*
X5137500Y-23927411D01*
X5151786Y-23913125D01*
X5180357Y-23898839D01*
X5551786Y-23898839D02*
X5408928Y-23898839D01*
X5394643Y-24041696D01*
X5408928Y-24027411D01*
X5437500Y-24013125D01*
X5508928Y-24013125D01*
X5537500Y-24027411D01*
X5551786Y-24041696D01*
X5566071Y-24070268D01*
X5566071Y-24141696D01*
X5551786Y-24170268D01*
X5537500Y-24184554D01*
X5508928Y-24198839D01*
X5437500Y-24198839D01*
X5408928Y-24184554D01*
X5394643Y-24170268D01*
X5694643Y-24198839D02*
X5694643Y-23998839D01*
X5694643Y-24027411D02*
X5708928Y-24013125D01*
X5737500Y-23998839D01*
X5780357Y-23998839D01*
X5808928Y-24013125D01*
X5823214Y-24041696D01*
X5823214Y-24198839D01*
X5823214Y-24041696D02*
X5837500Y-24013125D01*
X5866071Y-23998839D01*
X5908928Y-23998839D01*
X5937500Y-24013125D01*
X5951786Y-24041696D01*
X5951786Y-24198839D01*
X6094643Y-24198839D02*
X6094643Y-23998839D01*
X6094643Y-24027411D02*
X6108928Y-24013125D01*
X6137500Y-23998839D01*
X6180357Y-23998839D01*
X6208928Y-24013125D01*
X6223214Y-24041696D01*
X6223214Y-24198839D01*
X6223214Y-24041696D02*
X6237500Y-24013125D01*
X6266071Y-23998839D01*
X6308928Y-23998839D01*
X6337500Y-24013125D01*
X6351786Y-24041696D01*
X6351786Y-24198839D01*
X6937500Y-23884554D02*
X6680357Y-24270268D01*
X7323214Y-23898839D02*
X7351786Y-23898839D01*
X7380357Y-23913125D01*
X7394643Y-23927411D01*
X7408928Y-23955982D01*
X7423214Y-24013125D01*
X7423214Y-24084554D01*
X7408928Y-24141696D01*
X7394643Y-24170268D01*
X7380357Y-24184554D01*
X7351786Y-24198839D01*
X7323214Y-24198839D01*
X7294643Y-24184554D01*
X7280357Y-24170268D01*
X7266071Y-24141696D01*
X7251786Y-24084554D01*
X7251786Y-24013125D01*
X7266071Y-23955982D01*
X7280357Y-23927411D01*
X7294643Y-23913125D01*
X7323214Y-23898839D01*
X7551786Y-24170268D02*
X7566071Y-24184554D01*
X7551786Y-24198839D01*
X7537500Y-24184554D01*
X7551786Y-24170268D01*
X7551786Y-24198839D01*
X7751786Y-23898839D02*
X7780357Y-23898839D01*
X7808928Y-23913125D01*
X7823214Y-23927411D01*
X7837500Y-23955982D01*
X7851786Y-24013125D01*
X7851786Y-24084554D01*
X7837500Y-24141696D01*
X7823214Y-24170268D01*
X7808928Y-24184554D01*
X7780357Y-24198839D01*
X7751786Y-24198839D01*
X7723214Y-24184554D01*
X7708928Y-24170268D01*
X7694643Y-24141696D01*
X7680357Y-24084554D01*
X7680357Y-24013125D01*
X7694643Y-23955982D01*
X7708928Y-23927411D01*
X7723214Y-23913125D01*
X7751786Y-23898839D01*
X8137500Y-24198839D02*
X7966071Y-24198839D01*
X8051786Y-24198839D02*
X8051786Y-23898839D01*
X8023214Y-23941696D01*
X7994643Y-23970268D01*
X7966071Y-23984554D01*
X8251786Y-23927411D02*
X8266071Y-23913125D01*
X8294643Y-23898839D01*
X8366071Y-23898839D01*
X8394643Y-23913125D01*
X8408928Y-23927411D01*
X8423214Y-23955982D01*
X8423214Y-23984554D01*
X8408928Y-24027411D01*
X8237500Y-24198839D01*
X8423214Y-24198839D01*
X8608928Y-23898839D02*
X8637500Y-23898839D01*
X8666071Y-23913125D01*
X8680357Y-23927411D01*
X8694643Y-23955982D01*
X8708928Y-24013125D01*
X8708928Y-24084554D01*
X8694643Y-24141696D01*
X8680357Y-24170268D01*
X8666071Y-24184554D01*
X8637500Y-24198839D01*
X8608928Y-24198839D01*
X8580357Y-24184554D01*
X8566071Y-24170268D01*
X8551786Y-24141696D01*
X8537500Y-24084554D01*
X8537500Y-24013125D01*
X8551786Y-23955982D01*
X8566071Y-23927411D01*
X8580357Y-23913125D01*
X8608928Y-23898839D01*
X8823214Y-23898839D02*
X8823214Y-23955982D01*
X8937500Y-23898839D02*
X8937500Y-23955982D01*
X9380357Y-24313125D02*
X9366071Y-24298839D01*
X9337500Y-24255982D01*
X9323214Y-24227411D01*
X9308928Y-24184554D01*
X9294643Y-24113125D01*
X9294643Y-24055982D01*
X9308928Y-23984554D01*
X9323214Y-23941696D01*
X9337500Y-23913125D01*
X9366071Y-23870268D01*
X9380357Y-23855982D01*
X9466071Y-23898839D02*
X9666071Y-23898839D01*
X9537500Y-24198839D01*
X10008928Y-24198839D02*
X10008928Y-23898839D01*
X10137500Y-24198839D02*
X10137500Y-24041696D01*
X10123214Y-24013125D01*
X10094643Y-23998839D01*
X10051786Y-23998839D01*
X10023214Y-24013125D01*
X10008928Y-24027411D01*
X10323214Y-24198839D02*
X10294643Y-24184554D01*
X10280357Y-24170268D01*
X10266071Y-24141696D01*
X10266071Y-24055982D01*
X10280357Y-24027411D01*
X10294643Y-24013125D01*
X10323214Y-23998839D01*
X10366071Y-23998839D01*
X10394643Y-24013125D01*
X10408928Y-24027411D01*
X10423214Y-24055982D01*
X10423214Y-24141696D01*
X10408928Y-24170268D01*
X10394643Y-24184554D01*
X10366071Y-24198839D01*
X10323214Y-24198839D01*
X10594643Y-24198839D02*
X10566071Y-24184554D01*
X10551786Y-24155982D01*
X10551786Y-23898839D01*
X10823214Y-24184554D02*
X10794643Y-24198839D01*
X10737500Y-24198839D01*
X10708928Y-24184554D01*
X10694643Y-24155982D01*
X10694643Y-24041696D01*
X10708928Y-24013125D01*
X10737500Y-23998839D01*
X10794643Y-23998839D01*
X10823214Y-24013125D01*
X10837500Y-24041696D01*
X10837500Y-24070268D01*
X10694643Y-24098839D01*
X10951786Y-24184554D02*
X10980357Y-24198839D01*
X11037500Y-24198839D01*
X11066071Y-24184554D01*
X11080357Y-24155982D01*
X11080357Y-24141696D01*
X11066071Y-24113125D01*
X11037500Y-24098839D01*
X10994643Y-24098839D01*
X10966071Y-24084554D01*
X10951786Y-24055982D01*
X10951786Y-24041696D01*
X10966071Y-24013125D01*
X10994643Y-23998839D01*
X11037500Y-23998839D01*
X11066071Y-24013125D01*
X11180357Y-24313125D02*
X11194643Y-24298839D01*
X11223214Y-24255982D01*
X11237500Y-24227411D01*
X11251786Y-24184554D01*
X11266071Y-24113125D01*
X11266071Y-24055982D01*
X11251786Y-23984554D01*
X11237500Y-23941696D01*
X11223214Y-23913125D01*
X11194643Y-23870268D01*
X11180357Y-23855982D01*
X4122500Y-24459125D02*
G75*
G03*
X4122500Y-24459125I-20000J0D01*
G01*
X4466071Y-24294839D02*
X4494643Y-24294839D01*
X4523214Y-24309125D01*
X4537500Y-24323411D01*
X4551786Y-24351982D01*
X4566071Y-24409125D01*
X4566071Y-24480554D01*
X4551786Y-24537696D01*
X4537500Y-24566268D01*
X4523214Y-24580554D01*
X4494643Y-24594839D01*
X4466071Y-24594839D01*
X4437500Y-24580554D01*
X4423214Y-24566268D01*
X4408928Y-24537696D01*
X4394643Y-24480554D01*
X4394643Y-24409125D01*
X4408928Y-24351982D01*
X4423214Y-24323411D01*
X4437500Y-24309125D01*
X4466071Y-24294839D01*
X4694643Y-24566268D02*
X4708928Y-24580554D01*
X4694643Y-24594839D01*
X4680357Y-24580554D01*
X4694643Y-24566268D01*
X4694643Y-24594839D01*
X4966071Y-24394839D02*
X4966071Y-24594839D01*
X4894643Y-24280554D02*
X4823214Y-24494839D01*
X5008928Y-24494839D01*
X5180357Y-24294839D02*
X5208928Y-24294839D01*
X5237500Y-24309125D01*
X5251786Y-24323411D01*
X5266071Y-24351982D01*
X5280357Y-24409125D01*
X5280357Y-24480554D01*
X5266071Y-24537696D01*
X5251786Y-24566268D01*
X5237500Y-24580554D01*
X5208928Y-24594839D01*
X5180357Y-24594839D01*
X5151786Y-24580554D01*
X5137500Y-24566268D01*
X5123214Y-24537696D01*
X5108928Y-24480554D01*
X5108928Y-24409125D01*
X5123214Y-24351982D01*
X5137500Y-24323411D01*
X5151786Y-24309125D01*
X5180357Y-24294839D01*
X5466071Y-24294839D02*
X5494643Y-24294839D01*
X5523214Y-24309125D01*
X5537500Y-24323411D01*
X5551786Y-24351982D01*
X5566071Y-24409125D01*
X5566071Y-24480554D01*
X5551786Y-24537696D01*
X5537500Y-24566268D01*
X5523214Y-24580554D01*
X5494643Y-24594839D01*
X5466071Y-24594839D01*
X5437500Y-24580554D01*
X5423214Y-24566268D01*
X5408928Y-24537696D01*
X5394643Y-24480554D01*
X5394643Y-24409125D01*
X5408928Y-24351982D01*
X5423214Y-24323411D01*
X5437500Y-24309125D01*
X5466071Y-24294839D01*
X5694643Y-24594839D02*
X5694643Y-24394839D01*
X5694643Y-24423411D02*
X5708928Y-24409125D01*
X5737500Y-24394839D01*
X5780357Y-24394839D01*
X5808928Y-24409125D01*
X5823214Y-24437696D01*
X5823214Y-24594839D01*
X5823214Y-24437696D02*
X5837500Y-24409125D01*
X5866071Y-24394839D01*
X5908928Y-24394839D01*
X5937500Y-24409125D01*
X5951786Y-24437696D01*
X5951786Y-24594839D01*
X6094643Y-24594839D02*
X6094643Y-24394839D01*
X6094643Y-24423411D02*
X6108928Y-24409125D01*
X6137500Y-24394839D01*
X6180357Y-24394839D01*
X6208928Y-24409125D01*
X6223214Y-24437696D01*
X6223214Y-24594839D01*
X6223214Y-24437696D02*
X6237500Y-24409125D01*
X6266071Y-24394839D01*
X6308928Y-24394839D01*
X6337500Y-24409125D01*
X6351786Y-24437696D01*
X6351786Y-24594839D01*
X6937500Y-24280554D02*
X6680357Y-24666268D01*
X7323214Y-24294839D02*
X7351786Y-24294839D01*
X7380357Y-24309125D01*
X7394643Y-24323411D01*
X7408928Y-24351982D01*
X7423214Y-24409125D01*
X7423214Y-24480554D01*
X7408928Y-24537696D01*
X7394643Y-24566268D01*
X7380357Y-24580554D01*
X7351786Y-24594839D01*
X7323214Y-24594839D01*
X7294643Y-24580554D01*
X7280357Y-24566268D01*
X7266071Y-24537696D01*
X7251786Y-24480554D01*
X7251786Y-24409125D01*
X7266071Y-24351982D01*
X7280357Y-24323411D01*
X7294643Y-24309125D01*
X7323214Y-24294839D01*
X7551786Y-24566268D02*
X7566071Y-24580554D01*
X7551786Y-24594839D01*
X7537500Y-24580554D01*
X7551786Y-24566268D01*
X7551786Y-24594839D01*
X7751786Y-24294839D02*
X7780357Y-24294839D01*
X7808928Y-24309125D01*
X7823214Y-24323411D01*
X7837500Y-24351982D01*
X7851786Y-24409125D01*
X7851786Y-24480554D01*
X7837500Y-24537696D01*
X7823214Y-24566268D01*
X7808928Y-24580554D01*
X7780357Y-24594839D01*
X7751786Y-24594839D01*
X7723214Y-24580554D01*
X7708928Y-24566268D01*
X7694643Y-24537696D01*
X7680357Y-24480554D01*
X7680357Y-24409125D01*
X7694643Y-24351982D01*
X7708928Y-24323411D01*
X7723214Y-24309125D01*
X7751786Y-24294839D01*
X8137500Y-24594839D02*
X7966071Y-24594839D01*
X8051786Y-24594839D02*
X8051786Y-24294839D01*
X8023214Y-24337696D01*
X7994643Y-24366268D01*
X7966071Y-24380554D01*
X8408928Y-24294839D02*
X8266071Y-24294839D01*
X8251786Y-24437696D01*
X8266071Y-24423411D01*
X8294643Y-24409125D01*
X8366071Y-24409125D01*
X8394643Y-24423411D01*
X8408928Y-24437696D01*
X8423214Y-24466268D01*
X8423214Y-24537696D01*
X8408928Y-24566268D01*
X8394643Y-24580554D01*
X8366071Y-24594839D01*
X8294643Y-24594839D01*
X8266071Y-24580554D01*
X8251786Y-24566268D01*
X8523214Y-24294839D02*
X8723214Y-24294839D01*
X8594643Y-24594839D01*
X8823214Y-24294839D02*
X8823214Y-24351982D01*
X8937500Y-24294839D02*
X8937500Y-24351982D01*
X9380357Y-24709125D02*
X9366071Y-24694839D01*
X9337500Y-24651982D01*
X9323214Y-24623411D01*
X9308928Y-24580554D01*
X9294643Y-24509125D01*
X9294643Y-24451982D01*
X9308928Y-24380554D01*
X9323214Y-24337696D01*
X9337500Y-24309125D01*
X9366071Y-24266268D01*
X9380357Y-24251982D01*
X9637500Y-24294839D02*
X9494643Y-24294839D01*
X9480357Y-24437696D01*
X9494643Y-24423411D01*
X9523214Y-24409125D01*
X9594643Y-24409125D01*
X9623214Y-24423411D01*
X9637500Y-24437696D01*
X9651786Y-24466268D01*
X9651786Y-24537696D01*
X9637500Y-24566268D01*
X9623214Y-24580554D01*
X9594643Y-24594839D01*
X9523214Y-24594839D01*
X9494643Y-24580554D01*
X9480357Y-24566268D01*
X9908928Y-24394839D02*
X9908928Y-24594839D01*
X9837500Y-24280554D02*
X9766071Y-24494839D01*
X9951786Y-24494839D01*
X10208928Y-24294839D02*
X10066071Y-24294839D01*
X10051786Y-24437696D01*
X10066071Y-24423411D01*
X10094643Y-24409125D01*
X10166071Y-24409125D01*
X10194643Y-24423411D01*
X10208928Y-24437696D01*
X10223214Y-24466268D01*
X10223214Y-24537696D01*
X10208928Y-24566268D01*
X10194643Y-24580554D01*
X10166071Y-24594839D01*
X10094643Y-24594839D01*
X10066071Y-24580554D01*
X10051786Y-24566268D01*
X10580357Y-24594839D02*
X10580357Y-24294839D01*
X10708928Y-24594839D02*
X10708928Y-24437696D01*
X10694643Y-24409125D01*
X10666071Y-24394839D01*
X10623214Y-24394839D01*
X10594643Y-24409125D01*
X10580357Y-24423411D01*
X10894643Y-24594839D02*
X10866071Y-24580554D01*
X10851786Y-24566268D01*
X10837500Y-24537696D01*
X10837500Y-24451982D01*
X10851786Y-24423411D01*
X10866071Y-24409125D01*
X10894643Y-24394839D01*
X10937500Y-24394839D01*
X10966071Y-24409125D01*
X10980357Y-24423411D01*
X10994643Y-24451982D01*
X10994643Y-24537696D01*
X10980357Y-24566268D01*
X10966071Y-24580554D01*
X10937500Y-24594839D01*
X10894643Y-24594839D01*
X11166071Y-24594839D02*
X11137500Y-24580554D01*
X11123214Y-24551982D01*
X11123214Y-24294839D01*
X11394643Y-24580554D02*
X11366071Y-24594839D01*
X11308928Y-24594839D01*
X11280357Y-24580554D01*
X11266071Y-24551982D01*
X11266071Y-24437696D01*
X11280357Y-24409125D01*
X11308928Y-24394839D01*
X11366071Y-24394839D01*
X11394643Y-24409125D01*
X11408928Y-24437696D01*
X11408928Y-24466268D01*
X11266071Y-24494839D01*
X11523214Y-24580554D02*
X11551786Y-24594839D01*
X11608928Y-24594839D01*
X11637500Y-24580554D01*
X11651786Y-24551982D01*
X11651786Y-24537696D01*
X11637500Y-24509125D01*
X11608928Y-24494839D01*
X11566071Y-24494839D01*
X11537500Y-24480554D01*
X11523214Y-24451982D01*
X11523214Y-24437696D01*
X11537500Y-24409125D01*
X11566071Y-24394839D01*
X11608928Y-24394839D01*
X11637500Y-24409125D01*
X11751786Y-24709125D02*
X11766071Y-24694839D01*
X11794643Y-24651982D01*
X11808928Y-24623411D01*
X11823214Y-24580554D01*
X11837500Y-24509125D01*
X11837500Y-24451982D01*
X11823214Y-24380554D01*
X11808928Y-24337696D01*
X11794643Y-24309125D01*
X11766071Y-24266268D01*
X11751786Y-24251982D01*
X4097500Y-24830125D02*
X4097500Y-24880125D01*
X4072500Y-24855125D02*
X4122500Y-24855125D01*
X4466071Y-24690839D02*
X4494643Y-24690839D01*
X4523214Y-24705125D01*
X4537500Y-24719411D01*
X4551786Y-24747982D01*
X4566071Y-24805125D01*
X4566071Y-24876554D01*
X4551786Y-24933696D01*
X4537500Y-24962268D01*
X4523214Y-24976554D01*
X4494643Y-24990839D01*
X4466071Y-24990839D01*
X4437500Y-24976554D01*
X4423214Y-24962268D01*
X4408928Y-24933696D01*
X4394643Y-24876554D01*
X4394643Y-24805125D01*
X4408928Y-24747982D01*
X4423214Y-24719411D01*
X4437500Y-24705125D01*
X4466071Y-24690839D01*
X4694643Y-24962268D02*
X4708928Y-24976554D01*
X4694643Y-24990839D01*
X4680357Y-24976554D01*
X4694643Y-24962268D01*
X4694643Y-24990839D01*
X4980357Y-24690839D02*
X4837500Y-24690839D01*
X4823214Y-24833696D01*
X4837500Y-24819411D01*
X4866071Y-24805125D01*
X4937500Y-24805125D01*
X4966071Y-24819411D01*
X4980357Y-24833696D01*
X4994643Y-24862268D01*
X4994643Y-24933696D01*
X4980357Y-24962268D01*
X4966071Y-24976554D01*
X4937500Y-24990839D01*
X4866071Y-24990839D01*
X4837500Y-24976554D01*
X4823214Y-24962268D01*
X5180357Y-24690839D02*
X5208928Y-24690839D01*
X5237500Y-24705125D01*
X5251786Y-24719411D01*
X5266071Y-24747982D01*
X5280357Y-24805125D01*
X5280357Y-24876554D01*
X5266071Y-24933696D01*
X5251786Y-24962268D01*
X5237500Y-24976554D01*
X5208928Y-24990839D01*
X5180357Y-24990839D01*
X5151786Y-24976554D01*
X5137500Y-24962268D01*
X5123214Y-24933696D01*
X5108928Y-24876554D01*
X5108928Y-24805125D01*
X5123214Y-24747982D01*
X5137500Y-24719411D01*
X5151786Y-24705125D01*
X5180357Y-24690839D01*
X5466071Y-24690839D02*
X5494643Y-24690839D01*
X5523214Y-24705125D01*
X5537500Y-24719411D01*
X5551786Y-24747982D01*
X5566071Y-24805125D01*
X5566071Y-24876554D01*
X5551786Y-24933696D01*
X5537500Y-24962268D01*
X5523214Y-24976554D01*
X5494643Y-24990839D01*
X5466071Y-24990839D01*
X5437500Y-24976554D01*
X5423214Y-24962268D01*
X5408928Y-24933696D01*
X5394643Y-24876554D01*
X5394643Y-24805125D01*
X5408928Y-24747982D01*
X5423214Y-24719411D01*
X5437500Y-24705125D01*
X5466071Y-24690839D01*
X5694643Y-24990839D02*
X5694643Y-24790839D01*
X5694643Y-24819411D02*
X5708928Y-24805125D01*
X5737500Y-24790839D01*
X5780357Y-24790839D01*
X5808928Y-24805125D01*
X5823214Y-24833696D01*
X5823214Y-24990839D01*
X5823214Y-24833696D02*
X5837500Y-24805125D01*
X5866071Y-24790839D01*
X5908928Y-24790839D01*
X5937500Y-24805125D01*
X5951786Y-24833696D01*
X5951786Y-24990839D01*
X6094643Y-24990839D02*
X6094643Y-24790839D01*
X6094643Y-24819411D02*
X6108928Y-24805125D01*
X6137500Y-24790839D01*
X6180357Y-24790839D01*
X6208928Y-24805125D01*
X6223214Y-24833696D01*
X6223214Y-24990839D01*
X6223214Y-24833696D02*
X6237500Y-24805125D01*
X6266071Y-24790839D01*
X6308928Y-24790839D01*
X6337500Y-24805125D01*
X6351786Y-24833696D01*
X6351786Y-24990839D01*
X6937500Y-24676554D02*
X6680357Y-25062268D01*
X7323214Y-24690839D02*
X7351786Y-24690839D01*
X7380357Y-24705125D01*
X7394643Y-24719411D01*
X7408928Y-24747982D01*
X7423214Y-24805125D01*
X7423214Y-24876554D01*
X7408928Y-24933696D01*
X7394643Y-24962268D01*
X7380357Y-24976554D01*
X7351786Y-24990839D01*
X7323214Y-24990839D01*
X7294643Y-24976554D01*
X7280357Y-24962268D01*
X7266071Y-24933696D01*
X7251786Y-24876554D01*
X7251786Y-24805125D01*
X7266071Y-24747982D01*
X7280357Y-24719411D01*
X7294643Y-24705125D01*
X7323214Y-24690839D01*
X7551786Y-24962268D02*
X7566071Y-24976554D01*
X7551786Y-24990839D01*
X7537500Y-24976554D01*
X7551786Y-24962268D01*
X7551786Y-24990839D01*
X7751786Y-24690839D02*
X7780357Y-24690839D01*
X7808928Y-24705125D01*
X7823214Y-24719411D01*
X7837500Y-24747982D01*
X7851786Y-24805125D01*
X7851786Y-24876554D01*
X7837500Y-24933696D01*
X7823214Y-24962268D01*
X7808928Y-24976554D01*
X7780357Y-24990839D01*
X7751786Y-24990839D01*
X7723214Y-24976554D01*
X7708928Y-24962268D01*
X7694643Y-24933696D01*
X7680357Y-24876554D01*
X7680357Y-24805125D01*
X7694643Y-24747982D01*
X7708928Y-24719411D01*
X7723214Y-24705125D01*
X7751786Y-24690839D01*
X8137500Y-24990839D02*
X7966071Y-24990839D01*
X8051786Y-24990839D02*
X8051786Y-24690839D01*
X8023214Y-24733696D01*
X7994643Y-24762268D01*
X7966071Y-24776554D01*
X8280357Y-24990839D02*
X8337500Y-24990839D01*
X8366071Y-24976554D01*
X8380357Y-24962268D01*
X8408928Y-24919411D01*
X8423214Y-24862268D01*
X8423214Y-24747982D01*
X8408928Y-24719411D01*
X8394643Y-24705125D01*
X8366071Y-24690839D01*
X8308928Y-24690839D01*
X8280357Y-24705125D01*
X8266071Y-24719411D01*
X8251786Y-24747982D01*
X8251786Y-24819411D01*
X8266071Y-24847982D01*
X8280357Y-24862268D01*
X8308928Y-24876554D01*
X8366071Y-24876554D01*
X8394643Y-24862268D01*
X8408928Y-24847982D01*
X8423214Y-24819411D01*
X8523214Y-24690839D02*
X8723214Y-24690839D01*
X8594643Y-24990839D01*
X8823214Y-24690839D02*
X8823214Y-24747982D01*
X8937500Y-24690839D02*
X8937500Y-24747982D01*
X9380357Y-25105125D02*
X9366071Y-25090839D01*
X9337500Y-25047982D01*
X9323214Y-25019411D01*
X9308928Y-24976554D01*
X9294643Y-24905125D01*
X9294643Y-24847982D01*
X9308928Y-24776554D01*
X9323214Y-24733696D01*
X9337500Y-24705125D01*
X9366071Y-24662268D01*
X9380357Y-24647982D01*
X9651786Y-24990839D02*
X9480357Y-24990839D01*
X9566071Y-24990839D02*
X9566071Y-24690839D01*
X9537500Y-24733696D01*
X9508928Y-24762268D01*
X9480357Y-24776554D01*
X10008928Y-24990839D02*
X10008928Y-24690839D01*
X10137500Y-24990839D02*
X10137500Y-24833696D01*
X10123214Y-24805125D01*
X10094643Y-24790839D01*
X10051786Y-24790839D01*
X10023214Y-24805125D01*
X10008928Y-24819411D01*
X10323214Y-24990839D02*
X10294643Y-24976554D01*
X10280357Y-24962268D01*
X10266071Y-24933696D01*
X10266071Y-24847982D01*
X10280357Y-24819411D01*
X10294643Y-24805125D01*
X10323214Y-24790839D01*
X10366071Y-24790839D01*
X10394643Y-24805125D01*
X10408928Y-24819411D01*
X10423214Y-24847982D01*
X10423214Y-24933696D01*
X10408928Y-24962268D01*
X10394643Y-24976554D01*
X10366071Y-24990839D01*
X10323214Y-24990839D01*
X10594643Y-24990839D02*
X10566071Y-24976554D01*
X10551786Y-24947982D01*
X10551786Y-24690839D01*
X10823214Y-24976554D02*
X10794643Y-24990839D01*
X10737500Y-24990839D01*
X10708928Y-24976554D01*
X10694643Y-24947982D01*
X10694643Y-24833696D01*
X10708928Y-24805125D01*
X10737500Y-24790839D01*
X10794643Y-24790839D01*
X10823214Y-24805125D01*
X10837500Y-24833696D01*
X10837500Y-24862268D01*
X10694643Y-24890839D01*
X10937500Y-25105125D02*
X10951786Y-25090839D01*
X10980357Y-25047982D01*
X10994643Y-25019411D01*
X11008928Y-24976554D01*
X11023214Y-24905125D01*
X11023214Y-24847982D01*
X11008928Y-24776554D01*
X10994643Y-24733696D01*
X10980357Y-24705125D01*
X10951786Y-24662268D01*
X10937500Y-24647982D01*
X4113713Y-25272338D02*
X4113713Y-25229912D01*
X4071286Y-25229912D01*
X4071286Y-25272338D01*
X4113713Y-25272338D01*
X4466071Y-25086839D02*
X4494643Y-25086839D01*
X4523214Y-25101125D01*
X4537500Y-25115411D01*
X4551786Y-25143982D01*
X4566071Y-25201125D01*
X4566071Y-25272554D01*
X4551786Y-25329696D01*
X4537500Y-25358268D01*
X4523214Y-25372554D01*
X4494643Y-25386839D01*
X4466071Y-25386839D01*
X4437500Y-25372554D01*
X4423214Y-25358268D01*
X4408928Y-25329696D01*
X4394643Y-25272554D01*
X4394643Y-25201125D01*
X4408928Y-25143982D01*
X4423214Y-25115411D01*
X4437500Y-25101125D01*
X4466071Y-25086839D01*
X4694643Y-25358268D02*
X4708928Y-25372554D01*
X4694643Y-25386839D01*
X4680357Y-25372554D01*
X4694643Y-25358268D01*
X4694643Y-25386839D01*
X4966071Y-25086839D02*
X4908928Y-25086839D01*
X4880357Y-25101125D01*
X4866071Y-25115411D01*
X4837500Y-25158268D01*
X4823214Y-25215411D01*
X4823214Y-25329696D01*
X4837500Y-25358268D01*
X4851786Y-25372554D01*
X4880357Y-25386839D01*
X4937500Y-25386839D01*
X4966071Y-25372554D01*
X4980357Y-25358268D01*
X4994643Y-25329696D01*
X4994643Y-25258268D01*
X4980357Y-25229696D01*
X4966071Y-25215411D01*
X4937500Y-25201125D01*
X4880357Y-25201125D01*
X4851786Y-25215411D01*
X4837500Y-25229696D01*
X4823214Y-25258268D01*
X5180357Y-25086839D02*
X5208928Y-25086839D01*
X5237500Y-25101125D01*
X5251786Y-25115411D01*
X5266071Y-25143982D01*
X5280357Y-25201125D01*
X5280357Y-25272554D01*
X5266071Y-25329696D01*
X5251786Y-25358268D01*
X5237500Y-25372554D01*
X5208928Y-25386839D01*
X5180357Y-25386839D01*
X5151786Y-25372554D01*
X5137500Y-25358268D01*
X5123214Y-25329696D01*
X5108928Y-25272554D01*
X5108928Y-25201125D01*
X5123214Y-25143982D01*
X5137500Y-25115411D01*
X5151786Y-25101125D01*
X5180357Y-25086839D01*
X5466071Y-25086839D02*
X5494643Y-25086839D01*
X5523214Y-25101125D01*
X5537500Y-25115411D01*
X5551786Y-25143982D01*
X5566071Y-25201125D01*
X5566071Y-25272554D01*
X5551786Y-25329696D01*
X5537500Y-25358268D01*
X5523214Y-25372554D01*
X5494643Y-25386839D01*
X5466071Y-25386839D01*
X5437500Y-25372554D01*
X5423214Y-25358268D01*
X5408928Y-25329696D01*
X5394643Y-25272554D01*
X5394643Y-25201125D01*
X5408928Y-25143982D01*
X5423214Y-25115411D01*
X5437500Y-25101125D01*
X5466071Y-25086839D01*
X5694643Y-25386839D02*
X5694643Y-25186839D01*
X5694643Y-25215411D02*
X5708928Y-25201125D01*
X5737500Y-25186839D01*
X5780357Y-25186839D01*
X5808928Y-25201125D01*
X5823214Y-25229696D01*
X5823214Y-25386839D01*
X5823214Y-25229696D02*
X5837500Y-25201125D01*
X5866071Y-25186839D01*
X5908928Y-25186839D01*
X5937500Y-25201125D01*
X5951786Y-25229696D01*
X5951786Y-25386839D01*
X6094643Y-25386839D02*
X6094643Y-25186839D01*
X6094643Y-25215411D02*
X6108928Y-25201125D01*
X6137500Y-25186839D01*
X6180357Y-25186839D01*
X6208928Y-25201125D01*
X6223214Y-25229696D01*
X6223214Y-25386839D01*
X6223214Y-25229696D02*
X6237500Y-25201125D01*
X6266071Y-25186839D01*
X6308928Y-25186839D01*
X6337500Y-25201125D01*
X6351786Y-25229696D01*
X6351786Y-25386839D01*
X6937500Y-25072554D02*
X6680357Y-25458268D01*
X7323214Y-25086839D02*
X7351786Y-25086839D01*
X7380357Y-25101125D01*
X7394643Y-25115411D01*
X7408928Y-25143982D01*
X7423214Y-25201125D01*
X7423214Y-25272554D01*
X7408928Y-25329696D01*
X7394643Y-25358268D01*
X7380357Y-25372554D01*
X7351786Y-25386839D01*
X7323214Y-25386839D01*
X7294643Y-25372554D01*
X7280357Y-25358268D01*
X7266071Y-25329696D01*
X7251786Y-25272554D01*
X7251786Y-25201125D01*
X7266071Y-25143982D01*
X7280357Y-25115411D01*
X7294643Y-25101125D01*
X7323214Y-25086839D01*
X7551786Y-25358268D02*
X7566071Y-25372554D01*
X7551786Y-25386839D01*
X7537500Y-25372554D01*
X7551786Y-25358268D01*
X7551786Y-25386839D01*
X7751786Y-25086839D02*
X7780357Y-25086839D01*
X7808928Y-25101125D01*
X7823214Y-25115411D01*
X7837500Y-25143982D01*
X7851786Y-25201125D01*
X7851786Y-25272554D01*
X7837500Y-25329696D01*
X7823214Y-25358268D01*
X7808928Y-25372554D01*
X7780357Y-25386839D01*
X7751786Y-25386839D01*
X7723214Y-25372554D01*
X7708928Y-25358268D01*
X7694643Y-25329696D01*
X7680357Y-25272554D01*
X7680357Y-25201125D01*
X7694643Y-25143982D01*
X7708928Y-25115411D01*
X7723214Y-25101125D01*
X7751786Y-25086839D01*
X7966071Y-25115411D02*
X7980357Y-25101125D01*
X8008928Y-25086839D01*
X8080357Y-25086839D01*
X8108928Y-25101125D01*
X8123214Y-25115411D01*
X8137500Y-25143982D01*
X8137500Y-25172554D01*
X8123214Y-25215411D01*
X7951786Y-25386839D01*
X8137500Y-25386839D01*
X8237500Y-25086839D02*
X8423214Y-25086839D01*
X8323214Y-25201125D01*
X8366071Y-25201125D01*
X8394643Y-25215411D01*
X8408928Y-25229696D01*
X8423214Y-25258268D01*
X8423214Y-25329696D01*
X8408928Y-25358268D01*
X8394643Y-25372554D01*
X8366071Y-25386839D01*
X8280357Y-25386839D01*
X8251786Y-25372554D01*
X8237500Y-25358268D01*
X8680357Y-25086839D02*
X8623214Y-25086839D01*
X8594643Y-25101125D01*
X8580357Y-25115411D01*
X8551786Y-25158268D01*
X8537500Y-25215411D01*
X8537500Y-25329696D01*
X8551786Y-25358268D01*
X8566071Y-25372554D01*
X8594643Y-25386839D01*
X8651786Y-25386839D01*
X8680357Y-25372554D01*
X8694643Y-25358268D01*
X8708928Y-25329696D01*
X8708928Y-25258268D01*
X8694643Y-25229696D01*
X8680357Y-25215411D01*
X8651786Y-25201125D01*
X8594643Y-25201125D01*
X8566071Y-25215411D01*
X8551786Y-25229696D01*
X8537500Y-25258268D01*
X8823214Y-25086839D02*
X8823214Y-25143982D01*
X8937500Y-25086839D02*
X8937500Y-25143982D01*
X9380357Y-25501125D02*
X9366071Y-25486839D01*
X9337500Y-25443982D01*
X9323214Y-25415411D01*
X9308928Y-25372554D01*
X9294643Y-25301125D01*
X9294643Y-25243982D01*
X9308928Y-25172554D01*
X9323214Y-25129696D01*
X9337500Y-25101125D01*
X9366071Y-25058268D01*
X9380357Y-25043982D01*
X9551786Y-25086839D02*
X9580357Y-25086839D01*
X9608928Y-25101125D01*
X9623214Y-25115411D01*
X9637500Y-25143982D01*
X9651786Y-25201125D01*
X9651786Y-25272554D01*
X9637500Y-25329696D01*
X9623214Y-25358268D01*
X9608928Y-25372554D01*
X9580357Y-25386839D01*
X9551786Y-25386839D01*
X9523214Y-25372554D01*
X9508928Y-25358268D01*
X9494643Y-25329696D01*
X9480357Y-25272554D01*
X9480357Y-25201125D01*
X9494643Y-25143982D01*
X9508928Y-25115411D01*
X9523214Y-25101125D01*
X9551786Y-25086839D01*
X10008928Y-25386839D02*
X10008928Y-25086839D01*
X10137500Y-25386839D02*
X10137500Y-25229696D01*
X10123214Y-25201125D01*
X10094643Y-25186839D01*
X10051786Y-25186839D01*
X10023214Y-25201125D01*
X10008928Y-25215411D01*
X10323214Y-25386839D02*
X10294643Y-25372554D01*
X10280357Y-25358268D01*
X10266071Y-25329696D01*
X10266071Y-25243982D01*
X10280357Y-25215411D01*
X10294643Y-25201125D01*
X10323214Y-25186839D01*
X10366071Y-25186839D01*
X10394643Y-25201125D01*
X10408928Y-25215411D01*
X10423214Y-25243982D01*
X10423214Y-25329696D01*
X10408928Y-25358268D01*
X10394643Y-25372554D01*
X10366071Y-25386839D01*
X10323214Y-25386839D01*
X10594643Y-25386839D02*
X10566071Y-25372554D01*
X10551786Y-25343982D01*
X10551786Y-25086839D01*
X10823214Y-25372554D02*
X10794643Y-25386839D01*
X10737500Y-25386839D01*
X10708928Y-25372554D01*
X10694643Y-25343982D01*
X10694643Y-25229696D01*
X10708928Y-25201125D01*
X10737500Y-25186839D01*
X10794643Y-25186839D01*
X10823214Y-25201125D01*
X10837500Y-25229696D01*
X10837500Y-25258268D01*
X10694643Y-25286839D01*
X10951786Y-25372554D02*
X10980357Y-25386839D01*
X11037500Y-25386839D01*
X11066071Y-25372554D01*
X11080357Y-25343982D01*
X11080357Y-25329696D01*
X11066071Y-25301125D01*
X11037500Y-25286839D01*
X10994643Y-25286839D01*
X10966071Y-25272554D01*
X10951786Y-25243982D01*
X10951786Y-25229696D01*
X10966071Y-25201125D01*
X10994643Y-25186839D01*
X11037500Y-25186839D01*
X11066071Y-25201125D01*
X11437500Y-25272554D02*
X11666071Y-25272554D01*
X11551786Y-25386839D02*
X11551786Y-25158268D01*
X12166071Y-25186839D02*
X12166071Y-25386839D01*
X12094643Y-25072554D02*
X12023214Y-25286839D01*
X12208928Y-25286839D01*
X12537500Y-25372554D02*
X12566071Y-25386839D01*
X12623214Y-25386839D01*
X12651786Y-25372554D01*
X12666071Y-25343982D01*
X12666071Y-25329696D01*
X12651786Y-25301125D01*
X12623214Y-25286839D01*
X12580357Y-25286839D01*
X12551786Y-25272554D01*
X12537500Y-25243982D01*
X12537500Y-25229696D01*
X12551786Y-25201125D01*
X12580357Y-25186839D01*
X12623214Y-25186839D01*
X12651786Y-25201125D01*
X12837500Y-25386839D02*
X12808928Y-25372554D01*
X12794643Y-25343982D01*
X12794643Y-25086839D01*
X12994643Y-25386839D02*
X12966071Y-25372554D01*
X12951786Y-25358268D01*
X12937500Y-25329696D01*
X12937500Y-25243982D01*
X12951786Y-25215411D01*
X12966071Y-25201125D01*
X12994643Y-25186839D01*
X13037500Y-25186839D01*
X13066071Y-25201125D01*
X13080357Y-25215411D01*
X13094643Y-25243982D01*
X13094643Y-25329696D01*
X13080357Y-25358268D01*
X13066071Y-25372554D01*
X13037500Y-25386839D01*
X12994643Y-25386839D01*
X13180357Y-25186839D02*
X13294643Y-25186839D01*
X13223214Y-25086839D02*
X13223214Y-25343982D01*
X13237500Y-25372554D01*
X13266071Y-25386839D01*
X13294643Y-25386839D01*
X13380357Y-25372554D02*
X13408928Y-25386839D01*
X13466071Y-25386839D01*
X13494643Y-25372554D01*
X13508928Y-25343982D01*
X13508928Y-25329696D01*
X13494643Y-25301125D01*
X13466071Y-25286839D01*
X13423214Y-25286839D01*
X13394643Y-25272554D01*
X13380357Y-25243982D01*
X13380357Y-25229696D01*
X13394643Y-25201125D01*
X13423214Y-25186839D01*
X13466071Y-25186839D01*
X13494643Y-25201125D01*
X13608928Y-25501125D02*
X13623214Y-25486839D01*
X13651786Y-25443982D01*
X13666071Y-25415411D01*
X13680357Y-25372554D01*
X13694643Y-25301125D01*
X13694643Y-25243982D01*
X13680357Y-25172554D01*
X13666071Y-25129696D01*
X13651786Y-25101125D01*
X13623214Y-25058268D01*
X13608928Y-25043982D01*
X4072500Y-25697125D02*
X4122500Y-25647125D01*
X4072500Y-25597125D01*
X4022500Y-25647125D01*
X4072500Y-25697125D01*
X4566071Y-25782839D02*
X4394643Y-25782839D01*
X4480357Y-25782839D02*
X4480357Y-25482839D01*
X4451786Y-25525696D01*
X4423214Y-25554268D01*
X4394643Y-25568554D01*
X4694643Y-25754268D02*
X4708928Y-25768554D01*
X4694643Y-25782839D01*
X4680357Y-25768554D01*
X4694643Y-25754268D01*
X4694643Y-25782839D01*
X4894643Y-25482839D02*
X4923214Y-25482839D01*
X4951786Y-25497125D01*
X4966071Y-25511411D01*
X4980357Y-25539982D01*
X4994643Y-25597125D01*
X4994643Y-25668554D01*
X4980357Y-25725696D01*
X4966071Y-25754268D01*
X4951786Y-25768554D01*
X4923214Y-25782839D01*
X4894643Y-25782839D01*
X4866071Y-25768554D01*
X4851786Y-25754268D01*
X4837500Y-25725696D01*
X4823214Y-25668554D01*
X4823214Y-25597125D01*
X4837500Y-25539982D01*
X4851786Y-25511411D01*
X4866071Y-25497125D01*
X4894643Y-25482839D01*
X5180357Y-25482839D02*
X5208928Y-25482839D01*
X5237500Y-25497125D01*
X5251786Y-25511411D01*
X5266071Y-25539982D01*
X5280357Y-25597125D01*
X5280357Y-25668554D01*
X5266071Y-25725696D01*
X5251786Y-25754268D01*
X5237500Y-25768554D01*
X5208928Y-25782839D01*
X5180357Y-25782839D01*
X5151786Y-25768554D01*
X5137500Y-25754268D01*
X5123214Y-25725696D01*
X5108928Y-25668554D01*
X5108928Y-25597125D01*
X5123214Y-25539982D01*
X5137500Y-25511411D01*
X5151786Y-25497125D01*
X5180357Y-25482839D01*
X5466071Y-25482839D02*
X5494643Y-25482839D01*
X5523214Y-25497125D01*
X5537500Y-25511411D01*
X5551786Y-25539982D01*
X5566071Y-25597125D01*
X5566071Y-25668554D01*
X5551786Y-25725696D01*
X5537500Y-25754268D01*
X5523214Y-25768554D01*
X5494643Y-25782839D01*
X5466071Y-25782839D01*
X5437500Y-25768554D01*
X5423214Y-25754268D01*
X5408928Y-25725696D01*
X5394643Y-25668554D01*
X5394643Y-25597125D01*
X5408928Y-25539982D01*
X5423214Y-25511411D01*
X5437500Y-25497125D01*
X5466071Y-25482839D01*
X5694643Y-25782839D02*
X5694643Y-25582839D01*
X5694643Y-25611411D02*
X5708928Y-25597125D01*
X5737500Y-25582839D01*
X5780357Y-25582839D01*
X5808928Y-25597125D01*
X5823214Y-25625696D01*
X5823214Y-25782839D01*
X5823214Y-25625696D02*
X5837500Y-25597125D01*
X5866071Y-25582839D01*
X5908928Y-25582839D01*
X5937500Y-25597125D01*
X5951786Y-25625696D01*
X5951786Y-25782839D01*
X6094643Y-25782839D02*
X6094643Y-25582839D01*
X6094643Y-25611411D02*
X6108928Y-25597125D01*
X6137500Y-25582839D01*
X6180357Y-25582839D01*
X6208928Y-25597125D01*
X6223214Y-25625696D01*
X6223214Y-25782839D01*
X6223214Y-25625696D02*
X6237500Y-25597125D01*
X6266071Y-25582839D01*
X6308928Y-25582839D01*
X6337500Y-25597125D01*
X6351786Y-25625696D01*
X6351786Y-25782839D01*
X6937500Y-25468554D02*
X6680357Y-25854268D01*
X7323214Y-25482839D02*
X7351786Y-25482839D01*
X7380357Y-25497125D01*
X7394643Y-25511411D01*
X7408928Y-25539982D01*
X7423214Y-25597125D01*
X7423214Y-25668554D01*
X7408928Y-25725696D01*
X7394643Y-25754268D01*
X7380357Y-25768554D01*
X7351786Y-25782839D01*
X7323214Y-25782839D01*
X7294643Y-25768554D01*
X7280357Y-25754268D01*
X7266071Y-25725696D01*
X7251786Y-25668554D01*
X7251786Y-25597125D01*
X7266071Y-25539982D01*
X7280357Y-25511411D01*
X7294643Y-25497125D01*
X7323214Y-25482839D01*
X7551786Y-25754268D02*
X7566071Y-25768554D01*
X7551786Y-25782839D01*
X7537500Y-25768554D01*
X7551786Y-25754268D01*
X7551786Y-25782839D01*
X7751786Y-25482839D02*
X7780357Y-25482839D01*
X7808928Y-25497125D01*
X7823214Y-25511411D01*
X7837500Y-25539982D01*
X7851786Y-25597125D01*
X7851786Y-25668554D01*
X7837500Y-25725696D01*
X7823214Y-25754268D01*
X7808928Y-25768554D01*
X7780357Y-25782839D01*
X7751786Y-25782839D01*
X7723214Y-25768554D01*
X7708928Y-25754268D01*
X7694643Y-25725696D01*
X7680357Y-25668554D01*
X7680357Y-25597125D01*
X7694643Y-25539982D01*
X7708928Y-25511411D01*
X7723214Y-25497125D01*
X7751786Y-25482839D01*
X7951786Y-25482839D02*
X8137500Y-25482839D01*
X8037500Y-25597125D01*
X8080357Y-25597125D01*
X8108928Y-25611411D01*
X8123214Y-25625696D01*
X8137500Y-25654268D01*
X8137500Y-25725696D01*
X8123214Y-25754268D01*
X8108928Y-25768554D01*
X8080357Y-25782839D01*
X7994643Y-25782839D01*
X7966071Y-25768554D01*
X7951786Y-25754268D01*
X8280357Y-25782839D02*
X8337500Y-25782839D01*
X8366071Y-25768554D01*
X8380357Y-25754268D01*
X8408928Y-25711411D01*
X8423214Y-25654268D01*
X8423214Y-25539982D01*
X8408928Y-25511411D01*
X8394643Y-25497125D01*
X8366071Y-25482839D01*
X8308928Y-25482839D01*
X8280357Y-25497125D01*
X8266071Y-25511411D01*
X8251786Y-25539982D01*
X8251786Y-25611411D01*
X8266071Y-25639982D01*
X8280357Y-25654268D01*
X8308928Y-25668554D01*
X8366071Y-25668554D01*
X8394643Y-25654268D01*
X8408928Y-25639982D01*
X8423214Y-25611411D01*
X8680357Y-25582839D02*
X8680357Y-25782839D01*
X8608928Y-25468554D02*
X8537500Y-25682839D01*
X8723214Y-25682839D01*
X8823214Y-25482839D02*
X8823214Y-25539982D01*
X8937500Y-25482839D02*
X8937500Y-25539982D01*
X9380357Y-25897125D02*
X9366071Y-25882839D01*
X9337500Y-25839982D01*
X9323214Y-25811411D01*
X9308928Y-25768554D01*
X9294643Y-25697125D01*
X9294643Y-25639982D01*
X9308928Y-25568554D01*
X9323214Y-25525696D01*
X9337500Y-25497125D01*
X9366071Y-25454268D01*
X9380357Y-25439982D01*
X9466071Y-25482839D02*
X9651786Y-25482839D01*
X9551786Y-25597125D01*
X9594643Y-25597125D01*
X9623214Y-25611411D01*
X9637500Y-25625696D01*
X9651786Y-25654268D01*
X9651786Y-25725696D01*
X9637500Y-25754268D01*
X9623214Y-25768554D01*
X9594643Y-25782839D01*
X9508928Y-25782839D01*
X9480357Y-25768554D01*
X9466071Y-25754268D01*
X9751786Y-25482839D02*
X9951786Y-25482839D01*
X9823214Y-25782839D01*
X10294643Y-25782839D02*
X10294643Y-25482839D01*
X10423214Y-25782839D02*
X10423214Y-25625696D01*
X10408928Y-25597125D01*
X10380357Y-25582839D01*
X10337500Y-25582839D01*
X10308928Y-25597125D01*
X10294643Y-25611411D01*
X10608928Y-25782839D02*
X10580357Y-25768554D01*
X10566071Y-25754268D01*
X10551786Y-25725696D01*
X10551786Y-25639982D01*
X10566071Y-25611411D01*
X10580357Y-25597125D01*
X10608928Y-25582839D01*
X10651786Y-25582839D01*
X10680357Y-25597125D01*
X10694643Y-25611411D01*
X10708928Y-25639982D01*
X10708928Y-25725696D01*
X10694643Y-25754268D01*
X10680357Y-25768554D01*
X10651786Y-25782839D01*
X10608928Y-25782839D01*
X10880357Y-25782839D02*
X10851786Y-25768554D01*
X10837500Y-25739982D01*
X10837500Y-25482839D01*
X11108928Y-25768554D02*
X11080357Y-25782839D01*
X11023214Y-25782839D01*
X10994643Y-25768554D01*
X10980357Y-25739982D01*
X10980357Y-25625696D01*
X10994643Y-25597125D01*
X11023214Y-25582839D01*
X11080357Y-25582839D01*
X11108928Y-25597125D01*
X11123214Y-25625696D01*
X11123214Y-25654268D01*
X10980357Y-25682839D01*
X11237500Y-25768554D02*
X11266071Y-25782839D01*
X11323214Y-25782839D01*
X11351786Y-25768554D01*
X11366071Y-25739982D01*
X11366071Y-25725696D01*
X11351786Y-25697125D01*
X11323214Y-25682839D01*
X11280357Y-25682839D01*
X11251786Y-25668554D01*
X11237500Y-25639982D01*
X11237500Y-25625696D01*
X11251786Y-25597125D01*
X11280357Y-25582839D01*
X11323214Y-25582839D01*
X11351786Y-25597125D01*
X11466071Y-25897125D02*
X11480357Y-25882839D01*
X11508928Y-25839982D01*
X11523214Y-25811411D01*
X11537500Y-25768554D01*
X11551786Y-25697125D01*
X11551786Y-25639982D01*
X11537500Y-25568554D01*
X11523214Y-25525696D01*
X11508928Y-25497125D01*
X11480357Y-25454268D01*
X11466071Y-25439982D01*
X3902500Y-25933125D02*
X4122500Y-26153125D01*
X4122500Y-25933125D02*
X3902500Y-26153125D01*
X4122500Y-26043125D02*
G75*
G03*
X4122500Y-26043125I-110000J0D01*
G01*
X4394643Y-25907411D02*
X4408928Y-25893125D01*
X4437500Y-25878839D01*
X4508928Y-25878839D01*
X4537500Y-25893125D01*
X4551786Y-25907411D01*
X4566071Y-25935982D01*
X4566071Y-25964554D01*
X4551786Y-26007411D01*
X4380357Y-26178839D01*
X4566071Y-26178839D01*
X4694643Y-26150268D02*
X4708928Y-26164554D01*
X4694643Y-26178839D01*
X4680357Y-26164554D01*
X4694643Y-26150268D01*
X4694643Y-26178839D01*
X4823214Y-25907411D02*
X4837500Y-25893125D01*
X4866071Y-25878839D01*
X4937500Y-25878839D01*
X4966071Y-25893125D01*
X4980357Y-25907411D01*
X4994643Y-25935982D01*
X4994643Y-25964554D01*
X4980357Y-26007411D01*
X4808928Y-26178839D01*
X4994643Y-26178839D01*
X5180357Y-25878839D02*
X5208928Y-25878839D01*
X5237500Y-25893125D01*
X5251786Y-25907411D01*
X5266071Y-25935982D01*
X5280357Y-25993125D01*
X5280357Y-26064554D01*
X5266071Y-26121696D01*
X5251786Y-26150268D01*
X5237500Y-26164554D01*
X5208928Y-26178839D01*
X5180357Y-26178839D01*
X5151786Y-26164554D01*
X5137500Y-26150268D01*
X5123214Y-26121696D01*
X5108928Y-26064554D01*
X5108928Y-25993125D01*
X5123214Y-25935982D01*
X5137500Y-25907411D01*
X5151786Y-25893125D01*
X5180357Y-25878839D01*
X5466071Y-25878839D02*
X5494643Y-25878839D01*
X5523214Y-25893125D01*
X5537500Y-25907411D01*
X5551786Y-25935982D01*
X5566071Y-25993125D01*
X5566071Y-26064554D01*
X5551786Y-26121696D01*
X5537500Y-26150268D01*
X5523214Y-26164554D01*
X5494643Y-26178839D01*
X5466071Y-26178839D01*
X5437500Y-26164554D01*
X5423214Y-26150268D01*
X5408928Y-26121696D01*
X5394643Y-26064554D01*
X5394643Y-25993125D01*
X5408928Y-25935982D01*
X5423214Y-25907411D01*
X5437500Y-25893125D01*
X5466071Y-25878839D01*
X5694643Y-26178839D02*
X5694643Y-25978839D01*
X5694643Y-26007411D02*
X5708928Y-25993125D01*
X5737500Y-25978839D01*
X5780357Y-25978839D01*
X5808928Y-25993125D01*
X5823214Y-26021696D01*
X5823214Y-26178839D01*
X5823214Y-26021696D02*
X5837500Y-25993125D01*
X5866071Y-25978839D01*
X5908928Y-25978839D01*
X5937500Y-25993125D01*
X5951786Y-26021696D01*
X5951786Y-26178839D01*
X6094643Y-26178839D02*
X6094643Y-25978839D01*
X6094643Y-26007411D02*
X6108928Y-25993125D01*
X6137500Y-25978839D01*
X6180357Y-25978839D01*
X6208928Y-25993125D01*
X6223214Y-26021696D01*
X6223214Y-26178839D01*
X6223214Y-26021696D02*
X6237500Y-25993125D01*
X6266071Y-25978839D01*
X6308928Y-25978839D01*
X6337500Y-25993125D01*
X6351786Y-26021696D01*
X6351786Y-26178839D01*
X6937500Y-25864554D02*
X6680357Y-26250268D01*
X7323214Y-25878839D02*
X7351786Y-25878839D01*
X7380357Y-25893125D01*
X7394643Y-25907411D01*
X7408928Y-25935982D01*
X7423214Y-25993125D01*
X7423214Y-26064554D01*
X7408928Y-26121696D01*
X7394643Y-26150268D01*
X7380357Y-26164554D01*
X7351786Y-26178839D01*
X7323214Y-26178839D01*
X7294643Y-26164554D01*
X7280357Y-26150268D01*
X7266071Y-26121696D01*
X7251786Y-26064554D01*
X7251786Y-25993125D01*
X7266071Y-25935982D01*
X7280357Y-25907411D01*
X7294643Y-25893125D01*
X7323214Y-25878839D01*
X7551786Y-26150268D02*
X7566071Y-26164554D01*
X7551786Y-26178839D01*
X7537500Y-26164554D01*
X7551786Y-26150268D01*
X7551786Y-26178839D01*
X7751786Y-25878839D02*
X7780357Y-25878839D01*
X7808928Y-25893125D01*
X7823214Y-25907411D01*
X7837500Y-25935982D01*
X7851786Y-25993125D01*
X7851786Y-26064554D01*
X7837500Y-26121696D01*
X7823214Y-26150268D01*
X7808928Y-26164554D01*
X7780357Y-26178839D01*
X7751786Y-26178839D01*
X7723214Y-26164554D01*
X7708928Y-26150268D01*
X7694643Y-26121696D01*
X7680357Y-26064554D01*
X7680357Y-25993125D01*
X7694643Y-25935982D01*
X7708928Y-25907411D01*
X7723214Y-25893125D01*
X7751786Y-25878839D01*
X8023214Y-26007411D02*
X7994643Y-25993125D01*
X7980357Y-25978839D01*
X7966071Y-25950268D01*
X7966071Y-25935982D01*
X7980357Y-25907411D01*
X7994643Y-25893125D01*
X8023214Y-25878839D01*
X8080357Y-25878839D01*
X8108928Y-25893125D01*
X8123214Y-25907411D01*
X8137500Y-25935982D01*
X8137500Y-25950268D01*
X8123214Y-25978839D01*
X8108928Y-25993125D01*
X8080357Y-26007411D01*
X8023214Y-26007411D01*
X7994643Y-26021696D01*
X7980357Y-26035982D01*
X7966071Y-26064554D01*
X7966071Y-26121696D01*
X7980357Y-26150268D01*
X7994643Y-26164554D01*
X8023214Y-26178839D01*
X8080357Y-26178839D01*
X8108928Y-26164554D01*
X8123214Y-26150268D01*
X8137500Y-26121696D01*
X8137500Y-26064554D01*
X8123214Y-26035982D01*
X8108928Y-26021696D01*
X8080357Y-26007411D01*
X8394643Y-25878839D02*
X8337500Y-25878839D01*
X8308928Y-25893125D01*
X8294643Y-25907411D01*
X8266071Y-25950268D01*
X8251786Y-26007411D01*
X8251786Y-26121696D01*
X8266071Y-26150268D01*
X8280357Y-26164554D01*
X8308928Y-26178839D01*
X8366071Y-26178839D01*
X8394643Y-26164554D01*
X8408928Y-26150268D01*
X8423214Y-26121696D01*
X8423214Y-26050268D01*
X8408928Y-26021696D01*
X8394643Y-26007411D01*
X8366071Y-25993125D01*
X8308928Y-25993125D01*
X8280357Y-26007411D01*
X8266071Y-26021696D01*
X8251786Y-26050268D01*
X8680357Y-25878839D02*
X8623214Y-25878839D01*
X8594643Y-25893125D01*
X8580357Y-25907411D01*
X8551786Y-25950268D01*
X8537500Y-26007411D01*
X8537500Y-26121696D01*
X8551786Y-26150268D01*
X8566071Y-26164554D01*
X8594643Y-26178839D01*
X8651786Y-26178839D01*
X8680357Y-26164554D01*
X8694643Y-26150268D01*
X8708928Y-26121696D01*
X8708928Y-26050268D01*
X8694643Y-26021696D01*
X8680357Y-26007411D01*
X8651786Y-25993125D01*
X8594643Y-25993125D01*
X8566071Y-26007411D01*
X8551786Y-26021696D01*
X8537500Y-26050268D01*
X8823214Y-25878839D02*
X8823214Y-25935982D01*
X8937500Y-25878839D02*
X8937500Y-25935982D01*
X9380357Y-26293125D02*
X9366071Y-26278839D01*
X9337500Y-26235982D01*
X9323214Y-26207411D01*
X9308928Y-26164554D01*
X9294643Y-26093125D01*
X9294643Y-26035982D01*
X9308928Y-25964554D01*
X9323214Y-25921696D01*
X9337500Y-25893125D01*
X9366071Y-25850268D01*
X9380357Y-25835982D01*
X9480357Y-25907411D02*
X9494643Y-25893125D01*
X9523214Y-25878839D01*
X9594643Y-25878839D01*
X9623214Y-25893125D01*
X9637500Y-25907411D01*
X9651786Y-25935982D01*
X9651786Y-25964554D01*
X9637500Y-26007411D01*
X9466071Y-26178839D01*
X9651786Y-26178839D01*
X9766071Y-25907411D02*
X9780357Y-25893125D01*
X9808928Y-25878839D01*
X9880357Y-25878839D01*
X9908928Y-25893125D01*
X9923214Y-25907411D01*
X9937500Y-25935982D01*
X9937500Y-25964554D01*
X9923214Y-26007411D01*
X9751786Y-26178839D01*
X9937500Y-26178839D01*
X10294643Y-26178839D02*
X10294643Y-25878839D01*
X10423214Y-26178839D02*
X10423214Y-26021696D01*
X10408928Y-25993125D01*
X10380357Y-25978839D01*
X10337500Y-25978839D01*
X10308928Y-25993125D01*
X10294643Y-26007411D01*
X10608928Y-26178839D02*
X10580357Y-26164554D01*
X10566071Y-26150268D01*
X10551786Y-26121696D01*
X10551786Y-26035982D01*
X10566071Y-26007411D01*
X10580357Y-25993125D01*
X10608928Y-25978839D01*
X10651786Y-25978839D01*
X10680357Y-25993125D01*
X10694643Y-26007411D01*
X10708928Y-26035982D01*
X10708928Y-26121696D01*
X10694643Y-26150268D01*
X10680357Y-26164554D01*
X10651786Y-26178839D01*
X10608928Y-26178839D01*
X10880357Y-26178839D02*
X10851786Y-26164554D01*
X10837500Y-26135982D01*
X10837500Y-25878839D01*
X11108928Y-26164554D02*
X11080357Y-26178839D01*
X11023214Y-26178839D01*
X10994643Y-26164554D01*
X10980357Y-26135982D01*
X10980357Y-26021696D01*
X10994643Y-25993125D01*
X11023214Y-25978839D01*
X11080357Y-25978839D01*
X11108928Y-25993125D01*
X11123214Y-26021696D01*
X11123214Y-26050268D01*
X10980357Y-26078839D01*
X11237500Y-26164554D02*
X11266071Y-26178839D01*
X11323214Y-26178839D01*
X11351786Y-26164554D01*
X11366071Y-26135982D01*
X11366071Y-26121696D01*
X11351786Y-26093125D01*
X11323214Y-26078839D01*
X11280357Y-26078839D01*
X11251786Y-26064554D01*
X11237500Y-26035982D01*
X11237500Y-26021696D01*
X11251786Y-25993125D01*
X11280357Y-25978839D01*
X11323214Y-25978839D01*
X11351786Y-25993125D01*
X11466071Y-26293125D02*
X11480357Y-26278839D01*
X11508928Y-26235982D01*
X11523214Y-26207411D01*
X11537500Y-26164554D01*
X11551786Y-26093125D01*
X11551786Y-26035982D01*
X11537500Y-25964554D01*
X11523214Y-25921696D01*
X11508928Y-25893125D01*
X11480357Y-25850268D01*
X11466071Y-25835982D01*
X3822500Y-26289125D02*
X4122500Y-26589125D01*
X4122500Y-26289125D02*
X3822500Y-26589125D01*
X3972500Y-26289125D02*
X3972500Y-26589125D01*
X3822500Y-26439125D02*
X4122500Y-26439125D01*
X4380357Y-26274839D02*
X4566071Y-26274839D01*
X4466071Y-26389125D01*
X4508928Y-26389125D01*
X4537500Y-26403411D01*
X4551786Y-26417696D01*
X4566071Y-26446268D01*
X4566071Y-26517696D01*
X4551786Y-26546268D01*
X4537500Y-26560554D01*
X4508928Y-26574839D01*
X4423214Y-26574839D01*
X4394643Y-26560554D01*
X4380357Y-26546268D01*
X4694643Y-26546268D02*
X4708928Y-26560554D01*
X4694643Y-26574839D01*
X4680357Y-26560554D01*
X4694643Y-26546268D01*
X4694643Y-26574839D01*
X4894643Y-26274839D02*
X4923214Y-26274839D01*
X4951786Y-26289125D01*
X4966071Y-26303411D01*
X4980357Y-26331982D01*
X4994643Y-26389125D01*
X4994643Y-26460554D01*
X4980357Y-26517696D01*
X4966071Y-26546268D01*
X4951786Y-26560554D01*
X4923214Y-26574839D01*
X4894643Y-26574839D01*
X4866071Y-26560554D01*
X4851786Y-26546268D01*
X4837500Y-26517696D01*
X4823214Y-26460554D01*
X4823214Y-26389125D01*
X4837500Y-26331982D01*
X4851786Y-26303411D01*
X4866071Y-26289125D01*
X4894643Y-26274839D01*
X5180357Y-26274839D02*
X5208928Y-26274839D01*
X5237500Y-26289125D01*
X5251786Y-26303411D01*
X5266071Y-26331982D01*
X5280357Y-26389125D01*
X5280357Y-26460554D01*
X5266071Y-26517696D01*
X5251786Y-26546268D01*
X5237500Y-26560554D01*
X5208928Y-26574839D01*
X5180357Y-26574839D01*
X5151786Y-26560554D01*
X5137500Y-26546268D01*
X5123214Y-26517696D01*
X5108928Y-26460554D01*
X5108928Y-26389125D01*
X5123214Y-26331982D01*
X5137500Y-26303411D01*
X5151786Y-26289125D01*
X5180357Y-26274839D01*
X5466071Y-26274839D02*
X5494643Y-26274839D01*
X5523214Y-26289125D01*
X5537500Y-26303411D01*
X5551786Y-26331982D01*
X5566071Y-26389125D01*
X5566071Y-26460554D01*
X5551786Y-26517696D01*
X5537500Y-26546268D01*
X5523214Y-26560554D01*
X5494643Y-26574839D01*
X5466071Y-26574839D01*
X5437500Y-26560554D01*
X5423214Y-26546268D01*
X5408928Y-26517696D01*
X5394643Y-26460554D01*
X5394643Y-26389125D01*
X5408928Y-26331982D01*
X5423214Y-26303411D01*
X5437500Y-26289125D01*
X5466071Y-26274839D01*
X5694643Y-26574839D02*
X5694643Y-26374839D01*
X5694643Y-26403411D02*
X5708928Y-26389125D01*
X5737500Y-26374839D01*
X5780357Y-26374839D01*
X5808928Y-26389125D01*
X5823214Y-26417696D01*
X5823214Y-26574839D01*
X5823214Y-26417696D02*
X5837500Y-26389125D01*
X5866071Y-26374839D01*
X5908928Y-26374839D01*
X5937500Y-26389125D01*
X5951786Y-26417696D01*
X5951786Y-26574839D01*
X6094643Y-26574839D02*
X6094643Y-26374839D01*
X6094643Y-26403411D02*
X6108928Y-26389125D01*
X6137500Y-26374839D01*
X6180357Y-26374839D01*
X6208928Y-26389125D01*
X6223214Y-26417696D01*
X6223214Y-26574839D01*
X6223214Y-26417696D02*
X6237500Y-26389125D01*
X6266071Y-26374839D01*
X6308928Y-26374839D01*
X6337500Y-26389125D01*
X6351786Y-26417696D01*
X6351786Y-26574839D01*
X6937500Y-26260554D02*
X6680357Y-26646268D01*
X7323214Y-26274839D02*
X7351786Y-26274839D01*
X7380357Y-26289125D01*
X7394643Y-26303411D01*
X7408928Y-26331982D01*
X7423214Y-26389125D01*
X7423214Y-26460554D01*
X7408928Y-26517696D01*
X7394643Y-26546268D01*
X7380357Y-26560554D01*
X7351786Y-26574839D01*
X7323214Y-26574839D01*
X7294643Y-26560554D01*
X7280357Y-26546268D01*
X7266071Y-26517696D01*
X7251786Y-26460554D01*
X7251786Y-26389125D01*
X7266071Y-26331982D01*
X7280357Y-26303411D01*
X7294643Y-26289125D01*
X7323214Y-26274839D01*
X7551786Y-26546268D02*
X7566071Y-26560554D01*
X7551786Y-26574839D01*
X7537500Y-26560554D01*
X7551786Y-26546268D01*
X7551786Y-26574839D01*
X7851786Y-26574839D02*
X7680357Y-26574839D01*
X7766071Y-26574839D02*
X7766071Y-26274839D01*
X7737500Y-26317696D01*
X7708928Y-26346268D01*
X7680357Y-26360554D01*
X8137500Y-26574839D02*
X7966071Y-26574839D01*
X8051786Y-26574839D02*
X8051786Y-26274839D01*
X8023214Y-26317696D01*
X7994643Y-26346268D01*
X7966071Y-26360554D01*
X8308928Y-26403411D02*
X8280357Y-26389125D01*
X8266071Y-26374839D01*
X8251786Y-26346268D01*
X8251786Y-26331982D01*
X8266071Y-26303411D01*
X8280357Y-26289125D01*
X8308928Y-26274839D01*
X8366071Y-26274839D01*
X8394643Y-26289125D01*
X8408928Y-26303411D01*
X8423214Y-26331982D01*
X8423214Y-26346268D01*
X8408928Y-26374839D01*
X8394643Y-26389125D01*
X8366071Y-26403411D01*
X8308928Y-26403411D01*
X8280357Y-26417696D01*
X8266071Y-26431982D01*
X8251786Y-26460554D01*
X8251786Y-26517696D01*
X8266071Y-26546268D01*
X8280357Y-26560554D01*
X8308928Y-26574839D01*
X8366071Y-26574839D01*
X8394643Y-26560554D01*
X8408928Y-26546268D01*
X8423214Y-26517696D01*
X8423214Y-26460554D01*
X8408928Y-26431982D01*
X8394643Y-26417696D01*
X8366071Y-26403411D01*
X8708928Y-26574839D02*
X8537500Y-26574839D01*
X8623214Y-26574839D02*
X8623214Y-26274839D01*
X8594643Y-26317696D01*
X8566071Y-26346268D01*
X8537500Y-26360554D01*
X8823214Y-26274839D02*
X8823214Y-26331982D01*
X8937500Y-26274839D02*
X8937500Y-26331982D01*
X9380357Y-26689125D02*
X9366071Y-26674839D01*
X9337500Y-26631982D01*
X9323214Y-26603411D01*
X9308928Y-26560554D01*
X9294643Y-26489125D01*
X9294643Y-26431982D01*
X9308928Y-26360554D01*
X9323214Y-26317696D01*
X9337500Y-26289125D01*
X9366071Y-26246268D01*
X9380357Y-26231982D01*
X9480357Y-26303411D02*
X9494643Y-26289125D01*
X9523214Y-26274839D01*
X9594643Y-26274839D01*
X9623214Y-26289125D01*
X9637500Y-26303411D01*
X9651786Y-26331982D01*
X9651786Y-26360554D01*
X9637500Y-26403411D01*
X9466071Y-26574839D01*
X9651786Y-26574839D01*
X9837500Y-26274839D02*
X9866071Y-26274839D01*
X9894643Y-26289125D01*
X9908928Y-26303411D01*
X9923214Y-26331982D01*
X9937500Y-26389125D01*
X9937500Y-26460554D01*
X9923214Y-26517696D01*
X9908928Y-26546268D01*
X9894643Y-26560554D01*
X9866071Y-26574839D01*
X9837500Y-26574839D01*
X9808928Y-26560554D01*
X9794643Y-26546268D01*
X9780357Y-26517696D01*
X9766071Y-26460554D01*
X9766071Y-26389125D01*
X9780357Y-26331982D01*
X9794643Y-26303411D01*
X9808928Y-26289125D01*
X9837500Y-26274839D01*
X10194643Y-26374839D02*
X10194643Y-26574839D01*
X10123214Y-26260554D02*
X10051786Y-26474839D01*
X10237500Y-26474839D01*
X10580357Y-26574839D02*
X10580357Y-26274839D01*
X10708928Y-26574839D02*
X10708928Y-26417696D01*
X10694643Y-26389125D01*
X10666071Y-26374839D01*
X10623214Y-26374839D01*
X10594643Y-26389125D01*
X10580357Y-26403411D01*
X10894643Y-26574839D02*
X10866071Y-26560554D01*
X10851786Y-26546268D01*
X10837500Y-26517696D01*
X10837500Y-26431982D01*
X10851786Y-26403411D01*
X10866071Y-26389125D01*
X10894643Y-26374839D01*
X10937500Y-26374839D01*
X10966071Y-26389125D01*
X10980357Y-26403411D01*
X10994643Y-26431982D01*
X10994643Y-26517696D01*
X10980357Y-26546268D01*
X10966071Y-26560554D01*
X10937500Y-26574839D01*
X10894643Y-26574839D01*
X11166071Y-26574839D02*
X11137500Y-26560554D01*
X11123214Y-26531982D01*
X11123214Y-26274839D01*
X11394643Y-26560554D02*
X11366071Y-26574839D01*
X11308928Y-26574839D01*
X11280357Y-26560554D01*
X11266071Y-26531982D01*
X11266071Y-26417696D01*
X11280357Y-26389125D01*
X11308928Y-26374839D01*
X11366071Y-26374839D01*
X11394643Y-26389125D01*
X11408928Y-26417696D01*
X11408928Y-26446268D01*
X11266071Y-26474839D01*
X11523214Y-26560554D02*
X11551786Y-26574839D01*
X11608928Y-26574839D01*
X11637500Y-26560554D01*
X11651786Y-26531982D01*
X11651786Y-26517696D01*
X11637500Y-26489125D01*
X11608928Y-26474839D01*
X11566071Y-26474839D01*
X11537500Y-26460554D01*
X11523214Y-26431982D01*
X11523214Y-26417696D01*
X11537500Y-26389125D01*
X11566071Y-26374839D01*
X11608928Y-26374839D01*
X11637500Y-26389125D01*
X11751786Y-26689125D02*
X11766071Y-26674839D01*
X11794643Y-26631982D01*
X11808928Y-26603411D01*
X11823214Y-26560554D01*
X11837500Y-26489125D01*
X11837500Y-26431982D01*
X11823214Y-26360554D01*
X11808928Y-26317696D01*
X11794643Y-26289125D01*
X11766071Y-26246268D01*
X11751786Y-26231982D01*
M02*
