M48
; DRILL file {KiCad (5.1.10)-1} date 12/08/21 12:26:15
; FORMAT={-:-/ absolute / inch / decimal}
; #@! TF.CreationDate,2021-12-08T12:26:15-03:00
; #@! TF.GenerationSoftware,Kicad,Pcbnew,(5.1.10)-1
; #@! TF.FileFunction,Plated,1,2,PTH
FMAT,2
INCH
T1C0.0120
T2C0.0157
T3C0.0197
T4C0.0236
T5C0.0394
T6C0.0866
T7C0.1181
%
G90
G05
T1
X13.9235Y-3.7193
X13.97Y-3.7843
X14.0003Y-3.8287
X14.02Y-3.7503
X14.0396Y-3.8287
X14.07Y-3.7843
X14.1165Y-3.7193
T2
X1.65Y-4.8388
X1.65Y-4.8987
X1.65Y-5.5888
X1.65Y-5.6487
X1.65Y-6.3388
X1.65Y-6.3987
X1.65Y-7.0888
X1.65Y-7.1487
X1.65Y-7.8388
X1.65Y-7.8987
X1.65Y-8.5887
X1.65Y-8.6487
X2.3Y-4.7387
X2.3Y-4.7988
X2.3Y-5.4887
X2.3Y-5.5488
X2.3Y-6.2387
X2.3Y-6.2988
X2.3Y-6.9887
X2.3Y-7.0488
X2.3Y-7.7387
X2.3Y-7.7988
X2.3Y-8.4887
X2.3Y-8.5488
X2.4Y-4.8388
X2.4Y-4.8987
X2.4Y-5.5888
X2.4Y-5.6487
X2.4Y-6.3388
X2.4Y-6.3987
X2.4Y-7.0888
X2.4Y-7.1487
X2.4Y-7.8388
X2.4Y-7.8987
X2.4Y-8.5887
X2.4Y-8.6487
X3.05Y-4.7387
X3.05Y-4.7988
X3.05Y-5.4887
X3.05Y-5.5488
X3.05Y-6.2387
X3.05Y-6.2988
X3.05Y-6.9887
X3.05Y-7.0488
X3.05Y-7.7387
X3.05Y-7.7988
X3.05Y-8.4887
X3.05Y-8.5488
X3.15Y-4.8388
X3.15Y-4.8987
X3.15Y-5.5888
X3.15Y-5.6487
X3.15Y-6.3388
X3.15Y-6.3987
X3.15Y-7.0888
X3.15Y-7.1487
X3.15Y-7.8388
X3.15Y-7.8987
X3.15Y-8.5887
X3.15Y-8.6487
X3.8Y-4.7387
X3.8Y-4.7988
X3.8Y-5.4887
X3.8Y-5.5488
X3.8Y-6.2387
X3.8Y-6.2988
X3.8Y-6.9887
X3.8Y-7.0488
X3.8Y-7.7387
X3.8Y-7.7988
X3.8Y-8.4887
X3.8Y-8.5488
X3.9Y-4.8388
X3.9Y-4.8987
X3.9Y-5.5888
X3.9Y-5.6487
X3.9Y-6.3388
X3.9Y-6.3987
X3.9Y-7.0888
X3.9Y-7.1487
X3.9Y-7.8388
X3.9Y-7.8987
X3.9Y-8.5887
X3.9Y-8.6487
X4.55Y-4.7387
X4.55Y-4.7988
X4.55Y-5.4887
X4.55Y-5.5488
X4.55Y-6.2387
X4.55Y-6.2988
X4.55Y-6.9887
X4.55Y-7.0488
X4.55Y-7.7387
X4.55Y-7.7988
X4.55Y-8.4887
X4.55Y-8.5488
X4.65Y-4.8388
X4.65Y-4.8987
X4.65Y-5.5888
X4.65Y-5.6487
X4.65Y-6.3388
X4.65Y-6.3987
X4.65Y-7.0888
X4.65Y-7.1487
X4.65Y-7.8388
X4.65Y-7.8987
X4.65Y-8.5887
X4.65Y-8.6487
X4.765Y-6.065
X4.765Y-6.815
X4.765Y-7.565
X4.765Y-8.315
X4.8Y-4.6125
X4.8Y-5.3625
X4.805Y-6.1175
X4.805Y-6.8675
X4.805Y-7.6225
X4.8075Y-8.37
X5.3Y-4.7387
X5.3Y-4.7988
X5.3Y-5.4887
X5.3Y-5.5488
X5.3Y-6.2387
X5.3Y-6.2988
X5.3Y-6.9887
X5.3Y-7.0488
X5.3Y-7.7387
X5.3Y-7.7988
X5.3Y-8.4887
X5.3Y-8.5488
X5.4Y-4.8388
X5.4Y-4.8987
X5.4Y-5.5888
X5.4Y-5.6487
X5.4Y-6.3388
X5.4Y-6.3987
X5.4Y-7.0888
X5.4Y-7.1487
X5.4Y-7.8388
X5.4Y-7.8987
X5.4Y-8.5887
X5.4Y-8.6487
X5.475Y-6.065
X6.05Y-4.7387
X6.05Y-4.7988
X6.05Y-5.4887
X6.05Y-5.5488
X6.05Y-6.2387
X6.05Y-6.2988
X6.05Y-6.9887
X6.05Y-7.0488
X6.05Y-7.7387
X6.05Y-7.7988
X6.05Y-8.4887
X6.05Y-8.5488
X6.15Y-4.8388
X6.15Y-4.8987
X6.15Y-5.5888
X6.15Y-5.6487
X6.15Y-6.3388
X6.15Y-6.3987
X6.15Y-7.0888
X6.15Y-7.1487
X6.15Y-7.8388
X6.15Y-7.8987
X6.15Y-8.5887
X6.15Y-8.6487
X6.225Y-6.815
X6.8Y-4.7387
X6.8Y-4.7988
X6.8Y-5.4887
X6.8Y-5.5488
X6.8Y-6.2387
X6.8Y-6.2988
X6.8Y-6.9887
X6.8Y-7.0488
X6.8Y-7.7387
X6.8Y-7.7988
X6.8Y-8.4887
X6.8Y-8.5488
X6.9Y-4.8388
X6.9Y-4.8987
X6.9Y-5.5888
X6.9Y-5.6487
X6.9Y-6.3388
X6.9Y-6.3987
X6.9Y-7.0888
X6.9Y-7.1487
X6.9Y-7.8388
X6.9Y-7.8987
X6.9Y-8.5887
X6.9Y-8.6487
X6.975Y-7.565
X7.55Y-4.7387
X7.55Y-4.7988
X7.55Y-5.4887
X7.55Y-5.5488
X7.55Y-6.2387
X7.55Y-6.2988
X7.55Y-6.9887
X7.55Y-7.0488
X7.55Y-7.7387
X7.55Y-7.7988
X7.55Y-8.4887
X7.55Y-8.5488
X7.65Y-4.8388
X7.65Y-4.8987
X7.65Y-5.5888
X7.65Y-5.6487
X7.65Y-6.3388
X7.65Y-6.3987
X7.65Y-7.0888
X7.65Y-7.1487
X7.65Y-7.8388
X7.65Y-7.8987
X7.65Y-8.5887
X7.65Y-8.6487
X7.725Y-8.315
X8.3Y-4.7387
X8.3Y-4.7988
X8.3Y-5.4887
X8.3Y-5.5488
X8.3Y-6.2387
X8.3Y-6.2988
X8.3Y-6.9887
X8.3Y-7.0488
X8.3Y-7.7387
X8.3Y-7.7988
X8.3Y-8.4887
X8.3Y-8.5488
X8.4Y-4.8388
X8.4Y-4.8987
X8.4Y-5.5888
X8.4Y-5.6487
X8.4Y-6.3388
X8.4Y-6.3987
X8.4Y-7.0888
X8.4Y-7.1487
X8.4Y-7.8388
X8.4Y-7.8987
X8.4Y-8.5887
X8.4Y-8.6487
X9.05Y-4.7387
X9.05Y-4.7988
X9.05Y-5.4887
X9.05Y-5.5488
X9.05Y-6.2387
X9.05Y-6.2988
X9.05Y-6.9887
X9.05Y-7.0488
X9.05Y-7.7387
X9.05Y-7.7988
X9.05Y-8.4887
X9.05Y-8.5488
X9.15Y-4.8388
X9.15Y-4.8987
X9.15Y-5.5888
X9.15Y-5.6487
X9.15Y-6.3388
X9.15Y-6.3987
X9.15Y-7.0888
X9.15Y-7.1487
X9.15Y-7.8388
X9.15Y-7.8987
X9.15Y-8.5887
X9.15Y-8.6487
X9.8Y-4.7387
X9.8Y-4.7988
X9.8Y-5.4887
X9.8Y-5.5488
X9.8Y-6.2387
X9.8Y-6.2988
X9.8Y-6.9887
X9.8Y-7.0488
X9.8Y-7.7387
X9.8Y-7.7988
X9.8Y-8.4887
X9.8Y-8.5488
X9.9Y-4.8388
X9.9Y-4.8987
X9.9Y-5.5888
X9.9Y-5.6487
X9.9Y-6.3388
X9.9Y-6.3987
X9.9Y-7.0888
X9.9Y-7.1487
X9.9Y-7.8388
X9.9Y-7.8987
X9.9Y-8.5887
X9.9Y-8.6487
X10.205Y-6.8675
X10.21Y-7.6225
X10.2175Y-6.1175
X10.3125Y-8.37
X10.3675Y-7.515
X10.37Y-7.4275
X10.3744Y-8.3357
X10.375Y-8.185
X10.38Y-6.6675
X10.38Y-6.765
X10.3825Y-5.9275
X10.3825Y-6.0175
X10.3875Y-5.18
X10.3875Y-5.265
X10.55Y-4.7387
X10.55Y-4.7988
X10.55Y-5.4887
X10.55Y-5.5488
X10.55Y-6.2387
X10.55Y-6.2988
X10.55Y-6.9887
X10.55Y-7.0488
X10.55Y-7.7387
X10.55Y-7.7988
X10.55Y-8.4887
X10.55Y-8.5488
X10.65Y-4.8388
X10.65Y-4.8987
X10.65Y-5.5888
X10.65Y-5.6487
X10.65Y-6.3388
X10.65Y-6.3987
X10.65Y-7.0888
X10.65Y-7.1487
X10.65Y-7.8388
X10.65Y-7.8987
X10.65Y-8.5887
X10.65Y-8.6487
X10.8Y-7.6225
X10.8Y-8.37
X10.81Y-6.8675
X10.97Y-6.8675
X11.115Y-5.27
X11.1175Y-5.175
X11.12Y-5.92
X11.12Y-6.02
X11.1225Y-6.6825
X11.1225Y-6.7625
X11.14Y-7.43
X11.1425Y-7.515
X11.22Y-4.655
X11.2425Y-7.6225
X11.3Y-4.7387
X11.3Y-4.7988
X11.3Y-5.4887
X11.3Y-5.5488
X11.3Y-6.2387
X11.3Y-6.2988
X11.3Y-6.9887
X11.3Y-7.0488
X11.3Y-7.7387
X11.3Y-7.7988
X11.3Y-8.4887
X11.3Y-8.5488
X11.4Y-4.8388
X11.4Y-4.8987
X11.4Y-5.5888
X11.4Y-5.6487
X11.4Y-6.3388
X11.4Y-6.3987
X11.4Y-7.0888
X11.4Y-7.1487
X11.4Y-7.8388
X11.4Y-7.8987
X11.4Y-8.5887
X11.4Y-8.6487
X11.5625Y-7.6225
X11.8493Y-4.14
X11.8614Y-4.1855
X11.87Y-6.0125
X11.8725Y-5.92
X11.875Y-5.265
X11.8775Y-5.18
X11.88Y-6.68
X11.8825Y-6.7625
X11.9807Y-4.17
X11.9897Y-3.6987
X11.9907Y-4.0641
X11.9907Y-4.1217
X12.0007Y-3.7337
X12.0216Y-3.6313
X12.0234Y-3.5798
X12.05Y-4.7387
X12.05Y-4.7988
X12.05Y-5.4887
X12.05Y-5.5488
X12.05Y-6.2387
X12.05Y-6.2988
X12.05Y-6.9887
X12.05Y-7.0488
X12.05Y-7.7387
X12.05Y-7.7988
X12.05Y-8.4887
X12.05Y-8.5488
X12.0792Y-3.6769
X12.095Y-3.425
X12.1322Y-4.0443
X12.15Y-4.8388
X12.15Y-4.8987
X12.15Y-5.5888
X12.15Y-5.6487
X12.15Y-6.3388
X12.15Y-6.3987
X12.15Y-7.0888
X12.15Y-7.1487
X12.15Y-7.8388
X12.15Y-7.8987
X12.15Y-8.5887
X12.15Y-8.6487
X12.225Y-7.6225
X12.3529Y-4.0633
X12.4252Y-3.6021
X12.47Y-3.8348
X12.505Y-3.695
X12.529Y-3.9571
X12.555Y-3.605
X12.625Y-5.2675
X12.6275Y-5.1675
X12.6275Y-6.02
X12.63Y-5.9175
X12.6335Y-3.7907
X12.6817Y-3.853
X12.695Y-3.695
X12.7007Y-4.0192
X12.7175Y-3.8127
X12.7188Y-3.5938
X12.774Y-3.8626
X12.7789Y-3.9301
X12.7879Y-3.9665
X12.8Y-4.7387
X12.8Y-4.7988
X12.8Y-5.4887
X12.8Y-5.5488
X12.8Y-6.2387
X12.8Y-6.2988
X12.8Y-6.9887
X12.8Y-7.0488
X12.8Y-7.7387
X12.8Y-7.7988
X12.8Y-8.4887
X12.8Y-8.5488
X12.8308Y-3.7378
X12.8551Y-3.7651
X12.875Y-3.625
X12.8775Y-3.96
X12.9Y-4.8388
X12.9Y-4.8987
X12.9Y-5.5888
X12.9Y-5.6487
X12.9Y-6.3388
X12.9Y-6.3987
X12.9Y-7.0888
X12.9Y-7.1487
X12.9Y-7.8388
X12.9Y-7.8987
X12.9Y-8.5887
X12.9Y-8.6487
X12.96Y-3.58
X12.975Y-8.37
X12.9825Y-3.735
X12.9825Y-3.7675
X12.9825Y-3.8
X12.9825Y-3.8325
X12.9825Y-3.865
X12.9825Y-3.8975
X13.0096Y-4.0668
X13.015Y-3.735
X13.015Y-3.7675
X13.015Y-3.8
X13.015Y-3.8325
X13.015Y-3.865
X13.015Y-3.8975
X13.0475Y-3.735
X13.0475Y-3.7675
X13.0475Y-3.8
X13.0475Y-3.8325
X13.0475Y-3.865
X13.0475Y-3.8975
X13.0746Y-4.0668
X13.08Y-3.735
X13.08Y-3.7675
X13.08Y-3.8
X13.08Y-3.8325
X13.08Y-3.865
X13.08Y-3.8975
X13.1125Y-3.735
X13.1125Y-3.7675
X13.1125Y-3.8
X13.1125Y-3.8325
X13.1125Y-3.865
X13.1125Y-3.8975
X13.145Y-3.735
X13.145Y-3.7675
X13.145Y-3.8
X13.145Y-3.8325
X13.145Y-3.865
X13.145Y-3.8975
X13.1474Y-4.026
X13.1531Y-3.9889
X13.1925Y-3.6675
X13.2605Y-3.8469
X13.2623Y-3.7253
X13.2818Y-4.0326
X13.295Y-3.8025
X13.314Y-3.8515
X13.33Y-3.72
X13.36Y-3.94
X13.3825Y-5.1725
X13.3825Y-5.28
X13.55Y-4.0875
X13.55Y-4.7387
X13.55Y-4.7988
X13.55Y-5.4887
X13.55Y-5.5488
X13.55Y-6.2387
X13.55Y-6.2988
X13.55Y-6.9887
X13.55Y-7.0488
X13.55Y-7.7387
X13.55Y-7.7988
X13.55Y-8.4887
X13.55Y-8.5488
X13.65Y-4.8388
X13.65Y-4.8987
X13.65Y-5.5888
X13.65Y-5.6487
X13.65Y-6.3388
X13.65Y-6.3987
X13.65Y-7.0888
X13.65Y-7.1487
X13.65Y-7.8388
X13.65Y-7.8987
X13.65Y-8.5887
X13.65Y-8.6487
X14.3Y-4.7387
X14.3Y-4.7988
X14.3Y-5.4887
X14.3Y-5.5488
X14.3Y-6.2387
X14.3Y-6.2988
X14.3Y-6.9887
X14.3Y-7.0488
X14.3Y-7.7387
X14.3Y-7.7988
X14.3Y-8.4887
X14.3Y-8.5488
T3
X12.855Y-3.69
T5
X11.855Y-3.625
X11.855Y-3.725
X11.855Y-3.825
X11.855Y-3.9688
X12.355Y-3.4825
X12.355Y-3.6075
X12.355Y-3.7075
X12.355Y-3.8075
X12.355Y-3.9075
X12.355Y-4.0075
X12.355Y-4.1475
X12.455Y-3.4825
X12.455Y-4.1475
X12.555Y-3.4825
X12.555Y-4.1475
X12.655Y-3.4825
X12.655Y-4.1475
X12.755Y-3.4825
X12.755Y-4.1475
X12.8Y-4.43
X12.855Y-3.4825
X12.855Y-4.1475
X12.9Y-4.43
X12.955Y-3.4825
X12.955Y-4.1475
X13.055Y-3.4825
X13.055Y-4.1475
X13.155Y-3.4825
X13.155Y-4.1475
X13.255Y-3.4825
X13.255Y-3.595
X13.255Y-4.1475
X13.355Y-3.4825
X13.355Y-4.1475
X13.455Y-3.4825
X13.455Y-4.005
X13.455Y-4.1475
T6
X2.375Y-5.2188
X2.375Y-6.7188
X2.375Y-8.2188
X6.125Y-5.2188
X6.125Y-6.7188
X6.125Y-8.2188
X6.875Y-5.2188
X6.875Y-6.7188
X6.875Y-8.2188
X10.625Y-5.2188
X10.625Y-6.7188
X10.625Y-8.2188
X12.125Y-5.2188
X12.125Y-6.7188
X12.125Y-8.2188
X13.625Y-5.2188
X13.625Y-6.7188
X13.625Y-8.2188
X13.7443Y-3.4557
X13.7443Y-3.9478
X14.2955Y-3.4557
X14.2955Y-3.9478
T7
X1.85Y-4.8687
X1.85Y-5.6187
X1.85Y-6.3687
X1.85Y-7.1187
X1.85Y-7.8687
X1.85Y-8.6188
X2.1Y-4.7687
X2.1Y-5.5187
X2.1Y-6.2687
X2.1Y-7.0187
X2.1Y-7.7687
X2.1Y-8.5187
X2.6Y-4.8687
X2.6Y-5.6187
X2.6Y-6.3687
X2.6Y-7.1187
X2.6Y-7.8687
X2.6Y-8.6188
X2.85Y-4.7687
X2.85Y-5.5187
X2.85Y-6.2687
X2.85Y-7.0187
X2.85Y-7.7687
X2.85Y-8.5187
X3.35Y-4.8687
X3.35Y-5.6187
X3.35Y-6.3687
X3.35Y-7.1187
X3.35Y-7.8687
X3.35Y-8.6188
X3.6Y-4.7687
X3.6Y-5.5187
X3.6Y-6.2687
X3.6Y-7.0187
X3.6Y-7.7687
X3.6Y-8.5187
X4.1Y-4.8687
X4.1Y-5.6187
X4.1Y-6.3687
X4.1Y-7.1187
X4.1Y-7.8687
X4.1Y-8.6188
X4.35Y-4.7687
X4.35Y-5.5187
X4.35Y-6.2687
X4.35Y-7.0187
X4.35Y-7.7687
X4.35Y-8.5187
X4.85Y-4.8687
X4.85Y-5.6187
X4.85Y-6.3687
X4.85Y-7.1187
X4.85Y-7.8687
X4.85Y-8.6188
X5.1Y-4.7687
X5.1Y-5.5187
X5.1Y-6.2687
X5.1Y-7.0187
X5.1Y-7.7687
X5.1Y-8.5187
X5.6Y-4.8687
X5.6Y-5.6187
X5.6Y-6.3687
X5.6Y-7.1187
X5.6Y-7.8687
X5.6Y-8.6188
X5.85Y-4.7687
X5.85Y-5.5187
X5.85Y-6.2687
X5.85Y-7.0187
X5.85Y-7.7687
X5.85Y-8.5187
X6.35Y-4.8687
X6.35Y-5.6187
X6.35Y-6.3687
X6.35Y-7.1187
X6.35Y-7.8687
X6.35Y-8.6188
X6.6Y-4.7687
X6.6Y-5.5187
X6.6Y-6.2687
X6.6Y-7.0187
X6.6Y-7.7687
X6.6Y-8.5187
X7.1Y-4.8687
X7.1Y-5.6187
X7.1Y-6.3687
X7.1Y-7.1187
X7.1Y-7.8687
X7.1Y-8.6188
X7.35Y-4.7687
X7.35Y-5.5187
X7.35Y-6.2687
X7.35Y-7.0187
X7.35Y-7.7687
X7.35Y-8.5187
X7.85Y-4.8687
X7.85Y-5.6187
X7.85Y-6.3687
X7.85Y-7.1187
X7.85Y-7.8687
X7.85Y-8.6188
X8.1Y-4.7687
X8.1Y-5.5187
X8.1Y-6.2687
X8.1Y-7.0187
X8.1Y-7.7687
X8.1Y-8.5187
X8.6Y-4.8687
X8.6Y-5.6187
X8.6Y-6.3687
X8.6Y-7.1187
X8.6Y-7.8687
X8.6Y-8.6188
X8.85Y-4.7687
X8.85Y-5.5187
X8.85Y-6.2687
X8.85Y-7.0187
X8.85Y-7.7687
X8.85Y-8.5187
X9.35Y-4.8687
X9.35Y-5.6187
X9.35Y-6.3687
X9.35Y-7.1187
X9.35Y-7.8687
X9.35Y-8.6188
X9.6Y-4.7687
X9.6Y-5.5187
X9.6Y-6.2687
X9.6Y-7.0187
X9.6Y-7.7687
X9.6Y-8.5187
X10.1Y-4.8687
X10.1Y-5.6187
X10.1Y-6.3687
X10.1Y-7.1187
X10.1Y-7.8687
X10.1Y-8.6188
X10.35Y-4.7687
X10.35Y-5.5187
X10.35Y-6.2687
X10.35Y-7.0187
X10.35Y-7.7687
X10.35Y-8.5187
X10.85Y-4.8687
X10.85Y-5.6187
X10.85Y-6.3687
X10.85Y-7.1187
X10.85Y-7.8687
X10.85Y-8.6188
X11.1Y-4.7687
X11.1Y-5.5187
X11.1Y-6.2687
X11.1Y-7.0187
X11.1Y-7.7687
X11.1Y-8.5187
X11.6Y-4.8687
X11.6Y-5.6187
X11.6Y-6.3687
X11.6Y-7.1187
X11.6Y-7.8687
X11.6Y-8.6188
X11.85Y-4.7687
X11.85Y-5.5187
X11.85Y-6.2687
X11.85Y-7.0187
X11.85Y-7.7687
X11.85Y-8.5187
X12.35Y-4.8687
X12.35Y-5.6187
X12.35Y-6.3687
X12.35Y-7.1187
X12.35Y-7.8687
X12.35Y-8.6188
X12.6Y-4.7687
X12.6Y-5.5187
X12.6Y-6.2687
X12.6Y-7.0187
X12.6Y-7.7687
X12.6Y-8.5187
X13.1Y-4.8687
X13.1Y-5.6187
X13.1Y-6.3687
X13.1Y-7.1187
X13.1Y-7.8687
X13.1Y-8.6188
X13.35Y-4.7687
X13.35Y-5.5187
X13.35Y-6.2687
X13.35Y-7.0187
X13.35Y-7.7687
X13.35Y-8.5187
X13.85Y-4.8687
X13.85Y-5.6187
X13.85Y-6.3687
X13.85Y-7.1187
X13.85Y-7.8687
X13.85Y-8.6188
X14.1Y-4.7687
X14.1Y-5.5187
X14.1Y-6.2687
X14.1Y-7.0187
X14.1Y-7.7687
X14.1Y-8.5187
T4
X13.8507Y-3.4675G85X13.8507Y-3.4912
G05
X13.8507Y-3.623G85X13.8507Y-3.6663
G05
X14.1893Y-3.4675G85X14.1893Y-3.4912
G05
X14.1893Y-3.623G85X14.1893Y-3.6663
G05
T0
M30
