%FSLAX45Y45*%
G04 Gerber Fmt 4.5, Leading zero omitted, Abs format (unit mm)*
G04 Created by KiCad (PCBNEW (5.1.10)-1) date 2021-12-06 23:46:47*
%MOMM*%
%LPD*%
G01*
G04 APERTURE LIST*
%TA.AperFunction,Profile*%
%ADD10C,0.100000*%
%TD*%
%ADD11C,0.200000*%
%ADD12C,0.300000*%
G04 APERTURE END LIST*
D10*
X6429375Y-11430000D02*
X6746875Y-11430000D01*
X6429375Y-11668125D02*
G75*
G03*
X6508750Y-11588750I0J79375D01*
G01*
X6508750Y-11509375D02*
G75*
G03*
X6429375Y-11430000I-79375J0D01*
G01*
X5476875Y-11430000D02*
X5794375Y-11430000D01*
X4762500Y-11509375D02*
X4762500Y-11588750D01*
X5953125Y-11668125D02*
G75*
G03*
X6032500Y-11588750I0J79375D01*
G01*
X5080000Y-11509375D02*
X5080000Y-11588750D01*
X4603750Y-11509375D02*
G75*
G03*
X4524375Y-11430000I-79375J0D01*
G01*
X5953125Y-11668125D02*
X6270625Y-11668125D01*
X4762500Y-11588750D02*
G75*
G03*
X4841875Y-11668125I79375J0D01*
G01*
X4286250Y-11588750D02*
G75*
G03*
X4365625Y-11668125I79375J0D01*
G01*
X5953125Y-11430000D02*
X6270625Y-11430000D01*
X4841875Y-11430000D02*
G75*
G03*
X4762500Y-11509375I0J-79375D01*
G01*
X4603750Y-11509375D02*
X4603750Y-11588750D01*
X5000625Y-11430000D02*
X5318125Y-11430000D01*
X6746875Y-11430000D02*
G75*
G03*
X6667500Y-11509375I0J-79375D01*
G01*
X4524375Y-11668125D02*
X4841875Y-11668125D01*
X5000625Y-11668125D02*
G75*
G03*
X5080000Y-11588750I0J79375D01*
G01*
X6270625Y-11430000D02*
G75*
G03*
X6191250Y-11509375I0J-79375D01*
G01*
X4286250Y-11509375D02*
X4286250Y-11588750D01*
X5318125Y-11430000D02*
G75*
G03*
X5238750Y-11509375I0J-79375D01*
G01*
X4524375Y-11430000D02*
X4841875Y-11430000D01*
X5556250Y-11509375D02*
G75*
G03*
X5476875Y-11430000I-79375J0D01*
G01*
X4365625Y-11430000D02*
G75*
G03*
X4286250Y-11509375I0J-79375D01*
G01*
X6032500Y-11509375D02*
G75*
G03*
X5953125Y-11430000I-79375J0D01*
G01*
X5476875Y-11668125D02*
G75*
G03*
X5556250Y-11588750I0J79375D01*
G01*
X5715000Y-11588750D02*
G75*
G03*
X5794375Y-11668125I79375J0D01*
G01*
X6508750Y-11509375D02*
X6508750Y-11588750D01*
X5794375Y-11430000D02*
G75*
G03*
X5715000Y-11509375I0J-79375D01*
G01*
X5238750Y-11509375D02*
X5238750Y-11588750D01*
X5000625Y-11668125D02*
X5318125Y-11668125D01*
X4524375Y-11668125D02*
G75*
G03*
X4603750Y-11588750I0J79375D01*
G01*
X6667500Y-11588750D02*
G75*
G03*
X6746875Y-11668125I79375J0D01*
G01*
X5238750Y-11588750D02*
G75*
G03*
X5318125Y-11668125I79375J0D01*
G01*
X6032500Y-11509375D02*
X6032500Y-11588750D01*
X5556250Y-11509375D02*
X5556250Y-11588750D01*
X6191250Y-11588750D02*
G75*
G03*
X6270625Y-11668125I79375J0D01*
G01*
X5080000Y-11509375D02*
G75*
G03*
X5000625Y-11430000I-79375J0D01*
G01*
X5476875Y-11668125D02*
X5794375Y-11668125D01*
X6429375Y-11668125D02*
X6746875Y-11668125D01*
X6667500Y-11509375D02*
X6667500Y-11588750D01*
X6191250Y-11509375D02*
X6191250Y-11588750D01*
X5715000Y-11509375D02*
X5715000Y-11588750D01*
X9842500Y-11350625D02*
X9842500Y-11509375D01*
X9763125Y-11668125D02*
G75*
G03*
X9842500Y-11588750I0J79375D01*
G01*
X9763125Y-11668125D02*
X9921875Y-11668125D01*
X9842500Y-11191875D02*
G75*
G03*
X9763125Y-11112500I-79375J0D01*
G01*
X9842500Y-11509375D02*
G75*
G03*
X9763125Y-11430000I-79375J0D01*
G01*
X9763125Y-11430000D02*
G75*
G03*
X9842500Y-11350625I0J79375D01*
G01*
X9921875Y-11668125D02*
G75*
G02*
X9842500Y-11588750I0J79375D01*
G01*
X9842500Y-11191875D02*
X9842500Y-11033125D01*
X9842500Y-10874375D02*
G75*
G03*
X9763125Y-10795000I-79375J0D01*
G01*
X9842500Y-10874375D02*
X9842500Y-10715625D01*
X9763125Y-11112500D02*
G75*
G03*
X9842500Y-11033125I0J79375D01*
G01*
X9763125Y-10795000D02*
G75*
G03*
X9842500Y-10715625I0J79375D01*
G01*
X7620000Y-11509375D02*
X7620000Y-11588750D01*
X7937500Y-11509375D02*
X7937500Y-11588750D01*
X7381875Y-11430000D02*
X7699375Y-11430000D01*
X9286875Y-11430000D02*
X9604375Y-11430000D01*
X6985000Y-11509375D02*
G75*
G03*
X6905625Y-11430000I-79375J0D01*
G01*
X7143750Y-11588750D02*
G75*
G03*
X7223125Y-11668125I79375J0D01*
G01*
X6905625Y-11668125D02*
G75*
G03*
X6985000Y-11588750I0J79375D01*
G01*
X8651875Y-11430000D02*
G75*
G03*
X8572500Y-11509375I0J-79375D01*
G01*
X6905625Y-11668125D02*
X7223125Y-11668125D01*
X9286875Y-11668125D02*
G75*
G03*
X9366250Y-11588750I0J79375D01*
G01*
X7461250Y-11509375D02*
G75*
G03*
X7381875Y-11430000I-79375J0D01*
G01*
X7858125Y-11668125D02*
G75*
G03*
X7937500Y-11588750I0J79375D01*
G01*
X8810625Y-11430000D02*
X9128125Y-11430000D01*
X6985000Y-11509375D02*
X6985000Y-11588750D01*
X6905625Y-11430000D02*
X7223125Y-11430000D01*
X7461250Y-11509375D02*
X7461250Y-11588750D01*
X7143750Y-11509375D02*
X7143750Y-11588750D01*
X7381875Y-11668125D02*
G75*
G03*
X7461250Y-11588750I0J79375D01*
G01*
X7223125Y-11430000D02*
G75*
G03*
X7143750Y-11509375I0J-79375D01*
G01*
X7699375Y-11430000D02*
G75*
G03*
X7620000Y-11509375I0J-79375D01*
G01*
X7381875Y-11668125D02*
X7699375Y-11668125D01*
X7620000Y-11588750D02*
G75*
G03*
X7699375Y-11668125I79375J0D01*
G01*
X8890000Y-11509375D02*
G75*
G03*
X8810625Y-11430000I-79375J0D01*
G01*
X9604375Y-11430000D02*
G75*
G03*
X9525000Y-11509375I0J-79375D01*
G01*
X9128125Y-11430000D02*
G75*
G03*
X9048750Y-11509375I0J-79375D01*
G01*
X7858125Y-11430000D02*
X8175625Y-11430000D01*
X8175625Y-11430000D02*
G75*
G03*
X8096250Y-11509375I0J-79375D01*
G01*
X8334375Y-11668125D02*
G75*
G03*
X8413750Y-11588750I0J79375D01*
G01*
X8572500Y-11588750D02*
G75*
G03*
X8651875Y-11668125I79375J0D01*
G01*
X8810625Y-11668125D02*
X9128125Y-11668125D01*
X9366250Y-11509375D02*
G75*
G03*
X9286875Y-11430000I-79375J0D01*
G01*
X8334375Y-11430000D02*
X8651875Y-11430000D01*
X7858125Y-11668125D02*
X8175625Y-11668125D01*
X9366250Y-11509375D02*
X9366250Y-11588750D01*
X8810625Y-11668125D02*
G75*
G03*
X8890000Y-11588750I0J79375D01*
G01*
X8413750Y-11509375D02*
G75*
G03*
X8334375Y-11430000I-79375J0D01*
G01*
X8096250Y-11509375D02*
X8096250Y-11588750D01*
X9048750Y-11588750D02*
G75*
G03*
X9128125Y-11668125I79375J0D01*
G01*
X7937500Y-11509375D02*
G75*
G03*
X7858125Y-11430000I-79375J0D01*
G01*
X8334375Y-11668125D02*
X8651875Y-11668125D01*
X9286875Y-11668125D02*
X9604375Y-11668125D01*
X9525000Y-11588750D02*
G75*
G03*
X9604375Y-11668125I79375J0D01*
G01*
X9525000Y-11509375D02*
X9525000Y-11588750D01*
X8572500Y-11509375D02*
X8572500Y-11588750D01*
X8096250Y-11588750D02*
G75*
G03*
X8175625Y-11668125I79375J0D01*
G01*
X9048750Y-11509375D02*
X9048750Y-11588750D01*
X8890000Y-11509375D02*
X8890000Y-11588750D01*
X8413750Y-11509375D02*
X8413750Y-11588750D01*
X10953750Y-11509375D02*
X10953750Y-11588750D01*
X11271250Y-11509375D02*
X11271250Y-11588750D01*
X10715625Y-11430000D02*
X11033125Y-11430000D01*
X12620625Y-11430000D02*
X12938125Y-11430000D01*
X10318750Y-11509375D02*
G75*
G03*
X10239375Y-11430000I-79375J0D01*
G01*
X10477500Y-11588750D02*
G75*
G03*
X10556875Y-11668125I79375J0D01*
G01*
X10239375Y-11668125D02*
G75*
G03*
X10318750Y-11588750I0J79375D01*
G01*
X11985625Y-11430000D02*
G75*
G03*
X11906250Y-11509375I0J-79375D01*
G01*
X10239375Y-11668125D02*
X10556875Y-11668125D01*
X12620625Y-11668125D02*
G75*
G03*
X12700000Y-11588750I0J79375D01*
G01*
X10795000Y-11509375D02*
G75*
G03*
X10715625Y-11430000I-79375J0D01*
G01*
X11191875Y-11668125D02*
G75*
G03*
X11271250Y-11588750I0J79375D01*
G01*
X12144375Y-11430000D02*
X12461875Y-11430000D01*
X10318750Y-11509375D02*
X10318750Y-11588750D01*
X10239375Y-11430000D02*
X10556875Y-11430000D01*
X10795000Y-11509375D02*
X10795000Y-11588750D01*
X10477500Y-11509375D02*
X10477500Y-11588750D01*
X10715625Y-11668125D02*
G75*
G03*
X10795000Y-11588750I0J79375D01*
G01*
X10556875Y-11430000D02*
G75*
G03*
X10477500Y-11509375I0J-79375D01*
G01*
X11033125Y-11430000D02*
G75*
G03*
X10953750Y-11509375I0J-79375D01*
G01*
X10715625Y-11668125D02*
X11033125Y-11668125D01*
X10953750Y-11588750D02*
G75*
G03*
X11033125Y-11668125I79375J0D01*
G01*
X13096875Y-11668125D02*
G75*
G03*
X13176250Y-11588750I0J79375D01*
G01*
X12223750Y-11509375D02*
G75*
G03*
X12144375Y-11430000I-79375J0D01*
G01*
X13096875Y-11430000D02*
X13414375Y-11430000D01*
X12938125Y-11430000D02*
G75*
G03*
X12858750Y-11509375I0J-79375D01*
G01*
X12461875Y-11430000D02*
G75*
G03*
X12382500Y-11509375I0J-79375D01*
G01*
X13335000Y-11509375D02*
X13335000Y-11588750D01*
X11191875Y-11430000D02*
X11509375Y-11430000D01*
X11509375Y-11430000D02*
G75*
G03*
X11430000Y-11509375I0J-79375D01*
G01*
X13096875Y-11668125D02*
X13414375Y-11668125D01*
X11668125Y-11668125D02*
G75*
G03*
X11747500Y-11588750I0J79375D01*
G01*
X11906250Y-11588750D02*
G75*
G03*
X11985625Y-11668125I79375J0D01*
G01*
X12144375Y-11668125D02*
X12461875Y-11668125D01*
X13176250Y-11509375D02*
X13176250Y-11588750D01*
X12700000Y-11509375D02*
G75*
G03*
X12620625Y-11430000I-79375J0D01*
G01*
X13414375Y-11430000D02*
G75*
G03*
X13335000Y-11509375I0J-79375D01*
G01*
X11668125Y-11430000D02*
X11985625Y-11430000D01*
X11191875Y-11668125D02*
X11509375Y-11668125D01*
X12700000Y-11509375D02*
X12700000Y-11588750D01*
X12144375Y-11668125D02*
G75*
G03*
X12223750Y-11588750I0J79375D01*
G01*
X11747500Y-11509375D02*
G75*
G03*
X11668125Y-11430000I-79375J0D01*
G01*
X11430000Y-11509375D02*
X11430000Y-11588750D01*
X12382500Y-11588750D02*
G75*
G03*
X12461875Y-11668125I79375J0D01*
G01*
X11271250Y-11509375D02*
G75*
G03*
X11191875Y-11430000I-79375J0D01*
G01*
X11668125Y-11668125D02*
X11985625Y-11668125D01*
X12620625Y-11668125D02*
X12938125Y-11668125D01*
X12858750Y-11588750D02*
G75*
G03*
X12938125Y-11668125I79375J0D01*
G01*
X12858750Y-11509375D02*
X12858750Y-11588750D01*
X11906250Y-11509375D02*
X11906250Y-11588750D01*
X11430000Y-11588750D02*
G75*
G03*
X11509375Y-11668125I79375J0D01*
G01*
X12382500Y-11509375D02*
X12382500Y-11588750D01*
X13335000Y-11588750D02*
G75*
G03*
X13414375Y-11668125I79375J0D01*
G01*
X13176250Y-11509375D02*
G75*
G03*
X13096875Y-11430000I-79375J0D01*
G01*
X12223750Y-11509375D02*
X12223750Y-11588750D01*
X11747500Y-11509375D02*
X11747500Y-11588750D01*
X13652500Y-10874375D02*
G75*
G03*
X13573125Y-10795000I-79375J0D01*
G01*
X13652500Y-10874375D02*
X13652500Y-10715625D01*
X13573125Y-11112500D02*
G75*
G03*
X13652500Y-11033125I0J79375D01*
G01*
X13573125Y-10795000D02*
G75*
G03*
X13652500Y-10715625I0J79375D01*
G01*
X13652500Y-11350625D02*
X13652500Y-11509375D01*
X13573125Y-11668125D02*
X13731875Y-11668125D01*
X13652500Y-11191875D02*
X13652500Y-11033125D01*
X13652500Y-11191875D02*
G75*
G03*
X13573125Y-11112500I-79375J0D01*
G01*
X13652500Y-11509375D02*
G75*
G03*
X13573125Y-11430000I-79375J0D01*
G01*
X13573125Y-11668125D02*
G75*
G03*
X13652500Y-11588750I0J79375D01*
G01*
X13573125Y-11430000D02*
G75*
G03*
X13652500Y-11350625I0J79375D01*
G01*
X13731875Y-11668125D02*
G75*
G02*
X13652500Y-11588750I0J79375D01*
G01*
X14049375Y-11668125D02*
G75*
G03*
X14128750Y-11588750I0J79375D01*
G01*
X14525625Y-11668125D02*
G75*
G03*
X14605000Y-11588750I0J79375D01*
G01*
X14049375Y-11430000D02*
X14366875Y-11430000D01*
X14287500Y-11588750D02*
G75*
G03*
X14366875Y-11668125I79375J0D01*
G01*
X14287500Y-11509375D02*
X14287500Y-11588750D01*
X14525625Y-11430000D02*
X14843125Y-11430000D01*
X14605000Y-11509375D02*
X14605000Y-11588750D01*
X14128750Y-11509375D02*
G75*
G03*
X14049375Y-11430000I-79375J0D01*
G01*
X14128750Y-11509375D02*
X14128750Y-11588750D01*
X14366875Y-11430000D02*
G75*
G03*
X14287500Y-11509375I0J-79375D01*
G01*
X14525625Y-11668125D02*
X14843125Y-11668125D01*
X14763750Y-11588750D02*
G75*
G03*
X14843125Y-11668125I79375J0D01*
G01*
X14605000Y-11509375D02*
G75*
G03*
X14525625Y-11430000I-79375J0D01*
G01*
X14049375Y-11668125D02*
X14366875Y-11668125D01*
X14763750Y-11509375D02*
X14763750Y-11588750D01*
X14843125Y-11430000D02*
G75*
G03*
X14763750Y-11509375I0J-79375D01*
G01*
X15954375Y-11430000D02*
X16271875Y-11430000D01*
X16430625Y-11668125D02*
G75*
G03*
X16510000Y-11588750I0J79375D01*
G01*
X15795625Y-11430000D02*
G75*
G03*
X15716250Y-11509375I0J-79375D01*
G01*
X16906875Y-11668125D02*
G75*
G03*
X16986250Y-11588750I0J79375D01*
G01*
X16430625Y-11430000D02*
X16748125Y-11430000D01*
X15081250Y-11509375D02*
X15081250Y-11588750D01*
X15001875Y-11668125D02*
G75*
G03*
X15081250Y-11588750I0J79375D01*
G01*
X15081250Y-11509375D02*
G75*
G03*
X15001875Y-11430000I-79375J0D01*
G01*
X16668750Y-11588750D02*
G75*
G03*
X16748125Y-11668125I79375J0D01*
G01*
X16033750Y-11509375D02*
X16033750Y-11588750D01*
X15001875Y-11430000D02*
X15319375Y-11430000D01*
X15319375Y-11430000D02*
G75*
G03*
X15240000Y-11509375I0J-79375D01*
G01*
X16033750Y-11509375D02*
G75*
G03*
X15954375Y-11430000I-79375J0D01*
G01*
X16668750Y-11509375D02*
X16668750Y-11588750D01*
X16906875Y-11430000D02*
X17224375Y-11430000D01*
X15478125Y-11668125D02*
G75*
G03*
X15557500Y-11588750I0J79375D01*
G01*
X15001875Y-11668125D02*
X15319375Y-11668125D01*
X15716250Y-11588750D02*
G75*
G03*
X15795625Y-11668125I79375J0D01*
G01*
X16271875Y-11430000D02*
G75*
G03*
X16192500Y-11509375I0J-79375D01*
G01*
X15954375Y-11668125D02*
X16271875Y-11668125D01*
X15716250Y-11509375D02*
X15716250Y-11588750D01*
X16986250Y-11509375D02*
X16986250Y-11588750D01*
X16510000Y-11509375D02*
G75*
G03*
X16430625Y-11430000I-79375J0D01*
G01*
X16510000Y-11509375D02*
X16510000Y-11588750D01*
X15240000Y-11509375D02*
X15240000Y-11588750D01*
X16748125Y-11430000D02*
G75*
G03*
X16668750Y-11509375I0J-79375D01*
G01*
X15954375Y-11668125D02*
G75*
G03*
X16033750Y-11588750I0J79375D01*
G01*
X15557500Y-11509375D02*
G75*
G03*
X15478125Y-11430000I-79375J0D01*
G01*
X15478125Y-11668125D02*
X15795625Y-11668125D01*
X16906875Y-11668125D02*
X17224375Y-11668125D01*
X15557500Y-11509375D02*
X15557500Y-11588750D01*
X16192500Y-11588750D02*
G75*
G03*
X16271875Y-11668125I79375J0D01*
G01*
X16192500Y-11509375D02*
X16192500Y-11588750D01*
X17145000Y-11588750D02*
G75*
G03*
X17224375Y-11668125I79375J0D01*
G01*
X15478125Y-11430000D02*
X15795625Y-11430000D01*
X16986250Y-11509375D02*
G75*
G03*
X16906875Y-11430000I-79375J0D01*
G01*
X16430625Y-11668125D02*
X16748125Y-11668125D01*
X15240000Y-11588750D02*
G75*
G03*
X15319375Y-11668125I79375J0D01*
G01*
X17145000Y-11509375D02*
X17145000Y-11588750D01*
X17224375Y-11430000D02*
G75*
G03*
X17145000Y-11509375I0J-79375D01*
G01*
X17541875Y-11668125D02*
G75*
G02*
X17462500Y-11588750I0J79375D01*
G01*
X17383125Y-11430000D02*
G75*
G03*
X17462500Y-11350625I0J79375D01*
G01*
X17383125Y-11668125D02*
G75*
G03*
X17462500Y-11588750I0J79375D01*
G01*
X17462500Y-11509375D02*
G75*
G03*
X17383125Y-11430000I-79375J0D01*
G01*
X17383125Y-11668125D02*
X17541875Y-11668125D01*
X17462500Y-11350625D02*
X17462500Y-11509375D01*
X17462500Y-10874375D02*
G75*
G03*
X17383125Y-10795000I-79375J0D01*
G01*
X17462500Y-11191875D02*
G75*
G03*
X17383125Y-11112500I-79375J0D01*
G01*
X17383125Y-11112500D02*
G75*
G03*
X17462500Y-11033125I0J79375D01*
G01*
X17383125Y-10795000D02*
G75*
G03*
X17462500Y-10715625I0J79375D01*
G01*
X17462500Y-10874375D02*
X17462500Y-10715625D01*
X17462500Y-11191875D02*
X17462500Y-11033125D01*
X18097500Y-11588750D02*
G75*
G03*
X18176875Y-11668125I79375J0D01*
G01*
X17938750Y-11509375D02*
X17938750Y-11588750D01*
X17859375Y-11430000D02*
X18176875Y-11430000D01*
X17859375Y-11668125D02*
X18176875Y-11668125D01*
X17859375Y-11668125D02*
G75*
G03*
X17938750Y-11588750I0J79375D01*
G01*
X17938750Y-11509375D02*
G75*
G03*
X17859375Y-11430000I-79375J0D01*
G01*
X18176875Y-11430000D02*
G75*
G03*
X18097500Y-11509375I0J-79375D01*
G01*
X18573750Y-11588750D02*
G75*
G03*
X18653125Y-11668125I79375J0D01*
G01*
X18415000Y-11509375D02*
X18415000Y-11588750D01*
X18415000Y-11509375D02*
G75*
G03*
X18335625Y-11430000I-79375J0D01*
G01*
X18335625Y-11430000D02*
X18653125Y-11430000D01*
X18335625Y-11668125D02*
G75*
G03*
X18415000Y-11588750I0J79375D01*
G01*
X18335625Y-11668125D02*
X18653125Y-11668125D01*
X19050000Y-11588750D02*
G75*
G03*
X19129375Y-11668125I79375J0D01*
G01*
X18891250Y-11509375D02*
X18891250Y-11588750D01*
X18811875Y-11668125D02*
G75*
G03*
X18891250Y-11588750I0J79375D01*
G01*
X19129375Y-11430000D02*
G75*
G03*
X19050000Y-11509375I0J-79375D01*
G01*
X18891250Y-11509375D02*
G75*
G03*
X18811875Y-11430000I-79375J0D01*
G01*
X18811875Y-11668125D02*
X19129375Y-11668125D01*
X19050000Y-11509375D02*
X19050000Y-11588750D01*
X18097500Y-11509375D02*
X18097500Y-11588750D01*
X18811875Y-11430000D02*
X19129375Y-11430000D01*
X18653125Y-11430000D02*
G75*
G03*
X18573750Y-11509375I0J-79375D01*
G01*
X18573750Y-11509375D02*
X18573750Y-11588750D01*
X19367500Y-11509375D02*
X19367500Y-11588750D01*
X20002500Y-11588750D02*
G75*
G03*
X20081875Y-11668125I79375J0D01*
G01*
X19605625Y-11430000D02*
G75*
G03*
X19526250Y-11509375I0J-79375D01*
G01*
X19288125Y-11668125D02*
G75*
G03*
X19367500Y-11588750I0J79375D01*
G01*
X19288125Y-11430000D02*
X19605625Y-11430000D01*
X19843750Y-11509375D02*
X19843750Y-11588750D01*
X19367500Y-11509375D02*
G75*
G03*
X19288125Y-11430000I-79375J0D01*
G01*
X19288125Y-11668125D02*
X19605625Y-11668125D01*
X19526250Y-11509375D02*
X19526250Y-11588750D01*
X19526250Y-11588750D02*
G75*
G03*
X19605625Y-11668125I79375J0D01*
G01*
X19764375Y-11430000D02*
X20081875Y-11430000D01*
X19764375Y-11668125D02*
X20081875Y-11668125D01*
X19764375Y-11668125D02*
G75*
G03*
X19843750Y-11588750I0J79375D01*
G01*
X19843750Y-11509375D02*
G75*
G03*
X19764375Y-11430000I-79375J0D01*
G01*
X20081875Y-11430000D02*
G75*
G03*
X20002500Y-11509375I0J-79375D01*
G01*
X20478750Y-11588750D02*
G75*
G03*
X20558125Y-11668125I79375J0D01*
G01*
X20320000Y-11509375D02*
X20320000Y-11588750D01*
X20320000Y-11509375D02*
G75*
G03*
X20240625Y-11430000I-79375J0D01*
G01*
X20240625Y-11430000D02*
X20558125Y-11430000D01*
X20240625Y-11668125D02*
G75*
G03*
X20320000Y-11588750I0J79375D01*
G01*
X20240625Y-11668125D02*
X20558125Y-11668125D01*
X20955000Y-11588750D02*
G75*
G03*
X21034375Y-11668125I79375J0D01*
G01*
X20796250Y-11509375D02*
X20796250Y-11588750D01*
X20716875Y-11668125D02*
G75*
G03*
X20796250Y-11588750I0J79375D01*
G01*
X21034375Y-11430000D02*
G75*
G03*
X20955000Y-11509375I0J-79375D01*
G01*
X20796250Y-11509375D02*
G75*
G03*
X20716875Y-11430000I-79375J0D01*
G01*
X20716875Y-11668125D02*
X21034375Y-11668125D01*
X20955000Y-11509375D02*
X20955000Y-11588750D01*
X20002500Y-11509375D02*
X20002500Y-11588750D01*
X20716875Y-11430000D02*
X21034375Y-11430000D01*
X20558125Y-11430000D02*
G75*
G03*
X20478750Y-11509375I0J-79375D01*
G01*
X20478750Y-11509375D02*
X20478750Y-11588750D01*
X21272500Y-11509375D02*
X21272500Y-11588750D01*
X21907500Y-11588750D02*
G75*
G03*
X21986875Y-11668125I79375J0D01*
G01*
X21510625Y-11430000D02*
G75*
G03*
X21431250Y-11509375I0J-79375D01*
G01*
X21193125Y-11668125D02*
G75*
G03*
X21272500Y-11588750I0J79375D01*
G01*
X21193125Y-11430000D02*
X21510625Y-11430000D01*
X21748750Y-11509375D02*
X21748750Y-11588750D01*
X21272500Y-11509375D02*
G75*
G03*
X21193125Y-11430000I-79375J0D01*
G01*
X21193125Y-11668125D02*
X21510625Y-11668125D01*
X21431250Y-11509375D02*
X21431250Y-11588750D01*
X21431250Y-11588750D02*
G75*
G03*
X21510625Y-11668125I79375J0D01*
G01*
X21669375Y-11430000D02*
X21986875Y-11430000D01*
X21669375Y-11668125D02*
X21986875Y-11668125D01*
X21669375Y-11668125D02*
G75*
G03*
X21748750Y-11588750I0J79375D01*
G01*
X21748750Y-11509375D02*
G75*
G03*
X21669375Y-11430000I-79375J0D01*
G01*
X21986875Y-11430000D02*
G75*
G03*
X21907500Y-11509375I0J-79375D01*
G01*
X22383750Y-11588750D02*
G75*
G03*
X22463125Y-11668125I79375J0D01*
G01*
X22225000Y-11509375D02*
X22225000Y-11588750D01*
X22225000Y-11509375D02*
G75*
G03*
X22145625Y-11430000I-79375J0D01*
G01*
X22145625Y-11430000D02*
X22463125Y-11430000D01*
X22145625Y-11668125D02*
G75*
G03*
X22225000Y-11588750I0J79375D01*
G01*
X22145625Y-11668125D02*
X22463125Y-11668125D01*
X22860000Y-11588750D02*
G75*
G03*
X22939375Y-11668125I79375J0D01*
G01*
X22701250Y-11509375D02*
X22701250Y-11588750D01*
X22621875Y-11668125D02*
G75*
G03*
X22701250Y-11588750I0J79375D01*
G01*
X22939375Y-11430000D02*
G75*
G03*
X22860000Y-11509375I0J-79375D01*
G01*
X22701250Y-11509375D02*
G75*
G03*
X22621875Y-11430000I-79375J0D01*
G01*
X22621875Y-11668125D02*
X22939375Y-11668125D01*
X22860000Y-11509375D02*
X22860000Y-11588750D01*
X21907500Y-11509375D02*
X21907500Y-11588750D01*
X22621875Y-11430000D02*
X22939375Y-11430000D01*
X22463125Y-11430000D02*
G75*
G03*
X22383750Y-11509375I0J-79375D01*
G01*
X22383750Y-11509375D02*
X22383750Y-11588750D01*
X23177500Y-11509375D02*
X23177500Y-11588750D01*
X23812500Y-11588750D02*
G75*
G03*
X23891875Y-11668125I79375J0D01*
G01*
X23415625Y-11430000D02*
G75*
G03*
X23336250Y-11509375I0J-79375D01*
G01*
X23098125Y-11668125D02*
G75*
G03*
X23177500Y-11588750I0J79375D01*
G01*
X23098125Y-11430000D02*
X23415625Y-11430000D01*
X23653750Y-11509375D02*
X23653750Y-11588750D01*
X23177500Y-11509375D02*
G75*
G03*
X23098125Y-11430000I-79375J0D01*
G01*
X23098125Y-11668125D02*
X23415625Y-11668125D01*
X23336250Y-11509375D02*
X23336250Y-11588750D01*
X23336250Y-11588750D02*
G75*
G03*
X23415625Y-11668125I79375J0D01*
G01*
X23574375Y-11430000D02*
X23891875Y-11430000D01*
X23574375Y-11668125D02*
X23891875Y-11668125D01*
X23574375Y-11668125D02*
G75*
G03*
X23653750Y-11588750I0J79375D01*
G01*
X23653750Y-11509375D02*
G75*
G03*
X23574375Y-11430000I-79375J0D01*
G01*
X23891875Y-11430000D02*
G75*
G03*
X23812500Y-11509375I0J-79375D01*
G01*
X24288750Y-11588750D02*
G75*
G03*
X24368125Y-11668125I79375J0D01*
G01*
X24130000Y-11509375D02*
X24130000Y-11588750D01*
X24130000Y-11509375D02*
G75*
G03*
X24050625Y-11430000I-79375J0D01*
G01*
X24050625Y-11430000D02*
X24368125Y-11430000D01*
X24050625Y-11668125D02*
G75*
G03*
X24130000Y-11588750I0J79375D01*
G01*
X24050625Y-11668125D02*
X24368125Y-11668125D01*
X24765000Y-11588750D02*
G75*
G03*
X24844375Y-11668125I79375J0D01*
G01*
X24606250Y-11509375D02*
X24606250Y-11588750D01*
X24526875Y-11668125D02*
G75*
G03*
X24606250Y-11588750I0J79375D01*
G01*
X24844375Y-11430000D02*
G75*
G03*
X24765000Y-11509375I0J-79375D01*
G01*
X24606250Y-11509375D02*
G75*
G03*
X24526875Y-11430000I-79375J0D01*
G01*
X24526875Y-11668125D02*
X24844375Y-11668125D01*
X24765000Y-11509375D02*
X24765000Y-11588750D01*
X23812500Y-11509375D02*
X23812500Y-11588750D01*
X24526875Y-11430000D02*
X24844375Y-11430000D01*
X24368125Y-11430000D02*
G75*
G03*
X24288750Y-11509375I0J-79375D01*
G01*
X24288750Y-11509375D02*
X24288750Y-11588750D01*
X25082500Y-11509375D02*
X25082500Y-11588750D01*
X25717500Y-11588750D02*
G75*
G03*
X25796875Y-11668125I79375J0D01*
G01*
X25320625Y-11430000D02*
G75*
G03*
X25241250Y-11509375I0J-79375D01*
G01*
X25003125Y-11668125D02*
G75*
G03*
X25082500Y-11588750I0J79375D01*
G01*
X25003125Y-11430000D02*
X25320625Y-11430000D01*
X25558750Y-11509375D02*
X25558750Y-11588750D01*
X25082500Y-11509375D02*
G75*
G03*
X25003125Y-11430000I-79375J0D01*
G01*
X25003125Y-11668125D02*
X25320625Y-11668125D01*
X25241250Y-11509375D02*
X25241250Y-11588750D01*
X25241250Y-11588750D02*
G75*
G03*
X25320625Y-11668125I79375J0D01*
G01*
X25479375Y-11430000D02*
X25796875Y-11430000D01*
X25479375Y-11668125D02*
X25796875Y-11668125D01*
X25479375Y-11668125D02*
G75*
G03*
X25558750Y-11588750I0J79375D01*
G01*
X25558750Y-11509375D02*
G75*
G03*
X25479375Y-11430000I-79375J0D01*
G01*
X25796875Y-11430000D02*
G75*
G03*
X25717500Y-11509375I0J-79375D01*
G01*
X26193750Y-11588750D02*
G75*
G03*
X26273125Y-11668125I79375J0D01*
G01*
X26035000Y-11509375D02*
X26035000Y-11588750D01*
X26035000Y-11509375D02*
G75*
G03*
X25955625Y-11430000I-79375J0D01*
G01*
X25955625Y-11430000D02*
X26273125Y-11430000D01*
X25955625Y-11668125D02*
G75*
G03*
X26035000Y-11588750I0J79375D01*
G01*
X25955625Y-11668125D02*
X26273125Y-11668125D01*
X26670000Y-11588750D02*
G75*
G03*
X26749375Y-11668125I79375J0D01*
G01*
X26511250Y-11509375D02*
X26511250Y-11588750D01*
X26431875Y-11668125D02*
G75*
G03*
X26511250Y-11588750I0J79375D01*
G01*
X26749375Y-11430000D02*
G75*
G03*
X26670000Y-11509375I0J-79375D01*
G01*
X26511250Y-11509375D02*
G75*
G03*
X26431875Y-11430000I-79375J0D01*
G01*
X26431875Y-11668125D02*
X26749375Y-11668125D01*
X26670000Y-11509375D02*
X26670000Y-11588750D01*
X25717500Y-11509375D02*
X25717500Y-11588750D01*
X26431875Y-11430000D02*
X26749375Y-11430000D01*
X26273125Y-11430000D02*
G75*
G03*
X26193750Y-11509375I0J-79375D01*
G01*
X26193750Y-11509375D02*
X26193750Y-11588750D01*
X28813125Y-11668125D02*
X28971875Y-11668125D01*
X28971875Y-11668125D02*
G75*
G02*
X28892500Y-11588750I0J79375D01*
G01*
X28892500Y-10874375D02*
X28892500Y-10715625D01*
X28892500Y-11191875D02*
X28892500Y-11033125D01*
X28892500Y-11350625D02*
X28892500Y-11509375D01*
X28813125Y-10795000D02*
G75*
G03*
X28892500Y-10715625I0J79375D01*
G01*
X29686250Y-10636250D02*
X4365625Y-10636250D01*
X27146250Y-11588750D02*
G75*
G03*
X27225625Y-11668125I79375J0D01*
G01*
X26987500Y-11509375D02*
X26987500Y-11588750D01*
X27225625Y-11430000D02*
G75*
G03*
X27146250Y-11509375I0J-79375D01*
G01*
X26908125Y-11668125D02*
G75*
G03*
X26987500Y-11588750I0J79375D01*
G01*
X26987500Y-11509375D02*
G75*
G03*
X26908125Y-11430000I-79375J0D01*
G01*
X26908125Y-11668125D02*
X27225625Y-11668125D01*
X26908125Y-11430000D02*
X27225625Y-11430000D01*
X27146250Y-11509375D02*
X27146250Y-11588750D01*
X27622500Y-11588750D02*
G75*
G03*
X27701875Y-11668125I79375J0D01*
G01*
X27463750Y-11509375D02*
X27463750Y-11588750D01*
X27701875Y-11430000D02*
G75*
G03*
X27622500Y-11509375I0J-79375D01*
G01*
X27384375Y-11668125D02*
G75*
G03*
X27463750Y-11588750I0J79375D01*
G01*
X27463750Y-11509375D02*
G75*
G03*
X27384375Y-11430000I-79375J0D01*
G01*
X27384375Y-11668125D02*
X27701875Y-11668125D01*
X27384375Y-11430000D02*
X27701875Y-11430000D01*
X27622500Y-11509375D02*
X27622500Y-11588750D01*
X28098750Y-11588750D02*
G75*
G03*
X28178125Y-11668125I79375J0D01*
G01*
X27940000Y-11509375D02*
X27940000Y-11588750D01*
X28178125Y-11430000D02*
G75*
G03*
X28098750Y-11509375I0J-79375D01*
G01*
X27860625Y-11668125D02*
G75*
G03*
X27940000Y-11588750I0J79375D01*
G01*
X27940000Y-11509375D02*
G75*
G03*
X27860625Y-11430000I-79375J0D01*
G01*
X27860625Y-11668125D02*
X28178125Y-11668125D01*
X27860625Y-11430000D02*
X28178125Y-11430000D01*
X28098750Y-11509375D02*
X28098750Y-11588750D01*
X28575000Y-11588750D02*
G75*
G03*
X28654375Y-11668125I79375J0D01*
G01*
X28416250Y-11509375D02*
X28416250Y-11588750D01*
X28654375Y-11430000D02*
G75*
G03*
X28575000Y-11509375I0J-79375D01*
G01*
X28336875Y-11668125D02*
G75*
G03*
X28416250Y-11588750I0J79375D01*
G01*
X28416250Y-11509375D02*
G75*
G03*
X28336875Y-11430000I-79375J0D01*
G01*
X28336875Y-11668125D02*
X28654375Y-11668125D01*
X28336875Y-11430000D02*
X28654375Y-11430000D01*
X28575000Y-11509375D02*
X28575000Y-11588750D01*
X30638750Y-11430000D02*
X30559375Y-11430000D01*
X30638750Y-11509375D02*
X30638750Y-11588750D01*
X30638750Y-11509375D02*
G75*
G03*
X30559375Y-11430000I-79375J0D01*
G01*
X30559375Y-11668125D02*
G75*
G03*
X30638750Y-11588750I0J79375D01*
G01*
X31353125Y-10795000D02*
X31591250Y-10795000D01*
X31591250Y-10795000D02*
G75*
G03*
X31511875Y-10874375I0J-79375D01*
G01*
X31511875Y-11588750D02*
X31511875Y-10874375D01*
X31511875Y-11588750D02*
G75*
G03*
X31591250Y-11668125I79375J0D01*
G01*
X30559375Y-11668125D02*
X31591250Y-11668125D01*
X28892500Y-10874375D02*
G75*
G03*
X28813125Y-10795000I-79375J0D01*
G01*
X28892500Y-11191875D02*
G75*
G03*
X28813125Y-11112500I-79375J0D01*
G01*
X28813125Y-11112500D02*
G75*
G03*
X28892500Y-11033125I0J79375D01*
G01*
X28892500Y-11509375D02*
G75*
G03*
X28813125Y-11430000I-79375J0D01*
G01*
X28813125Y-11430000D02*
G75*
G03*
X28892500Y-11350625I0J79375D01*
G01*
X28813125Y-11668125D02*
G75*
G03*
X28892500Y-11588750I0J79375D01*
G01*
X31035625Y-10636250D02*
G75*
G03*
X31115000Y-10556875I0J79375D01*
G01*
X30876875Y-10556875D02*
G75*
G03*
X30956250Y-10636250I79375J0D01*
G01*
X31035625Y-10636250D02*
X30956250Y-10636250D01*
X30956250Y-10239375D02*
G75*
G03*
X30876875Y-10318750I0J-79375D01*
G01*
X30956250Y-10080625D02*
X31035625Y-10080625D01*
X31115000Y-10001250D02*
X31115000Y-10318750D01*
X31115000Y-10318750D02*
G75*
G03*
X31035625Y-10239375I-79375J0D01*
G01*
X30876875Y-10001250D02*
X30876875Y-10318750D01*
X31035625Y-10080625D02*
G75*
G03*
X31115000Y-10001250I0J79375D01*
G01*
X30956250Y-10239375D02*
X31035625Y-10239375D01*
X30876875Y-10001250D02*
G75*
G03*
X30956250Y-10080625I79375J0D01*
G01*
X30956250Y-9763125D02*
G75*
G03*
X30876875Y-9842500I0J-79375D01*
G01*
X30956250Y-9604375D02*
X31035625Y-9604375D01*
X31115000Y-9525000D02*
X31115000Y-9842500D01*
X31115000Y-9842500D02*
G75*
G03*
X31035625Y-9763125I-79375J0D01*
G01*
X30876875Y-9525000D02*
X30876875Y-9842500D01*
X31035625Y-9604375D02*
G75*
G03*
X31115000Y-9525000I0J79375D01*
G01*
X30956250Y-9763125D02*
X31035625Y-9763125D01*
X30876875Y-9525000D02*
G75*
G03*
X30956250Y-9604375I79375J0D01*
G01*
X36195000Y-10874375D02*
G75*
G03*
X36115625Y-10795000I-79375J0D01*
G01*
X36195000Y-10874375D02*
X36195000Y-11588750D01*
X36115625Y-11668125D02*
G75*
G03*
X36195000Y-11588750I0J79375D01*
G01*
X35560000Y-11668125D02*
X35877500Y-11668125D01*
X35560000Y-11668125D02*
G75*
G03*
X35639375Y-11588750I0J79375D01*
G01*
X35639375Y-10874375D02*
G75*
G03*
X35560000Y-10795000I-79375J0D01*
G01*
X35798125Y-11588750D02*
X35798125Y-10874375D01*
X35798125Y-11588750D02*
G75*
G03*
X35877500Y-11668125I79375J0D01*
G01*
X35877500Y-10795000D02*
X35560000Y-10795000D01*
X35639375Y-10874375D02*
X35639375Y-11588750D01*
X35877500Y-10795000D02*
G75*
G03*
X35798125Y-10874375I0J-79375D01*
G01*
X35083750Y-11668125D02*
X35401250Y-11668125D01*
X35083750Y-11668125D02*
G75*
G03*
X35163125Y-11588750I0J79375D01*
G01*
X35163125Y-10874375D02*
G75*
G03*
X35083750Y-10795000I-79375J0D01*
G01*
X35321875Y-11588750D02*
X35321875Y-10874375D01*
X35321875Y-11588750D02*
G75*
G03*
X35401250Y-11668125I79375J0D01*
G01*
X35401250Y-10795000D02*
X35083750Y-10795000D01*
X35163125Y-10874375D02*
X35163125Y-11588750D01*
X35401250Y-10795000D02*
G75*
G03*
X35321875Y-10874375I0J-79375D01*
G01*
X34607500Y-11668125D02*
X34925000Y-11668125D01*
X34607500Y-11668125D02*
G75*
G03*
X34686875Y-11588750I0J79375D01*
G01*
X34686875Y-10874375D02*
G75*
G03*
X34607500Y-10795000I-79375J0D01*
G01*
X34845625Y-11588750D02*
X34845625Y-10874375D01*
X34845625Y-11588750D02*
G75*
G03*
X34925000Y-11668125I79375J0D01*
G01*
X34925000Y-10795000D02*
X34607500Y-10795000D01*
X34686875Y-10874375D02*
X34686875Y-11588750D01*
X34925000Y-10795000D02*
G75*
G03*
X34845625Y-10874375I0J-79375D01*
G01*
X34131250Y-11668125D02*
X34448750Y-11668125D01*
X34131250Y-11668125D02*
G75*
G03*
X34210625Y-11588750I0J79375D01*
G01*
X34210625Y-10874375D02*
G75*
G03*
X34131250Y-10795000I-79375J0D01*
G01*
X34369375Y-11588750D02*
X34369375Y-10874375D01*
X34369375Y-11588750D02*
G75*
G03*
X34448750Y-11668125I79375J0D01*
G01*
X34448750Y-10795000D02*
X34131250Y-10795000D01*
X34210625Y-10874375D02*
X34210625Y-11588750D01*
X34448750Y-10795000D02*
G75*
G03*
X34369375Y-10874375I0J-79375D01*
G01*
X33655000Y-11668125D02*
X33972500Y-11668125D01*
X33655000Y-11668125D02*
G75*
G03*
X33734375Y-11588750I0J79375D01*
G01*
X33734375Y-10874375D02*
G75*
G03*
X33655000Y-10795000I-79375J0D01*
G01*
X33893125Y-11588750D02*
X33893125Y-10874375D01*
X33893125Y-11588750D02*
G75*
G03*
X33972500Y-11668125I79375J0D01*
G01*
X33972500Y-10795000D02*
X33655000Y-10795000D01*
X33734375Y-10874375D02*
X33734375Y-11588750D01*
X33972500Y-10795000D02*
G75*
G03*
X33893125Y-10874375I0J-79375D01*
G01*
X33178750Y-11668125D02*
X33496250Y-11668125D01*
X33178750Y-11668125D02*
G75*
G03*
X33258125Y-11588750I0J79375D01*
G01*
X33258125Y-10874375D02*
G75*
G03*
X33178750Y-10795000I-79375J0D01*
G01*
X33416875Y-11588750D02*
X33416875Y-10874375D01*
X33416875Y-11588750D02*
G75*
G03*
X33496250Y-11668125I79375J0D01*
G01*
X33496250Y-10795000D02*
X33178750Y-10795000D01*
X33258125Y-10874375D02*
X33258125Y-11588750D01*
X33496250Y-10795000D02*
G75*
G03*
X33416875Y-10874375I0J-79375D01*
G01*
X33020000Y-11668125D02*
G75*
G02*
X32940625Y-11588750I0J79375D01*
G01*
X32702500Y-11668125D02*
X33020000Y-11668125D01*
X32781875Y-11588750D02*
G75*
G02*
X32702500Y-11668125I-79375J0D01*
G01*
X32861250Y-11430000D02*
G75*
G03*
X32781875Y-11509375I0J-79375D01*
G01*
X32781875Y-11509375D02*
X32781875Y-11588750D01*
X32940625Y-11509375D02*
G75*
G03*
X32861250Y-11430000I-79375J0D01*
G01*
X32940625Y-11588750D02*
X32940625Y-11509375D01*
X32543750Y-11668125D02*
G75*
G02*
X32464375Y-11588750I0J79375D01*
G01*
X32226250Y-11668125D02*
X32543750Y-11668125D01*
X32305625Y-11588750D02*
G75*
G02*
X32226250Y-11668125I-79375J0D01*
G01*
X32464375Y-11509375D02*
G75*
G03*
X32385000Y-11430000I-79375J0D01*
G01*
X32305625Y-11509375D02*
X32305625Y-11588750D01*
X32385000Y-11430000D02*
G75*
G03*
X32305625Y-11509375I0J-79375D01*
G01*
X32464375Y-11588750D02*
X32464375Y-11509375D01*
X31829375Y-10874375D02*
X31829375Y-11588750D01*
X32067500Y-10795000D02*
G75*
G03*
X31988125Y-10874375I0J-79375D01*
G01*
X32067500Y-10795000D02*
X31750000Y-10795000D01*
X31988125Y-11588750D02*
G75*
G03*
X32067500Y-11668125I79375J0D01*
G01*
X31988125Y-11588750D02*
X31988125Y-10874375D01*
X31829375Y-10874375D02*
G75*
G03*
X31750000Y-10795000I-79375J0D01*
G01*
X31750000Y-11668125D02*
G75*
G03*
X31829375Y-11588750I0J79375D01*
G01*
X31750000Y-11668125D02*
X32067500Y-11668125D01*
X29924375Y-8810625D02*
G75*
G02*
X30162500Y-8572500I238125J0D01*
G01*
X32861250Y-11033125D02*
G75*
G02*
X32781875Y-10953750I0J79375D01*
G01*
X32940625Y-10953750D02*
G75*
G02*
X32861250Y-11033125I-79375J0D01*
G01*
X32385000Y-11033125D02*
G75*
G02*
X32305625Y-10953750I0J79375D01*
G01*
X32464375Y-10953750D02*
G75*
G02*
X32385000Y-11033125I-79375J0D01*
G01*
X30876875Y-9048750D02*
G75*
G03*
X30956250Y-9128125I79375J0D01*
G01*
X30956250Y-9128125D02*
X31035625Y-9128125D01*
X30876875Y-9048750D02*
X30876875Y-9366250D01*
X31035625Y-9128125D02*
G75*
G03*
X31115000Y-9048750I0J79375D01*
G01*
X30956250Y-9286875D02*
G75*
G03*
X30876875Y-9366250I0J-79375D01*
G01*
X31115000Y-9048750D02*
X31115000Y-9366250D01*
X30956250Y-9286875D02*
X31035625Y-9286875D01*
X31115000Y-9366250D02*
G75*
G03*
X31035625Y-9286875I-79375J0D01*
G01*
X31115000Y-8810625D02*
G75*
G03*
X31035625Y-8731250I-79375J0D01*
G01*
X31035625Y-8731250D02*
X30956250Y-8731250D01*
X30956250Y-8731250D02*
G75*
G03*
X30876875Y-8810625I0J-79375D01*
G01*
X32305625Y-10874375D02*
X32305625Y-10953750D01*
X32464375Y-10953750D02*
X32464375Y-10874375D01*
X32543750Y-10795000D02*
G75*
G03*
X32464375Y-10874375I0J-79375D01*
G01*
X32543750Y-10795000D02*
X32226250Y-10795000D01*
X32305625Y-10874375D02*
G75*
G03*
X32226250Y-10795000I-79375J0D01*
G01*
X32781875Y-10874375D02*
X32781875Y-10953750D01*
X32940625Y-10953750D02*
X32940625Y-10874375D01*
X33020000Y-10795000D02*
G75*
G03*
X32940625Y-10874375I0J-79375D01*
G01*
X33020000Y-10795000D02*
X32702500Y-10795000D01*
X32781875Y-10874375D02*
G75*
G03*
X32702500Y-10795000I-79375J0D01*
G01*
X29686250Y-10636250D02*
G75*
G03*
X29924375Y-10398125I0J238125D01*
G01*
X30638750Y-8572500D02*
X30162500Y-8572500D01*
X4127500Y-11191875D02*
X4127500Y-10874375D01*
X36512500Y-10556875D02*
X36512500Y-8810625D01*
X36512500Y-22860000D02*
X36512500Y-11906250D01*
X36274375Y-8572500D02*
X31353125Y-8572500D01*
X36512500Y-8810625D02*
G75*
G03*
X36274375Y-8572500I-238125J0D01*
G01*
X36512500Y-11906250D02*
G75*
G03*
X36274375Y-11668125I-238125J0D01*
G01*
X4127500Y-22860000D02*
X4127500Y-11906250D01*
X29924375Y-8810625D02*
X29924375Y-10398125D01*
X36274375Y-10795000D02*
G75*
G03*
X36512500Y-10556875I0J238125D01*
G01*
X4365625Y-10636250D02*
G75*
G03*
X4127500Y-10874375I0J-238125D01*
G01*
X4127500Y-11191875D02*
G75*
G03*
X4365625Y-11430000I238125J0D01*
G01*
X30876875Y-8810625D02*
G75*
G03*
X30638750Y-8572500I-238125J0D01*
G01*
X30638750Y-11430000D02*
G75*
G03*
X30876875Y-11191875I0J238125D01*
G01*
X36274375Y-10795000D02*
X36115625Y-10795000D01*
X29368750Y-11509375D02*
X29368750Y-11588750D01*
X29130625Y-11430000D02*
X29448125Y-11430000D01*
X36274375Y-11668125D02*
X36115625Y-11668125D01*
X30321250Y-11509375D02*
X30321250Y-11588750D01*
X29686250Y-11509375D02*
X29686250Y-11588750D01*
X30083125Y-11430000D02*
X30400625Y-11430000D01*
X29210000Y-11509375D02*
G75*
G03*
X29130625Y-11430000I-79375J0D01*
G01*
X29130625Y-11668125D02*
X29448125Y-11668125D01*
X30321250Y-11588750D02*
G75*
G03*
X30400625Y-11668125I79375J0D01*
G01*
X30162500Y-11509375D02*
G75*
G03*
X30083125Y-11430000I-79375J0D01*
G01*
X29845000Y-11588750D02*
G75*
G03*
X29924375Y-11668125I79375J0D01*
G01*
X30083125Y-11668125D02*
G75*
G03*
X30162500Y-11588750I0J79375D01*
G01*
X29606875Y-11430000D02*
X29924375Y-11430000D01*
X30400625Y-11430000D02*
G75*
G03*
X30321250Y-11509375I0J-79375D01*
G01*
X31115000Y-10556875D02*
G75*
G03*
X31353125Y-10795000I238125J0D01*
G01*
X30876875Y-10556875D02*
X30876875Y-11191875D01*
X31353125Y-8572500D02*
G75*
G03*
X31115000Y-8810625I0J-238125D01*
G01*
X29368750Y-11588750D02*
G75*
G03*
X29448125Y-11668125I79375J0D01*
G01*
X29606875Y-11668125D02*
X29924375Y-11668125D01*
X30083125Y-11668125D02*
X30400625Y-11668125D01*
X29845000Y-11509375D02*
X29845000Y-11588750D01*
X29210000Y-11509375D02*
X29210000Y-11588750D01*
X29130625Y-11668125D02*
G75*
G03*
X29210000Y-11588750I0J79375D01*
G01*
X29686250Y-11509375D02*
G75*
G03*
X29606875Y-11430000I-79375J0D01*
G01*
X4365625Y-23098125D02*
X36274375Y-23098125D01*
X29924375Y-11430000D02*
G75*
G03*
X29845000Y-11509375I0J-79375D01*
G01*
X4127500Y-22860000D02*
G75*
G03*
X4365625Y-23098125I238125J0D01*
G01*
X36274375Y-23098125D02*
G75*
G03*
X36512500Y-22860000I0J238125D01*
G01*
X29448125Y-11430000D02*
G75*
G03*
X29368750Y-11509375I0J-79375D01*
G01*
X29606875Y-11668125D02*
G75*
G03*
X29686250Y-11588750I0J79375D01*
G01*
X30162500Y-11509375D02*
X30162500Y-11588750D01*
X4365625Y-11668125D02*
G75*
G03*
X4127500Y-11906250I0J-238125D01*
G01*
D11*
X35289300Y-9169925D02*
X35354300Y-9234925D01*
X35354300Y-9169925D02*
X35289300Y-9234925D01*
X35867300Y-9169925D02*
X35932300Y-9234925D01*
X35932300Y-9169925D02*
X35867300Y-9234925D01*
X4659500Y-12620625D02*
G75*
G03*
X4659500Y-12620625I-87500J0D01*
G01*
X4659500Y-14525625D02*
G75*
G03*
X4659500Y-14525625I-87500J0D01*
G01*
X4659500Y-16430625D02*
G75*
G03*
X4659500Y-16430625I-87500J0D01*
G01*
X4659500Y-18335625D02*
G75*
G03*
X4659500Y-18335625I-87500J0D01*
G01*
X4659500Y-20240625D02*
G75*
G03*
X4659500Y-20240625I-87500J0D01*
G01*
X4659500Y-22145625D02*
G75*
G03*
X4659500Y-22145625I-87500J0D01*
G01*
X5675500Y-12620625D02*
G75*
G03*
X5675500Y-12620625I-87500J0D01*
G01*
X5675500Y-14525625D02*
G75*
G03*
X5675500Y-14525625I-87500J0D01*
G01*
X5675500Y-16430625D02*
G75*
G03*
X5675500Y-16430625I-87500J0D01*
G01*
X5675500Y-18335625D02*
G75*
G03*
X5675500Y-18335625I-87500J0D01*
G01*
X5675500Y-20240625D02*
G75*
G03*
X5675500Y-20240625I-87500J0D01*
G01*
X5675500Y-22145625D02*
G75*
G03*
X5675500Y-22145625I-87500J0D01*
G01*
X6564500Y-12620625D02*
G75*
G03*
X6564500Y-12620625I-87500J0D01*
G01*
X6564500Y-14525625D02*
G75*
G03*
X6564500Y-14525625I-87500J0D01*
G01*
X6564500Y-16430625D02*
G75*
G03*
X6564500Y-16430625I-87500J0D01*
G01*
X6564500Y-18335625D02*
G75*
G03*
X6564500Y-18335625I-87500J0D01*
G01*
X6564500Y-20240625D02*
G75*
G03*
X6564500Y-20240625I-87500J0D01*
G01*
X6564500Y-22145625D02*
G75*
G03*
X6564500Y-22145625I-87500J0D01*
G01*
X7580500Y-12620625D02*
G75*
G03*
X7580500Y-12620625I-87500J0D01*
G01*
X7580500Y-14525625D02*
G75*
G03*
X7580500Y-14525625I-87500J0D01*
G01*
X7580500Y-16430625D02*
G75*
G03*
X7580500Y-16430625I-87500J0D01*
G01*
X7580500Y-18335625D02*
G75*
G03*
X7580500Y-18335625I-87500J0D01*
G01*
X7580500Y-20240625D02*
G75*
G03*
X7580500Y-20240625I-87500J0D01*
G01*
X7580500Y-22145625D02*
G75*
G03*
X7580500Y-22145625I-87500J0D01*
G01*
X8469500Y-12620625D02*
G75*
G03*
X8469500Y-12620625I-87500J0D01*
G01*
X8469500Y-14525625D02*
G75*
G03*
X8469500Y-14525625I-87500J0D01*
G01*
X8469500Y-16430625D02*
G75*
G03*
X8469500Y-16430625I-87500J0D01*
G01*
X8469500Y-18335625D02*
G75*
G03*
X8469500Y-18335625I-87500J0D01*
G01*
X8469500Y-20240625D02*
G75*
G03*
X8469500Y-20240625I-87500J0D01*
G01*
X8469500Y-22145625D02*
G75*
G03*
X8469500Y-22145625I-87500J0D01*
G01*
X9485500Y-12620625D02*
G75*
G03*
X9485500Y-12620625I-87500J0D01*
G01*
X9485500Y-14525625D02*
G75*
G03*
X9485500Y-14525625I-87500J0D01*
G01*
X9485500Y-16430625D02*
G75*
G03*
X9485500Y-16430625I-87500J0D01*
G01*
X9485500Y-18335625D02*
G75*
G03*
X9485500Y-18335625I-87500J0D01*
G01*
X9485500Y-20240625D02*
G75*
G03*
X9485500Y-20240625I-87500J0D01*
G01*
X9485500Y-22145625D02*
G75*
G03*
X9485500Y-22145625I-87500J0D01*
G01*
X10374500Y-12620625D02*
G75*
G03*
X10374500Y-12620625I-87500J0D01*
G01*
X10374500Y-14525625D02*
G75*
G03*
X10374500Y-14525625I-87500J0D01*
G01*
X10374500Y-16430625D02*
G75*
G03*
X10374500Y-16430625I-87500J0D01*
G01*
X10374500Y-18335625D02*
G75*
G03*
X10374500Y-18335625I-87500J0D01*
G01*
X10374500Y-20240625D02*
G75*
G03*
X10374500Y-20240625I-87500J0D01*
G01*
X10374500Y-22145625D02*
G75*
G03*
X10374500Y-22145625I-87500J0D01*
G01*
X11390500Y-12620625D02*
G75*
G03*
X11390500Y-12620625I-87500J0D01*
G01*
X11390500Y-14525625D02*
G75*
G03*
X11390500Y-14525625I-87500J0D01*
G01*
X11390500Y-16430625D02*
G75*
G03*
X11390500Y-16430625I-87500J0D01*
G01*
X11390500Y-18335625D02*
G75*
G03*
X11390500Y-18335625I-87500J0D01*
G01*
X11390500Y-20240625D02*
G75*
G03*
X11390500Y-20240625I-87500J0D01*
G01*
X11390500Y-22145625D02*
G75*
G03*
X11390500Y-22145625I-87500J0D01*
G01*
X12279500Y-12620625D02*
G75*
G03*
X12279500Y-12620625I-87500J0D01*
G01*
X12279500Y-14525625D02*
G75*
G03*
X12279500Y-14525625I-87500J0D01*
G01*
X12279500Y-16430625D02*
G75*
G03*
X12279500Y-16430625I-87500J0D01*
G01*
X12279500Y-18335625D02*
G75*
G03*
X12279500Y-18335625I-87500J0D01*
G01*
X12279500Y-20240625D02*
G75*
G03*
X12279500Y-20240625I-87500J0D01*
G01*
X12279500Y-22145625D02*
G75*
G03*
X12279500Y-22145625I-87500J0D01*
G01*
X13295500Y-12620625D02*
G75*
G03*
X13295500Y-12620625I-87500J0D01*
G01*
X13295500Y-14525625D02*
G75*
G03*
X13295500Y-14525625I-87500J0D01*
G01*
X13295500Y-16430625D02*
G75*
G03*
X13295500Y-16430625I-87500J0D01*
G01*
X13295500Y-18335625D02*
G75*
G03*
X13295500Y-18335625I-87500J0D01*
G01*
X13295500Y-20240625D02*
G75*
G03*
X13295500Y-20240625I-87500J0D01*
G01*
X13295500Y-22145625D02*
G75*
G03*
X13295500Y-22145625I-87500J0D01*
G01*
X14184500Y-12620625D02*
G75*
G03*
X14184500Y-12620625I-87500J0D01*
G01*
X14184500Y-14525625D02*
G75*
G03*
X14184500Y-14525625I-87500J0D01*
G01*
X14184500Y-16430625D02*
G75*
G03*
X14184500Y-16430625I-87500J0D01*
G01*
X14184500Y-18335625D02*
G75*
G03*
X14184500Y-18335625I-87500J0D01*
G01*
X14184500Y-20240625D02*
G75*
G03*
X14184500Y-20240625I-87500J0D01*
G01*
X14184500Y-22145625D02*
G75*
G03*
X14184500Y-22145625I-87500J0D01*
G01*
X15200500Y-12620625D02*
G75*
G03*
X15200500Y-12620625I-87500J0D01*
G01*
X15200500Y-14525625D02*
G75*
G03*
X15200500Y-14525625I-87500J0D01*
G01*
X15200500Y-16430625D02*
G75*
G03*
X15200500Y-16430625I-87500J0D01*
G01*
X15200500Y-18335625D02*
G75*
G03*
X15200500Y-18335625I-87500J0D01*
G01*
X15200500Y-20240625D02*
G75*
G03*
X15200500Y-20240625I-87500J0D01*
G01*
X15200500Y-22145625D02*
G75*
G03*
X15200500Y-22145625I-87500J0D01*
G01*
X16089500Y-12620625D02*
G75*
G03*
X16089500Y-12620625I-87500J0D01*
G01*
X16089500Y-14525625D02*
G75*
G03*
X16089500Y-14525625I-87500J0D01*
G01*
X16089500Y-16430625D02*
G75*
G03*
X16089500Y-16430625I-87500J0D01*
G01*
X16089500Y-18335625D02*
G75*
G03*
X16089500Y-18335625I-87500J0D01*
G01*
X16089500Y-20240625D02*
G75*
G03*
X16089500Y-20240625I-87500J0D01*
G01*
X16089500Y-22145625D02*
G75*
G03*
X16089500Y-22145625I-87500J0D01*
G01*
X17105500Y-12620625D02*
G75*
G03*
X17105500Y-12620625I-87500J0D01*
G01*
X17105500Y-14525625D02*
G75*
G03*
X17105500Y-14525625I-87500J0D01*
G01*
X17105500Y-16430625D02*
G75*
G03*
X17105500Y-16430625I-87500J0D01*
G01*
X17105500Y-18335625D02*
G75*
G03*
X17105500Y-18335625I-87500J0D01*
G01*
X17105500Y-20240625D02*
G75*
G03*
X17105500Y-20240625I-87500J0D01*
G01*
X17105500Y-22145625D02*
G75*
G03*
X17105500Y-22145625I-87500J0D01*
G01*
X17994500Y-12620625D02*
G75*
G03*
X17994500Y-12620625I-87500J0D01*
G01*
X17994500Y-14525625D02*
G75*
G03*
X17994500Y-14525625I-87500J0D01*
G01*
X17994500Y-16430625D02*
G75*
G03*
X17994500Y-16430625I-87500J0D01*
G01*
X17994500Y-18335625D02*
G75*
G03*
X17994500Y-18335625I-87500J0D01*
G01*
X17994500Y-20240625D02*
G75*
G03*
X17994500Y-20240625I-87500J0D01*
G01*
X17994500Y-22145625D02*
G75*
G03*
X17994500Y-22145625I-87500J0D01*
G01*
X19010500Y-12620625D02*
G75*
G03*
X19010500Y-12620625I-87500J0D01*
G01*
X19010500Y-14525625D02*
G75*
G03*
X19010500Y-14525625I-87500J0D01*
G01*
X19010500Y-16430625D02*
G75*
G03*
X19010500Y-16430625I-87500J0D01*
G01*
X19010500Y-18335625D02*
G75*
G03*
X19010500Y-18335625I-87500J0D01*
G01*
X19010500Y-20240625D02*
G75*
G03*
X19010500Y-20240625I-87500J0D01*
G01*
X19010500Y-22145625D02*
G75*
G03*
X19010500Y-22145625I-87500J0D01*
G01*
X19899500Y-12620625D02*
G75*
G03*
X19899500Y-12620625I-87500J0D01*
G01*
X19899500Y-14525625D02*
G75*
G03*
X19899500Y-14525625I-87500J0D01*
G01*
X19899500Y-16430625D02*
G75*
G03*
X19899500Y-16430625I-87500J0D01*
G01*
X19899500Y-18335625D02*
G75*
G03*
X19899500Y-18335625I-87500J0D01*
G01*
X19899500Y-20240625D02*
G75*
G03*
X19899500Y-20240625I-87500J0D01*
G01*
X19899500Y-22145625D02*
G75*
G03*
X19899500Y-22145625I-87500J0D01*
G01*
X20915500Y-12620625D02*
G75*
G03*
X20915500Y-12620625I-87500J0D01*
G01*
X20915500Y-14525625D02*
G75*
G03*
X20915500Y-14525625I-87500J0D01*
G01*
X20915500Y-16430625D02*
G75*
G03*
X20915500Y-16430625I-87500J0D01*
G01*
X20915500Y-18335625D02*
G75*
G03*
X20915500Y-18335625I-87500J0D01*
G01*
X20915500Y-20240625D02*
G75*
G03*
X20915500Y-20240625I-87500J0D01*
G01*
X20915500Y-22145625D02*
G75*
G03*
X20915500Y-22145625I-87500J0D01*
G01*
X21804500Y-12620625D02*
G75*
G03*
X21804500Y-12620625I-87500J0D01*
G01*
X21804500Y-14525625D02*
G75*
G03*
X21804500Y-14525625I-87500J0D01*
G01*
X21804500Y-16430625D02*
G75*
G03*
X21804500Y-16430625I-87500J0D01*
G01*
X21804500Y-18335625D02*
G75*
G03*
X21804500Y-18335625I-87500J0D01*
G01*
X21804500Y-20240625D02*
G75*
G03*
X21804500Y-20240625I-87500J0D01*
G01*
X21804500Y-22145625D02*
G75*
G03*
X21804500Y-22145625I-87500J0D01*
G01*
X22820500Y-12620625D02*
G75*
G03*
X22820500Y-12620625I-87500J0D01*
G01*
X22820500Y-14525625D02*
G75*
G03*
X22820500Y-14525625I-87500J0D01*
G01*
X22820500Y-16430625D02*
G75*
G03*
X22820500Y-16430625I-87500J0D01*
G01*
X22820500Y-18335625D02*
G75*
G03*
X22820500Y-18335625I-87500J0D01*
G01*
X22820500Y-20240625D02*
G75*
G03*
X22820500Y-20240625I-87500J0D01*
G01*
X22820500Y-22145625D02*
G75*
G03*
X22820500Y-22145625I-87500J0D01*
G01*
X23709500Y-12620625D02*
G75*
G03*
X23709500Y-12620625I-87500J0D01*
G01*
X23709500Y-14525625D02*
G75*
G03*
X23709500Y-14525625I-87500J0D01*
G01*
X23709500Y-16430625D02*
G75*
G03*
X23709500Y-16430625I-87500J0D01*
G01*
X23709500Y-18335625D02*
G75*
G03*
X23709500Y-18335625I-87500J0D01*
G01*
X23709500Y-20240625D02*
G75*
G03*
X23709500Y-20240625I-87500J0D01*
G01*
X23709500Y-22145625D02*
G75*
G03*
X23709500Y-22145625I-87500J0D01*
G01*
X24725500Y-12620625D02*
G75*
G03*
X24725500Y-12620625I-87500J0D01*
G01*
X24725500Y-14525625D02*
G75*
G03*
X24725500Y-14525625I-87500J0D01*
G01*
X24725500Y-16430625D02*
G75*
G03*
X24725500Y-16430625I-87500J0D01*
G01*
X24725500Y-18335625D02*
G75*
G03*
X24725500Y-18335625I-87500J0D01*
G01*
X24725500Y-20240625D02*
G75*
G03*
X24725500Y-20240625I-87500J0D01*
G01*
X24725500Y-22145625D02*
G75*
G03*
X24725500Y-22145625I-87500J0D01*
G01*
X25614500Y-12620625D02*
G75*
G03*
X25614500Y-12620625I-87500J0D01*
G01*
X25614500Y-14525625D02*
G75*
G03*
X25614500Y-14525625I-87500J0D01*
G01*
X25614500Y-16430625D02*
G75*
G03*
X25614500Y-16430625I-87500J0D01*
G01*
X25614500Y-18335625D02*
G75*
G03*
X25614500Y-18335625I-87500J0D01*
G01*
X25614500Y-20240625D02*
G75*
G03*
X25614500Y-20240625I-87500J0D01*
G01*
X25614500Y-22145625D02*
G75*
G03*
X25614500Y-22145625I-87500J0D01*
G01*
X26630500Y-12620625D02*
G75*
G03*
X26630500Y-12620625I-87500J0D01*
G01*
X26630500Y-14525625D02*
G75*
G03*
X26630500Y-14525625I-87500J0D01*
G01*
X26630500Y-16430625D02*
G75*
G03*
X26630500Y-16430625I-87500J0D01*
G01*
X26630500Y-18335625D02*
G75*
G03*
X26630500Y-18335625I-87500J0D01*
G01*
X26630500Y-20240625D02*
G75*
G03*
X26630500Y-20240625I-87500J0D01*
G01*
X26630500Y-22145625D02*
G75*
G03*
X26630500Y-22145625I-87500J0D01*
G01*
X27519500Y-12620625D02*
G75*
G03*
X27519500Y-12620625I-87500J0D01*
G01*
X27519500Y-14525625D02*
G75*
G03*
X27519500Y-14525625I-87500J0D01*
G01*
X27519500Y-16430625D02*
G75*
G03*
X27519500Y-16430625I-87500J0D01*
G01*
X27519500Y-18335625D02*
G75*
G03*
X27519500Y-18335625I-87500J0D01*
G01*
X27519500Y-20240625D02*
G75*
G03*
X27519500Y-20240625I-87500J0D01*
G01*
X27519500Y-22145625D02*
G75*
G03*
X27519500Y-22145625I-87500J0D01*
G01*
X28535500Y-12620625D02*
G75*
G03*
X28535500Y-12620625I-87500J0D01*
G01*
X28535500Y-14525625D02*
G75*
G03*
X28535500Y-14525625I-87500J0D01*
G01*
X28535500Y-16430625D02*
G75*
G03*
X28535500Y-16430625I-87500J0D01*
G01*
X28535500Y-18335625D02*
G75*
G03*
X28535500Y-18335625I-87500J0D01*
G01*
X28535500Y-20240625D02*
G75*
G03*
X28535500Y-20240625I-87500J0D01*
G01*
X28535500Y-22145625D02*
G75*
G03*
X28535500Y-22145625I-87500J0D01*
G01*
X29424500Y-12620625D02*
G75*
G03*
X29424500Y-12620625I-87500J0D01*
G01*
X29424500Y-14525625D02*
G75*
G03*
X29424500Y-14525625I-87500J0D01*
G01*
X29424500Y-16430625D02*
G75*
G03*
X29424500Y-16430625I-87500J0D01*
G01*
X29424500Y-18335625D02*
G75*
G03*
X29424500Y-18335625I-87500J0D01*
G01*
X29424500Y-20240625D02*
G75*
G03*
X29424500Y-20240625I-87500J0D01*
G01*
X29424500Y-22145625D02*
G75*
G03*
X29424500Y-22145625I-87500J0D01*
G01*
X30440500Y-12620625D02*
G75*
G03*
X30440500Y-12620625I-87500J0D01*
G01*
X30440500Y-14525625D02*
G75*
G03*
X30440500Y-14525625I-87500J0D01*
G01*
X30440500Y-16430625D02*
G75*
G03*
X30440500Y-16430625I-87500J0D01*
G01*
X30440500Y-18335625D02*
G75*
G03*
X30440500Y-18335625I-87500J0D01*
G01*
X30440500Y-20240625D02*
G75*
G03*
X30440500Y-20240625I-87500J0D01*
G01*
X30440500Y-22145625D02*
G75*
G03*
X30440500Y-22145625I-87500J0D01*
G01*
X31329500Y-12620625D02*
G75*
G03*
X31329500Y-12620625I-87500J0D01*
G01*
X31329500Y-14525625D02*
G75*
G03*
X31329500Y-14525625I-87500J0D01*
G01*
X31329500Y-16430625D02*
G75*
G03*
X31329500Y-16430625I-87500J0D01*
G01*
X31329500Y-18335625D02*
G75*
G03*
X31329500Y-18335625I-87500J0D01*
G01*
X31329500Y-20240625D02*
G75*
G03*
X31329500Y-20240625I-87500J0D01*
G01*
X31329500Y-22145625D02*
G75*
G03*
X31329500Y-22145625I-87500J0D01*
G01*
X32345500Y-12620625D02*
G75*
G03*
X32345500Y-12620625I-87500J0D01*
G01*
X32345500Y-14525625D02*
G75*
G03*
X32345500Y-14525625I-87500J0D01*
G01*
X32345500Y-16430625D02*
G75*
G03*
X32345500Y-16430625I-87500J0D01*
G01*
X32345500Y-18335625D02*
G75*
G03*
X32345500Y-18335625I-87500J0D01*
G01*
X32345500Y-20240625D02*
G75*
G03*
X32345500Y-20240625I-87500J0D01*
G01*
X32345500Y-22145625D02*
G75*
G03*
X32345500Y-22145625I-87500J0D01*
G01*
X33234500Y-12620625D02*
G75*
G03*
X33234500Y-12620625I-87500J0D01*
G01*
X33234500Y-14525625D02*
G75*
G03*
X33234500Y-14525625I-87500J0D01*
G01*
X33234500Y-16430625D02*
G75*
G03*
X33234500Y-16430625I-87500J0D01*
G01*
X33234500Y-18335625D02*
G75*
G03*
X33234500Y-18335625I-87500J0D01*
G01*
X33234500Y-20240625D02*
G75*
G03*
X33234500Y-20240625I-87500J0D01*
G01*
X33234500Y-22145625D02*
G75*
G03*
X33234500Y-22145625I-87500J0D01*
G01*
X34250500Y-12620625D02*
G75*
G03*
X34250500Y-12620625I-87500J0D01*
G01*
X34250500Y-14525625D02*
G75*
G03*
X34250500Y-14525625I-87500J0D01*
G01*
X34250500Y-16430625D02*
G75*
G03*
X34250500Y-16430625I-87500J0D01*
G01*
X34250500Y-18335625D02*
G75*
G03*
X34250500Y-18335625I-87500J0D01*
G01*
X34250500Y-20240625D02*
G75*
G03*
X34250500Y-20240625I-87500J0D01*
G01*
X34250500Y-22145625D02*
G75*
G03*
X34250500Y-22145625I-87500J0D01*
G01*
X35139500Y-12620625D02*
G75*
G03*
X35139500Y-12620625I-87500J0D01*
G01*
X35139500Y-14525625D02*
G75*
G03*
X35139500Y-14525625I-87500J0D01*
G01*
X35139500Y-16430625D02*
G75*
G03*
X35139500Y-16430625I-87500J0D01*
G01*
X35139500Y-18335625D02*
G75*
G03*
X35139500Y-18335625I-87500J0D01*
G01*
X35139500Y-20240625D02*
G75*
G03*
X35139500Y-20240625I-87500J0D01*
G01*
X35139500Y-22145625D02*
G75*
G03*
X35139500Y-22145625I-87500J0D01*
G01*
X36155500Y-12620625D02*
G75*
G03*
X36155500Y-12620625I-87500J0D01*
G01*
X36155500Y-14525625D02*
G75*
G03*
X36155500Y-14525625I-87500J0D01*
G01*
X36155500Y-16430625D02*
G75*
G03*
X36155500Y-16430625I-87500J0D01*
G01*
X36155500Y-18335625D02*
G75*
G03*
X36155500Y-18335625I-87500J0D01*
G01*
X36155500Y-20240625D02*
G75*
G03*
X36155500Y-20240625I-87500J0D01*
G01*
X36155500Y-22145625D02*
G75*
G03*
X36155500Y-22145625I-87500J0D01*
G01*
X5080000Y-12421235D02*
X5080000Y-12820015D01*
X4880610Y-12620625D02*
X5279390Y-12620625D01*
X5080000Y-14326235D02*
X5080000Y-14725015D01*
X4880610Y-14525625D02*
X5279390Y-14525625D01*
X5080000Y-16231235D02*
X5080000Y-16630015D01*
X4880610Y-16430625D02*
X5279390Y-16430625D01*
X5080000Y-18136235D02*
X5080000Y-18535015D01*
X4880610Y-18335625D02*
X5279390Y-18335625D01*
X5080000Y-20041235D02*
X5080000Y-20440015D01*
X4880610Y-20240625D02*
X5279390Y-20240625D01*
X5080000Y-21946235D02*
X5080000Y-22345015D01*
X4880610Y-22145625D02*
X5279390Y-22145625D01*
X6985000Y-12421235D02*
X6985000Y-12820015D01*
X6785610Y-12620625D02*
X7184390Y-12620625D01*
X6985000Y-14326235D02*
X6985000Y-14725015D01*
X6785610Y-14525625D02*
X7184390Y-14525625D01*
X6985000Y-16231235D02*
X6985000Y-16630015D01*
X6785610Y-16430625D02*
X7184390Y-16430625D01*
X6985000Y-18136235D02*
X6985000Y-18535015D01*
X6785610Y-18335625D02*
X7184390Y-18335625D01*
X6985000Y-20041235D02*
X6985000Y-20440015D01*
X6785610Y-20240625D02*
X7184390Y-20240625D01*
X6985000Y-21946235D02*
X6985000Y-22345015D01*
X6785610Y-22145625D02*
X7184390Y-22145625D01*
X8890000Y-12421235D02*
X8890000Y-12820015D01*
X8690610Y-12620625D02*
X9089390Y-12620625D01*
X8890000Y-14326235D02*
X8890000Y-14725015D01*
X8690610Y-14525625D02*
X9089390Y-14525625D01*
X8890000Y-16231235D02*
X8890000Y-16630015D01*
X8690610Y-16430625D02*
X9089390Y-16430625D01*
X8890000Y-18136235D02*
X8890000Y-18535015D01*
X8690610Y-18335625D02*
X9089390Y-18335625D01*
X8890000Y-20041235D02*
X8890000Y-20440015D01*
X8690610Y-20240625D02*
X9089390Y-20240625D01*
X8890000Y-21946235D02*
X8890000Y-22345015D01*
X8690610Y-22145625D02*
X9089390Y-22145625D01*
X10795000Y-12421235D02*
X10795000Y-12820015D01*
X10595610Y-12620625D02*
X10994390Y-12620625D01*
X10795000Y-14326235D02*
X10795000Y-14725015D01*
X10595610Y-14525625D02*
X10994390Y-14525625D01*
X10795000Y-16231235D02*
X10795000Y-16630015D01*
X10595610Y-16430625D02*
X10994390Y-16430625D01*
X10795000Y-18136235D02*
X10795000Y-18535015D01*
X10595610Y-18335625D02*
X10994390Y-18335625D01*
X10795000Y-20041235D02*
X10795000Y-20440015D01*
X10595610Y-20240625D02*
X10994390Y-20240625D01*
X10795000Y-21946235D02*
X10795000Y-22345015D01*
X10595610Y-22145625D02*
X10994390Y-22145625D01*
X12700000Y-12421235D02*
X12700000Y-12820015D01*
X12500610Y-12620625D02*
X12899390Y-12620625D01*
X12700000Y-14326235D02*
X12700000Y-14725015D01*
X12500610Y-14525625D02*
X12899390Y-14525625D01*
X12700000Y-16231235D02*
X12700000Y-16630015D01*
X12500610Y-16430625D02*
X12899390Y-16430625D01*
X12700000Y-18136235D02*
X12700000Y-18535015D01*
X12500610Y-18335625D02*
X12899390Y-18335625D01*
X12700000Y-20041235D02*
X12700000Y-20440015D01*
X12500610Y-20240625D02*
X12899390Y-20240625D01*
X12700000Y-21946235D02*
X12700000Y-22345015D01*
X12500610Y-22145625D02*
X12899390Y-22145625D01*
X14605000Y-12421235D02*
X14605000Y-12820015D01*
X14405610Y-12620625D02*
X14804390Y-12620625D01*
X14605000Y-14326235D02*
X14605000Y-14725015D01*
X14405610Y-14525625D02*
X14804390Y-14525625D01*
X14605000Y-16231235D02*
X14605000Y-16630015D01*
X14405610Y-16430625D02*
X14804390Y-16430625D01*
X14605000Y-18136235D02*
X14605000Y-18535015D01*
X14405610Y-18335625D02*
X14804390Y-18335625D01*
X14605000Y-20041235D02*
X14605000Y-20440015D01*
X14405610Y-20240625D02*
X14804390Y-20240625D01*
X14605000Y-21946235D02*
X14605000Y-22345015D01*
X14405610Y-22145625D02*
X14804390Y-22145625D01*
X16510000Y-12421235D02*
X16510000Y-12820015D01*
X16310610Y-12620625D02*
X16709390Y-12620625D01*
X16510000Y-14326235D02*
X16510000Y-14725015D01*
X16310610Y-14525625D02*
X16709390Y-14525625D01*
X16510000Y-16231235D02*
X16510000Y-16630015D01*
X16310610Y-16430625D02*
X16709390Y-16430625D01*
X16510000Y-18136235D02*
X16510000Y-18535015D01*
X16310610Y-18335625D02*
X16709390Y-18335625D01*
X16510000Y-20041235D02*
X16510000Y-20440015D01*
X16310610Y-20240625D02*
X16709390Y-20240625D01*
X16510000Y-21946235D02*
X16510000Y-22345015D01*
X16310610Y-22145625D02*
X16709390Y-22145625D01*
X18415000Y-12421235D02*
X18415000Y-12820015D01*
X18215610Y-12620625D02*
X18614390Y-12620625D01*
X18415000Y-14326235D02*
X18415000Y-14725015D01*
X18215610Y-14525625D02*
X18614390Y-14525625D01*
X18415000Y-16231235D02*
X18415000Y-16630015D01*
X18215610Y-16430625D02*
X18614390Y-16430625D01*
X18415000Y-18136235D02*
X18415000Y-18535015D01*
X18215610Y-18335625D02*
X18614390Y-18335625D01*
X18415000Y-20041235D02*
X18415000Y-20440015D01*
X18215610Y-20240625D02*
X18614390Y-20240625D01*
X18415000Y-21946235D02*
X18415000Y-22345015D01*
X18215610Y-22145625D02*
X18614390Y-22145625D01*
X20320000Y-12421235D02*
X20320000Y-12820015D01*
X20120610Y-12620625D02*
X20519390Y-12620625D01*
X20320000Y-14326235D02*
X20320000Y-14725015D01*
X20120610Y-14525625D02*
X20519390Y-14525625D01*
X20320000Y-16231235D02*
X20320000Y-16630015D01*
X20120610Y-16430625D02*
X20519390Y-16430625D01*
X20320000Y-18136235D02*
X20320000Y-18535015D01*
X20120610Y-18335625D02*
X20519390Y-18335625D01*
X20320000Y-20041235D02*
X20320000Y-20440015D01*
X20120610Y-20240625D02*
X20519390Y-20240625D01*
X20320000Y-21946235D02*
X20320000Y-22345015D01*
X20120610Y-22145625D02*
X20519390Y-22145625D01*
X22225000Y-12421235D02*
X22225000Y-12820015D01*
X22025610Y-12620625D02*
X22424390Y-12620625D01*
X22225000Y-14326235D02*
X22225000Y-14725015D01*
X22025610Y-14525625D02*
X22424390Y-14525625D01*
X22225000Y-16231235D02*
X22225000Y-16630015D01*
X22025610Y-16430625D02*
X22424390Y-16430625D01*
X22225000Y-18136235D02*
X22225000Y-18535015D01*
X22025610Y-18335625D02*
X22424390Y-18335625D01*
X22225000Y-20041235D02*
X22225000Y-20440015D01*
X22025610Y-20240625D02*
X22424390Y-20240625D01*
X22225000Y-21946235D02*
X22225000Y-22345015D01*
X22025610Y-22145625D02*
X22424390Y-22145625D01*
X24130000Y-12421235D02*
X24130000Y-12820015D01*
X23930610Y-12620625D02*
X24329390Y-12620625D01*
X24130000Y-14326235D02*
X24130000Y-14725015D01*
X23930610Y-14525625D02*
X24329390Y-14525625D01*
X24130000Y-16231235D02*
X24130000Y-16630015D01*
X23930610Y-16430625D02*
X24329390Y-16430625D01*
X24130000Y-18136235D02*
X24130000Y-18535015D01*
X23930610Y-18335625D02*
X24329390Y-18335625D01*
X24130000Y-20041235D02*
X24130000Y-20440015D01*
X23930610Y-20240625D02*
X24329390Y-20240625D01*
X24130000Y-21946235D02*
X24130000Y-22345015D01*
X23930610Y-22145625D02*
X24329390Y-22145625D01*
X26035000Y-12421235D02*
X26035000Y-12820015D01*
X25835610Y-12620625D02*
X26234390Y-12620625D01*
X26035000Y-14326235D02*
X26035000Y-14725015D01*
X25835610Y-14525625D02*
X26234390Y-14525625D01*
X26035000Y-16231235D02*
X26035000Y-16630015D01*
X25835610Y-16430625D02*
X26234390Y-16430625D01*
X26035000Y-18136235D02*
X26035000Y-18535015D01*
X25835610Y-18335625D02*
X26234390Y-18335625D01*
X26035000Y-20041235D02*
X26035000Y-20440015D01*
X25835610Y-20240625D02*
X26234390Y-20240625D01*
X26035000Y-21946235D02*
X26035000Y-22345015D01*
X25835610Y-22145625D02*
X26234390Y-22145625D01*
X27940000Y-12421235D02*
X27940000Y-12820015D01*
X27740610Y-12620625D02*
X28139390Y-12620625D01*
X27940000Y-14326235D02*
X27940000Y-14725015D01*
X27740610Y-14525625D02*
X28139390Y-14525625D01*
X27940000Y-16231235D02*
X27940000Y-16630015D01*
X27740610Y-16430625D02*
X28139390Y-16430625D01*
X27940000Y-18136235D02*
X27940000Y-18535015D01*
X27740610Y-18335625D02*
X28139390Y-18335625D01*
X27940000Y-20041235D02*
X27940000Y-20440015D01*
X27740610Y-20240625D02*
X28139390Y-20240625D01*
X27940000Y-21946235D02*
X27940000Y-22345015D01*
X27740610Y-22145625D02*
X28139390Y-22145625D01*
X29845000Y-12421235D02*
X29845000Y-12820015D01*
X29645610Y-12620625D02*
X30044390Y-12620625D01*
X29845000Y-14326235D02*
X29845000Y-14725015D01*
X29645610Y-14525625D02*
X30044390Y-14525625D01*
X29845000Y-16231235D02*
X29845000Y-16630015D01*
X29645610Y-16430625D02*
X30044390Y-16430625D01*
X29845000Y-18136235D02*
X29845000Y-18535015D01*
X29645610Y-18335625D02*
X30044390Y-18335625D01*
X29845000Y-20041235D02*
X29845000Y-20440015D01*
X29645610Y-20240625D02*
X30044390Y-20240625D01*
X29845000Y-21946235D02*
X29845000Y-22345015D01*
X29645610Y-22145625D02*
X30044390Y-22145625D01*
X31750000Y-12421235D02*
X31750000Y-12820015D01*
X31550610Y-12620625D02*
X31949390Y-12620625D01*
X31750000Y-14326235D02*
X31750000Y-14725015D01*
X31550610Y-14525625D02*
X31949390Y-14525625D01*
X31750000Y-16231235D02*
X31750000Y-16630015D01*
X31550610Y-16430625D02*
X31949390Y-16430625D01*
X31750000Y-18136235D02*
X31750000Y-18535015D01*
X31550610Y-18335625D02*
X31949390Y-18335625D01*
X31750000Y-20041235D02*
X31750000Y-20440015D01*
X31550610Y-20240625D02*
X31949390Y-20240625D01*
X31750000Y-21946235D02*
X31750000Y-22345015D01*
X31550610Y-22145625D02*
X31949390Y-22145625D01*
X33655000Y-12421235D02*
X33655000Y-12820015D01*
X33455610Y-12620625D02*
X33854390Y-12620625D01*
X33655000Y-14326235D02*
X33655000Y-14725015D01*
X33455610Y-14525625D02*
X33854390Y-14525625D01*
X33655000Y-16231235D02*
X33655000Y-16630015D01*
X33455610Y-16430625D02*
X33854390Y-16430625D01*
X33655000Y-18136235D02*
X33655000Y-18535015D01*
X33455610Y-18335625D02*
X33854390Y-18335625D01*
X33655000Y-20041235D02*
X33655000Y-20440015D01*
X33455610Y-20240625D02*
X33854390Y-20240625D01*
X33655000Y-21946235D02*
X33655000Y-22345015D01*
X33455610Y-22145625D02*
X33854390Y-22145625D01*
X35560000Y-12421235D02*
X35560000Y-12820015D01*
X35360610Y-12620625D02*
X35759390Y-12620625D01*
X35560000Y-14326235D02*
X35560000Y-14725015D01*
X35360610Y-14525625D02*
X35759390Y-14525625D01*
X35560000Y-16231235D02*
X35560000Y-16630015D01*
X35360610Y-16430625D02*
X35759390Y-16430625D01*
X35560000Y-18136235D02*
X35560000Y-18535015D01*
X35360610Y-18335625D02*
X35759390Y-18335625D01*
X35560000Y-20041235D02*
X35560000Y-20440015D01*
X35360610Y-20240625D02*
X35759390Y-20240625D01*
X35560000Y-21946235D02*
X35560000Y-22345015D01*
X35360610Y-22145625D02*
X35759390Y-22145625D01*
D12*
X4408928Y-23568839D02*
X4408928Y-23268839D01*
X4480357Y-23268839D01*
X4523214Y-23283125D01*
X4551786Y-23311696D01*
X4566071Y-23340268D01*
X4580357Y-23397411D01*
X4580357Y-23440268D01*
X4566071Y-23497411D01*
X4551786Y-23525982D01*
X4523214Y-23554554D01*
X4480357Y-23568839D01*
X4408928Y-23568839D01*
X4708928Y-23568839D02*
X4708928Y-23368839D01*
X4708928Y-23425982D02*
X4723214Y-23397411D01*
X4737500Y-23383125D01*
X4766071Y-23368839D01*
X4794643Y-23368839D01*
X4894643Y-23568839D02*
X4894643Y-23368839D01*
X4894643Y-23268839D02*
X4880357Y-23283125D01*
X4894643Y-23297411D01*
X4908928Y-23283125D01*
X4894643Y-23268839D01*
X4894643Y-23297411D01*
X5080357Y-23568839D02*
X5051786Y-23554554D01*
X5037500Y-23525982D01*
X5037500Y-23268839D01*
X5237500Y-23568839D02*
X5208928Y-23554554D01*
X5194643Y-23525982D01*
X5194643Y-23268839D01*
X5580357Y-23568839D02*
X5580357Y-23268839D01*
X5680357Y-23483125D01*
X5780357Y-23268839D01*
X5780357Y-23568839D01*
X6051786Y-23568839D02*
X6051786Y-23411696D01*
X6037500Y-23383125D01*
X6008928Y-23368839D01*
X5951786Y-23368839D01*
X5923214Y-23383125D01*
X6051786Y-23554554D02*
X6023214Y-23568839D01*
X5951786Y-23568839D01*
X5923214Y-23554554D01*
X5908928Y-23525982D01*
X5908928Y-23497411D01*
X5923214Y-23468839D01*
X5951786Y-23454554D01*
X6023214Y-23454554D01*
X6051786Y-23440268D01*
X6194643Y-23368839D02*
X6194643Y-23668839D01*
X6194643Y-23383125D02*
X6223214Y-23368839D01*
X6280357Y-23368839D01*
X6308928Y-23383125D01*
X6323214Y-23397411D01*
X6337500Y-23425982D01*
X6337500Y-23511696D01*
X6323214Y-23540268D01*
X6308928Y-23554554D01*
X6280357Y-23568839D01*
X6223214Y-23568839D01*
X6194643Y-23554554D01*
X6466071Y-23540268D02*
X6480357Y-23554554D01*
X6466071Y-23568839D01*
X6451786Y-23554554D01*
X6466071Y-23540268D01*
X6466071Y-23568839D01*
X6466071Y-23383125D02*
X6480357Y-23397411D01*
X6466071Y-23411696D01*
X6451786Y-23397411D01*
X6466071Y-23383125D01*
X6466071Y-23411696D01*
X4057500Y-24030625D02*
X4122500Y-24095625D01*
X4122500Y-24030625D02*
X4057500Y-24095625D01*
X4466071Y-23898839D02*
X4494643Y-23898839D01*
X4523214Y-23913125D01*
X4537500Y-23927411D01*
X4551786Y-23955982D01*
X4566071Y-24013125D01*
X4566071Y-24084554D01*
X4551786Y-24141696D01*
X4537500Y-24170268D01*
X4523214Y-24184554D01*
X4494643Y-24198839D01*
X4466071Y-24198839D01*
X4437500Y-24184554D01*
X4423214Y-24170268D01*
X4408928Y-24141696D01*
X4394643Y-24084554D01*
X4394643Y-24013125D01*
X4408928Y-23955982D01*
X4423214Y-23927411D01*
X4437500Y-23913125D01*
X4466071Y-23898839D01*
X4694643Y-24170268D02*
X4708928Y-24184554D01*
X4694643Y-24198839D01*
X4680357Y-24184554D01*
X4694643Y-24170268D01*
X4694643Y-24198839D01*
X4966071Y-23898839D02*
X4908928Y-23898839D01*
X4880357Y-23913125D01*
X4866071Y-23927411D01*
X4837500Y-23970268D01*
X4823214Y-24027411D01*
X4823214Y-24141696D01*
X4837500Y-24170268D01*
X4851786Y-24184554D01*
X4880357Y-24198839D01*
X4937500Y-24198839D01*
X4966071Y-24184554D01*
X4980357Y-24170268D01*
X4994643Y-24141696D01*
X4994643Y-24070268D01*
X4980357Y-24041696D01*
X4966071Y-24027411D01*
X4937500Y-24013125D01*
X4880357Y-24013125D01*
X4851786Y-24027411D01*
X4837500Y-24041696D01*
X4823214Y-24070268D01*
X5266071Y-23898839D02*
X5123214Y-23898839D01*
X5108928Y-24041696D01*
X5123214Y-24027411D01*
X5151786Y-24013125D01*
X5223214Y-24013125D01*
X5251786Y-24027411D01*
X5266071Y-24041696D01*
X5280357Y-24070268D01*
X5280357Y-24141696D01*
X5266071Y-24170268D01*
X5251786Y-24184554D01*
X5223214Y-24198839D01*
X5151786Y-24198839D01*
X5123214Y-24184554D01*
X5108928Y-24170268D01*
X5466071Y-23898839D02*
X5494643Y-23898839D01*
X5523214Y-23913125D01*
X5537500Y-23927411D01*
X5551786Y-23955982D01*
X5566071Y-24013125D01*
X5566071Y-24084554D01*
X5551786Y-24141696D01*
X5537500Y-24170268D01*
X5523214Y-24184554D01*
X5494643Y-24198839D01*
X5466071Y-24198839D01*
X5437500Y-24184554D01*
X5423214Y-24170268D01*
X5408928Y-24141696D01*
X5394643Y-24084554D01*
X5394643Y-24013125D01*
X5408928Y-23955982D01*
X5423214Y-23927411D01*
X5437500Y-23913125D01*
X5466071Y-23898839D01*
X5694643Y-24198839D02*
X5694643Y-23998839D01*
X5694643Y-24027411D02*
X5708928Y-24013125D01*
X5737500Y-23998839D01*
X5780357Y-23998839D01*
X5808928Y-24013125D01*
X5823214Y-24041696D01*
X5823214Y-24198839D01*
X5823214Y-24041696D02*
X5837500Y-24013125D01*
X5866071Y-23998839D01*
X5908928Y-23998839D01*
X5937500Y-24013125D01*
X5951786Y-24041696D01*
X5951786Y-24198839D01*
X6094643Y-24198839D02*
X6094643Y-23998839D01*
X6094643Y-24027411D02*
X6108928Y-24013125D01*
X6137500Y-23998839D01*
X6180357Y-23998839D01*
X6208928Y-24013125D01*
X6223214Y-24041696D01*
X6223214Y-24198839D01*
X6223214Y-24041696D02*
X6237500Y-24013125D01*
X6266071Y-23998839D01*
X6308928Y-23998839D01*
X6337500Y-24013125D01*
X6351786Y-24041696D01*
X6351786Y-24198839D01*
X6937500Y-23884554D02*
X6680357Y-24270268D01*
X7323214Y-23898839D02*
X7351786Y-23898839D01*
X7380357Y-23913125D01*
X7394643Y-23927411D01*
X7408928Y-23955982D01*
X7423214Y-24013125D01*
X7423214Y-24084554D01*
X7408928Y-24141696D01*
X7394643Y-24170268D01*
X7380357Y-24184554D01*
X7351786Y-24198839D01*
X7323214Y-24198839D01*
X7294643Y-24184554D01*
X7280357Y-24170268D01*
X7266071Y-24141696D01*
X7251786Y-24084554D01*
X7251786Y-24013125D01*
X7266071Y-23955982D01*
X7280357Y-23927411D01*
X7294643Y-23913125D01*
X7323214Y-23898839D01*
X7551786Y-24170268D02*
X7566071Y-24184554D01*
X7551786Y-24198839D01*
X7537500Y-24184554D01*
X7551786Y-24170268D01*
X7551786Y-24198839D01*
X7751786Y-23898839D02*
X7780357Y-23898839D01*
X7808928Y-23913125D01*
X7823214Y-23927411D01*
X7837500Y-23955982D01*
X7851786Y-24013125D01*
X7851786Y-24084554D01*
X7837500Y-24141696D01*
X7823214Y-24170268D01*
X7808928Y-24184554D01*
X7780357Y-24198839D01*
X7751786Y-24198839D01*
X7723214Y-24184554D01*
X7708928Y-24170268D01*
X7694643Y-24141696D01*
X7680357Y-24084554D01*
X7680357Y-24013125D01*
X7694643Y-23955982D01*
X7708928Y-23927411D01*
X7723214Y-23913125D01*
X7751786Y-23898839D01*
X7966071Y-23927411D02*
X7980357Y-23913125D01*
X8008928Y-23898839D01*
X8080357Y-23898839D01*
X8108928Y-23913125D01*
X8123214Y-23927411D01*
X8137500Y-23955982D01*
X8137500Y-23984554D01*
X8123214Y-24027411D01*
X7951786Y-24198839D01*
X8137500Y-24198839D01*
X8408928Y-23898839D02*
X8266071Y-23898839D01*
X8251786Y-24041696D01*
X8266071Y-24027411D01*
X8294643Y-24013125D01*
X8366071Y-24013125D01*
X8394643Y-24027411D01*
X8408928Y-24041696D01*
X8423214Y-24070268D01*
X8423214Y-24141696D01*
X8408928Y-24170268D01*
X8394643Y-24184554D01*
X8366071Y-24198839D01*
X8294643Y-24198839D01*
X8266071Y-24184554D01*
X8251786Y-24170268D01*
X8680357Y-23898839D02*
X8623214Y-23898839D01*
X8594643Y-23913125D01*
X8580357Y-23927411D01*
X8551786Y-23970268D01*
X8537500Y-24027411D01*
X8537500Y-24141696D01*
X8551786Y-24170268D01*
X8566071Y-24184554D01*
X8594643Y-24198839D01*
X8651786Y-24198839D01*
X8680357Y-24184554D01*
X8694643Y-24170268D01*
X8708928Y-24141696D01*
X8708928Y-24070268D01*
X8694643Y-24041696D01*
X8680357Y-24027411D01*
X8651786Y-24013125D01*
X8594643Y-24013125D01*
X8566071Y-24027411D01*
X8551786Y-24041696D01*
X8537500Y-24070268D01*
X8823214Y-23898839D02*
X8823214Y-23955982D01*
X8937500Y-23898839D02*
X8937500Y-23955982D01*
X9380357Y-24313125D02*
X9366071Y-24298839D01*
X9337500Y-24255982D01*
X9323214Y-24227411D01*
X9308928Y-24184554D01*
X9294643Y-24113125D01*
X9294643Y-24055982D01*
X9308928Y-23984554D01*
X9323214Y-23941696D01*
X9337500Y-23913125D01*
X9366071Y-23870268D01*
X9380357Y-23855982D01*
X9480357Y-23927411D02*
X9494643Y-23913125D01*
X9523214Y-23898839D01*
X9594643Y-23898839D01*
X9623214Y-23913125D01*
X9637500Y-23927411D01*
X9651786Y-23955982D01*
X9651786Y-23984554D01*
X9637500Y-24027411D01*
X9466071Y-24198839D01*
X9651786Y-24198839D01*
X10008928Y-24198839D02*
X10008928Y-23898839D01*
X10137500Y-24198839D02*
X10137500Y-24041696D01*
X10123214Y-24013125D01*
X10094643Y-23998839D01*
X10051786Y-23998839D01*
X10023214Y-24013125D01*
X10008928Y-24027411D01*
X10323214Y-24198839D02*
X10294643Y-24184554D01*
X10280357Y-24170268D01*
X10266071Y-24141696D01*
X10266071Y-24055982D01*
X10280357Y-24027411D01*
X10294643Y-24013125D01*
X10323214Y-23998839D01*
X10366071Y-23998839D01*
X10394643Y-24013125D01*
X10408928Y-24027411D01*
X10423214Y-24055982D01*
X10423214Y-24141696D01*
X10408928Y-24170268D01*
X10394643Y-24184554D01*
X10366071Y-24198839D01*
X10323214Y-24198839D01*
X10594643Y-24198839D02*
X10566071Y-24184554D01*
X10551786Y-24155982D01*
X10551786Y-23898839D01*
X10823214Y-24184554D02*
X10794643Y-24198839D01*
X10737500Y-24198839D01*
X10708928Y-24184554D01*
X10694643Y-24155982D01*
X10694643Y-24041696D01*
X10708928Y-24013125D01*
X10737500Y-23998839D01*
X10794643Y-23998839D01*
X10823214Y-24013125D01*
X10837500Y-24041696D01*
X10837500Y-24070268D01*
X10694643Y-24098839D01*
X10951786Y-24184554D02*
X10980357Y-24198839D01*
X11037500Y-24198839D01*
X11066071Y-24184554D01*
X11080357Y-24155982D01*
X11080357Y-24141696D01*
X11066071Y-24113125D01*
X11037500Y-24098839D01*
X10994643Y-24098839D01*
X10966071Y-24084554D01*
X10951786Y-24055982D01*
X10951786Y-24041696D01*
X10966071Y-24013125D01*
X10994643Y-23998839D01*
X11037500Y-23998839D01*
X11066071Y-24013125D01*
X11180357Y-24313125D02*
X11194643Y-24298839D01*
X11223214Y-24255982D01*
X11237500Y-24227411D01*
X11251786Y-24184554D01*
X11266071Y-24113125D01*
X11266071Y-24055982D01*
X11251786Y-23984554D01*
X11237500Y-23941696D01*
X11223214Y-23913125D01*
X11194643Y-23870268D01*
X11180357Y-23855982D01*
X11723214Y-24313125D02*
X11708928Y-24298839D01*
X11680357Y-24255982D01*
X11666071Y-24227411D01*
X11651786Y-24184554D01*
X11637500Y-24113125D01*
X11637500Y-24055982D01*
X11651786Y-23984554D01*
X11666071Y-23941696D01*
X11680357Y-23913125D01*
X11708928Y-23870268D01*
X11723214Y-23855982D01*
X11837500Y-23998839D02*
X11837500Y-24198839D01*
X11837500Y-24027411D02*
X11851786Y-24013125D01*
X11880357Y-23998839D01*
X11923214Y-23998839D01*
X11951786Y-24013125D01*
X11966071Y-24041696D01*
X11966071Y-24198839D01*
X12151786Y-24198839D02*
X12123214Y-24184554D01*
X12108928Y-24170268D01*
X12094643Y-24141696D01*
X12094643Y-24055982D01*
X12108928Y-24027411D01*
X12123214Y-24013125D01*
X12151786Y-23998839D01*
X12194643Y-23998839D01*
X12223214Y-24013125D01*
X12237500Y-24027411D01*
X12251786Y-24055982D01*
X12251786Y-24141696D01*
X12237500Y-24170268D01*
X12223214Y-24184554D01*
X12194643Y-24198839D01*
X12151786Y-24198839D01*
X12337500Y-23998839D02*
X12451786Y-23998839D01*
X12380357Y-23898839D02*
X12380357Y-24155982D01*
X12394643Y-24184554D01*
X12423214Y-24198839D01*
X12451786Y-24198839D01*
X12780357Y-23998839D02*
X12780357Y-24298839D01*
X12780357Y-24013125D02*
X12808928Y-23998839D01*
X12866071Y-23998839D01*
X12894643Y-24013125D01*
X12908928Y-24027411D01*
X12923214Y-24055982D01*
X12923214Y-24141696D01*
X12908928Y-24170268D01*
X12894643Y-24184554D01*
X12866071Y-24198839D01*
X12808928Y-24198839D01*
X12780357Y-24184554D01*
X13094643Y-24198839D02*
X13066071Y-24184554D01*
X13051786Y-24155982D01*
X13051786Y-23898839D01*
X13337500Y-24198839D02*
X13337500Y-24041696D01*
X13323214Y-24013125D01*
X13294643Y-23998839D01*
X13237500Y-23998839D01*
X13208928Y-24013125D01*
X13337500Y-24184554D02*
X13308928Y-24198839D01*
X13237500Y-24198839D01*
X13208928Y-24184554D01*
X13194643Y-24155982D01*
X13194643Y-24127411D01*
X13208928Y-24098839D01*
X13237500Y-24084554D01*
X13308928Y-24084554D01*
X13337500Y-24070268D01*
X13437500Y-23998839D02*
X13551786Y-23998839D01*
X13480357Y-23898839D02*
X13480357Y-24155982D01*
X13494643Y-24184554D01*
X13523214Y-24198839D01*
X13551786Y-24198839D01*
X13766071Y-24184554D02*
X13737500Y-24198839D01*
X13680357Y-24198839D01*
X13651786Y-24184554D01*
X13637500Y-24155982D01*
X13637500Y-24041696D01*
X13651786Y-24013125D01*
X13680357Y-23998839D01*
X13737500Y-23998839D01*
X13766071Y-24013125D01*
X13780357Y-24041696D01*
X13780357Y-24070268D01*
X13637500Y-24098839D01*
X14037500Y-24198839D02*
X14037500Y-23898839D01*
X14037500Y-24184554D02*
X14008928Y-24198839D01*
X13951786Y-24198839D01*
X13923214Y-24184554D01*
X13908928Y-24170268D01*
X13894643Y-24141696D01*
X13894643Y-24055982D01*
X13908928Y-24027411D01*
X13923214Y-24013125D01*
X13951786Y-23998839D01*
X14008928Y-23998839D01*
X14037500Y-24013125D01*
X14151786Y-24313125D02*
X14166071Y-24298839D01*
X14194643Y-24255982D01*
X14208928Y-24227411D01*
X14223214Y-24184554D01*
X14237500Y-24113125D01*
X14237500Y-24055982D01*
X14223214Y-23984554D01*
X14208928Y-23941696D01*
X14194643Y-23913125D01*
X14166071Y-23870268D01*
X14151786Y-23855982D01*
X4122500Y-24459125D02*
G75*
G03*
X4122500Y-24459125I-87500J0D01*
G01*
X4566071Y-24594839D02*
X4394643Y-24594839D01*
X4480357Y-24594839D02*
X4480357Y-24294839D01*
X4451786Y-24337696D01*
X4423214Y-24366268D01*
X4394643Y-24380554D01*
X4694643Y-24566268D02*
X4708928Y-24580554D01*
X4694643Y-24594839D01*
X4680357Y-24580554D01*
X4694643Y-24566268D01*
X4694643Y-24594839D01*
X4808928Y-24294839D02*
X5008928Y-24294839D01*
X4880357Y-24594839D01*
X5266071Y-24294839D02*
X5123214Y-24294839D01*
X5108928Y-24437696D01*
X5123214Y-24423411D01*
X5151786Y-24409125D01*
X5223214Y-24409125D01*
X5251786Y-24423411D01*
X5266071Y-24437696D01*
X5280357Y-24466268D01*
X5280357Y-24537696D01*
X5266071Y-24566268D01*
X5251786Y-24580554D01*
X5223214Y-24594839D01*
X5151786Y-24594839D01*
X5123214Y-24580554D01*
X5108928Y-24566268D01*
X5466071Y-24294839D02*
X5494643Y-24294839D01*
X5523214Y-24309125D01*
X5537500Y-24323411D01*
X5551786Y-24351982D01*
X5566071Y-24409125D01*
X5566071Y-24480554D01*
X5551786Y-24537696D01*
X5537500Y-24566268D01*
X5523214Y-24580554D01*
X5494643Y-24594839D01*
X5466071Y-24594839D01*
X5437500Y-24580554D01*
X5423214Y-24566268D01*
X5408928Y-24537696D01*
X5394643Y-24480554D01*
X5394643Y-24409125D01*
X5408928Y-24351982D01*
X5423214Y-24323411D01*
X5437500Y-24309125D01*
X5466071Y-24294839D01*
X5694643Y-24594839D02*
X5694643Y-24394839D01*
X5694643Y-24423411D02*
X5708928Y-24409125D01*
X5737500Y-24394839D01*
X5780357Y-24394839D01*
X5808928Y-24409125D01*
X5823214Y-24437696D01*
X5823214Y-24594839D01*
X5823214Y-24437696D02*
X5837500Y-24409125D01*
X5866071Y-24394839D01*
X5908928Y-24394839D01*
X5937500Y-24409125D01*
X5951786Y-24437696D01*
X5951786Y-24594839D01*
X6094643Y-24594839D02*
X6094643Y-24394839D01*
X6094643Y-24423411D02*
X6108928Y-24409125D01*
X6137500Y-24394839D01*
X6180357Y-24394839D01*
X6208928Y-24409125D01*
X6223214Y-24437696D01*
X6223214Y-24594839D01*
X6223214Y-24437696D02*
X6237500Y-24409125D01*
X6266071Y-24394839D01*
X6308928Y-24394839D01*
X6337500Y-24409125D01*
X6351786Y-24437696D01*
X6351786Y-24594839D01*
X6937500Y-24280554D02*
X6680357Y-24666268D01*
X7323214Y-24294839D02*
X7351786Y-24294839D01*
X7380357Y-24309125D01*
X7394643Y-24323411D01*
X7408928Y-24351982D01*
X7423214Y-24409125D01*
X7423214Y-24480554D01*
X7408928Y-24537696D01*
X7394643Y-24566268D01*
X7380357Y-24580554D01*
X7351786Y-24594839D01*
X7323214Y-24594839D01*
X7294643Y-24580554D01*
X7280357Y-24566268D01*
X7266071Y-24537696D01*
X7251786Y-24480554D01*
X7251786Y-24409125D01*
X7266071Y-24351982D01*
X7280357Y-24323411D01*
X7294643Y-24309125D01*
X7323214Y-24294839D01*
X7551786Y-24566268D02*
X7566071Y-24580554D01*
X7551786Y-24594839D01*
X7537500Y-24580554D01*
X7551786Y-24566268D01*
X7551786Y-24594839D01*
X7751786Y-24294839D02*
X7780357Y-24294839D01*
X7808928Y-24309125D01*
X7823214Y-24323411D01*
X7837500Y-24351982D01*
X7851786Y-24409125D01*
X7851786Y-24480554D01*
X7837500Y-24537696D01*
X7823214Y-24566268D01*
X7808928Y-24580554D01*
X7780357Y-24594839D01*
X7751786Y-24594839D01*
X7723214Y-24580554D01*
X7708928Y-24566268D01*
X7694643Y-24537696D01*
X7680357Y-24480554D01*
X7680357Y-24409125D01*
X7694643Y-24351982D01*
X7708928Y-24323411D01*
X7723214Y-24309125D01*
X7751786Y-24294839D01*
X8108928Y-24294839D02*
X8051786Y-24294839D01*
X8023214Y-24309125D01*
X8008928Y-24323411D01*
X7980357Y-24366268D01*
X7966071Y-24423411D01*
X7966071Y-24537696D01*
X7980357Y-24566268D01*
X7994643Y-24580554D01*
X8023214Y-24594839D01*
X8080357Y-24594839D01*
X8108928Y-24580554D01*
X8123214Y-24566268D01*
X8137500Y-24537696D01*
X8137500Y-24466268D01*
X8123214Y-24437696D01*
X8108928Y-24423411D01*
X8080357Y-24409125D01*
X8023214Y-24409125D01*
X7994643Y-24423411D01*
X7980357Y-24437696D01*
X7966071Y-24466268D01*
X8308928Y-24423411D02*
X8280357Y-24409125D01*
X8266071Y-24394839D01*
X8251786Y-24366268D01*
X8251786Y-24351982D01*
X8266071Y-24323411D01*
X8280357Y-24309125D01*
X8308928Y-24294839D01*
X8366071Y-24294839D01*
X8394643Y-24309125D01*
X8408928Y-24323411D01*
X8423214Y-24351982D01*
X8423214Y-24366268D01*
X8408928Y-24394839D01*
X8394643Y-24409125D01*
X8366071Y-24423411D01*
X8308928Y-24423411D01*
X8280357Y-24437696D01*
X8266071Y-24451982D01*
X8251786Y-24480554D01*
X8251786Y-24537696D01*
X8266071Y-24566268D01*
X8280357Y-24580554D01*
X8308928Y-24594839D01*
X8366071Y-24594839D01*
X8394643Y-24580554D01*
X8408928Y-24566268D01*
X8423214Y-24537696D01*
X8423214Y-24480554D01*
X8408928Y-24451982D01*
X8394643Y-24437696D01*
X8366071Y-24423411D01*
X8566071Y-24594839D02*
X8623214Y-24594839D01*
X8651786Y-24580554D01*
X8666071Y-24566268D01*
X8694643Y-24523411D01*
X8708928Y-24466268D01*
X8708928Y-24351982D01*
X8694643Y-24323411D01*
X8680357Y-24309125D01*
X8651786Y-24294839D01*
X8594643Y-24294839D01*
X8566071Y-24309125D01*
X8551786Y-24323411D01*
X8537500Y-24351982D01*
X8537500Y-24423411D01*
X8551786Y-24451982D01*
X8566071Y-24466268D01*
X8594643Y-24480554D01*
X8651786Y-24480554D01*
X8680357Y-24466268D01*
X8694643Y-24451982D01*
X8708928Y-24423411D01*
X8823214Y-24294839D02*
X8823214Y-24351982D01*
X8937500Y-24294839D02*
X8937500Y-24351982D01*
X9380357Y-24709125D02*
X9366071Y-24694839D01*
X9337500Y-24651982D01*
X9323214Y-24623411D01*
X9308928Y-24580554D01*
X9294643Y-24509125D01*
X9294643Y-24451982D01*
X9308928Y-24380554D01*
X9323214Y-24337696D01*
X9337500Y-24309125D01*
X9366071Y-24266268D01*
X9380357Y-24251982D01*
X9480357Y-24323411D02*
X9494643Y-24309125D01*
X9523214Y-24294839D01*
X9594643Y-24294839D01*
X9623214Y-24309125D01*
X9637500Y-24323411D01*
X9651786Y-24351982D01*
X9651786Y-24380554D01*
X9637500Y-24423411D01*
X9466071Y-24594839D01*
X9651786Y-24594839D01*
X9837500Y-24294839D02*
X9866071Y-24294839D01*
X9894643Y-24309125D01*
X9908928Y-24323411D01*
X9923214Y-24351982D01*
X9937500Y-24409125D01*
X9937500Y-24480554D01*
X9923214Y-24537696D01*
X9908928Y-24566268D01*
X9894643Y-24580554D01*
X9866071Y-24594839D01*
X9837500Y-24594839D01*
X9808928Y-24580554D01*
X9794643Y-24566268D01*
X9780357Y-24537696D01*
X9766071Y-24480554D01*
X9766071Y-24409125D01*
X9780357Y-24351982D01*
X9794643Y-24323411D01*
X9808928Y-24309125D01*
X9837500Y-24294839D01*
X10194643Y-24394839D02*
X10194643Y-24594839D01*
X10123214Y-24280554D02*
X10051786Y-24494839D01*
X10237500Y-24494839D01*
X10580357Y-24594839D02*
X10580357Y-24294839D01*
X10708928Y-24594839D02*
X10708928Y-24437696D01*
X10694643Y-24409125D01*
X10666071Y-24394839D01*
X10623214Y-24394839D01*
X10594643Y-24409125D01*
X10580357Y-24423411D01*
X10894643Y-24594839D02*
X10866071Y-24580554D01*
X10851786Y-24566268D01*
X10837500Y-24537696D01*
X10837500Y-24451982D01*
X10851786Y-24423411D01*
X10866071Y-24409125D01*
X10894643Y-24394839D01*
X10937500Y-24394839D01*
X10966071Y-24409125D01*
X10980357Y-24423411D01*
X10994643Y-24451982D01*
X10994643Y-24537696D01*
X10980357Y-24566268D01*
X10966071Y-24580554D01*
X10937500Y-24594839D01*
X10894643Y-24594839D01*
X11166071Y-24594839D02*
X11137500Y-24580554D01*
X11123214Y-24551982D01*
X11123214Y-24294839D01*
X11394643Y-24580554D02*
X11366071Y-24594839D01*
X11308928Y-24594839D01*
X11280357Y-24580554D01*
X11266071Y-24551982D01*
X11266071Y-24437696D01*
X11280357Y-24409125D01*
X11308928Y-24394839D01*
X11366071Y-24394839D01*
X11394643Y-24409125D01*
X11408928Y-24437696D01*
X11408928Y-24466268D01*
X11266071Y-24494839D01*
X11523214Y-24580554D02*
X11551786Y-24594839D01*
X11608928Y-24594839D01*
X11637500Y-24580554D01*
X11651786Y-24551982D01*
X11651786Y-24537696D01*
X11637500Y-24509125D01*
X11608928Y-24494839D01*
X11566071Y-24494839D01*
X11537500Y-24480554D01*
X11523214Y-24451982D01*
X11523214Y-24437696D01*
X11537500Y-24409125D01*
X11566071Y-24394839D01*
X11608928Y-24394839D01*
X11637500Y-24409125D01*
X11751786Y-24709125D02*
X11766071Y-24694839D01*
X11794643Y-24651982D01*
X11808928Y-24623411D01*
X11823214Y-24580554D01*
X11837500Y-24509125D01*
X11837500Y-24451982D01*
X11823214Y-24380554D01*
X11808928Y-24337696D01*
X11794643Y-24309125D01*
X11766071Y-24266268D01*
X11751786Y-24251982D01*
X12294643Y-24709125D02*
X12280357Y-24694839D01*
X12251786Y-24651982D01*
X12237500Y-24623411D01*
X12223214Y-24580554D01*
X12208928Y-24509125D01*
X12208928Y-24451982D01*
X12223214Y-24380554D01*
X12237500Y-24337696D01*
X12251786Y-24309125D01*
X12280357Y-24266268D01*
X12294643Y-24251982D01*
X12408928Y-24394839D02*
X12408928Y-24594839D01*
X12408928Y-24423411D02*
X12423214Y-24409125D01*
X12451786Y-24394839D01*
X12494643Y-24394839D01*
X12523214Y-24409125D01*
X12537500Y-24437696D01*
X12537500Y-24594839D01*
X12723214Y-24594839D02*
X12694643Y-24580554D01*
X12680357Y-24566268D01*
X12666071Y-24537696D01*
X12666071Y-24451982D01*
X12680357Y-24423411D01*
X12694643Y-24409125D01*
X12723214Y-24394839D01*
X12766071Y-24394839D01*
X12794643Y-24409125D01*
X12808928Y-24423411D01*
X12823214Y-24451982D01*
X12823214Y-24537696D01*
X12808928Y-24566268D01*
X12794643Y-24580554D01*
X12766071Y-24594839D01*
X12723214Y-24594839D01*
X12908928Y-24394839D02*
X13023214Y-24394839D01*
X12951786Y-24294839D02*
X12951786Y-24551982D01*
X12966071Y-24580554D01*
X12994643Y-24594839D01*
X13023214Y-24594839D01*
X13351786Y-24394839D02*
X13351786Y-24694839D01*
X13351786Y-24409125D02*
X13380357Y-24394839D01*
X13437500Y-24394839D01*
X13466071Y-24409125D01*
X13480357Y-24423411D01*
X13494643Y-24451982D01*
X13494643Y-24537696D01*
X13480357Y-24566268D01*
X13466071Y-24580554D01*
X13437500Y-24594839D01*
X13380357Y-24594839D01*
X13351786Y-24580554D01*
X13666071Y-24594839D02*
X13637500Y-24580554D01*
X13623214Y-24551982D01*
X13623214Y-24294839D01*
X13908928Y-24594839D02*
X13908928Y-24437696D01*
X13894643Y-24409125D01*
X13866071Y-24394839D01*
X13808928Y-24394839D01*
X13780357Y-24409125D01*
X13908928Y-24580554D02*
X13880357Y-24594839D01*
X13808928Y-24594839D01*
X13780357Y-24580554D01*
X13766071Y-24551982D01*
X13766071Y-24523411D01*
X13780357Y-24494839D01*
X13808928Y-24480554D01*
X13880357Y-24480554D01*
X13908928Y-24466268D01*
X14008928Y-24394839D02*
X14123214Y-24394839D01*
X14051786Y-24294839D02*
X14051786Y-24551982D01*
X14066071Y-24580554D01*
X14094643Y-24594839D01*
X14123214Y-24594839D01*
X14337500Y-24580554D02*
X14308928Y-24594839D01*
X14251786Y-24594839D01*
X14223214Y-24580554D01*
X14208928Y-24551982D01*
X14208928Y-24437696D01*
X14223214Y-24409125D01*
X14251786Y-24394839D01*
X14308928Y-24394839D01*
X14337500Y-24409125D01*
X14351786Y-24437696D01*
X14351786Y-24466268D01*
X14208928Y-24494839D01*
X14608928Y-24594839D02*
X14608928Y-24294839D01*
X14608928Y-24580554D02*
X14580357Y-24594839D01*
X14523214Y-24594839D01*
X14494643Y-24580554D01*
X14480357Y-24566268D01*
X14466071Y-24537696D01*
X14466071Y-24451982D01*
X14480357Y-24423411D01*
X14494643Y-24409125D01*
X14523214Y-24394839D01*
X14580357Y-24394839D01*
X14608928Y-24409125D01*
X14723214Y-24709125D02*
X14737500Y-24694839D01*
X14766071Y-24651982D01*
X14780357Y-24623411D01*
X14794643Y-24580554D01*
X14808928Y-24509125D01*
X14808928Y-24451982D01*
X14794643Y-24380554D01*
X14780357Y-24337696D01*
X14766071Y-24309125D01*
X14737500Y-24266268D01*
X14723214Y-24251982D01*
X3923110Y-24655735D02*
X3923110Y-25054515D01*
X3723720Y-24855125D02*
X4122500Y-24855125D01*
X4380357Y-24690839D02*
X4566071Y-24690839D01*
X4466071Y-24805125D01*
X4508928Y-24805125D01*
X4537500Y-24819411D01*
X4551786Y-24833696D01*
X4566071Y-24862268D01*
X4566071Y-24933696D01*
X4551786Y-24962268D01*
X4537500Y-24976554D01*
X4508928Y-24990839D01*
X4423214Y-24990839D01*
X4394643Y-24976554D01*
X4380357Y-24962268D01*
X4694643Y-24962268D02*
X4708928Y-24976554D01*
X4694643Y-24990839D01*
X4680357Y-24976554D01*
X4694643Y-24962268D01*
X4694643Y-24990839D01*
X4851786Y-24990839D02*
X4908928Y-24990839D01*
X4937500Y-24976554D01*
X4951786Y-24962268D01*
X4980357Y-24919411D01*
X4994643Y-24862268D01*
X4994643Y-24747982D01*
X4980357Y-24719411D01*
X4966071Y-24705125D01*
X4937500Y-24690839D01*
X4880357Y-24690839D01*
X4851786Y-24705125D01*
X4837500Y-24719411D01*
X4823214Y-24747982D01*
X4823214Y-24819411D01*
X4837500Y-24847982D01*
X4851786Y-24862268D01*
X4880357Y-24876554D01*
X4937500Y-24876554D01*
X4966071Y-24862268D01*
X4980357Y-24847982D01*
X4994643Y-24819411D01*
X5166071Y-24819411D02*
X5137500Y-24805125D01*
X5123214Y-24790839D01*
X5108928Y-24762268D01*
X5108928Y-24747982D01*
X5123214Y-24719411D01*
X5137500Y-24705125D01*
X5166071Y-24690839D01*
X5223214Y-24690839D01*
X5251786Y-24705125D01*
X5266071Y-24719411D01*
X5280357Y-24747982D01*
X5280357Y-24762268D01*
X5266071Y-24790839D01*
X5251786Y-24805125D01*
X5223214Y-24819411D01*
X5166071Y-24819411D01*
X5137500Y-24833696D01*
X5123214Y-24847982D01*
X5108928Y-24876554D01*
X5108928Y-24933696D01*
X5123214Y-24962268D01*
X5137500Y-24976554D01*
X5166071Y-24990839D01*
X5223214Y-24990839D01*
X5251786Y-24976554D01*
X5266071Y-24962268D01*
X5280357Y-24933696D01*
X5280357Y-24876554D01*
X5266071Y-24847982D01*
X5251786Y-24833696D01*
X5223214Y-24819411D01*
X5451786Y-24819411D02*
X5423214Y-24805125D01*
X5408928Y-24790839D01*
X5394643Y-24762268D01*
X5394643Y-24747982D01*
X5408928Y-24719411D01*
X5423214Y-24705125D01*
X5451786Y-24690839D01*
X5508928Y-24690839D01*
X5537500Y-24705125D01*
X5551786Y-24719411D01*
X5566071Y-24747982D01*
X5566071Y-24762268D01*
X5551786Y-24790839D01*
X5537500Y-24805125D01*
X5508928Y-24819411D01*
X5451786Y-24819411D01*
X5423214Y-24833696D01*
X5408928Y-24847982D01*
X5394643Y-24876554D01*
X5394643Y-24933696D01*
X5408928Y-24962268D01*
X5423214Y-24976554D01*
X5451786Y-24990839D01*
X5508928Y-24990839D01*
X5537500Y-24976554D01*
X5551786Y-24962268D01*
X5566071Y-24933696D01*
X5566071Y-24876554D01*
X5551786Y-24847982D01*
X5537500Y-24833696D01*
X5508928Y-24819411D01*
X5694643Y-24990839D02*
X5694643Y-24790839D01*
X5694643Y-24819411D02*
X5708928Y-24805125D01*
X5737500Y-24790839D01*
X5780357Y-24790839D01*
X5808928Y-24805125D01*
X5823214Y-24833696D01*
X5823214Y-24990839D01*
X5823214Y-24833696D02*
X5837500Y-24805125D01*
X5866071Y-24790839D01*
X5908928Y-24790839D01*
X5937500Y-24805125D01*
X5951786Y-24833696D01*
X5951786Y-24990839D01*
X6094643Y-24990839D02*
X6094643Y-24790839D01*
X6094643Y-24819411D02*
X6108928Y-24805125D01*
X6137500Y-24790839D01*
X6180357Y-24790839D01*
X6208928Y-24805125D01*
X6223214Y-24833696D01*
X6223214Y-24990839D01*
X6223214Y-24833696D02*
X6237500Y-24805125D01*
X6266071Y-24790839D01*
X6308928Y-24790839D01*
X6337500Y-24805125D01*
X6351786Y-24833696D01*
X6351786Y-24990839D01*
X6937500Y-24676554D02*
X6680357Y-25062268D01*
X7323214Y-24690839D02*
X7351786Y-24690839D01*
X7380357Y-24705125D01*
X7394643Y-24719411D01*
X7408928Y-24747982D01*
X7423214Y-24805125D01*
X7423214Y-24876554D01*
X7408928Y-24933696D01*
X7394643Y-24962268D01*
X7380357Y-24976554D01*
X7351786Y-24990839D01*
X7323214Y-24990839D01*
X7294643Y-24976554D01*
X7280357Y-24962268D01*
X7266071Y-24933696D01*
X7251786Y-24876554D01*
X7251786Y-24805125D01*
X7266071Y-24747982D01*
X7280357Y-24719411D01*
X7294643Y-24705125D01*
X7323214Y-24690839D01*
X7551786Y-24962268D02*
X7566071Y-24976554D01*
X7551786Y-24990839D01*
X7537500Y-24976554D01*
X7551786Y-24962268D01*
X7551786Y-24990839D01*
X7851786Y-24990839D02*
X7680357Y-24990839D01*
X7766071Y-24990839D02*
X7766071Y-24690839D01*
X7737500Y-24733696D01*
X7708928Y-24762268D01*
X7680357Y-24776554D01*
X8123214Y-24690839D02*
X7980357Y-24690839D01*
X7966071Y-24833696D01*
X7980357Y-24819411D01*
X8008928Y-24805125D01*
X8080357Y-24805125D01*
X8108928Y-24819411D01*
X8123214Y-24833696D01*
X8137500Y-24862268D01*
X8137500Y-24933696D01*
X8123214Y-24962268D01*
X8108928Y-24976554D01*
X8080357Y-24990839D01*
X8008928Y-24990839D01*
X7980357Y-24976554D01*
X7966071Y-24962268D01*
X8237500Y-24690839D02*
X8437500Y-24690839D01*
X8308928Y-24990839D01*
X8608928Y-24690839D02*
X8637500Y-24690839D01*
X8666071Y-24705125D01*
X8680357Y-24719411D01*
X8694643Y-24747982D01*
X8708928Y-24805125D01*
X8708928Y-24876554D01*
X8694643Y-24933696D01*
X8680357Y-24962268D01*
X8666071Y-24976554D01*
X8637500Y-24990839D01*
X8608928Y-24990839D01*
X8580357Y-24976554D01*
X8566071Y-24962268D01*
X8551786Y-24933696D01*
X8537500Y-24876554D01*
X8537500Y-24805125D01*
X8551786Y-24747982D01*
X8566071Y-24719411D01*
X8580357Y-24705125D01*
X8608928Y-24690839D01*
X8823214Y-24690839D02*
X8823214Y-24747982D01*
X8937500Y-24690839D02*
X8937500Y-24747982D01*
X9380357Y-25105125D02*
X9366071Y-25090839D01*
X9337500Y-25047982D01*
X9323214Y-25019411D01*
X9308928Y-24976554D01*
X9294643Y-24905125D01*
X9294643Y-24847982D01*
X9308928Y-24776554D01*
X9323214Y-24733696D01*
X9337500Y-24705125D01*
X9366071Y-24662268D01*
X9380357Y-24647982D01*
X9651786Y-24990839D02*
X9480357Y-24990839D01*
X9566071Y-24990839D02*
X9566071Y-24690839D01*
X9537500Y-24733696D01*
X9508928Y-24762268D01*
X9480357Y-24776554D01*
X9837500Y-24690839D02*
X9866071Y-24690839D01*
X9894643Y-24705125D01*
X9908928Y-24719411D01*
X9923214Y-24747982D01*
X9937500Y-24805125D01*
X9937500Y-24876554D01*
X9923214Y-24933696D01*
X9908928Y-24962268D01*
X9894643Y-24976554D01*
X9866071Y-24990839D01*
X9837500Y-24990839D01*
X9808928Y-24976554D01*
X9794643Y-24962268D01*
X9780357Y-24933696D01*
X9766071Y-24876554D01*
X9766071Y-24805125D01*
X9780357Y-24747982D01*
X9794643Y-24719411D01*
X9808928Y-24705125D01*
X9837500Y-24690839D01*
X10051786Y-24719411D02*
X10066071Y-24705125D01*
X10094643Y-24690839D01*
X10166071Y-24690839D01*
X10194643Y-24705125D01*
X10208928Y-24719411D01*
X10223214Y-24747982D01*
X10223214Y-24776554D01*
X10208928Y-24819411D01*
X10037500Y-24990839D01*
X10223214Y-24990839D01*
X10580357Y-24990839D02*
X10580357Y-24690839D01*
X10708928Y-24990839D02*
X10708928Y-24833696D01*
X10694643Y-24805125D01*
X10666071Y-24790839D01*
X10623214Y-24790839D01*
X10594643Y-24805125D01*
X10580357Y-24819411D01*
X10894643Y-24990839D02*
X10866071Y-24976554D01*
X10851786Y-24962268D01*
X10837500Y-24933696D01*
X10837500Y-24847982D01*
X10851786Y-24819411D01*
X10866071Y-24805125D01*
X10894643Y-24790839D01*
X10937500Y-24790839D01*
X10966071Y-24805125D01*
X10980357Y-24819411D01*
X10994643Y-24847982D01*
X10994643Y-24933696D01*
X10980357Y-24962268D01*
X10966071Y-24976554D01*
X10937500Y-24990839D01*
X10894643Y-24990839D01*
X11166071Y-24990839D02*
X11137500Y-24976554D01*
X11123214Y-24947982D01*
X11123214Y-24690839D01*
X11394643Y-24976554D02*
X11366071Y-24990839D01*
X11308928Y-24990839D01*
X11280357Y-24976554D01*
X11266071Y-24947982D01*
X11266071Y-24833696D01*
X11280357Y-24805125D01*
X11308928Y-24790839D01*
X11366071Y-24790839D01*
X11394643Y-24805125D01*
X11408928Y-24833696D01*
X11408928Y-24862268D01*
X11266071Y-24890839D01*
X11523214Y-24976554D02*
X11551786Y-24990839D01*
X11608928Y-24990839D01*
X11637500Y-24976554D01*
X11651786Y-24947982D01*
X11651786Y-24933696D01*
X11637500Y-24905125D01*
X11608928Y-24890839D01*
X11566071Y-24890839D01*
X11537500Y-24876554D01*
X11523214Y-24847982D01*
X11523214Y-24833696D01*
X11537500Y-24805125D01*
X11566071Y-24790839D01*
X11608928Y-24790839D01*
X11637500Y-24805125D01*
X11751786Y-25105125D02*
X11766071Y-25090839D01*
X11794643Y-25047982D01*
X11808928Y-25019411D01*
X11823214Y-24976554D01*
X11837500Y-24905125D01*
X11837500Y-24847982D01*
X11823214Y-24776554D01*
X11808928Y-24733696D01*
X11794643Y-24705125D01*
X11766071Y-24662268D01*
X11751786Y-24647982D01*
X12294643Y-25105125D02*
X12280357Y-25090839D01*
X12251786Y-25047982D01*
X12237500Y-25019411D01*
X12223214Y-24976554D01*
X12208928Y-24905125D01*
X12208928Y-24847982D01*
X12223214Y-24776554D01*
X12237500Y-24733696D01*
X12251786Y-24705125D01*
X12280357Y-24662268D01*
X12294643Y-24647982D01*
X12408928Y-24790839D02*
X12408928Y-24990839D01*
X12408928Y-24819411D02*
X12423214Y-24805125D01*
X12451786Y-24790839D01*
X12494643Y-24790839D01*
X12523214Y-24805125D01*
X12537500Y-24833696D01*
X12537500Y-24990839D01*
X12723214Y-24990839D02*
X12694643Y-24976554D01*
X12680357Y-24962268D01*
X12666071Y-24933696D01*
X12666071Y-24847982D01*
X12680357Y-24819411D01*
X12694643Y-24805125D01*
X12723214Y-24790839D01*
X12766071Y-24790839D01*
X12794643Y-24805125D01*
X12808928Y-24819411D01*
X12823214Y-24847982D01*
X12823214Y-24933696D01*
X12808928Y-24962268D01*
X12794643Y-24976554D01*
X12766071Y-24990839D01*
X12723214Y-24990839D01*
X12908928Y-24790839D02*
X13023214Y-24790839D01*
X12951786Y-24690839D02*
X12951786Y-24947982D01*
X12966071Y-24976554D01*
X12994643Y-24990839D01*
X13023214Y-24990839D01*
X13351786Y-24790839D02*
X13351786Y-25090839D01*
X13351786Y-24805125D02*
X13380357Y-24790839D01*
X13437500Y-24790839D01*
X13466071Y-24805125D01*
X13480357Y-24819411D01*
X13494643Y-24847982D01*
X13494643Y-24933696D01*
X13480357Y-24962268D01*
X13466071Y-24976554D01*
X13437500Y-24990839D01*
X13380357Y-24990839D01*
X13351786Y-24976554D01*
X13666071Y-24990839D02*
X13637500Y-24976554D01*
X13623214Y-24947982D01*
X13623214Y-24690839D01*
X13908928Y-24990839D02*
X13908928Y-24833696D01*
X13894643Y-24805125D01*
X13866071Y-24790839D01*
X13808928Y-24790839D01*
X13780357Y-24805125D01*
X13908928Y-24976554D02*
X13880357Y-24990839D01*
X13808928Y-24990839D01*
X13780357Y-24976554D01*
X13766071Y-24947982D01*
X13766071Y-24919411D01*
X13780357Y-24890839D01*
X13808928Y-24876554D01*
X13880357Y-24876554D01*
X13908928Y-24862268D01*
X14008928Y-24790839D02*
X14123214Y-24790839D01*
X14051786Y-24690839D02*
X14051786Y-24947982D01*
X14066071Y-24976554D01*
X14094643Y-24990839D01*
X14123214Y-24990839D01*
X14337500Y-24976554D02*
X14308928Y-24990839D01*
X14251786Y-24990839D01*
X14223214Y-24976554D01*
X14208928Y-24947982D01*
X14208928Y-24833696D01*
X14223214Y-24805125D01*
X14251786Y-24790839D01*
X14308928Y-24790839D01*
X14337500Y-24805125D01*
X14351786Y-24833696D01*
X14351786Y-24862268D01*
X14208928Y-24890839D01*
X14608928Y-24990839D02*
X14608928Y-24690839D01*
X14608928Y-24976554D02*
X14580357Y-24990839D01*
X14523214Y-24990839D01*
X14494643Y-24976554D01*
X14480357Y-24962268D01*
X14466071Y-24933696D01*
X14466071Y-24847982D01*
X14480357Y-24819411D01*
X14494643Y-24805125D01*
X14523214Y-24790839D01*
X14580357Y-24790839D01*
X14608928Y-24805125D01*
X14723214Y-25105125D02*
X14737500Y-25090839D01*
X14766071Y-25047982D01*
X14780357Y-25019411D01*
X14794643Y-24976554D01*
X14808928Y-24905125D01*
X14808928Y-24847982D01*
X14794643Y-24776554D01*
X14780357Y-24733696D01*
X14766071Y-24705125D01*
X14737500Y-24662268D01*
X14723214Y-24647982D01*
M02*
