G04 #@! TF.GenerationSoftware,KiCad,Pcbnew,(5.1.10)-1*
G04 #@! TF.CreationDate,2021-12-08T12:26:08-03:00*
G04 #@! TF.ProjectId,Poto-Rev2,506f746f-2d52-4657-9632-2e6b69636164,C3*
G04 #@! TF.SameCoordinates,Original*
G04 #@! TF.FileFunction,Legend,Top*
G04 #@! TF.FilePolarity,Positive*
%FSLAX46Y46*%
G04 Gerber Fmt 4.6, Leading zero omitted, Abs format (unit mm)*
G04 Created by KiCad (PCBNEW (5.1.10)-1) date 2021-12-08 12:26:08*
%MOMM*%
%LPD*%
G01*
G04 APERTURE LIST*
%ADD10C,0.150000*%
%ADD11C,0.120000*%
%ADD12C,0.100000*%
%ADD13C,3.602000*%
%ADD14C,4.089800*%
%ADD15C,1.852000*%
%ADD16O,1.802000X1.802000*%
%ADD17O,1.202000X2.302000*%
%ADD18O,1.402000X2.002000*%
%ADD19C,0.752000*%
G04 APERTURE END LIST*
D10*
X347194345Y-211589880D02*
X346861011Y-211113690D01*
X346622916Y-211589880D02*
X346622916Y-210589880D01*
X347003869Y-210589880D01*
X347099107Y-210637500D01*
X347146726Y-210685119D01*
X347194345Y-210780357D01*
X347194345Y-210923214D01*
X347146726Y-211018452D01*
X347099107Y-211066071D01*
X347003869Y-211113690D01*
X346622916Y-211113690D01*
X347813392Y-210589880D02*
X348003869Y-210589880D01*
X348099107Y-210637500D01*
X348194345Y-210732738D01*
X348241964Y-210923214D01*
X348241964Y-211256547D01*
X348194345Y-211447023D01*
X348099107Y-211542261D01*
X348003869Y-211589880D01*
X347813392Y-211589880D01*
X347718154Y-211542261D01*
X347622916Y-211447023D01*
X347575297Y-211256547D01*
X347575297Y-210923214D01*
X347622916Y-210732738D01*
X347718154Y-210637500D01*
X347813392Y-210589880D01*
X348575297Y-210589880D02*
X348813392Y-211589880D01*
X349003869Y-210875595D01*
X349194345Y-211589880D01*
X349432440Y-210589880D01*
X350289583Y-210589880D02*
X349813392Y-210589880D01*
X349765773Y-211066071D01*
X349813392Y-211018452D01*
X349908630Y-210970833D01*
X350146726Y-210970833D01*
X350241964Y-211018452D01*
X350289583Y-211066071D01*
X350337202Y-211161309D01*
X350337202Y-211399404D01*
X350289583Y-211494642D01*
X350241964Y-211542261D01*
X350146726Y-211589880D01*
X349908630Y-211589880D01*
X349813392Y-211542261D01*
X349765773Y-211494642D01*
D11*
X92075000Y-211931250D02*
X90487500Y-211931250D01*
X158750000Y-211931250D02*
X157162500Y-211931250D01*
X101600000Y-211931250D02*
X100012500Y-211931250D01*
X136525000Y-211931250D02*
X134937500Y-211931250D01*
X63500000Y-211931250D02*
X61912500Y-211931250D01*
X60325000Y-211931250D02*
X58737500Y-211931250D01*
X190500000Y-211931250D02*
X188912500Y-211931250D01*
X82550000Y-211931250D02*
X80962500Y-211931250D01*
X152400000Y-211931250D02*
X150812500Y-211931250D01*
X330200000Y-211931250D02*
X328612500Y-211931250D01*
X196850000Y-211931250D02*
X195262500Y-211931250D01*
X180975000Y-211931250D02*
X179387500Y-211931250D01*
X209550000Y-211931250D02*
X207962500Y-211931250D01*
X174625000Y-211931250D02*
X173037500Y-211931250D01*
X117475000Y-211931250D02*
X115887500Y-211931250D01*
X260350000Y-211931250D02*
X258762500Y-211931250D01*
X282575000Y-211931250D02*
X280987500Y-211931250D01*
X104775000Y-211931250D02*
X103187500Y-211931250D01*
X139700000Y-211931250D02*
X138112500Y-211931250D01*
X168275000Y-211931250D02*
X166687500Y-211931250D01*
X165100000Y-211931250D02*
X163512500Y-211931250D01*
X279400000Y-211931250D02*
X277812500Y-211931250D01*
X73025000Y-211931250D02*
X71437500Y-211931250D01*
X111125000Y-211931250D02*
X109537500Y-211931250D01*
X76200000Y-211931250D02*
X74612500Y-211931250D01*
X193675000Y-211931250D02*
X192087500Y-211931250D01*
X95250000Y-211931250D02*
X93662500Y-211931250D01*
X44450000Y-211931250D02*
X42862500Y-211931250D01*
X88900000Y-211931250D02*
X87312500Y-211931250D01*
X288925000Y-211931250D02*
X287337500Y-211931250D01*
X317500000Y-211931250D02*
X315912500Y-211931250D01*
X161925000Y-211931250D02*
X160337500Y-211931250D01*
X114300000Y-211931250D02*
X112712500Y-211931250D01*
X142875000Y-211931250D02*
X141287500Y-211931250D01*
X298450000Y-211931250D02*
X296862500Y-211931250D01*
X187325000Y-211931250D02*
X185737500Y-211931250D01*
X228600000Y-211931250D02*
X227012500Y-211931250D01*
X177800000Y-211931250D02*
X176212500Y-211931250D01*
X365125000Y-211931250D02*
X363537500Y-211931250D01*
X184150000Y-211931250D02*
X182562500Y-211931250D01*
X50800000Y-211931250D02*
X49212500Y-211931250D01*
X123825000Y-211931250D02*
X122237500Y-211931250D01*
X146050000Y-211931250D02*
X144462500Y-211931250D01*
X358775000Y-211931250D02*
X357187500Y-211931250D01*
X307975000Y-211931250D02*
X306387500Y-211931250D01*
X355600000Y-211931250D02*
X354012500Y-211931250D01*
X155575000Y-211931250D02*
X153987500Y-211931250D01*
X349250000Y-211931250D02*
X347662500Y-211931250D01*
X69850000Y-211931250D02*
X68262500Y-211931250D01*
X127000000Y-211931250D02*
X125412500Y-211931250D01*
X66675000Y-211931250D02*
X65087500Y-211931250D01*
X149225000Y-211931250D02*
X147637500Y-211931250D01*
X339725000Y-211931250D02*
X338137500Y-211931250D01*
X327025000Y-211931250D02*
X325437500Y-211931250D01*
X361950000Y-211931250D02*
X360362500Y-211931250D01*
X323850000Y-211931250D02*
X322262500Y-211931250D01*
X320675000Y-211931250D02*
X319087500Y-211931250D01*
X238125000Y-211931250D02*
X236537500Y-211931250D01*
X231775000Y-211931250D02*
X230187500Y-211931250D01*
X53975000Y-211931250D02*
X52387500Y-211931250D01*
X215900000Y-211931250D02*
X214312500Y-211931250D01*
X98425000Y-211931250D02*
X96837500Y-211931250D01*
X130175000Y-211931250D02*
X128587500Y-211931250D01*
X234950000Y-211931250D02*
X233362500Y-211931250D01*
X79375000Y-211931250D02*
X77787500Y-211931250D01*
X120650000Y-211931250D02*
X119062500Y-211931250D01*
X107950000Y-211931250D02*
X106362500Y-211931250D01*
X85725000Y-211931250D02*
X84137500Y-211931250D01*
X57150000Y-211931250D02*
X55562500Y-211931250D01*
X47625000Y-211931250D02*
X46037500Y-211931250D01*
X171450000Y-211931250D02*
X169862500Y-211931250D01*
X133350000Y-211931250D02*
X131762500Y-211931250D01*
X263525000Y-211931250D02*
X261937500Y-211931250D01*
X276225000Y-211931250D02*
X274637500Y-211931250D01*
X222250000Y-211931250D02*
X220662500Y-211931250D01*
X292100000Y-211931250D02*
X290512500Y-211931250D01*
X219075000Y-211931250D02*
X217487500Y-211931250D01*
X285750000Y-211931250D02*
X284162500Y-211931250D01*
X304800000Y-211931250D02*
X303212500Y-211931250D01*
X200025000Y-211931250D02*
X198437500Y-211931250D01*
X336550000Y-211931250D02*
X334962500Y-211931250D01*
X311150000Y-211931250D02*
X309562500Y-211931250D01*
X257175000Y-211931250D02*
X255587500Y-211931250D01*
X342900000Y-211931250D02*
X341312500Y-211931250D01*
X301625000Y-211931250D02*
X300037500Y-211931250D01*
X352425000Y-211931250D02*
X350837500Y-211931250D01*
X250825000Y-211931250D02*
X249237500Y-211931250D01*
X295275000Y-211931250D02*
X293687500Y-211931250D01*
X244475000Y-211931250D02*
X242887500Y-211931250D01*
X254000000Y-211931250D02*
X252412500Y-211931250D01*
X206375000Y-211931250D02*
X204787500Y-211931250D01*
X273050000Y-211931250D02*
X271462500Y-211931250D01*
X266700000Y-211931250D02*
X265112500Y-211931250D01*
X269875000Y-211931250D02*
X268287500Y-211931250D01*
X225425000Y-211931250D02*
X223837500Y-211931250D01*
X247650000Y-211931250D02*
X246062500Y-211931250D01*
X241300000Y-211931250D02*
X239712500Y-211931250D01*
X203200000Y-211931250D02*
X201612500Y-211931250D01*
X333375000Y-211931250D02*
X331787500Y-211931250D01*
X346075000Y-211931250D02*
X344487500Y-211931250D01*
X314325000Y-211931250D02*
X312737500Y-211931250D01*
X212725000Y-211931250D02*
X211137500Y-211931250D01*
D10*
X347194345Y-192539880D02*
X346861011Y-192063690D01*
X346622916Y-192539880D02*
X346622916Y-191539880D01*
X347003869Y-191539880D01*
X347099107Y-191587500D01*
X347146726Y-191635119D01*
X347194345Y-191730357D01*
X347194345Y-191873214D01*
X347146726Y-191968452D01*
X347099107Y-192016071D01*
X347003869Y-192063690D01*
X346622916Y-192063690D01*
X347813392Y-191539880D02*
X348003869Y-191539880D01*
X348099107Y-191587500D01*
X348194345Y-191682738D01*
X348241964Y-191873214D01*
X348241964Y-192206547D01*
X348194345Y-192397023D01*
X348099107Y-192492261D01*
X348003869Y-192539880D01*
X347813392Y-192539880D01*
X347718154Y-192492261D01*
X347622916Y-192397023D01*
X347575297Y-192206547D01*
X347575297Y-191873214D01*
X347622916Y-191682738D01*
X347718154Y-191587500D01*
X347813392Y-191539880D01*
X348575297Y-191539880D02*
X348813392Y-192539880D01*
X349003869Y-191825595D01*
X349194345Y-192539880D01*
X349432440Y-191539880D01*
X350241964Y-191873214D02*
X350241964Y-192539880D01*
X350003869Y-191492261D02*
X349765773Y-192206547D01*
X350384821Y-192206547D01*
D11*
X92075000Y-192881250D02*
X90487500Y-192881250D01*
X158750000Y-192881250D02*
X157162500Y-192881250D01*
X101600000Y-192881250D02*
X100012500Y-192881250D01*
X136525000Y-192881250D02*
X134937500Y-192881250D01*
X63500000Y-192881250D02*
X61912500Y-192881250D01*
X60325000Y-192881250D02*
X58737500Y-192881250D01*
X190500000Y-192881250D02*
X188912500Y-192881250D01*
X82550000Y-192881250D02*
X80962500Y-192881250D01*
X152400000Y-192881250D02*
X150812500Y-192881250D01*
X330200000Y-192881250D02*
X328612500Y-192881250D01*
X196850000Y-192881250D02*
X195262500Y-192881250D01*
X180975000Y-192881250D02*
X179387500Y-192881250D01*
X209550000Y-192881250D02*
X207962500Y-192881250D01*
X174625000Y-192881250D02*
X173037500Y-192881250D01*
X117475000Y-192881250D02*
X115887500Y-192881250D01*
X260350000Y-192881250D02*
X258762500Y-192881250D01*
X282575000Y-192881250D02*
X280987500Y-192881250D01*
X104775000Y-192881250D02*
X103187500Y-192881250D01*
X139700000Y-192881250D02*
X138112500Y-192881250D01*
X168275000Y-192881250D02*
X166687500Y-192881250D01*
X165100000Y-192881250D02*
X163512500Y-192881250D01*
X279400000Y-192881250D02*
X277812500Y-192881250D01*
X73025000Y-192881250D02*
X71437500Y-192881250D01*
X111125000Y-192881250D02*
X109537500Y-192881250D01*
X76200000Y-192881250D02*
X74612500Y-192881250D01*
X193675000Y-192881250D02*
X192087500Y-192881250D01*
X95250000Y-192881250D02*
X93662500Y-192881250D01*
X44450000Y-192881250D02*
X42862500Y-192881250D01*
X88900000Y-192881250D02*
X87312500Y-192881250D01*
X288925000Y-192881250D02*
X287337500Y-192881250D01*
X317500000Y-192881250D02*
X315912500Y-192881250D01*
X161925000Y-192881250D02*
X160337500Y-192881250D01*
X114300000Y-192881250D02*
X112712500Y-192881250D01*
X142875000Y-192881250D02*
X141287500Y-192881250D01*
X298450000Y-192881250D02*
X296862500Y-192881250D01*
X187325000Y-192881250D02*
X185737500Y-192881250D01*
X228600000Y-192881250D02*
X227012500Y-192881250D01*
X177800000Y-192881250D02*
X176212500Y-192881250D01*
X365125000Y-192881250D02*
X363537500Y-192881250D01*
X184150000Y-192881250D02*
X182562500Y-192881250D01*
X50800000Y-192881250D02*
X49212500Y-192881250D01*
X123825000Y-192881250D02*
X122237500Y-192881250D01*
X146050000Y-192881250D02*
X144462500Y-192881250D01*
X358775000Y-192881250D02*
X357187500Y-192881250D01*
X307975000Y-192881250D02*
X306387500Y-192881250D01*
X355600000Y-192881250D02*
X354012500Y-192881250D01*
X155575000Y-192881250D02*
X153987500Y-192881250D01*
X349250000Y-192881250D02*
X347662500Y-192881250D01*
X69850000Y-192881250D02*
X68262500Y-192881250D01*
X127000000Y-192881250D02*
X125412500Y-192881250D01*
X66675000Y-192881250D02*
X65087500Y-192881250D01*
X149225000Y-192881250D02*
X147637500Y-192881250D01*
X339725000Y-192881250D02*
X338137500Y-192881250D01*
X327025000Y-192881250D02*
X325437500Y-192881250D01*
X361950000Y-192881250D02*
X360362500Y-192881250D01*
X323850000Y-192881250D02*
X322262500Y-192881250D01*
X320675000Y-192881250D02*
X319087500Y-192881250D01*
X238125000Y-192881250D02*
X236537500Y-192881250D01*
X231775000Y-192881250D02*
X230187500Y-192881250D01*
X53975000Y-192881250D02*
X52387500Y-192881250D01*
X215900000Y-192881250D02*
X214312500Y-192881250D01*
X98425000Y-192881250D02*
X96837500Y-192881250D01*
X130175000Y-192881250D02*
X128587500Y-192881250D01*
X234950000Y-192881250D02*
X233362500Y-192881250D01*
X79375000Y-192881250D02*
X77787500Y-192881250D01*
X120650000Y-192881250D02*
X119062500Y-192881250D01*
X107950000Y-192881250D02*
X106362500Y-192881250D01*
X85725000Y-192881250D02*
X84137500Y-192881250D01*
X57150000Y-192881250D02*
X55562500Y-192881250D01*
X47625000Y-192881250D02*
X46037500Y-192881250D01*
X171450000Y-192881250D02*
X169862500Y-192881250D01*
X133350000Y-192881250D02*
X131762500Y-192881250D01*
X263525000Y-192881250D02*
X261937500Y-192881250D01*
X276225000Y-192881250D02*
X274637500Y-192881250D01*
X222250000Y-192881250D02*
X220662500Y-192881250D01*
X292100000Y-192881250D02*
X290512500Y-192881250D01*
X219075000Y-192881250D02*
X217487500Y-192881250D01*
X285750000Y-192881250D02*
X284162500Y-192881250D01*
X304800000Y-192881250D02*
X303212500Y-192881250D01*
X200025000Y-192881250D02*
X198437500Y-192881250D01*
X336550000Y-192881250D02*
X334962500Y-192881250D01*
X311150000Y-192881250D02*
X309562500Y-192881250D01*
X257175000Y-192881250D02*
X255587500Y-192881250D01*
X342900000Y-192881250D02*
X341312500Y-192881250D01*
X301625000Y-192881250D02*
X300037500Y-192881250D01*
X352425000Y-192881250D02*
X350837500Y-192881250D01*
X250825000Y-192881250D02*
X249237500Y-192881250D01*
X295275000Y-192881250D02*
X293687500Y-192881250D01*
X244475000Y-192881250D02*
X242887500Y-192881250D01*
X254000000Y-192881250D02*
X252412500Y-192881250D01*
X206375000Y-192881250D02*
X204787500Y-192881250D01*
X273050000Y-192881250D02*
X271462500Y-192881250D01*
X266700000Y-192881250D02*
X265112500Y-192881250D01*
X269875000Y-192881250D02*
X268287500Y-192881250D01*
X225425000Y-192881250D02*
X223837500Y-192881250D01*
X247650000Y-192881250D02*
X246062500Y-192881250D01*
X241300000Y-192881250D02*
X239712500Y-192881250D01*
X203200000Y-192881250D02*
X201612500Y-192881250D01*
X333375000Y-192881250D02*
X331787500Y-192881250D01*
X346075000Y-192881250D02*
X344487500Y-192881250D01*
X314325000Y-192881250D02*
X312737500Y-192881250D01*
X212725000Y-192881250D02*
X211137500Y-192881250D01*
X190500000Y-173831250D02*
X188912500Y-173831250D01*
X82550000Y-173831250D02*
X80962500Y-173831250D01*
X101600000Y-173831250D02*
X100012500Y-173831250D01*
X152400000Y-173831250D02*
X150812500Y-173831250D01*
X60325000Y-173831250D02*
X58737500Y-173831250D01*
X136525000Y-173831250D02*
X134937500Y-173831250D01*
X92075000Y-173831250D02*
X90487500Y-173831250D01*
X63500000Y-173831250D02*
X61912500Y-173831250D01*
X158750000Y-173831250D02*
X157162500Y-173831250D01*
X53975000Y-173831250D02*
X52387500Y-173831250D01*
X98425000Y-173831250D02*
X96837500Y-173831250D01*
X130175000Y-173831250D02*
X128587500Y-173831250D01*
X69850000Y-173831250D02*
X68262500Y-173831250D01*
X79375000Y-173831250D02*
X77787500Y-173831250D01*
X120650000Y-173831250D02*
X119062500Y-173831250D01*
X180975000Y-173831250D02*
X179387500Y-173831250D01*
X104775000Y-173831250D02*
X103187500Y-173831250D01*
X168275000Y-173831250D02*
X166687500Y-173831250D01*
X165100000Y-173831250D02*
X163512500Y-173831250D01*
X117475000Y-173831250D02*
X115887500Y-173831250D01*
X127000000Y-173831250D02*
X125412500Y-173831250D01*
X111125000Y-173831250D02*
X109537500Y-173831250D01*
X174625000Y-173831250D02*
X173037500Y-173831250D01*
X193675000Y-173831250D02*
X192087500Y-173831250D01*
X107950000Y-173831250D02*
X106362500Y-173831250D01*
X139700000Y-173831250D02*
X138112500Y-173831250D01*
X95250000Y-173831250D02*
X93662500Y-173831250D01*
X149225000Y-173831250D02*
X147637500Y-173831250D01*
X85725000Y-173831250D02*
X84137500Y-173831250D01*
X44450000Y-173831250D02*
X42862500Y-173831250D01*
X161925000Y-173831250D02*
X160337500Y-173831250D01*
X66675000Y-173831250D02*
X65087500Y-173831250D01*
X187325000Y-173831250D02*
X185737500Y-173831250D01*
X184150000Y-173831250D02*
X182562500Y-173831250D01*
X57150000Y-173831250D02*
X55562500Y-173831250D01*
X50800000Y-173831250D02*
X49212500Y-173831250D01*
X47625000Y-173831250D02*
X46037500Y-173831250D01*
X88900000Y-173831250D02*
X87312500Y-173831250D01*
X123825000Y-173831250D02*
X122237500Y-173831250D01*
X146050000Y-173831250D02*
X144462500Y-173831250D01*
X142875000Y-173831250D02*
X141287500Y-173831250D01*
X76200000Y-173831250D02*
X74612500Y-173831250D01*
X171450000Y-173831250D02*
X169862500Y-173831250D01*
X177800000Y-173831250D02*
X176212500Y-173831250D01*
X155575000Y-173831250D02*
X153987500Y-173831250D01*
X215900000Y-173831250D02*
X214312500Y-173831250D01*
X317500000Y-173831250D02*
X315912500Y-173831250D01*
X358775000Y-173831250D02*
X357187500Y-173831250D01*
X288925000Y-173831250D02*
X287337500Y-173831250D01*
X279400000Y-173831250D02*
X277812500Y-173831250D01*
X231775000Y-173831250D02*
X230187500Y-173831250D01*
X209550000Y-173831250D02*
X207962500Y-173831250D01*
X307975000Y-173831250D02*
X306387500Y-173831250D01*
X228600000Y-173831250D02*
X227012500Y-173831250D01*
X327025000Y-173831250D02*
X325437500Y-173831250D01*
X114300000Y-173831250D02*
X112712500Y-173831250D01*
X355600000Y-173831250D02*
X354012500Y-173831250D01*
X361950000Y-173831250D02*
X360362500Y-173831250D01*
X260350000Y-173831250D02*
X258762500Y-173831250D01*
X133350000Y-173831250D02*
X131762500Y-173831250D01*
X73025000Y-173831250D02*
X71437500Y-173831250D01*
X323850000Y-173831250D02*
X322262500Y-173831250D01*
X263525000Y-173831250D02*
X261937500Y-173831250D01*
X365125000Y-173831250D02*
X363537500Y-173831250D01*
X320675000Y-173831250D02*
X319087500Y-173831250D01*
X298450000Y-173831250D02*
X296862500Y-173831250D01*
X330200000Y-173831250D02*
X328612500Y-173831250D01*
X234950000Y-173831250D02*
X233362500Y-173831250D01*
X238125000Y-173831250D02*
X236537500Y-173831250D01*
X349250000Y-173831250D02*
X347662500Y-173831250D01*
X282575000Y-173831250D02*
X280987500Y-173831250D01*
X339725000Y-173831250D02*
X338137500Y-173831250D01*
X196850000Y-173831250D02*
X195262500Y-173831250D01*
X292100000Y-173831250D02*
X290512500Y-173831250D01*
X219075000Y-173831250D02*
X217487500Y-173831250D01*
X257175000Y-173831250D02*
X255587500Y-173831250D01*
X273050000Y-173831250D02*
X271462500Y-173831250D01*
X266700000Y-173831250D02*
X265112500Y-173831250D01*
X250825000Y-173831250D02*
X249237500Y-173831250D01*
X342900000Y-173831250D02*
X341312500Y-173831250D01*
X285750000Y-173831250D02*
X284162500Y-173831250D01*
X244475000Y-173831250D02*
X242887500Y-173831250D01*
X269875000Y-173831250D02*
X268287500Y-173831250D01*
X311150000Y-173831250D02*
X309562500Y-173831250D01*
X225425000Y-173831250D02*
X223837500Y-173831250D01*
X295275000Y-173831250D02*
X293687500Y-173831250D01*
X241300000Y-173831250D02*
X239712500Y-173831250D01*
X203200000Y-173831250D02*
X201612500Y-173831250D01*
X352425000Y-173831250D02*
X350837500Y-173831250D01*
X304800000Y-173831250D02*
X303212500Y-173831250D01*
X206375000Y-173831250D02*
X204787500Y-173831250D01*
X254000000Y-173831250D02*
X252412500Y-173831250D01*
X333375000Y-173831250D02*
X331787500Y-173831250D01*
X346075000Y-173831250D02*
X344487500Y-173831250D01*
X247650000Y-173831250D02*
X246062500Y-173831250D01*
X314325000Y-173831250D02*
X312737500Y-173831250D01*
X200025000Y-173831250D02*
X198437500Y-173831250D01*
X276225000Y-173831250D02*
X274637500Y-173831250D01*
X336550000Y-173831250D02*
X334962500Y-173831250D01*
X212725000Y-173831250D02*
X211137500Y-173831250D01*
X222250000Y-173831250D02*
X220662500Y-173831250D01*
X301625000Y-173831250D02*
X300037500Y-173831250D01*
D10*
X347194345Y-173489880D02*
X346861011Y-173013690D01*
X346622916Y-173489880D02*
X346622916Y-172489880D01*
X347003869Y-172489880D01*
X347099107Y-172537500D01*
X347146726Y-172585119D01*
X347194345Y-172680357D01*
X347194345Y-172823214D01*
X347146726Y-172918452D01*
X347099107Y-172966071D01*
X347003869Y-173013690D01*
X346622916Y-173013690D01*
X347813392Y-172489880D02*
X348003869Y-172489880D01*
X348099107Y-172537500D01*
X348194345Y-172632738D01*
X348241964Y-172823214D01*
X348241964Y-173156547D01*
X348194345Y-173347023D01*
X348099107Y-173442261D01*
X348003869Y-173489880D01*
X347813392Y-173489880D01*
X347718154Y-173442261D01*
X347622916Y-173347023D01*
X347575297Y-173156547D01*
X347575297Y-172823214D01*
X347622916Y-172632738D01*
X347718154Y-172537500D01*
X347813392Y-172489880D01*
X348575297Y-172489880D02*
X348813392Y-173489880D01*
X349003869Y-172775595D01*
X349194345Y-173489880D01*
X349432440Y-172489880D01*
X349718154Y-172489880D02*
X350337202Y-172489880D01*
X350003869Y-172870833D01*
X350146726Y-172870833D01*
X350241964Y-172918452D01*
X350289583Y-172966071D01*
X350337202Y-173061309D01*
X350337202Y-173299404D01*
X350289583Y-173394642D01*
X350241964Y-173442261D01*
X350146726Y-173489880D01*
X349861011Y-173489880D01*
X349765773Y-173442261D01*
X349718154Y-173394642D01*
X99234821Y-117832142D02*
X99187202Y-117879761D01*
X99044345Y-117927380D01*
X98949107Y-117927380D01*
X98806250Y-117879761D01*
X98711011Y-117784523D01*
X98663392Y-117689285D01*
X98615773Y-117498809D01*
X98615773Y-117355952D01*
X98663392Y-117165476D01*
X98711011Y-117070238D01*
X98806250Y-116975000D01*
X98949107Y-116927380D01*
X99044345Y-116927380D01*
X99187202Y-116975000D01*
X99234821Y-117022619D01*
X99853869Y-116927380D02*
X100044345Y-116927380D01*
X100139583Y-116975000D01*
X100234821Y-117070238D01*
X100282440Y-117260714D01*
X100282440Y-117594047D01*
X100234821Y-117784523D01*
X100139583Y-117879761D01*
X100044345Y-117927380D01*
X99853869Y-117927380D01*
X99758630Y-117879761D01*
X99663392Y-117784523D01*
X99615773Y-117594047D01*
X99615773Y-117260714D01*
X99663392Y-117070238D01*
X99758630Y-116975000D01*
X99853869Y-116927380D01*
X101187202Y-117927380D02*
X100711011Y-117927380D01*
X100711011Y-116927380D01*
X102044345Y-117927380D02*
X101472916Y-117927380D01*
X101758630Y-117927380D02*
X101758630Y-116927380D01*
X101663392Y-117070238D01*
X101568154Y-117165476D01*
X101472916Y-117213095D01*
X102901488Y-117260714D02*
X102901488Y-117927380D01*
X102663392Y-116879761D02*
X102425297Y-117594047D01*
X103044345Y-117594047D01*
D11*
X98425000Y-126206250D02*
X98425000Y-127793750D01*
X98425000Y-145256250D02*
X98425000Y-146843750D01*
X98425000Y-183356251D02*
X98425000Y-184943750D01*
X98425000Y-177006251D02*
X98425000Y-178593751D01*
X98425000Y-132556250D02*
X98425000Y-134143750D01*
X98425000Y-192881250D02*
X98425000Y-194468750D01*
X98425000Y-208756250D02*
X98425000Y-210343750D01*
X98425000Y-151606250D02*
X98425000Y-153193750D01*
X98425000Y-192881250D02*
X98425000Y-194468750D01*
X98425000Y-199231250D02*
X98425000Y-200818750D01*
X98425000Y-189706250D02*
X98425000Y-191293750D01*
X98425000Y-227806250D02*
X98425000Y-229393750D01*
X98425000Y-135731250D02*
X98425000Y-137318750D01*
X98425000Y-196056250D02*
X98425000Y-197643750D01*
X98425000Y-205581250D02*
X98425000Y-207168750D01*
X98425000Y-157956249D02*
X98425000Y-159543749D01*
X98425000Y-180181251D02*
X98425000Y-181768751D01*
X98425000Y-218281250D02*
X98425000Y-219868750D01*
X98425000Y-211931250D02*
X98425000Y-213518750D01*
X98425000Y-202406250D02*
X98425000Y-203993750D01*
X98425000Y-121443750D02*
X98425000Y-123031250D01*
X98425000Y-148431250D02*
X98425000Y-150018750D01*
X98425000Y-129381250D02*
X98425000Y-130968750D01*
X98425000Y-164306249D02*
X98425000Y-165893749D01*
X98425000Y-161131249D02*
X98425000Y-162718749D01*
X98425000Y-215106250D02*
X98425000Y-216693750D01*
X98425000Y-138906250D02*
X98425000Y-140493750D01*
X98425000Y-224631250D02*
X98425000Y-226218750D01*
X98425000Y-167481249D02*
X98425000Y-169068749D01*
X98425000Y-173831251D02*
X98425000Y-175418751D01*
X98425000Y-119062500D02*
X98425000Y-120650000D01*
X98425000Y-116681250D02*
X98425000Y-118268750D01*
X98425000Y-173831251D02*
X98425000Y-175418751D01*
X98425000Y-123825000D02*
X98425000Y-125412500D01*
X98425000Y-170656251D02*
X98425000Y-172243751D01*
X98425000Y-142081250D02*
X98425000Y-143668750D01*
X98425000Y-221456250D02*
X98425000Y-223043750D01*
X98425000Y-186531250D02*
X98425000Y-188118750D01*
X98425000Y-154781249D02*
X98425000Y-156368749D01*
D10*
X137334821Y-117832142D02*
X137287202Y-117879761D01*
X137144345Y-117927380D01*
X137049107Y-117927380D01*
X136906250Y-117879761D01*
X136811011Y-117784523D01*
X136763392Y-117689285D01*
X136715773Y-117498809D01*
X136715773Y-117355952D01*
X136763392Y-117165476D01*
X136811011Y-117070238D01*
X136906250Y-116975000D01*
X137049107Y-116927380D01*
X137144345Y-116927380D01*
X137287202Y-116975000D01*
X137334821Y-117022619D01*
X137953869Y-116927380D02*
X138144345Y-116927380D01*
X138239583Y-116975000D01*
X138334821Y-117070238D01*
X138382440Y-117260714D01*
X138382440Y-117594047D01*
X138334821Y-117784523D01*
X138239583Y-117879761D01*
X138144345Y-117927380D01*
X137953869Y-117927380D01*
X137858630Y-117879761D01*
X137763392Y-117784523D01*
X137715773Y-117594047D01*
X137715773Y-117260714D01*
X137763392Y-117070238D01*
X137858630Y-116975000D01*
X137953869Y-116927380D01*
X139287202Y-117927380D02*
X138811011Y-117927380D01*
X138811011Y-116927380D01*
X140144345Y-117927380D02*
X139572916Y-117927380D01*
X139858630Y-117927380D02*
X139858630Y-116927380D01*
X139763392Y-117070238D01*
X139668154Y-117165476D01*
X139572916Y-117213095D01*
X140525297Y-117022619D02*
X140572916Y-116975000D01*
X140668154Y-116927380D01*
X140906250Y-116927380D01*
X141001488Y-116975000D01*
X141049107Y-117022619D01*
X141096726Y-117117857D01*
X141096726Y-117213095D01*
X141049107Y-117355952D01*
X140477678Y-117927380D01*
X141096726Y-117927380D01*
D11*
X136525000Y-126206250D02*
X136525000Y-127793750D01*
X136525000Y-145256250D02*
X136525000Y-146843750D01*
X136525000Y-183356251D02*
X136525000Y-184943750D01*
X136525000Y-177006251D02*
X136525000Y-178593751D01*
X136525000Y-132556250D02*
X136525000Y-134143750D01*
X136525000Y-192881250D02*
X136525000Y-194468750D01*
X136525000Y-208756250D02*
X136525000Y-210343750D01*
X136525000Y-151606250D02*
X136525000Y-153193750D01*
X136525000Y-192881250D02*
X136525000Y-194468750D01*
X136525000Y-199231250D02*
X136525000Y-200818750D01*
X136525000Y-189706250D02*
X136525000Y-191293750D01*
X136525000Y-227806250D02*
X136525000Y-229393750D01*
X136525000Y-135731250D02*
X136525000Y-137318750D01*
X136525000Y-196056250D02*
X136525000Y-197643750D01*
X136525000Y-205581250D02*
X136525000Y-207168750D01*
X136525000Y-157956249D02*
X136525000Y-159543749D01*
X136525000Y-180181251D02*
X136525000Y-181768751D01*
X136525000Y-218281250D02*
X136525000Y-219868750D01*
X136525000Y-211931250D02*
X136525000Y-213518750D01*
X136525000Y-202406250D02*
X136525000Y-203993750D01*
X136525000Y-121443750D02*
X136525000Y-123031250D01*
X136525000Y-148431250D02*
X136525000Y-150018750D01*
X136525000Y-129381250D02*
X136525000Y-130968750D01*
X136525000Y-164306249D02*
X136525000Y-165893749D01*
X136525000Y-161131249D02*
X136525000Y-162718749D01*
X136525000Y-215106250D02*
X136525000Y-216693750D01*
X136525000Y-138906250D02*
X136525000Y-140493750D01*
X136525000Y-224631250D02*
X136525000Y-226218750D01*
X136525000Y-167481249D02*
X136525000Y-169068749D01*
X136525000Y-173831251D02*
X136525000Y-175418751D01*
X136525000Y-119062500D02*
X136525000Y-120650000D01*
X136525000Y-116681250D02*
X136525000Y-118268750D01*
X136525000Y-173831251D02*
X136525000Y-175418751D01*
X136525000Y-123825000D02*
X136525000Y-125412500D01*
X136525000Y-170656251D02*
X136525000Y-172243751D01*
X136525000Y-142081250D02*
X136525000Y-143668750D01*
X136525000Y-221456250D02*
X136525000Y-223043750D01*
X136525000Y-186531250D02*
X136525000Y-188118750D01*
X136525000Y-154781249D02*
X136525000Y-156368749D01*
D10*
X175434821Y-117832142D02*
X175387202Y-117879761D01*
X175244345Y-117927380D01*
X175149107Y-117927380D01*
X175006250Y-117879761D01*
X174911011Y-117784523D01*
X174863392Y-117689285D01*
X174815773Y-117498809D01*
X174815773Y-117355952D01*
X174863392Y-117165476D01*
X174911011Y-117070238D01*
X175006250Y-116975000D01*
X175149107Y-116927380D01*
X175244345Y-116927380D01*
X175387202Y-116975000D01*
X175434821Y-117022619D01*
X176053869Y-116927380D02*
X176244345Y-116927380D01*
X176339583Y-116975000D01*
X176434821Y-117070238D01*
X176482440Y-117260714D01*
X176482440Y-117594047D01*
X176434821Y-117784523D01*
X176339583Y-117879761D01*
X176244345Y-117927380D01*
X176053869Y-117927380D01*
X175958630Y-117879761D01*
X175863392Y-117784523D01*
X175815773Y-117594047D01*
X175815773Y-117260714D01*
X175863392Y-117070238D01*
X175958630Y-116975000D01*
X176053869Y-116927380D01*
X177387202Y-117927380D02*
X176911011Y-117927380D01*
X176911011Y-116927380D01*
X178244345Y-117927380D02*
X177672916Y-117927380D01*
X177958630Y-117927380D02*
X177958630Y-116927380D01*
X177863392Y-117070238D01*
X177768154Y-117165476D01*
X177672916Y-117213095D01*
X178863392Y-116927380D02*
X178958630Y-116927380D01*
X179053869Y-116975000D01*
X179101488Y-117022619D01*
X179149107Y-117117857D01*
X179196726Y-117308333D01*
X179196726Y-117546428D01*
X179149107Y-117736904D01*
X179101488Y-117832142D01*
X179053869Y-117879761D01*
X178958630Y-117927380D01*
X178863392Y-117927380D01*
X178768154Y-117879761D01*
X178720535Y-117832142D01*
X178672916Y-117736904D01*
X178625297Y-117546428D01*
X178625297Y-117308333D01*
X178672916Y-117117857D01*
X178720535Y-117022619D01*
X178768154Y-116975000D01*
X178863392Y-116927380D01*
D11*
X174625000Y-126206250D02*
X174625000Y-127793750D01*
X174625000Y-145256250D02*
X174625000Y-146843750D01*
X174625000Y-183356251D02*
X174625000Y-184943750D01*
X174625000Y-177006251D02*
X174625000Y-178593751D01*
X174625000Y-132556250D02*
X174625000Y-134143750D01*
X174625000Y-192881250D02*
X174625000Y-194468750D01*
X174625000Y-208756250D02*
X174625000Y-210343750D01*
X174625000Y-151606250D02*
X174625000Y-153193750D01*
X174625000Y-192881250D02*
X174625000Y-194468750D01*
X174625000Y-199231250D02*
X174625000Y-200818750D01*
X174625000Y-189706250D02*
X174625000Y-191293750D01*
X174625000Y-227806250D02*
X174625000Y-229393750D01*
X174625000Y-135731250D02*
X174625000Y-137318750D01*
X174625000Y-196056250D02*
X174625000Y-197643750D01*
X174625000Y-205581250D02*
X174625000Y-207168750D01*
X174625000Y-157956249D02*
X174625000Y-159543749D01*
X174625000Y-180181251D02*
X174625000Y-181768751D01*
X174625000Y-218281250D02*
X174625000Y-219868750D01*
X174625000Y-211931250D02*
X174625000Y-213518750D01*
X174625000Y-202406250D02*
X174625000Y-203993750D01*
X174625000Y-121443750D02*
X174625000Y-123031250D01*
X174625000Y-148431250D02*
X174625000Y-150018750D01*
X174625000Y-129381250D02*
X174625000Y-130968750D01*
X174625000Y-164306249D02*
X174625000Y-165893749D01*
X174625000Y-161131249D02*
X174625000Y-162718749D01*
X174625000Y-215106250D02*
X174625000Y-216693750D01*
X174625000Y-138906250D02*
X174625000Y-140493750D01*
X174625000Y-224631250D02*
X174625000Y-226218750D01*
X174625000Y-167481249D02*
X174625000Y-169068749D01*
X174625000Y-173831251D02*
X174625000Y-175418751D01*
X174625000Y-119062500D02*
X174625000Y-120650000D01*
X174625000Y-116681250D02*
X174625000Y-118268750D01*
X174625000Y-173831251D02*
X174625000Y-175418751D01*
X174625000Y-123825000D02*
X174625000Y-125412500D01*
X174625000Y-170656251D02*
X174625000Y-172243751D01*
X174625000Y-142081250D02*
X174625000Y-143668750D01*
X174625000Y-221456250D02*
X174625000Y-223043750D01*
X174625000Y-186531250D02*
X174625000Y-188118750D01*
X174625000Y-154781249D02*
X174625000Y-156368749D01*
X288925000Y-154781249D02*
X288925000Y-156368749D01*
X288925000Y-119062500D02*
X288925000Y-120650000D01*
X288925000Y-126206250D02*
X288925000Y-127793750D01*
X288925000Y-145256250D02*
X288925000Y-146843750D01*
X288925000Y-167481249D02*
X288925000Y-169068749D01*
X288925000Y-192881250D02*
X288925000Y-194468750D01*
X288925000Y-142081250D02*
X288925000Y-143668750D01*
X288925000Y-157956249D02*
X288925000Y-159543749D01*
X288925000Y-202406250D02*
X288925000Y-203993750D01*
X288925000Y-135731250D02*
X288925000Y-137318750D01*
X288925000Y-121443750D02*
X288925000Y-123031250D01*
X288925000Y-148431250D02*
X288925000Y-150018750D01*
X288925000Y-180181251D02*
X288925000Y-181768751D01*
X288925000Y-132556250D02*
X288925000Y-134143750D01*
X288925000Y-173831251D02*
X288925000Y-175418751D01*
X288925000Y-116681250D02*
X288925000Y-118268750D01*
X288925000Y-151606250D02*
X288925000Y-153193750D01*
X288925000Y-129381250D02*
X288925000Y-130968750D01*
X288925000Y-123825000D02*
X288925000Y-125412500D01*
X288925000Y-183356251D02*
X288925000Y-184943750D01*
X288925000Y-138906250D02*
X288925000Y-140493750D01*
X288925000Y-164306249D02*
X288925000Y-165893749D01*
X288925000Y-170656251D02*
X288925000Y-172243751D01*
X288925000Y-161131249D02*
X288925000Y-162718749D01*
X288925000Y-199231250D02*
X288925000Y-200818750D01*
X288925000Y-189706250D02*
X288925000Y-191293750D01*
X288925000Y-196056250D02*
X288925000Y-197643750D01*
X288925000Y-186531250D02*
X288925000Y-188118750D01*
X288925000Y-205581250D02*
X288925000Y-207168750D01*
X288925000Y-177006251D02*
X288925000Y-178593751D01*
X288925000Y-208756250D02*
X288925000Y-210343750D01*
X288925000Y-218281250D02*
X288925000Y-219868750D01*
X288925000Y-211931250D02*
X288925000Y-213518750D01*
X288925000Y-215106250D02*
X288925000Y-216693750D01*
X288925000Y-221456250D02*
X288925000Y-223043750D01*
X288925000Y-224631250D02*
X288925000Y-226218750D01*
X288925000Y-227806250D02*
X288925000Y-229393750D01*
X288925000Y-192881250D02*
X288925000Y-194468750D01*
X288925000Y-173831251D02*
X288925000Y-175418751D01*
D10*
X290211011Y-117832142D02*
X290163392Y-117879761D01*
X290020535Y-117927380D01*
X289925297Y-117927380D01*
X289782440Y-117879761D01*
X289687202Y-117784523D01*
X289639583Y-117689285D01*
X289591964Y-117498809D01*
X289591964Y-117355952D01*
X289639583Y-117165476D01*
X289687202Y-117070238D01*
X289782440Y-116975000D01*
X289925297Y-116927380D01*
X290020535Y-116927380D01*
X290163392Y-116975000D01*
X290211011Y-117022619D01*
X290830059Y-116927380D02*
X291020535Y-116927380D01*
X291115773Y-116975000D01*
X291211011Y-117070238D01*
X291258630Y-117260714D01*
X291258630Y-117594047D01*
X291211011Y-117784523D01*
X291115773Y-117879761D01*
X291020535Y-117927380D01*
X290830059Y-117927380D01*
X290734821Y-117879761D01*
X290639583Y-117784523D01*
X290591964Y-117594047D01*
X290591964Y-117260714D01*
X290639583Y-117070238D01*
X290734821Y-116975000D01*
X290830059Y-116927380D01*
X292163392Y-117927380D02*
X291687202Y-117927380D01*
X291687202Y-116927380D01*
X292925297Y-117260714D02*
X292925297Y-117927380D01*
X292687202Y-116879761D02*
X292449107Y-117594047D01*
X293068154Y-117594047D01*
%LPC*%
D12*
G36*
X356112867Y-90861373D02*
G01*
X356114844Y-90865807D01*
X356117551Y-90872863D01*
X356120771Y-90881981D01*
X356123925Y-90891470D01*
X356125558Y-90896530D01*
X356128332Y-90905131D01*
X356132183Y-90917081D01*
X356137052Y-90932191D01*
X356142876Y-90950270D01*
X356149595Y-90971129D01*
X356157147Y-90994577D01*
X356165471Y-91020424D01*
X356174505Y-91048479D01*
X356184190Y-91078554D01*
X356194462Y-91110457D01*
X356205262Y-91143999D01*
X356216528Y-91178989D01*
X356228198Y-91215237D01*
X356240212Y-91252554D01*
X356252508Y-91290748D01*
X356262842Y-91322850D01*
X356391115Y-91721320D01*
X356845176Y-91719982D01*
X356887069Y-91719861D01*
X356927918Y-91719749D01*
X356967552Y-91719646D01*
X357005798Y-91719553D01*
X357042484Y-91719468D01*
X357077438Y-91719394D01*
X357110488Y-91719329D01*
X357141460Y-91719275D01*
X357170183Y-91719231D01*
X357196485Y-91719198D01*
X357220193Y-91719175D01*
X357241134Y-91719164D01*
X357259137Y-91719164D01*
X357274030Y-91719176D01*
X357285639Y-91719200D01*
X357293793Y-91719236D01*
X357298320Y-91719285D01*
X357299237Y-91719326D01*
X357297672Y-91720520D01*
X357293070Y-91723907D01*
X357285572Y-91729385D01*
X357275315Y-91736854D01*
X357262442Y-91746211D01*
X357247091Y-91757357D01*
X357229402Y-91770188D01*
X357209516Y-91784605D01*
X357187571Y-91800506D01*
X357163709Y-91817788D01*
X357138068Y-91836352D01*
X357110789Y-91856096D01*
X357082011Y-91876918D01*
X357051874Y-91898718D01*
X357020519Y-91921393D01*
X356988084Y-91944842D01*
X356954710Y-91968965D01*
X356931958Y-91985408D01*
X356898028Y-92009934D01*
X356864945Y-92033865D01*
X356832848Y-92057099D01*
X356801877Y-92079534D01*
X356772171Y-92101068D01*
X356743872Y-92121599D01*
X356717118Y-92141026D01*
X356692050Y-92159247D01*
X356668808Y-92176160D01*
X356647531Y-92191662D01*
X356628359Y-92205653D01*
X356611433Y-92218030D01*
X356596892Y-92228691D01*
X356584877Y-92237535D01*
X356575526Y-92244459D01*
X356568980Y-92249363D01*
X356565380Y-92252143D01*
X356564685Y-92252767D01*
X356565287Y-92254784D01*
X356567057Y-92260360D01*
X356569942Y-92269328D01*
X356573886Y-92281524D01*
X356578836Y-92296783D01*
X356584739Y-92314939D01*
X356591540Y-92335827D01*
X356599186Y-92359282D01*
X356607622Y-92385139D01*
X356616795Y-92413233D01*
X356626650Y-92443399D01*
X356637134Y-92475470D01*
X356648194Y-92509284D01*
X356659774Y-92544673D01*
X356671822Y-92581473D01*
X356684282Y-92619518D01*
X356697102Y-92658645D01*
X356705350Y-92683806D01*
X356718362Y-92723511D01*
X356731045Y-92762229D01*
X356743344Y-92799796D01*
X356755207Y-92836048D01*
X356766579Y-92870820D01*
X356777407Y-92903948D01*
X356787637Y-92935268D01*
X356797216Y-92964614D01*
X356806090Y-92991822D01*
X356814205Y-93016728D01*
X356821508Y-93039167D01*
X356827945Y-93058975D01*
X356833462Y-93075987D01*
X356838006Y-93090039D01*
X356841522Y-93100966D01*
X356843959Y-93108604D01*
X356845261Y-93112787D01*
X356845475Y-93113576D01*
X356843866Y-93112502D01*
X356839233Y-93109217D01*
X356831714Y-93103824D01*
X356821451Y-93096425D01*
X356808581Y-93087119D01*
X356793245Y-93076010D01*
X356775583Y-93063198D01*
X356755734Y-93048785D01*
X356733837Y-93032872D01*
X356710033Y-93015562D01*
X356684460Y-92996954D01*
X356657259Y-92977152D01*
X356628569Y-92956255D01*
X356598530Y-92934367D01*
X356567281Y-92911588D01*
X356534962Y-92888019D01*
X356501712Y-92863763D01*
X356479326Y-92847427D01*
X356445518Y-92822765D01*
X356412532Y-92798727D01*
X356380509Y-92775414D01*
X356349589Y-92752928D01*
X356319912Y-92731369D01*
X356291620Y-92710841D01*
X356264853Y-92691444D01*
X356239751Y-92673279D01*
X356216454Y-92656448D01*
X356195105Y-92641053D01*
X356175842Y-92627195D01*
X356158807Y-92614976D01*
X356144140Y-92604496D01*
X356131981Y-92595858D01*
X356122471Y-92589163D01*
X356115751Y-92584512D01*
X356111962Y-92582007D01*
X356111135Y-92581578D01*
X356109335Y-92582809D01*
X356104511Y-92586248D01*
X356096804Y-92591792D01*
X356086358Y-92599339D01*
X356073311Y-92608785D01*
X356057807Y-92620028D01*
X356039986Y-92632965D01*
X356019990Y-92647494D01*
X355997960Y-92663511D01*
X355974037Y-92680913D01*
X355948363Y-92699599D01*
X355921079Y-92719464D01*
X355892327Y-92740408D01*
X355862247Y-92762325D01*
X355830981Y-92785115D01*
X355798671Y-92808673D01*
X355765457Y-92832898D01*
X355746304Y-92846871D01*
X355712638Y-92871432D01*
X355679795Y-92895391D01*
X355647916Y-92918643D01*
X355617142Y-92941086D01*
X355587615Y-92962617D01*
X355559476Y-92983132D01*
X355532868Y-93002529D01*
X355507930Y-93020704D01*
X355484805Y-93037556D01*
X355463634Y-93052979D01*
X355444559Y-93066872D01*
X355427721Y-93079131D01*
X355413260Y-93089654D01*
X355401320Y-93098337D01*
X355392041Y-93105077D01*
X355385564Y-93109772D01*
X355382031Y-93112317D01*
X355381390Y-93112766D01*
X355379656Y-93113186D01*
X355379868Y-93110748D01*
X355380175Y-93109704D01*
X355380911Y-93107431D01*
X355382811Y-93101602D01*
X355385820Y-93092384D01*
X355389883Y-93079943D01*
X355394945Y-93064448D01*
X355400952Y-93046066D01*
X355407850Y-93024963D01*
X355415582Y-93001309D01*
X355424096Y-92975269D01*
X355433335Y-92947011D01*
X355443245Y-92916704D01*
X355453772Y-92884513D01*
X355464860Y-92850607D01*
X355476455Y-92815154D01*
X355488502Y-92778319D01*
X355500947Y-92740272D01*
X355513735Y-92701178D01*
X355520699Y-92679888D01*
X355533632Y-92640348D01*
X355546243Y-92601788D01*
X355558476Y-92564373D01*
X355570279Y-92528270D01*
X355581596Y-92493644D01*
X355592373Y-92460661D01*
X355602558Y-92429487D01*
X355612094Y-92400288D01*
X355620929Y-92373229D01*
X355629008Y-92348476D01*
X355636277Y-92326196D01*
X355642682Y-92306554D01*
X355648168Y-92289716D01*
X355652682Y-92275847D01*
X355656169Y-92265115D01*
X355658575Y-92257683D01*
X355659847Y-92253719D01*
X355660043Y-92253077D01*
X355658503Y-92251792D01*
X355653926Y-92248315D01*
X355646453Y-92242747D01*
X355636224Y-92235192D01*
X355623379Y-92225749D01*
X355608057Y-92214523D01*
X355590400Y-92201615D01*
X355570547Y-92187126D01*
X355548639Y-92171159D01*
X355524814Y-92153817D01*
X355499214Y-92135200D01*
X355471979Y-92115412D01*
X355443249Y-92094554D01*
X355413163Y-92072728D01*
X355381862Y-92050037D01*
X355349486Y-92026582D01*
X355316175Y-92002465D01*
X355295136Y-91987241D01*
X355261286Y-91962750D01*
X355228266Y-91938853D01*
X355196215Y-91915653D01*
X355165276Y-91893252D01*
X355135589Y-91871754D01*
X355107297Y-91851259D01*
X355080539Y-91831871D01*
X355055458Y-91813693D01*
X355032195Y-91796826D01*
X355010891Y-91781373D01*
X354991687Y-91767436D01*
X354974724Y-91755119D01*
X354960145Y-91744523D01*
X354948090Y-91735751D01*
X354938700Y-91728905D01*
X354932117Y-91724088D01*
X354928482Y-91721402D01*
X354927772Y-91720854D01*
X354928592Y-91720599D01*
X354931647Y-91720370D01*
X354937036Y-91720166D01*
X354944856Y-91719987D01*
X354955204Y-91719833D01*
X354968178Y-91719703D01*
X354983874Y-91719598D01*
X355002391Y-91719517D01*
X355023825Y-91719460D01*
X355048274Y-91719427D01*
X355075836Y-91719418D01*
X355106607Y-91719432D01*
X355140685Y-91719470D01*
X355178167Y-91719531D01*
X355219151Y-91719616D01*
X355263735Y-91719723D01*
X355312014Y-91719852D01*
X355364087Y-91720005D01*
X355379442Y-91720052D01*
X355833303Y-91721451D01*
X355840177Y-91700075D01*
X355853754Y-91657860D01*
X355867497Y-91615155D01*
X355881351Y-91572120D01*
X355895266Y-91528918D01*
X355909188Y-91485709D01*
X355923066Y-91442656D01*
X355936847Y-91399918D01*
X355950480Y-91357659D01*
X355963911Y-91316039D01*
X355977090Y-91275219D01*
X355989963Y-91235362D01*
X356002478Y-91196628D01*
X356014584Y-91159178D01*
X356026228Y-91123175D01*
X356037357Y-91088780D01*
X356047920Y-91056154D01*
X356057865Y-91025458D01*
X356067139Y-90996854D01*
X356075689Y-90970503D01*
X356083465Y-90946567D01*
X356090413Y-90925207D01*
X356096482Y-90906585D01*
X356101619Y-90890861D01*
X356105772Y-90878197D01*
X356108889Y-90868756D01*
X356110917Y-90862697D01*
X356111805Y-90860183D01*
X356111836Y-90860121D01*
X356112867Y-90861373D01*
G37*
G36*
X353622683Y-91760191D02*
G01*
X353622744Y-91760378D01*
X353622799Y-91760472D01*
X353623462Y-91762378D01*
X353625269Y-91767838D01*
X353628163Y-91776674D01*
X353632088Y-91788709D01*
X353636986Y-91803767D01*
X353642799Y-91821671D01*
X353649471Y-91842245D01*
X353656944Y-91865311D01*
X353665161Y-91890694D01*
X353674065Y-91918215D01*
X353683599Y-91947700D01*
X353693705Y-91978970D01*
X353704326Y-92011849D01*
X353715406Y-92046160D01*
X353726886Y-92081727D01*
X353738709Y-92118374D01*
X353744171Y-92135306D01*
X353756423Y-92173293D01*
X353768519Y-92210795D01*
X353780391Y-92247597D01*
X353791970Y-92283487D01*
X353803186Y-92318250D01*
X353813970Y-92351673D01*
X353824255Y-92383542D01*
X353833969Y-92413643D01*
X353843046Y-92441763D01*
X353851415Y-92467687D01*
X353859008Y-92491202D01*
X353865755Y-92512095D01*
X353871588Y-92530151D01*
X353876437Y-92545157D01*
X353880234Y-92556899D01*
X353882910Y-92565163D01*
X353883263Y-92566250D01*
X353901693Y-92623069D01*
X354355838Y-92622407D01*
X354809983Y-92621744D01*
X354802146Y-92627448D01*
X354799840Y-92629119D01*
X354794503Y-92632980D01*
X354786283Y-92638926D01*
X354775323Y-92646851D01*
X354761771Y-92656652D01*
X354745771Y-92668221D01*
X354727468Y-92681454D01*
X354707010Y-92696246D01*
X354684540Y-92712492D01*
X354660206Y-92730085D01*
X354634152Y-92748921D01*
X354606524Y-92768895D01*
X354577468Y-92789901D01*
X354547129Y-92811834D01*
X354515654Y-92834588D01*
X354483186Y-92858059D01*
X354449874Y-92882141D01*
X354435762Y-92892342D01*
X354402231Y-92916583D01*
X354369535Y-92940223D01*
X354337816Y-92963158D01*
X354307218Y-92985286D01*
X354277881Y-93006504D01*
X354249949Y-93026708D01*
X354223564Y-93045797D01*
X354198867Y-93063667D01*
X354176002Y-93080214D01*
X354155110Y-93095336D01*
X354136334Y-93108931D01*
X354119816Y-93120894D01*
X354105699Y-93131123D01*
X354094124Y-93139516D01*
X354085234Y-93145968D01*
X354079172Y-93150377D01*
X354076079Y-93152641D01*
X354075694Y-93152932D01*
X354076154Y-93154897D01*
X354077784Y-93160420D01*
X354080530Y-93169337D01*
X354084339Y-93181484D01*
X354089159Y-93196695D01*
X354094935Y-93214806D01*
X354101616Y-93235654D01*
X354109147Y-93259072D01*
X354117476Y-93284898D01*
X354126549Y-93312965D01*
X354136314Y-93343110D01*
X354146718Y-93375169D01*
X354157706Y-93408976D01*
X354169227Y-93444367D01*
X354181227Y-93481178D01*
X354193653Y-93519243D01*
X354206451Y-93558400D01*
X354215203Y-93585146D01*
X354228225Y-93624931D01*
X354240918Y-93663727D01*
X354253230Y-93701371D01*
X354265108Y-93737699D01*
X354276496Y-93772546D01*
X354287343Y-93805748D01*
X354297594Y-93837142D01*
X354307196Y-93866564D01*
X354316095Y-93893848D01*
X354324239Y-93918832D01*
X354331573Y-93941350D01*
X354338043Y-93961240D01*
X354343598Y-93978337D01*
X354348182Y-93992476D01*
X354351743Y-94003494D01*
X354354226Y-94011227D01*
X354355580Y-94015511D01*
X354355827Y-94016369D01*
X354354230Y-94015269D01*
X354349608Y-94011959D01*
X354342100Y-94006541D01*
X354331846Y-93999117D01*
X354318985Y-93989787D01*
X354303657Y-93978655D01*
X354286001Y-93965820D01*
X354266157Y-93951386D01*
X354244264Y-93935452D01*
X354220462Y-93918121D01*
X354194890Y-93899494D01*
X354167687Y-93879673D01*
X354138993Y-93858759D01*
X354108948Y-93836854D01*
X354077690Y-93814059D01*
X354045360Y-93790476D01*
X354012097Y-93766207D01*
X353989263Y-93749543D01*
X353955436Y-93724867D01*
X353922433Y-93700817D01*
X353890396Y-93677494D01*
X353859465Y-93654999D01*
X353829779Y-93633434D01*
X353801479Y-93612901D01*
X353774705Y-93593499D01*
X353749598Y-93575331D01*
X353726298Y-93558498D01*
X353704944Y-93543101D01*
X353685678Y-93529241D01*
X353668639Y-93517019D01*
X353653968Y-93506538D01*
X353641804Y-93497897D01*
X353632289Y-93491198D01*
X353625562Y-93486543D01*
X353621763Y-93484033D01*
X353620927Y-93483601D01*
X353619198Y-93484839D01*
X353614475Y-93488261D01*
X353606930Y-93493743D01*
X353596734Y-93501159D01*
X353584057Y-93510385D01*
X353569073Y-93521296D01*
X353551951Y-93533767D01*
X353532864Y-93547672D01*
X353511983Y-93562887D01*
X353489479Y-93579287D01*
X353465523Y-93596747D01*
X353440288Y-93615141D01*
X353413944Y-93634345D01*
X353386664Y-93654233D01*
X353358617Y-93674681D01*
X353329976Y-93695564D01*
X353300913Y-93716756D01*
X353271598Y-93738133D01*
X353242203Y-93759570D01*
X353212900Y-93780942D01*
X353183859Y-93802123D01*
X353155253Y-93822988D01*
X353127252Y-93843413D01*
X353100028Y-93863273D01*
X353073753Y-93882443D01*
X353048598Y-93900797D01*
X353024734Y-93918210D01*
X353002333Y-93934559D01*
X352981566Y-93949717D01*
X352962604Y-93963559D01*
X352945620Y-93975961D01*
X352930784Y-93986798D01*
X352918267Y-93995944D01*
X352908242Y-94003274D01*
X352900880Y-94008665D01*
X352896352Y-94011989D01*
X352895013Y-94012981D01*
X352888373Y-94017970D01*
X352889898Y-94013122D01*
X352890642Y-94010833D01*
X352892550Y-94004987D01*
X352895567Y-93995750D01*
X352899640Y-93983291D01*
X352904712Y-93967777D01*
X352910731Y-93949373D01*
X352917640Y-93928249D01*
X352925386Y-93904570D01*
X352933914Y-93878503D01*
X352943168Y-93850217D01*
X352953095Y-93819878D01*
X352963639Y-93787653D01*
X352974746Y-93753709D01*
X352986362Y-93718213D01*
X352998431Y-93681333D01*
X353010899Y-93643236D01*
X353023711Y-93604088D01*
X353031198Y-93581212D01*
X353044157Y-93541594D01*
X353056779Y-93502958D01*
X353069011Y-93465469D01*
X353080800Y-93429292D01*
X353092091Y-93394593D01*
X353102832Y-93361536D01*
X353112970Y-93330287D01*
X353122451Y-93301011D01*
X353131221Y-93273874D01*
X353139228Y-93249040D01*
X353146418Y-93226675D01*
X353152737Y-93206944D01*
X353158132Y-93190012D01*
X353162551Y-93176044D01*
X353165939Y-93165206D01*
X353168243Y-93157662D01*
X353169410Y-93153579D01*
X353169544Y-93152859D01*
X353167845Y-93151608D01*
X353163111Y-93148164D01*
X353155482Y-93142629D01*
X353145100Y-93135105D01*
X353132105Y-93125694D01*
X353116638Y-93114498D01*
X353098841Y-93101618D01*
X353078853Y-93087157D01*
X353056816Y-93071217D01*
X353032872Y-93053900D01*
X353007160Y-93035307D01*
X352979821Y-93015540D01*
X352950997Y-92994701D01*
X352920829Y-92972893D01*
X352889457Y-92950217D01*
X352857023Y-92926775D01*
X352823666Y-92902669D01*
X352802709Y-92887525D01*
X352768861Y-92863065D01*
X352735852Y-92839211D01*
X352703822Y-92816062D01*
X352672912Y-92793722D01*
X352643263Y-92772290D01*
X352615014Y-92751871D01*
X352588307Y-92732564D01*
X352563283Y-92714472D01*
X352540081Y-92697696D01*
X352518844Y-92682339D01*
X352499711Y-92668501D01*
X352482823Y-92656285D01*
X352468321Y-92645792D01*
X352456346Y-92637125D01*
X352447037Y-92630384D01*
X352440537Y-92625671D01*
X352436985Y-92623089D01*
X352436325Y-92622602D01*
X352438164Y-92622524D01*
X352443750Y-92622453D01*
X352452911Y-92622390D01*
X352465475Y-92622335D01*
X352481270Y-92622288D01*
X352500125Y-92622248D01*
X352521868Y-92622217D01*
X352546326Y-92622193D01*
X352573328Y-92622177D01*
X352602703Y-92622170D01*
X352634278Y-92622171D01*
X352667881Y-92622181D01*
X352703342Y-92622198D01*
X352740487Y-92622225D01*
X352779146Y-92622259D01*
X352819146Y-92622303D01*
X352860316Y-92622355D01*
X352889408Y-92622396D01*
X353343471Y-92623069D01*
X353349265Y-92605436D01*
X353350424Y-92601873D01*
X353352726Y-92594763D01*
X353356111Y-92584287D01*
X353360523Y-92570626D01*
X353365902Y-92553961D01*
X353372189Y-92534476D01*
X353379326Y-92512351D01*
X353387254Y-92487769D01*
X353395916Y-92460910D01*
X353405251Y-92431957D01*
X353415202Y-92401091D01*
X353425709Y-92368494D01*
X353436715Y-92334348D01*
X353448161Y-92298835D01*
X353459988Y-92262136D01*
X353472138Y-92224433D01*
X353482578Y-92192029D01*
X353497851Y-92144627D01*
X353511968Y-92100814D01*
X353524973Y-92060449D01*
X353536914Y-92023392D01*
X353547836Y-91989501D01*
X353557783Y-91958637D01*
X353566803Y-91930658D01*
X353574941Y-91905424D01*
X353582242Y-91882794D01*
X353588753Y-91862628D01*
X353594519Y-91844784D01*
X353599585Y-91829122D01*
X353603998Y-91815502D01*
X353607802Y-91803782D01*
X353611045Y-91793822D01*
X353613771Y-91785482D01*
X353616026Y-91778620D01*
X353617857Y-91773097D01*
X353619308Y-91768770D01*
X353620425Y-91765500D01*
X353621254Y-91763146D01*
X353621842Y-91761568D01*
X353622232Y-91760623D01*
X353622472Y-91760173D01*
X353622607Y-91760076D01*
X353622683Y-91760191D01*
G37*
G36*
X358601027Y-91771197D02*
G01*
X358602852Y-91776663D01*
X358605751Y-91785462D01*
X358609661Y-91797397D01*
X358614515Y-91812268D01*
X358620252Y-91829878D01*
X358626807Y-91850028D01*
X358634115Y-91872521D01*
X358642113Y-91897159D01*
X358650736Y-91923742D01*
X358659920Y-91952074D01*
X358669602Y-91981955D01*
X358679718Y-92013188D01*
X358690202Y-92045575D01*
X358700991Y-92078917D01*
X358712022Y-92113016D01*
X358723229Y-92147674D01*
X358734549Y-92182693D01*
X358745918Y-92217875D01*
X358757272Y-92253022D01*
X358768546Y-92287935D01*
X358779677Y-92322416D01*
X358790600Y-92356267D01*
X358801252Y-92389290D01*
X358811567Y-92421287D01*
X358821483Y-92452060D01*
X358830936Y-92481410D01*
X358839860Y-92509140D01*
X358848192Y-92535050D01*
X358855868Y-92558944D01*
X358862823Y-92580623D01*
X358868995Y-92599888D01*
X358872593Y-92611140D01*
X358878797Y-92630560D01*
X359332665Y-92629184D01*
X359382387Y-92629033D01*
X359428337Y-92628896D01*
X359470663Y-92628774D01*
X359509512Y-92628665D01*
X359545031Y-92628573D01*
X359577368Y-92628497D01*
X359606670Y-92628438D01*
X359633084Y-92628397D01*
X359656757Y-92628374D01*
X359677837Y-92628371D01*
X359696471Y-92628388D01*
X359712806Y-92628425D01*
X359726988Y-92628485D01*
X359739167Y-92628567D01*
X359749488Y-92628672D01*
X359758098Y-92628801D01*
X359765146Y-92628954D01*
X359770779Y-92629133D01*
X359775143Y-92629339D01*
X359778385Y-92629571D01*
X359780654Y-92629831D01*
X359782096Y-92630120D01*
X359782859Y-92630437D01*
X359783089Y-92630785D01*
X359782934Y-92631164D01*
X359782615Y-92631506D01*
X359780682Y-92632983D01*
X359775715Y-92636651D01*
X359767856Y-92642406D01*
X359757247Y-92650145D01*
X359744033Y-92659765D01*
X359728354Y-92671162D01*
X359710353Y-92684233D01*
X359690173Y-92698874D01*
X359667957Y-92714983D01*
X359643847Y-92732456D01*
X359617986Y-92751189D01*
X359590516Y-92771079D01*
X359561579Y-92792023D01*
X359531319Y-92813917D01*
X359499878Y-92836659D01*
X359467398Y-92860145D01*
X359434022Y-92884270D01*
X359414920Y-92898075D01*
X359051144Y-93160946D01*
X359061697Y-93192756D01*
X359066116Y-93206104D01*
X359071449Y-93222268D01*
X359077632Y-93241047D01*
X359084599Y-93262241D01*
X359092284Y-93285646D01*
X359100621Y-93311063D01*
X359109545Y-93338290D01*
X359118990Y-93367125D01*
X359128891Y-93397367D01*
X359139181Y-93428815D01*
X359149794Y-93461267D01*
X359160666Y-93494522D01*
X359171731Y-93528379D01*
X359182922Y-93562637D01*
X359194174Y-93597093D01*
X359205422Y-93631547D01*
X359216599Y-93665797D01*
X359227640Y-93699642D01*
X359238480Y-93732881D01*
X359249052Y-93765312D01*
X359259291Y-93796734D01*
X359269131Y-93826945D01*
X359278506Y-93855745D01*
X359287351Y-93882931D01*
X359295601Y-93908303D01*
X359303188Y-93931659D01*
X359310048Y-93952798D01*
X359316115Y-93971518D01*
X359321324Y-93987619D01*
X359325608Y-94000898D01*
X359328901Y-94011155D01*
X359331139Y-94018187D01*
X359332256Y-94021795D01*
X359332374Y-94022251D01*
X359330750Y-94021176D01*
X359326103Y-94017892D01*
X359318571Y-94012499D01*
X359308294Y-94005099D01*
X359295412Y-93995794D01*
X359280064Y-93984685D01*
X359262391Y-93971874D01*
X359242533Y-93957462D01*
X359220628Y-93941551D01*
X359196817Y-93924243D01*
X359171239Y-93905638D01*
X359144035Y-93885839D01*
X359115343Y-93864947D01*
X359085305Y-93843064D01*
X359054059Y-93820290D01*
X359021745Y-93796729D01*
X358988503Y-93772481D01*
X358966505Y-93756429D01*
X358932718Y-93731780D01*
X358899755Y-93707752D01*
X358867757Y-93684446D01*
X358836865Y-93661963D01*
X358807218Y-93640406D01*
X358778958Y-93619875D01*
X358752225Y-93600474D01*
X358727160Y-93582302D01*
X358703903Y-93565463D01*
X358682594Y-93550058D01*
X358663374Y-93536189D01*
X358646385Y-93523956D01*
X358631765Y-93513463D01*
X358619656Y-93504810D01*
X358610199Y-93498100D01*
X358603533Y-93493433D01*
X358599799Y-93490913D01*
X358599013Y-93490473D01*
X358597238Y-93491663D01*
X358592440Y-93495063D01*
X358584759Y-93500570D01*
X358574337Y-93508082D01*
X358561314Y-93517495D01*
X358545832Y-93528709D01*
X358528031Y-93541619D01*
X358508052Y-93556125D01*
X358486036Y-93572123D01*
X358462124Y-93589511D01*
X358436457Y-93608187D01*
X358409175Y-93628049D01*
X358380419Y-93648994D01*
X358350331Y-93670919D01*
X358319051Y-93693722D01*
X358286721Y-93717301D01*
X358253480Y-93741554D01*
X358232990Y-93756508D01*
X358199274Y-93781115D01*
X358166388Y-93805112D01*
X358134472Y-93828394D01*
X358103667Y-93850861D01*
X358074114Y-93872410D01*
X358045954Y-93892938D01*
X358019325Y-93912343D01*
X357994371Y-93930523D01*
X357971230Y-93947375D01*
X357950044Y-93962797D01*
X357930953Y-93976686D01*
X357914097Y-93988941D01*
X357899618Y-93999459D01*
X357887656Y-94008137D01*
X357878351Y-94014873D01*
X357871844Y-94019566D01*
X357868275Y-94022111D01*
X357867602Y-94022566D01*
X357867830Y-94020897D01*
X357869174Y-94015893D01*
X357871516Y-94007936D01*
X357874739Y-93997408D01*
X357878724Y-93984694D01*
X357883353Y-93970177D01*
X357888509Y-93954238D01*
X357891149Y-93946154D01*
X357913900Y-93876710D01*
X357935449Y-93810924D01*
X357955816Y-93748734D01*
X357975022Y-93690075D01*
X357993089Y-93634883D01*
X358010037Y-93583095D01*
X358025886Y-93534647D01*
X358040658Y-93489475D01*
X358054373Y-93447516D01*
X358067052Y-93408705D01*
X358078717Y-93372978D01*
X358089387Y-93340272D01*
X358099084Y-93310524D01*
X358107828Y-93283668D01*
X358115640Y-93259642D01*
X358122541Y-93238381D01*
X358128553Y-93219822D01*
X358133694Y-93203901D01*
X358137988Y-93190555D01*
X358141453Y-93179718D01*
X358144112Y-93171328D01*
X358145984Y-93165321D01*
X358147092Y-93161632D01*
X358147454Y-93160199D01*
X358147449Y-93160176D01*
X358145807Y-93158977D01*
X358141129Y-93155584D01*
X358133557Y-93150100D01*
X358123229Y-93142626D01*
X358110288Y-93133264D01*
X358094874Y-93122115D01*
X358077127Y-93109280D01*
X358057188Y-93094863D01*
X358035197Y-93078964D01*
X358011296Y-93061684D01*
X357985624Y-93043127D01*
X357958323Y-93023392D01*
X357929532Y-93002582D01*
X357899393Y-92980799D01*
X357868046Y-92958144D01*
X357835632Y-92934719D01*
X357802291Y-92910625D01*
X357781218Y-92895397D01*
X357747356Y-92870926D01*
X357714324Y-92847053D01*
X357682265Y-92823878D01*
X357651318Y-92801506D01*
X357621627Y-92780037D01*
X357593330Y-92759574D01*
X357566571Y-92740219D01*
X357541490Y-92722075D01*
X357518227Y-92705243D01*
X357496925Y-92689825D01*
X357477725Y-92675925D01*
X357460768Y-92663643D01*
X357446194Y-92653083D01*
X357434145Y-92644346D01*
X357424763Y-92637534D01*
X357418188Y-92632750D01*
X357414562Y-92630095D01*
X357413858Y-92629565D01*
X357415586Y-92629381D01*
X357421119Y-92629216D01*
X357430345Y-92629070D01*
X357443151Y-92628945D01*
X357459423Y-92628839D01*
X357479048Y-92628754D01*
X357501914Y-92628688D01*
X357527907Y-92628643D01*
X357556915Y-92628618D01*
X357588824Y-92628613D01*
X357623521Y-92628629D01*
X357660894Y-92628666D01*
X357700830Y-92628723D01*
X357743215Y-92628801D01*
X357787936Y-92628901D01*
X357834880Y-92629021D01*
X357866450Y-92629110D01*
X358320998Y-92630443D01*
X358459954Y-92199091D01*
X358472790Y-92159272D01*
X358485318Y-92120458D01*
X358497484Y-92082812D01*
X358509236Y-92046499D01*
X358520520Y-92011681D01*
X358531282Y-91978521D01*
X358541469Y-91947184D01*
X358551028Y-91917833D01*
X358559906Y-91890632D01*
X358568048Y-91865743D01*
X358575402Y-91843330D01*
X358581914Y-91823557D01*
X358587532Y-91806587D01*
X358592200Y-91792584D01*
X358595867Y-91781711D01*
X358598478Y-91774131D01*
X358599980Y-91770009D01*
X358600341Y-91769263D01*
X358601027Y-91771197D01*
G37*
G36*
X352295940Y-94054208D02*
G01*
X352297770Y-94059613D01*
X352300695Y-94068419D01*
X352304660Y-94080463D01*
X352309612Y-94095580D01*
X352315498Y-94113606D01*
X352322266Y-94134377D01*
X352329860Y-94157729D01*
X352338229Y-94183497D01*
X352347319Y-94211518D01*
X352357076Y-94241627D01*
X352367448Y-94273660D01*
X352378381Y-94307453D01*
X352389821Y-94342841D01*
X352401716Y-94379661D01*
X352414012Y-94417748D01*
X352426655Y-94456938D01*
X352435295Y-94483732D01*
X352574354Y-94915085D01*
X353028955Y-94913835D01*
X353080604Y-94913697D01*
X353128457Y-94913578D01*
X353172637Y-94913477D01*
X353213266Y-94913396D01*
X353250466Y-94913334D01*
X353284361Y-94913292D01*
X353315072Y-94913270D01*
X353342722Y-94913268D01*
X353367434Y-94913288D01*
X353389330Y-94913328D01*
X353408532Y-94913390D01*
X353425164Y-94913474D01*
X353439348Y-94913580D01*
X353451205Y-94913708D01*
X353460860Y-94913858D01*
X353468434Y-94914032D01*
X353474049Y-94914229D01*
X353477829Y-94914449D01*
X353479895Y-94914693D01*
X353480371Y-94914962D01*
X353480349Y-94914981D01*
X353478484Y-94916336D01*
X353473585Y-94919884D01*
X353465793Y-94925522D01*
X353455252Y-94933147D01*
X353442103Y-94942658D01*
X353426487Y-94953950D01*
X353408548Y-94966922D01*
X353388426Y-94981470D01*
X353366263Y-94997493D01*
X353342203Y-95014888D01*
X353316386Y-95033552D01*
X353288954Y-95053382D01*
X353260050Y-95074276D01*
X353229816Y-95096130D01*
X353198393Y-95118844D01*
X353165923Y-95142313D01*
X353132548Y-95166435D01*
X353112538Y-95180898D01*
X353078733Y-95205341D01*
X353045775Y-95229189D01*
X353013803Y-95252342D01*
X352982958Y-95274696D01*
X352953382Y-95296150D01*
X352925213Y-95316601D01*
X352898593Y-95335946D01*
X352873661Y-95354084D01*
X352850560Y-95370911D01*
X352829428Y-95386327D01*
X352810406Y-95400227D01*
X352793636Y-95412511D01*
X352779257Y-95423075D01*
X352767409Y-95431817D01*
X352758234Y-95438635D01*
X352751871Y-95443427D01*
X352748461Y-95446090D01*
X352747891Y-95446623D01*
X352748489Y-95448664D01*
X352750253Y-95454262D01*
X352753129Y-95463254D01*
X352757065Y-95475472D01*
X352762005Y-95490751D01*
X352767896Y-95508927D01*
X352774685Y-95529832D01*
X352782316Y-95553303D01*
X352790737Y-95579172D01*
X352799893Y-95607275D01*
X352809731Y-95637447D01*
X352820196Y-95669520D01*
X352831235Y-95703331D01*
X352842793Y-95738713D01*
X352854817Y-95775501D01*
X352867254Y-95813529D01*
X352880048Y-95852632D01*
X352887921Y-95876683D01*
X352900900Y-95916343D01*
X352913551Y-95955023D01*
X352925820Y-95992557D01*
X352937651Y-96028780D01*
X352948993Y-96063527D01*
X352959791Y-96096633D01*
X352969992Y-96127932D01*
X352979542Y-96157260D01*
X352988386Y-96184451D01*
X352996472Y-96209341D01*
X353003746Y-96231763D01*
X353010154Y-96251554D01*
X353015642Y-96268546D01*
X353020156Y-96282577D01*
X353023644Y-96293479D01*
X353026051Y-96301089D01*
X353027323Y-96305241D01*
X353027519Y-96306004D01*
X353025916Y-96305002D01*
X353021289Y-96301788D01*
X353013778Y-96296465D01*
X353003522Y-96289133D01*
X352990662Y-96279893D01*
X352975335Y-96268848D01*
X352957683Y-96256097D01*
X352937845Y-96241742D01*
X352915960Y-96225885D01*
X352892169Y-96208627D01*
X352866610Y-96190068D01*
X352839423Y-96170311D01*
X352810749Y-96149455D01*
X352780726Y-96127604D01*
X352749494Y-96104856D01*
X352717193Y-96081315D01*
X352683963Y-96057081D01*
X352661941Y-96041013D01*
X352628163Y-96016366D01*
X352595215Y-95992335D01*
X352563239Y-95969021D01*
X352532373Y-95946527D01*
X352502759Y-95924954D01*
X352474536Y-95904404D01*
X352447845Y-95884980D01*
X352422825Y-95866782D01*
X352399618Y-95849913D01*
X352378363Y-95834475D01*
X352359201Y-95820570D01*
X352342272Y-95808299D01*
X352327716Y-95797764D01*
X352315673Y-95789068D01*
X352306283Y-95782313D01*
X352299687Y-95777599D01*
X352296025Y-95775030D01*
X352295286Y-95774558D01*
X352293582Y-95775696D01*
X352288854Y-95779044D01*
X352281243Y-95784500D01*
X352270890Y-95791960D01*
X352257934Y-95801322D01*
X352242518Y-95812486D01*
X352224780Y-95825348D01*
X352204862Y-95839807D01*
X352182904Y-95855760D01*
X352159048Y-95873105D01*
X352133432Y-95891739D01*
X352106199Y-95911562D01*
X352077488Y-95932471D01*
X352047440Y-95954362D01*
X352016195Y-95977136D01*
X351983895Y-96000688D01*
X351950680Y-96024918D01*
X351930363Y-96039743D01*
X351896648Y-96064347D01*
X351863756Y-96088348D01*
X351831828Y-96111643D01*
X351801006Y-96134128D01*
X351771431Y-96155702D01*
X351743244Y-96176261D01*
X351716586Y-96195702D01*
X351691597Y-96213923D01*
X351668421Y-96230820D01*
X351647196Y-96246290D01*
X351628065Y-96260232D01*
X351611169Y-96272542D01*
X351596649Y-96283116D01*
X351584645Y-96291853D01*
X351575300Y-96298649D01*
X351568753Y-96303401D01*
X351565147Y-96306007D01*
X351564455Y-96306496D01*
X351562784Y-96306794D01*
X351562955Y-96304077D01*
X351563131Y-96303364D01*
X351563846Y-96301087D01*
X351565727Y-96295254D01*
X351568717Y-96286033D01*
X351572764Y-96273590D01*
X351577812Y-96258092D01*
X351583806Y-96239708D01*
X351590692Y-96218605D01*
X351598415Y-96194950D01*
X351606920Y-96168911D01*
X351616153Y-96140654D01*
X351626059Y-96110348D01*
X351636583Y-96078161D01*
X351647671Y-96044258D01*
X351659268Y-96008808D01*
X351671319Y-95971979D01*
X351683769Y-95933937D01*
X351696564Y-95894850D01*
X351703505Y-95873650D01*
X351716447Y-95834114D01*
X351729064Y-95795553D01*
X351741300Y-95758135D01*
X351753104Y-95722025D01*
X351764419Y-95687388D01*
X351775192Y-95654392D01*
X351785369Y-95623203D01*
X351794896Y-95593985D01*
X351803718Y-95566907D01*
X351811783Y-95542132D01*
X351819034Y-95519828D01*
X351825420Y-95500161D01*
X351830884Y-95483296D01*
X351835374Y-95469401D01*
X351838835Y-95458640D01*
X351841214Y-95451180D01*
X351842455Y-95447186D01*
X351842633Y-95446529D01*
X351841065Y-95445202D01*
X351836459Y-95441685D01*
X351828956Y-95436079D01*
X351818697Y-95428488D01*
X351805822Y-95419013D01*
X351790471Y-95407757D01*
X351772785Y-95394822D01*
X351752904Y-95380310D01*
X351730970Y-95364324D01*
X351707121Y-95346966D01*
X351681499Y-95328339D01*
X351654244Y-95308544D01*
X351625497Y-95287684D01*
X351595398Y-95265862D01*
X351564087Y-95243179D01*
X351531705Y-95219738D01*
X351498393Y-95195641D01*
X351478000Y-95180898D01*
X351444159Y-95156439D01*
X351411140Y-95132573D01*
X351379083Y-95109402D01*
X351348132Y-95087029D01*
X351318427Y-95065557D01*
X351290111Y-95045089D01*
X351263326Y-95025726D01*
X351238214Y-95007572D01*
X351214916Y-94990729D01*
X351193576Y-94975300D01*
X351174333Y-94961388D01*
X351157332Y-94949095D01*
X351142713Y-94938523D01*
X351130618Y-94929776D01*
X351121190Y-94922956D01*
X351114571Y-94918165D01*
X351110902Y-94915507D01*
X351110179Y-94914981D01*
X351110550Y-94914711D01*
X351112503Y-94914465D01*
X351116161Y-94914243D01*
X351121646Y-94914044D01*
X351129082Y-94913869D01*
X351138590Y-94913717D01*
X351150292Y-94913587D01*
X351164313Y-94913480D01*
X351180773Y-94913395D01*
X351199796Y-94913332D01*
X351221504Y-94913290D01*
X351246019Y-94913269D01*
X351273465Y-94913269D01*
X351303963Y-94913290D01*
X351337636Y-94913330D01*
X351374607Y-94913391D01*
X351414998Y-94913471D01*
X351458932Y-94913570D01*
X351506531Y-94913688D01*
X351557917Y-94913825D01*
X351561532Y-94913835D01*
X352016104Y-94915085D01*
X352155191Y-94483722D01*
X352168040Y-94443885D01*
X352180577Y-94405041D01*
X352192749Y-94367355D01*
X352204501Y-94330989D01*
X352215782Y-94296110D01*
X352226538Y-94262880D01*
X352236714Y-94231465D01*
X352246259Y-94202028D01*
X352255119Y-94174733D01*
X352263240Y-94149744D01*
X352270569Y-94127227D01*
X352277053Y-94107344D01*
X352282638Y-94090260D01*
X352287272Y-94076140D01*
X352290900Y-94065146D01*
X352293470Y-94057445D01*
X352294929Y-94053199D01*
X352295257Y-94052370D01*
X352295940Y-94054208D01*
G37*
G36*
X359920917Y-94065048D02*
G01*
X359922754Y-94070292D01*
X359925684Y-94078939D01*
X359929654Y-94090827D01*
X359934611Y-94105790D01*
X359940500Y-94123667D01*
X359947270Y-94144294D01*
X359954867Y-94167506D01*
X359963237Y-94193141D01*
X359972327Y-94221036D01*
X359982083Y-94251026D01*
X359992453Y-94282949D01*
X360003383Y-94316641D01*
X360014820Y-94351938D01*
X360026710Y-94388677D01*
X360039000Y-94426695D01*
X360051637Y-94465828D01*
X360060198Y-94492363D01*
X360073041Y-94532178D01*
X360085569Y-94571005D01*
X360097730Y-94608681D01*
X360109469Y-94645039D01*
X360120734Y-94679916D01*
X360131472Y-94713147D01*
X360141628Y-94744567D01*
X360151150Y-94774011D01*
X360159985Y-94801315D01*
X360168079Y-94826315D01*
X360175379Y-94848845D01*
X360181831Y-94868741D01*
X360187383Y-94885839D01*
X360191981Y-94899973D01*
X360195572Y-94910979D01*
X360198102Y-94918693D01*
X360199518Y-94922950D01*
X360199817Y-94923785D01*
X360201814Y-94923850D01*
X360207556Y-94923912D01*
X360216871Y-94923972D01*
X360229586Y-94924029D01*
X360245529Y-94924082D01*
X360264526Y-94924132D01*
X360286405Y-94924179D01*
X360310993Y-94924222D01*
X360338116Y-94924260D01*
X360367603Y-94924294D01*
X360399280Y-94924324D01*
X360432975Y-94924349D01*
X360468514Y-94924368D01*
X360505726Y-94924383D01*
X360544437Y-94924392D01*
X360584473Y-94924395D01*
X360625664Y-94924393D01*
X360653804Y-94924388D01*
X360703785Y-94924378D01*
X360749992Y-94924373D01*
X360792569Y-94924374D01*
X360831659Y-94924383D01*
X360867405Y-94924399D01*
X360899954Y-94924424D01*
X360929447Y-94924459D01*
X360956029Y-94924504D01*
X360979844Y-94924561D01*
X361001036Y-94924631D01*
X361019749Y-94924714D01*
X361036127Y-94924811D01*
X361050313Y-94924924D01*
X361062453Y-94925053D01*
X361072688Y-94925199D01*
X361081165Y-94925364D01*
X361088026Y-94925547D01*
X361093415Y-94925751D01*
X361097477Y-94925975D01*
X361100355Y-94926221D01*
X361102193Y-94926490D01*
X361103136Y-94926782D01*
X361103326Y-94927099D01*
X361103164Y-94927284D01*
X361101231Y-94928697D01*
X361096265Y-94932303D01*
X361088410Y-94937998D01*
X361077807Y-94945679D01*
X361064600Y-94955243D01*
X361048932Y-94966587D01*
X361030944Y-94979606D01*
X361010781Y-94994198D01*
X360988584Y-95010260D01*
X360964497Y-95027687D01*
X360938661Y-95046378D01*
X360911221Y-95066228D01*
X360882319Y-95087134D01*
X360852098Y-95108994D01*
X360820699Y-95131703D01*
X360788267Y-95155158D01*
X360754944Y-95179256D01*
X360737038Y-95192204D01*
X360703340Y-95216579D01*
X360670481Y-95240360D01*
X360638604Y-95263445D01*
X360607849Y-95285730D01*
X360578358Y-95307113D01*
X360550273Y-95327491D01*
X360523734Y-95346761D01*
X360498882Y-95364821D01*
X360475860Y-95381567D01*
X360454807Y-95396897D01*
X360435867Y-95410708D01*
X360419179Y-95422897D01*
X360404885Y-95433362D01*
X360393126Y-95441999D01*
X360384044Y-95448706D01*
X360377780Y-95453381D01*
X360374475Y-95455919D01*
X360373971Y-95456366D01*
X360374492Y-95458410D01*
X360376182Y-95464012D01*
X360378987Y-95473006D01*
X360382854Y-95485227D01*
X360387728Y-95500510D01*
X360393557Y-95518688D01*
X360400287Y-95539597D01*
X360407864Y-95563071D01*
X360416235Y-95588946D01*
X360425346Y-95617054D01*
X360435144Y-95647232D01*
X360445575Y-95679313D01*
X360456586Y-95713133D01*
X360468122Y-95748525D01*
X360480131Y-95785325D01*
X360492559Y-95823367D01*
X360505353Y-95862485D01*
X360513432Y-95887168D01*
X360526420Y-95926852D01*
X360539077Y-95965551D01*
X360551347Y-96003100D01*
X360563178Y-96039336D01*
X360574516Y-96074092D01*
X360585308Y-96107205D01*
X360595501Y-96138509D01*
X360605040Y-96167840D01*
X360613872Y-96195034D01*
X360621945Y-96219925D01*
X360629203Y-96242348D01*
X360635595Y-96262140D01*
X360641066Y-96279135D01*
X360645563Y-96293168D01*
X360649032Y-96304075D01*
X360651420Y-96311691D01*
X360652674Y-96315851D01*
X360652857Y-96316624D01*
X360651215Y-96315568D01*
X360646549Y-96312302D01*
X360638999Y-96306926D01*
X360628705Y-96299543D01*
X360615807Y-96290253D01*
X360600444Y-96279158D01*
X360582758Y-96266360D01*
X360562886Y-96251960D01*
X360540970Y-96236060D01*
X360517148Y-96218760D01*
X360491562Y-96200163D01*
X360464350Y-96180371D01*
X360435653Y-96159483D01*
X360405610Y-96137603D01*
X360374361Y-96114831D01*
X360342047Y-96091270D01*
X360308806Y-96067020D01*
X360286842Y-96050988D01*
X360253068Y-96026340D01*
X360220125Y-96002311D01*
X360188155Y-95979003D01*
X360157296Y-95956518D01*
X360127688Y-95934957D01*
X360099473Y-95914421D01*
X360072790Y-95895014D01*
X360047779Y-95876836D01*
X360024580Y-95859989D01*
X360003333Y-95844576D01*
X359984179Y-95830696D01*
X359967258Y-95818454D01*
X359952709Y-95807949D01*
X359940673Y-95799284D01*
X359931290Y-95792560D01*
X359924700Y-95787880D01*
X359921043Y-95785345D01*
X359920306Y-95784895D01*
X359918614Y-95786075D01*
X359913898Y-95789463D01*
X359906299Y-95794958D01*
X359895957Y-95802457D01*
X359883011Y-95811858D01*
X359867604Y-95823058D01*
X359849875Y-95835956D01*
X359829964Y-95850449D01*
X359808013Y-95866435D01*
X359784161Y-95883811D01*
X359758549Y-95902475D01*
X359731317Y-95922325D01*
X359702606Y-95943259D01*
X359672557Y-95965174D01*
X359641309Y-95987968D01*
X359609004Y-96011539D01*
X359575781Y-96035784D01*
X359555187Y-96050815D01*
X359521471Y-96075424D01*
X359488583Y-96099422D01*
X359456666Y-96122707D01*
X359425859Y-96145177D01*
X359396303Y-96166729D01*
X359368139Y-96187260D01*
X359341507Y-96206670D01*
X359316548Y-96224854D01*
X359293403Y-96241711D01*
X359272212Y-96257138D01*
X359253116Y-96271033D01*
X359236256Y-96283293D01*
X359221772Y-96293816D01*
X359209804Y-96302500D01*
X359200494Y-96309242D01*
X359193981Y-96313940D01*
X359190407Y-96316491D01*
X359189731Y-96316950D01*
X359188024Y-96316623D01*
X359187976Y-96316349D01*
X359188577Y-96314398D01*
X359190344Y-96308887D01*
X359193223Y-96299983D01*
X359197162Y-96287850D01*
X359202104Y-96272653D01*
X359207998Y-96254558D01*
X359214788Y-96233729D01*
X359222421Y-96210331D01*
X359230844Y-96184529D01*
X359240001Y-96156489D01*
X359249840Y-96126375D01*
X359260307Y-96094353D01*
X359271347Y-96060587D01*
X359282906Y-96025242D01*
X359294932Y-95988484D01*
X359307370Y-95950477D01*
X359320166Y-95911386D01*
X359328188Y-95886884D01*
X359341176Y-95847197D01*
X359353831Y-95808483D01*
X359366100Y-95770908D01*
X359377929Y-95734638D01*
X359389265Y-95699838D01*
X359400054Y-95666673D01*
X359410243Y-95635309D01*
X359419777Y-95605912D01*
X359428604Y-95578646D01*
X359436670Y-95553679D01*
X359443921Y-95531174D01*
X359450305Y-95511299D01*
X359455766Y-95494217D01*
X359460252Y-95480095D01*
X359463709Y-95469098D01*
X359466084Y-95461392D01*
X359467323Y-95457143D01*
X359467497Y-95456318D01*
X359465847Y-95454968D01*
X359461161Y-95451427D01*
X359453579Y-95445797D01*
X359443243Y-95438182D01*
X359430293Y-95428684D01*
X359414870Y-95417406D01*
X359397116Y-95404449D01*
X359377171Y-95389917D01*
X359355176Y-95373912D01*
X359331272Y-95356536D01*
X359305601Y-95337893D01*
X359278303Y-95318084D01*
X359249519Y-95297213D01*
X359219389Y-95275381D01*
X359188056Y-95252691D01*
X359155660Y-95229246D01*
X359122342Y-95205149D01*
X359102458Y-95190775D01*
X359068657Y-95166343D01*
X359035687Y-95142508D01*
X359003690Y-95119374D01*
X358972807Y-95097043D01*
X358943179Y-95075616D01*
X358914948Y-95055197D01*
X358888255Y-95035887D01*
X358863242Y-95017789D01*
X358840050Y-95001005D01*
X358818821Y-94985638D01*
X358799695Y-94971790D01*
X358782815Y-94959563D01*
X358768321Y-94949060D01*
X358756355Y-94940382D01*
X358747059Y-94933633D01*
X358740573Y-94928915D01*
X358737040Y-94926329D01*
X358736398Y-94925846D01*
X358738137Y-94925672D01*
X358743656Y-94925506D01*
X358752817Y-94925348D01*
X358765482Y-94925199D01*
X358781512Y-94925060D01*
X358800769Y-94924930D01*
X358823114Y-94924811D01*
X358848410Y-94924703D01*
X358876518Y-94924607D01*
X358907299Y-94924522D01*
X358940616Y-94924449D01*
X358976330Y-94924390D01*
X359014303Y-94924343D01*
X359054396Y-94924310D01*
X359096471Y-94924292D01*
X359140390Y-94924288D01*
X359186014Y-94924300D01*
X359187973Y-94924300D01*
X359237710Y-94924321D01*
X359283678Y-94924337D01*
X359326026Y-94924348D01*
X359364901Y-94924353D01*
X359400453Y-94924351D01*
X359432831Y-94924340D01*
X359462183Y-94924320D01*
X359488659Y-94924289D01*
X359512407Y-94924246D01*
X359533576Y-94924191D01*
X359552316Y-94924121D01*
X359568774Y-94924037D01*
X359583100Y-94923937D01*
X359595443Y-94923819D01*
X359605951Y-94923683D01*
X359614773Y-94923527D01*
X359622059Y-94923351D01*
X359627957Y-94923153D01*
X359632615Y-94922933D01*
X359636184Y-94922689D01*
X359638811Y-94922419D01*
X359640645Y-94922124D01*
X359641836Y-94921802D01*
X359642532Y-94921451D01*
X359642882Y-94921071D01*
X359642949Y-94920935D01*
X359643679Y-94918763D01*
X359645558Y-94913029D01*
X359648530Y-94903899D01*
X359652542Y-94891540D01*
X359657540Y-94876119D01*
X359663469Y-94857804D01*
X359670277Y-94836761D01*
X359677908Y-94813158D01*
X359686310Y-94787160D01*
X359695427Y-94758936D01*
X359705206Y-94728653D01*
X359715594Y-94696477D01*
X359726535Y-94662575D01*
X359737977Y-94627114D01*
X359749865Y-94590262D01*
X359762145Y-94552185D01*
X359774764Y-94513051D01*
X359781796Y-94491235D01*
X359794569Y-94451618D01*
X359807031Y-94412982D01*
X359819126Y-94375493D01*
X359830802Y-94339316D01*
X359842005Y-94304618D01*
X359852682Y-94271565D01*
X359862778Y-94240323D01*
X359872239Y-94211057D01*
X359881013Y-94183935D01*
X359889045Y-94159122D01*
X359896281Y-94136784D01*
X359902669Y-94117087D01*
X359908153Y-94100197D01*
X359912681Y-94086281D01*
X359916199Y-94075504D01*
X359918652Y-94068032D01*
X359919988Y-94064032D01*
X359920227Y-94063371D01*
X359920917Y-94065048D01*
G37*
G36*
X352752724Y-96663660D02*
G01*
X352754581Y-96669193D01*
X352757531Y-96678125D01*
X352761520Y-96690290D01*
X352766494Y-96705522D01*
X352772401Y-96723656D01*
X352779185Y-96744525D01*
X352786793Y-96767965D01*
X352795172Y-96793809D01*
X352804268Y-96821892D01*
X352814026Y-96852047D01*
X352824395Y-96884110D01*
X352835318Y-96917915D01*
X352846744Y-96953295D01*
X352858618Y-96990085D01*
X352870887Y-97028120D01*
X352883496Y-97067233D01*
X352890900Y-97090209D01*
X352903685Y-97129884D01*
X352916161Y-97168585D01*
X352928273Y-97206145D01*
X352939968Y-97242398D01*
X352951193Y-97277178D01*
X352961892Y-97310318D01*
X352972014Y-97341653D01*
X352981503Y-97371015D01*
X352990306Y-97398239D01*
X352998369Y-97423159D01*
X353005639Y-97445608D01*
X353012062Y-97465419D01*
X353017583Y-97482427D01*
X353022150Y-97496465D01*
X353025708Y-97507367D01*
X353028203Y-97514966D01*
X353029582Y-97519097D01*
X353029849Y-97519837D01*
X353030633Y-97520120D01*
X353032761Y-97520382D01*
X353036364Y-97520624D01*
X353041571Y-97520847D01*
X353048515Y-97521050D01*
X353057325Y-97521235D01*
X353068134Y-97521403D01*
X353081072Y-97521555D01*
X353096270Y-97521690D01*
X353113858Y-97521810D01*
X353133969Y-97521916D01*
X353156732Y-97522008D01*
X353182279Y-97522086D01*
X353210740Y-97522152D01*
X353242247Y-97522207D01*
X353276931Y-97522251D01*
X353314922Y-97522284D01*
X353356351Y-97522308D01*
X353401350Y-97522323D01*
X353450049Y-97522330D01*
X353484645Y-97522331D01*
X353536169Y-97522333D01*
X353583897Y-97522344D01*
X353627954Y-97522363D01*
X353668463Y-97522392D01*
X353705548Y-97522432D01*
X353739333Y-97522482D01*
X353769939Y-97522543D01*
X353797493Y-97522617D01*
X353822116Y-97522703D01*
X353843933Y-97522803D01*
X353863067Y-97522917D01*
X353879641Y-97523046D01*
X353893780Y-97523190D01*
X353905606Y-97523350D01*
X353915244Y-97523527D01*
X353922816Y-97523722D01*
X353928447Y-97523934D01*
X353932260Y-97524166D01*
X353934379Y-97524416D01*
X353934926Y-97524687D01*
X353934890Y-97524722D01*
X353933024Y-97526079D01*
X353928124Y-97529628D01*
X353920333Y-97535268D01*
X353909792Y-97542896D01*
X353896643Y-97552408D01*
X353881029Y-97563703D01*
X353863091Y-97576677D01*
X353842972Y-97591229D01*
X353820812Y-97607255D01*
X353796755Y-97624652D01*
X353770942Y-97643318D01*
X353743515Y-97663151D01*
X353714617Y-97684047D01*
X353684389Y-97705904D01*
X353652973Y-97728619D01*
X353620511Y-97752090D01*
X353587145Y-97776213D01*
X353567313Y-97790552D01*
X353202952Y-98053977D01*
X353210461Y-98076606D01*
X353215194Y-98090900D01*
X353220821Y-98107954D01*
X353227279Y-98127566D01*
X353234501Y-98149538D01*
X353242423Y-98173670D01*
X353250979Y-98199760D01*
X353260104Y-98227611D01*
X353269734Y-98257021D01*
X353279802Y-98287790D01*
X353290243Y-98319720D01*
X353300993Y-98352609D01*
X353311987Y-98386258D01*
X353323158Y-98420468D01*
X353334443Y-98455037D01*
X353345775Y-98489767D01*
X353357090Y-98524457D01*
X353368322Y-98558908D01*
X353379407Y-98592919D01*
X353390278Y-98626291D01*
X353400872Y-98658824D01*
X353411122Y-98690317D01*
X353420964Y-98720571D01*
X353430332Y-98749387D01*
X353439162Y-98776563D01*
X353447387Y-98801900D01*
X353454943Y-98825199D01*
X353461766Y-98846260D01*
X353467788Y-98864881D01*
X353472946Y-98880864D01*
X353477174Y-98894009D01*
X353480408Y-98904116D01*
X353482581Y-98910984D01*
X353483628Y-98914415D01*
X353483717Y-98914783D01*
X353482080Y-98913722D01*
X353477419Y-98910451D01*
X353469873Y-98905071D01*
X353459583Y-98897683D01*
X353446688Y-98888389D01*
X353431328Y-98877291D01*
X353413643Y-98864489D01*
X353393771Y-98850086D01*
X353371854Y-98834182D01*
X353348031Y-98816879D01*
X353322442Y-98798279D01*
X353295226Y-98778483D01*
X353266523Y-98757593D01*
X353236473Y-98735709D01*
X353205216Y-98712934D01*
X353172891Y-98689368D01*
X353139638Y-98665114D01*
X353117337Y-98648841D01*
X352751795Y-98382062D01*
X352745414Y-98386572D01*
X352743252Y-98388135D01*
X352738070Y-98391904D01*
X352730010Y-98397773D01*
X352719217Y-98405637D01*
X352705836Y-98415391D01*
X352690008Y-98426929D01*
X352671880Y-98440148D01*
X352651595Y-98454942D01*
X352629296Y-98471206D01*
X352605128Y-98488834D01*
X352579235Y-98507723D01*
X352551761Y-98527766D01*
X352522850Y-98548859D01*
X352492646Y-98570897D01*
X352461292Y-98593775D01*
X352428933Y-98617387D01*
X352395713Y-98641629D01*
X352379890Y-98653176D01*
X352346399Y-98677614D01*
X352313745Y-98701436D01*
X352282069Y-98724540D01*
X352251513Y-98746821D01*
X352222216Y-98768178D01*
X352194321Y-98788508D01*
X352167968Y-98807709D01*
X352143299Y-98825677D01*
X352120454Y-98842310D01*
X352099575Y-98857505D01*
X352080802Y-98871159D01*
X352064277Y-98883171D01*
X352050141Y-98893436D01*
X352038535Y-98901853D01*
X352029600Y-98908318D01*
X352023477Y-98912730D01*
X352020307Y-98914984D01*
X352019874Y-98915271D01*
X352019000Y-98913829D01*
X352019000Y-98913815D01*
X352019601Y-98911844D01*
X352021368Y-98906315D01*
X352024247Y-98897391D01*
X352028184Y-98885239D01*
X352033126Y-98870023D01*
X352039018Y-98851908D01*
X352045808Y-98831060D01*
X352053440Y-98807642D01*
X352061861Y-98781821D01*
X352071018Y-98753761D01*
X352080857Y-98723627D01*
X352091323Y-98691585D01*
X352102363Y-98657799D01*
X352113922Y-98622434D01*
X352125949Y-98585655D01*
X352138387Y-98547628D01*
X352151184Y-98508516D01*
X352159346Y-98483578D01*
X352174770Y-98436453D01*
X352189019Y-98392909D01*
X352202138Y-98352804D01*
X352214172Y-98315994D01*
X352225167Y-98282338D01*
X352235168Y-98251691D01*
X352244219Y-98223913D01*
X352252366Y-98198859D01*
X352259653Y-98176387D01*
X352266127Y-98156356D01*
X352271832Y-98138621D01*
X352276813Y-98123040D01*
X352281116Y-98109470D01*
X352284785Y-98097770D01*
X352287865Y-98087795D01*
X352290402Y-98079404D01*
X352292442Y-98072454D01*
X352294028Y-98066802D01*
X352295206Y-98062305D01*
X352296021Y-98058820D01*
X352296519Y-98056206D01*
X352296744Y-98054319D01*
X352296741Y-98053017D01*
X352296556Y-98052156D01*
X352296234Y-98051595D01*
X352296005Y-98051353D01*
X352294093Y-98049899D01*
X352289147Y-98046255D01*
X352281309Y-98040524D01*
X352270722Y-98032811D01*
X352257530Y-98023218D01*
X352241876Y-98011850D01*
X352223901Y-97998809D01*
X352203750Y-97984199D01*
X352181565Y-97968124D01*
X352157489Y-97950688D01*
X352131665Y-97931993D01*
X352104236Y-97912144D01*
X352075345Y-97891244D01*
X352045134Y-97869396D01*
X352013747Y-97846704D01*
X351981327Y-97823272D01*
X351948016Y-97799203D01*
X351930833Y-97786790D01*
X351897153Y-97762459D01*
X351864305Y-97738727D01*
X351832432Y-97715695D01*
X351801674Y-97693466D01*
X351772175Y-97672143D01*
X351744075Y-97651829D01*
X351717517Y-97632626D01*
X351692643Y-97614637D01*
X351669595Y-97597965D01*
X351648515Y-97582712D01*
X351629544Y-97568982D01*
X351612825Y-97556876D01*
X351598499Y-97546497D01*
X351586709Y-97537949D01*
X351577597Y-97531333D01*
X351571304Y-97526753D01*
X351567972Y-97524311D01*
X351567457Y-97523920D01*
X351569198Y-97523743D01*
X351574724Y-97523572D01*
X351583902Y-97523411D01*
X351596599Y-97523257D01*
X351612681Y-97523114D01*
X351632016Y-97522979D01*
X351654469Y-97522855D01*
X351679908Y-97522742D01*
X351708199Y-97522640D01*
X351739209Y-97522549D01*
X351772805Y-97522471D01*
X351808853Y-97522405D01*
X351847221Y-97522353D01*
X351887774Y-97522313D01*
X351930380Y-97522288D01*
X351974906Y-97522278D01*
X352019069Y-97522282D01*
X352472571Y-97522392D01*
X352611655Y-97091344D01*
X352624506Y-97051541D01*
X352637046Y-97012741D01*
X352649224Y-96975110D01*
X352660985Y-96938809D01*
X352672276Y-96904002D01*
X352683044Y-96870854D01*
X352693235Y-96839528D01*
X352702796Y-96810187D01*
X352711673Y-96782994D01*
X352719813Y-96758114D01*
X352727162Y-96735709D01*
X352733668Y-96715944D01*
X352739276Y-96698982D01*
X352743933Y-96684986D01*
X352747587Y-96674121D01*
X352750182Y-96666548D01*
X352751666Y-96662433D01*
X352752013Y-96661692D01*
X352752724Y-96663660D01*
G37*
G36*
X359458374Y-96672516D02*
G01*
X359460212Y-96678016D01*
X359463143Y-96686916D01*
X359467116Y-96699050D01*
X359472076Y-96714255D01*
X359477970Y-96732364D01*
X359484745Y-96753213D01*
X359492346Y-96776636D01*
X359500721Y-96802469D01*
X359509816Y-96830547D01*
X359519578Y-96860705D01*
X359529952Y-96892777D01*
X359540886Y-96926599D01*
X359552327Y-96962006D01*
X359564220Y-96998832D01*
X359576512Y-97036913D01*
X359589149Y-97076083D01*
X359597293Y-97101335D01*
X359735857Y-97531045D01*
X360189786Y-97530687D01*
X360231672Y-97530657D01*
X360272515Y-97530633D01*
X360312143Y-97530617D01*
X360350383Y-97530606D01*
X360387063Y-97530602D01*
X360422010Y-97530604D01*
X360455053Y-97530611D01*
X360486019Y-97530625D01*
X360514735Y-97530644D01*
X360541029Y-97530669D01*
X360564729Y-97530700D01*
X360585663Y-97530736D01*
X360603658Y-97530776D01*
X360618542Y-97530822D01*
X360630142Y-97530873D01*
X360638287Y-97530929D01*
X360642803Y-97530989D01*
X360643714Y-97531033D01*
X360642150Y-97532230D01*
X360637548Y-97535618D01*
X360630051Y-97541098D01*
X360619799Y-97548566D01*
X360606932Y-97557921D01*
X360591591Y-97569061D01*
X360573916Y-97581885D01*
X360554047Y-97596291D01*
X360532126Y-97612176D01*
X360508292Y-97629439D01*
X360482687Y-97647979D01*
X360455450Y-97667694D01*
X360426722Y-97688481D01*
X360396643Y-97710238D01*
X360365355Y-97732866D01*
X360332998Y-97756260D01*
X360299711Y-97780320D01*
X360279780Y-97794724D01*
X360245964Y-97819163D01*
X360212968Y-97843015D01*
X360180935Y-97866177D01*
X360150006Y-97888546D01*
X360120323Y-97910020D01*
X360092030Y-97930494D01*
X360065268Y-97949867D01*
X360040179Y-97968034D01*
X360016906Y-97984893D01*
X359995591Y-98000342D01*
X359976376Y-98014275D01*
X359959404Y-98026592D01*
X359944816Y-98037188D01*
X359932755Y-98045961D01*
X359923363Y-98052808D01*
X359916782Y-98057625D01*
X359913154Y-98060309D01*
X359912463Y-98060846D01*
X359912140Y-98061340D01*
X359911975Y-98062202D01*
X359912011Y-98063573D01*
X359912294Y-98065595D01*
X359912869Y-98068409D01*
X359913781Y-98072156D01*
X359915074Y-98076980D01*
X359916794Y-98083020D01*
X359918985Y-98090419D01*
X359921693Y-98099318D01*
X359924962Y-98109859D01*
X359928838Y-98122184D01*
X359933364Y-98136434D01*
X359938587Y-98152751D01*
X359944551Y-98171277D01*
X359951301Y-98192152D01*
X359958882Y-98215519D01*
X359967338Y-98241520D01*
X359976716Y-98270295D01*
X359987059Y-98301988D01*
X359998413Y-98336738D01*
X360010823Y-98374688D01*
X360024332Y-98415980D01*
X360038988Y-98460755D01*
X360049883Y-98494035D01*
X360062894Y-98533786D01*
X360075576Y-98572551D01*
X360087874Y-98610166D01*
X360099736Y-98646466D01*
X360111107Y-98681286D01*
X360121934Y-98714463D01*
X360132164Y-98745832D01*
X360141743Y-98775228D01*
X360150618Y-98802488D01*
X360158735Y-98827447D01*
X360166041Y-98849940D01*
X360172483Y-98869804D01*
X360178006Y-98886874D01*
X360182557Y-98900985D01*
X360186083Y-98911973D01*
X360188531Y-98919675D01*
X360189846Y-98923925D01*
X360190069Y-98924759D01*
X360188452Y-98923683D01*
X360183811Y-98920397D01*
X360176285Y-98915003D01*
X360166014Y-98907601D01*
X360153137Y-98898294D01*
X360137793Y-98887183D01*
X360120124Y-98874369D01*
X360100267Y-98859954D01*
X360078363Y-98844039D01*
X360054551Y-98826726D01*
X360028972Y-98808116D01*
X360001763Y-98788310D01*
X359973066Y-98767411D01*
X359943020Y-98745520D01*
X359911764Y-98722737D01*
X359879438Y-98699165D01*
X359846182Y-98674905D01*
X359823659Y-98658470D01*
X359782989Y-98628793D01*
X359745365Y-98601348D01*
X359710672Y-98576053D01*
X359678793Y-98552824D01*
X359649614Y-98531579D01*
X359623018Y-98512235D01*
X359598890Y-98494710D01*
X359577114Y-98478919D01*
X359557575Y-98464781D01*
X359540157Y-98452213D01*
X359524746Y-98441131D01*
X359511224Y-98431453D01*
X359499476Y-98423096D01*
X359489388Y-98415977D01*
X359480842Y-98410014D01*
X359473725Y-98405123D01*
X359467920Y-98401221D01*
X359463311Y-98398227D01*
X359459783Y-98396056D01*
X359457221Y-98394627D01*
X359455508Y-98393855D01*
X359454530Y-98393659D01*
X359454317Y-98393724D01*
X359452425Y-98395070D01*
X359447510Y-98398624D01*
X359439714Y-98404281D01*
X359429178Y-98411938D01*
X359416044Y-98421493D01*
X359400455Y-98432842D01*
X359382552Y-98445881D01*
X359362476Y-98460507D01*
X359340370Y-98476617D01*
X359316376Y-98494107D01*
X359290634Y-98512874D01*
X359263288Y-98532815D01*
X359234479Y-98553826D01*
X359204348Y-98575805D01*
X359173037Y-98598647D01*
X359140689Y-98622249D01*
X359107445Y-98646508D01*
X359088268Y-98660503D01*
X359054616Y-98685060D01*
X359021797Y-98709001D01*
X358989953Y-98732223D01*
X358959224Y-98754625D01*
X358929750Y-98776105D01*
X358901673Y-98796560D01*
X358875132Y-98815888D01*
X358850268Y-98833986D01*
X358827222Y-98850753D01*
X358806134Y-98866086D01*
X358787145Y-98879883D01*
X358770396Y-98892042D01*
X358756026Y-98902460D01*
X358744177Y-98911035D01*
X358734989Y-98917665D01*
X358728603Y-98922248D01*
X358725159Y-98924681D01*
X358724565Y-98925067D01*
X358724084Y-98923552D01*
X358724529Y-98921638D01*
X358725239Y-98919482D01*
X358727114Y-98913769D01*
X358730101Y-98904664D01*
X358734144Y-98892335D01*
X358739189Y-98876947D01*
X358745181Y-98858668D01*
X358752066Y-98837662D01*
X358759790Y-98814097D01*
X358768297Y-98788140D01*
X358777534Y-98759955D01*
X358787445Y-98729710D01*
X358797977Y-98697571D01*
X358809074Y-98663705D01*
X358820683Y-98628277D01*
X358832748Y-98591454D01*
X358845216Y-98553403D01*
X358858031Y-98514289D01*
X358865633Y-98491088D01*
X358881762Y-98441841D01*
X358896698Y-98396200D01*
X358910477Y-98354052D01*
X358923135Y-98315283D01*
X358934709Y-98279780D01*
X358945234Y-98247429D01*
X358954749Y-98218116D01*
X358963288Y-98191727D01*
X358970889Y-98168149D01*
X358977587Y-98147268D01*
X358983420Y-98128970D01*
X358988424Y-98113142D01*
X358992634Y-98099669D01*
X358996089Y-98088439D01*
X358998823Y-98079336D01*
X359000874Y-98072249D01*
X359002278Y-98067062D01*
X359003072Y-98063662D01*
X359003291Y-98061936D01*
X359003219Y-98061681D01*
X359001433Y-98060335D01*
X358996612Y-98056799D01*
X358988899Y-98051173D01*
X358978435Y-98043562D01*
X358965363Y-98034067D01*
X358949824Y-98022792D01*
X358931960Y-98009840D01*
X358911913Y-97995313D01*
X358889826Y-97979314D01*
X358865840Y-97961946D01*
X358840097Y-97943312D01*
X358812740Y-97923515D01*
X358783910Y-97902658D01*
X358753749Y-97880842D01*
X358722399Y-97858172D01*
X358690002Y-97834750D01*
X358656700Y-97810679D01*
X358638400Y-97797453D01*
X358604663Y-97773070D01*
X358571751Y-97749278D01*
X358539807Y-97726181D01*
X358508973Y-97703880D01*
X358479390Y-97682480D01*
X358451201Y-97662083D01*
X358424549Y-97642792D01*
X358399574Y-97624710D01*
X358376420Y-97607941D01*
X358355229Y-97592586D01*
X358336143Y-97578750D01*
X358319304Y-97566535D01*
X358304854Y-97556044D01*
X358292936Y-97547380D01*
X358283691Y-97540646D01*
X358277262Y-97535945D01*
X358273790Y-97533380D01*
X358273197Y-97532920D01*
X358273418Y-97532630D01*
X358274809Y-97532363D01*
X358277504Y-97532118D01*
X358281636Y-97531893D01*
X358287342Y-97531690D01*
X358294755Y-97531506D01*
X358304011Y-97531341D01*
X358315243Y-97531194D01*
X358328586Y-97531066D01*
X358344175Y-97530954D01*
X358362144Y-97530859D01*
X358382629Y-97530780D01*
X358405763Y-97530716D01*
X358431682Y-97530667D01*
X358460519Y-97530631D01*
X358492410Y-97530608D01*
X358527489Y-97530598D01*
X358565890Y-97530600D01*
X358607749Y-97530613D01*
X358653199Y-97530636D01*
X358702376Y-97530669D01*
X358724573Y-97530686D01*
X359178687Y-97531045D01*
X359304464Y-97141150D01*
X359316880Y-97102663D01*
X359329087Y-97064822D01*
X359341023Y-97027824D01*
X359352623Y-96991868D01*
X359363823Y-96957150D01*
X359374561Y-96923869D01*
X359384771Y-96892221D01*
X359394390Y-96862405D01*
X359403355Y-96834618D01*
X359411602Y-96809058D01*
X359419067Y-96785923D01*
X359425686Y-96765409D01*
X359431396Y-96747714D01*
X359436133Y-96733037D01*
X359439832Y-96721574D01*
X359442431Y-96713524D01*
X359443441Y-96710396D01*
X359447321Y-96698569D01*
X359450845Y-96688181D01*
X359453827Y-96679746D01*
X359456083Y-96673783D01*
X359457427Y-96670808D01*
X359457685Y-96670581D01*
X359458374Y-96672516D01*
G37*
G36*
X354778124Y-98368028D02*
G01*
X354779975Y-98373308D01*
X354782919Y-98381991D01*
X354786902Y-98393914D01*
X354791872Y-98408913D01*
X354797774Y-98426825D01*
X354804557Y-98447486D01*
X354812165Y-98470733D01*
X354820547Y-98496402D01*
X354829648Y-98524330D01*
X354839415Y-98554354D01*
X354849795Y-98586309D01*
X354860734Y-98620032D01*
X354872180Y-98655359D01*
X354884078Y-98692128D01*
X354896376Y-98730175D01*
X354909020Y-98769335D01*
X354917743Y-98796375D01*
X355056851Y-99227774D01*
X355509932Y-99227013D01*
X355551779Y-99226947D01*
X355592583Y-99226892D01*
X355632170Y-99226847D01*
X355670370Y-99226812D01*
X355707008Y-99226788D01*
X355741914Y-99226774D01*
X355774914Y-99226770D01*
X355805835Y-99226776D01*
X355834506Y-99226791D01*
X355860753Y-99226816D01*
X355884405Y-99226851D01*
X355905289Y-99226895D01*
X355923232Y-99226948D01*
X355938061Y-99227011D01*
X355949605Y-99227083D01*
X355957691Y-99227163D01*
X355962146Y-99227252D01*
X355963014Y-99227317D01*
X355961449Y-99228547D01*
X355956848Y-99231970D01*
X355949351Y-99237485D01*
X355939097Y-99244990D01*
X355926226Y-99254382D01*
X355910880Y-99265562D01*
X355893196Y-99278426D01*
X355873317Y-99292874D01*
X355851381Y-99308803D01*
X355827529Y-99326112D01*
X355801900Y-99344700D01*
X355774634Y-99364464D01*
X355745873Y-99385304D01*
X355715755Y-99407117D01*
X355684420Y-99429802D01*
X355652009Y-99453257D01*
X355618661Y-99477381D01*
X355596630Y-99493313D01*
X355562748Y-99517820D01*
X355529712Y-99541729D01*
X355497661Y-99564939D01*
X355466737Y-99587346D01*
X355437079Y-99608849D01*
X355408827Y-99629347D01*
X355382121Y-99648738D01*
X355357101Y-99666919D01*
X355333907Y-99683788D01*
X355312680Y-99699245D01*
X355293559Y-99713187D01*
X355276684Y-99725511D01*
X355262195Y-99736117D01*
X355250233Y-99744903D01*
X355240936Y-99751765D01*
X355234447Y-99756604D01*
X355230903Y-99759316D01*
X355230246Y-99759890D01*
X355230845Y-99761845D01*
X355232596Y-99767321D01*
X355235434Y-99776114D01*
X355239291Y-99788020D01*
X355244102Y-99802835D01*
X355249799Y-99820356D01*
X355256317Y-99840379D01*
X355263587Y-99862701D01*
X355271545Y-99887118D01*
X355280124Y-99913426D01*
X355289256Y-99941422D01*
X355298876Y-99970902D01*
X355308916Y-100001663D01*
X355319311Y-100033500D01*
X355329994Y-100066211D01*
X355340898Y-100099591D01*
X355351956Y-100133437D01*
X355363103Y-100167545D01*
X355374272Y-100201712D01*
X355385395Y-100235734D01*
X355396407Y-100269407D01*
X355407241Y-100302528D01*
X355417830Y-100334894D01*
X355428109Y-100366300D01*
X355438009Y-100396542D01*
X355447466Y-100425418D01*
X355456412Y-100452724D01*
X355464780Y-100478256D01*
X355472505Y-100501810D01*
X355479519Y-100523183D01*
X355485757Y-100542171D01*
X355491151Y-100558570D01*
X355495635Y-100572177D01*
X355499143Y-100582789D01*
X355499580Y-100584108D01*
X355503231Y-100595377D01*
X355506240Y-100605171D01*
X355508458Y-100612968D01*
X355509740Y-100618244D01*
X355509938Y-100620475D01*
X355509790Y-100620490D01*
X355508015Y-100619225D01*
X355503216Y-100615752D01*
X355495533Y-100610174D01*
X355485106Y-100602593D01*
X355472078Y-100593113D01*
X355456588Y-100581836D01*
X355438777Y-100568864D01*
X355418786Y-100554299D01*
X355396757Y-100538246D01*
X355372828Y-100520805D01*
X355347142Y-100502080D01*
X355319838Y-100482173D01*
X355291059Y-100461186D01*
X355260943Y-100439223D01*
X355229633Y-100416386D01*
X355197269Y-100392777D01*
X355163992Y-100368499D01*
X355142711Y-100352973D01*
X354777939Y-100086817D01*
X354432475Y-100338958D01*
X354399327Y-100363151D01*
X354366853Y-100386853D01*
X354335206Y-100409951D01*
X354304542Y-100432331D01*
X354275017Y-100453881D01*
X354246786Y-100474486D01*
X354220004Y-100494034D01*
X354194827Y-100512410D01*
X354171409Y-100529502D01*
X354149906Y-100545197D01*
X354130474Y-100559381D01*
X354113268Y-100571940D01*
X354098442Y-100582761D01*
X354086153Y-100591732D01*
X354076555Y-100598737D01*
X354069804Y-100603666D01*
X354066055Y-100606403D01*
X354065949Y-100606480D01*
X354058226Y-100612015D01*
X354051775Y-100616437D01*
X354047169Y-100619369D01*
X354044983Y-100620433D01*
X354044882Y-100620360D01*
X354045482Y-100618385D01*
X354047249Y-100612851D01*
X354050128Y-100603923D01*
X354054065Y-100591767D01*
X354059006Y-100576547D01*
X354064898Y-100558429D01*
X354071687Y-100537577D01*
X354079319Y-100514157D01*
X354087740Y-100488334D01*
X354096897Y-100460272D01*
X354106734Y-100430137D01*
X354117200Y-100398094D01*
X354128239Y-100364308D01*
X354139798Y-100328944D01*
X354151823Y-100292167D01*
X354164261Y-100254142D01*
X354177057Y-100215034D01*
X354185171Y-100190243D01*
X354198160Y-100150536D01*
X354210817Y-100111801D01*
X354223088Y-100074204D01*
X354234918Y-100037910D01*
X354246255Y-100003086D01*
X354257046Y-99969896D01*
X354267236Y-99938506D01*
X354276772Y-99909082D01*
X354285601Y-99881789D01*
X354293669Y-99856793D01*
X354300922Y-99834259D01*
X354307308Y-99814352D01*
X354312772Y-99797239D01*
X354317262Y-99783084D01*
X354320723Y-99772053D01*
X354323102Y-99764312D01*
X354324346Y-99760026D01*
X354324523Y-99759177D01*
X354322870Y-99757817D01*
X354318181Y-99754265D01*
X354310597Y-99748626D01*
X354300261Y-99741001D01*
X354287313Y-99731493D01*
X354271894Y-99720207D01*
X354254147Y-99707243D01*
X354234212Y-99692706D01*
X354212230Y-99676699D01*
X354188344Y-99659323D01*
X354162694Y-99640682D01*
X354135421Y-99620879D01*
X354106667Y-99600017D01*
X354076574Y-99578198D01*
X354045282Y-99555526D01*
X354012933Y-99532103D01*
X353979668Y-99508032D01*
X353961367Y-99494797D01*
X353927630Y-99470399D01*
X353894709Y-99446589D01*
X353862746Y-99423469D01*
X353831885Y-99401143D01*
X353802267Y-99379715D01*
X353774036Y-99359288D01*
X353747336Y-99339964D01*
X353722307Y-99321848D01*
X353699094Y-99305044D01*
X353677838Y-99289653D01*
X353658684Y-99275780D01*
X353641773Y-99263528D01*
X353627248Y-99253000D01*
X353615252Y-99244300D01*
X353605928Y-99237531D01*
X353599419Y-99232796D01*
X353595868Y-99230200D01*
X353595234Y-99229726D01*
X353595019Y-99229381D01*
X353595366Y-99229063D01*
X353596420Y-99228771D01*
X353598326Y-99228505D01*
X353601230Y-99228263D01*
X353605277Y-99228045D01*
X353610611Y-99227851D01*
X353617379Y-99227678D01*
X353625725Y-99227528D01*
X353635794Y-99227398D01*
X353647733Y-99227289D01*
X353661685Y-99227199D01*
X353677796Y-99227128D01*
X353696212Y-99227074D01*
X353717077Y-99227038D01*
X353740537Y-99227018D01*
X353766737Y-99227013D01*
X353795823Y-99227023D01*
X353827938Y-99227048D01*
X353863229Y-99227085D01*
X353901841Y-99227136D01*
X353943919Y-99227197D01*
X353989608Y-99227270D01*
X354039054Y-99227353D01*
X354045071Y-99227364D01*
X354498826Y-99228144D01*
X354637516Y-98797899D01*
X354650350Y-98758095D01*
X354662874Y-98719273D01*
X354675034Y-98681600D01*
X354686777Y-98645240D01*
X354698048Y-98610358D01*
X354708796Y-98577119D01*
X354718965Y-98545689D01*
X354728503Y-98516231D01*
X354737356Y-98488913D01*
X354745471Y-98463897D01*
X354752794Y-98441351D01*
X354759271Y-98421438D01*
X354764849Y-98404323D01*
X354769475Y-98390173D01*
X354773095Y-98379152D01*
X354775655Y-98371424D01*
X354777102Y-98367155D01*
X354777420Y-98366315D01*
X354778124Y-98368028D01*
G37*
G36*
X357427468Y-98372129D02*
G01*
X357429322Y-98377663D01*
X357432270Y-98386598D01*
X357436258Y-98398767D01*
X357441233Y-98414005D01*
X357447141Y-98432147D01*
X357453929Y-98453029D01*
X357461543Y-98476485D01*
X357469929Y-98502349D01*
X357479035Y-98530457D01*
X357488806Y-98560644D01*
X357499188Y-98592744D01*
X357510130Y-98626593D01*
X357521576Y-98662024D01*
X357533473Y-98698873D01*
X357545769Y-98736975D01*
X357558408Y-98776165D01*
X357566619Y-98801633D01*
X357705242Y-99231693D01*
X358159086Y-99231088D01*
X358206202Y-99231033D01*
X358251374Y-99230995D01*
X358294478Y-99230974D01*
X358335390Y-99230969D01*
X358373983Y-99230981D01*
X358410134Y-99231009D01*
X358443717Y-99231053D01*
X358474608Y-99231112D01*
X358502682Y-99231186D01*
X358527813Y-99231275D01*
X358549878Y-99231378D01*
X358568751Y-99231495D01*
X358584307Y-99231626D01*
X358596422Y-99231771D01*
X358604971Y-99231929D01*
X358609829Y-99232099D01*
X358610970Y-99232248D01*
X358609221Y-99233545D01*
X358604437Y-99237033D01*
X358596761Y-99242610D01*
X358586334Y-99250174D01*
X358573299Y-99259622D01*
X358557797Y-99270850D01*
X358539970Y-99283757D01*
X358519960Y-99298239D01*
X358497910Y-99314194D01*
X358473961Y-99331519D01*
X358448255Y-99350111D01*
X358420934Y-99369868D01*
X358392141Y-99390687D01*
X358362016Y-99412466D01*
X358330702Y-99435100D01*
X358298342Y-99458489D01*
X358265076Y-99482529D01*
X358247525Y-99495211D01*
X358213815Y-99519569D01*
X358180920Y-99543341D01*
X358148983Y-99566422D01*
X358118146Y-99588709D01*
X358088553Y-99610099D01*
X358060347Y-99630489D01*
X358033670Y-99649774D01*
X358008667Y-99667852D01*
X357985480Y-99684618D01*
X357964252Y-99699971D01*
X357945126Y-99713805D01*
X357928245Y-99726017D01*
X357913753Y-99736505D01*
X357901792Y-99745164D01*
X357892506Y-99751891D01*
X357886037Y-99756583D01*
X357882529Y-99759136D01*
X357881928Y-99759581D01*
X357881486Y-99759957D01*
X357881128Y-99760460D01*
X357880900Y-99761230D01*
X357880845Y-99762410D01*
X357881009Y-99764144D01*
X357881436Y-99766573D01*
X357882173Y-99769840D01*
X357883263Y-99774087D01*
X357884752Y-99779458D01*
X357886685Y-99786094D01*
X357889106Y-99794139D01*
X357892061Y-99803734D01*
X357895594Y-99815023D01*
X357899751Y-99828147D01*
X357904576Y-99843249D01*
X357910115Y-99860473D01*
X357916412Y-99879959D01*
X357923512Y-99901852D01*
X357931461Y-99926293D01*
X357940303Y-99953425D01*
X357950083Y-99983390D01*
X357960847Y-100016332D01*
X357972638Y-100052391D01*
X357985503Y-100091713D01*
X357999486Y-100134437D01*
X358014632Y-100180708D01*
X358018579Y-100192764D01*
X358031592Y-100232526D01*
X358044281Y-100271306D01*
X358056592Y-100308940D01*
X358068470Y-100345264D01*
X358079862Y-100380113D01*
X358090715Y-100413322D01*
X358100974Y-100444726D01*
X358110585Y-100474161D01*
X358119496Y-100501462D01*
X358127652Y-100526464D01*
X358134999Y-100549002D01*
X358141484Y-100568912D01*
X358147053Y-100586030D01*
X358151652Y-100600189D01*
X358155227Y-100611227D01*
X358157726Y-100618977D01*
X358159093Y-100623275D01*
X358159349Y-100624140D01*
X358157791Y-100623128D01*
X358153209Y-100619905D01*
X358145740Y-100614573D01*
X358135525Y-100607232D01*
X358122703Y-100597984D01*
X358107413Y-100586929D01*
X358089793Y-100574168D01*
X358069984Y-100559803D01*
X358048124Y-100543935D01*
X358024353Y-100526664D01*
X357998809Y-100508092D01*
X357971632Y-100488320D01*
X357942961Y-100467448D01*
X357912935Y-100445579D01*
X357881693Y-100422812D01*
X357849375Y-100399249D01*
X357816119Y-100374991D01*
X357792928Y-100358068D01*
X357426498Y-100090632D01*
X357420176Y-100095107D01*
X357418020Y-100096668D01*
X357412843Y-100100433D01*
X357404789Y-100106299D01*
X357394002Y-100114159D01*
X357380626Y-100123909D01*
X357364805Y-100135444D01*
X357346684Y-100148658D01*
X357326405Y-100163447D01*
X357304115Y-100179706D01*
X357279955Y-100197329D01*
X357254072Y-100216211D01*
X357226608Y-100236247D01*
X357197708Y-100257332D01*
X357167515Y-100279361D01*
X357136174Y-100302230D01*
X357103830Y-100325832D01*
X357070625Y-100350062D01*
X357055219Y-100361305D01*
X357021732Y-100385742D01*
X356989072Y-100409574D01*
X356957382Y-100432696D01*
X356926802Y-100455005D01*
X356897476Y-100476398D01*
X356869544Y-100496772D01*
X356843149Y-100516023D01*
X356818433Y-100534047D01*
X356795537Y-100550742D01*
X356774603Y-100566003D01*
X356755773Y-100579728D01*
X356739190Y-100591812D01*
X356724994Y-100602153D01*
X356713327Y-100610647D01*
X356704332Y-100617191D01*
X356698151Y-100621681D01*
X356694924Y-100624014D01*
X356694467Y-100624337D01*
X356694397Y-100622977D01*
X356695420Y-100618427D01*
X356697390Y-100611215D01*
X356700162Y-100601867D01*
X356703588Y-100590911D01*
X356704536Y-100587964D01*
X356706338Y-100582414D01*
X356709297Y-100573334D01*
X356713348Y-100560918D01*
X356718429Y-100545361D01*
X356724476Y-100526855D01*
X356731425Y-100505597D01*
X356739213Y-100481778D01*
X356747776Y-100455594D01*
X356757052Y-100427239D01*
X356766975Y-100396906D01*
X356777484Y-100364789D01*
X356788514Y-100331084D01*
X356800003Y-100295983D01*
X356811886Y-100259680D01*
X356824100Y-100222371D01*
X356836581Y-100184248D01*
X356845582Y-100156761D01*
X356860630Y-100110792D01*
X356874496Y-100068407D01*
X356887223Y-100029468D01*
X356898856Y-99993836D01*
X356909437Y-99961375D01*
X356919012Y-99931946D01*
X356927623Y-99905412D01*
X356935315Y-99881634D01*
X356942132Y-99860475D01*
X356948118Y-99841798D01*
X356953316Y-99825463D01*
X356957771Y-99811333D01*
X356961527Y-99799270D01*
X356964627Y-99789138D01*
X356967115Y-99780796D01*
X356969035Y-99774109D01*
X356970432Y-99768937D01*
X356971348Y-99765144D01*
X356971829Y-99762591D01*
X356971918Y-99761140D01*
X356971771Y-99760707D01*
X356969955Y-99759339D01*
X356965105Y-99755779D01*
X356957363Y-99750131D01*
X356946870Y-99742496D01*
X356933770Y-99732980D01*
X356918203Y-99721683D01*
X356900313Y-99708710D01*
X356880242Y-99694163D01*
X356858131Y-99678145D01*
X356834123Y-99660760D01*
X356808360Y-99642109D01*
X356780984Y-99622297D01*
X356752137Y-99601426D01*
X356721961Y-99579598D01*
X356690599Y-99556918D01*
X356658192Y-99533487D01*
X356624884Y-99509409D01*
X356606635Y-99496220D01*
X356572910Y-99471845D01*
X356540017Y-99448067D01*
X356508097Y-99424989D01*
X356477292Y-99402712D01*
X356447743Y-99381341D01*
X356419593Y-99360976D01*
X356392982Y-99341722D01*
X356368054Y-99323680D01*
X356344949Y-99306954D01*
X356323810Y-99291645D01*
X356304778Y-99277857D01*
X356287994Y-99265692D01*
X356273602Y-99255253D01*
X356261742Y-99246643D01*
X356252556Y-99239963D01*
X356246186Y-99235317D01*
X356242774Y-99232808D01*
X356242210Y-99232377D01*
X356243922Y-99232155D01*
X356249501Y-99231949D01*
X356258896Y-99231760D01*
X356272055Y-99231587D01*
X356288927Y-99231430D01*
X356309460Y-99231291D01*
X356333603Y-99231169D01*
X356361304Y-99231063D01*
X356392513Y-99230976D01*
X356427177Y-99230906D01*
X356465245Y-99230853D01*
X356506666Y-99230819D01*
X356551388Y-99230802D01*
X356599360Y-99230804D01*
X356650531Y-99230824D01*
X356693794Y-99230854D01*
X357147338Y-99231219D01*
X357286432Y-98799982D01*
X357299281Y-98760170D01*
X357311819Y-98721361D01*
X357323995Y-98683721D01*
X357335753Y-98647411D01*
X357347042Y-98612596D01*
X357357808Y-98579439D01*
X357367996Y-98548103D01*
X357377554Y-98518753D01*
X357386429Y-98491551D01*
X357394567Y-98466662D01*
X357401915Y-98444248D01*
X357408418Y-98424473D01*
X357414025Y-98407501D01*
X357418681Y-98393495D01*
X357422334Y-98382618D01*
X357424929Y-98375035D01*
X357426414Y-98370908D01*
X357426761Y-98370159D01*
X357427468Y-98372129D01*
G37*
D13*
X60325000Y-132556250D03*
X60325000Y-170656250D03*
X60325000Y-208756250D03*
X155575000Y-132556250D03*
X155575000Y-170656250D03*
X155575000Y-208756250D03*
X174625000Y-208756250D03*
X174625000Y-170656250D03*
X174625000Y-132556250D03*
X269875000Y-132556250D03*
X269875000Y-170656250D03*
X269875000Y-208756250D03*
X307975000Y-132556250D03*
X307975000Y-170656250D03*
X307975000Y-208756250D03*
X346075000Y-208756250D03*
X346075000Y-170656250D03*
X346075000Y-132556250D03*
D14*
X298450000Y-164306250D03*
D15*
X293370000Y-164306250D03*
X303530000Y-164306250D03*
D14*
X336550000Y-164306250D03*
D15*
X331470000Y-164306250D03*
X341630000Y-164306250D03*
D14*
X260350000Y-164306250D03*
D15*
X255270000Y-164306250D03*
X265430000Y-164306250D03*
D14*
X165100000Y-164306250D03*
D15*
X160020000Y-164306250D03*
X170180000Y-164306250D03*
D14*
X355600000Y-126206250D03*
D15*
X350520000Y-126206250D03*
X360680000Y-126206250D03*
D16*
X327660000Y-112522000D03*
G36*
G01*
X324270000Y-111621000D02*
X325970000Y-111621000D01*
G75*
G02*
X326021000Y-111672000I0J-51000D01*
G01*
X326021000Y-113372000D01*
G75*
G02*
X325970000Y-113423000I-51000J0D01*
G01*
X324270000Y-113423000D01*
G75*
G02*
X324219000Y-113372000I0J51000D01*
G01*
X324219000Y-111672000D01*
G75*
G02*
X324270000Y-111621000I51000J0D01*
G01*
G37*
X301117000Y-92075000D03*
X301117000Y-94615000D03*
G36*
G01*
X300216000Y-98005000D02*
X300216000Y-96305000D01*
G75*
G02*
X300267000Y-96254000I51000J0D01*
G01*
X301967000Y-96254000D01*
G75*
G02*
X302018000Y-96305000I0J-51000D01*
G01*
X302018000Y-98005000D01*
G75*
G02*
X301967000Y-98056000I-51000J0D01*
G01*
X300267000Y-98056000D01*
G75*
G02*
X300216000Y-98005000I0J51000D01*
G01*
G37*
G36*
G01*
X300216000Y-101656250D02*
X300216000Y-99956250D01*
G75*
G02*
X300267000Y-99905250I51000J0D01*
G01*
X301967000Y-99905250D01*
G75*
G02*
X302018000Y-99956250I0J-51000D01*
G01*
X302018000Y-101656250D01*
G75*
G02*
X301967000Y-101707250I-51000J0D01*
G01*
X300267000Y-101707250D01*
G75*
G02*
X300216000Y-101656250I0J51000D01*
G01*
G37*
D14*
X107950000Y-164306250D03*
D15*
X102870000Y-164306250D03*
X113030000Y-164306250D03*
D14*
X107950000Y-126206250D03*
D15*
X102870000Y-126206250D03*
X113030000Y-126206250D03*
D14*
X88900000Y-126206250D03*
D15*
X83820000Y-126206250D03*
X93980000Y-126206250D03*
D14*
X69850000Y-145256250D03*
D15*
X64770000Y-145256250D03*
X74930000Y-145256250D03*
D14*
X69850000Y-202406250D03*
D15*
X64770000Y-202406250D03*
X74930000Y-202406250D03*
D14*
X50800000Y-202406250D03*
D15*
X45720000Y-202406250D03*
X55880000Y-202406250D03*
D14*
X88900000Y-183356250D03*
D15*
X83820000Y-183356250D03*
X93980000Y-183356250D03*
D14*
X50800000Y-126206250D03*
D15*
X45720000Y-126206250D03*
X55880000Y-126206250D03*
D14*
X69850000Y-164306250D03*
D15*
X64770000Y-164306250D03*
X74930000Y-164306250D03*
D14*
X165100000Y-221456250D03*
D15*
X160020000Y-221456250D03*
X170180000Y-221456250D03*
D14*
X203200000Y-145256250D03*
D15*
X198120000Y-145256250D03*
X208280000Y-145256250D03*
D14*
X184150000Y-221456250D03*
D15*
X179070000Y-221456250D03*
X189230000Y-221456250D03*
D14*
X203200000Y-202406250D03*
D15*
X198120000Y-202406250D03*
X208280000Y-202406250D03*
D14*
X184150000Y-202406250D03*
D15*
X179070000Y-202406250D03*
X189230000Y-202406250D03*
D14*
X69850000Y-221456250D03*
D15*
X64770000Y-221456250D03*
X74930000Y-221456250D03*
D14*
X88900000Y-202406250D03*
D15*
X83820000Y-202406250D03*
X93980000Y-202406250D03*
D14*
X184150000Y-126206250D03*
D15*
X179070000Y-126206250D03*
X189230000Y-126206250D03*
D14*
X184150000Y-183356250D03*
D15*
X179070000Y-183356250D03*
X189230000Y-183356250D03*
D14*
X165100000Y-126206250D03*
D15*
X160020000Y-126206250D03*
X170180000Y-126206250D03*
D14*
X165100000Y-145256250D03*
D15*
X160020000Y-145256250D03*
X170180000Y-145256250D03*
D14*
X184150000Y-164306250D03*
D15*
X179070000Y-164306250D03*
X189230000Y-164306250D03*
D14*
X165100000Y-202406250D03*
D15*
X160020000Y-202406250D03*
X170180000Y-202406250D03*
D14*
X203200000Y-183356250D03*
D15*
X198120000Y-183356250D03*
X208280000Y-183356250D03*
D14*
X165100000Y-183356250D03*
D15*
X160020000Y-183356250D03*
X170180000Y-183356250D03*
D14*
X203200000Y-221456250D03*
D15*
X198120000Y-221456250D03*
X208280000Y-221456250D03*
G36*
G01*
X335776000Y-92163000D02*
X335776000Y-90463000D01*
G75*
G02*
X335827000Y-90412000I51000J0D01*
G01*
X337527000Y-90412000D01*
G75*
G02*
X337578000Y-90463000I0J-51000D01*
G01*
X337578000Y-92163000D01*
G75*
G02*
X337527000Y-92214000I-51000J0D01*
G01*
X335827000Y-92214000D01*
G75*
G02*
X335776000Y-92163000I0J51000D01*
G01*
G37*
G36*
G01*
X314718000Y-90780500D02*
X314718000Y-92480500D01*
G75*
G02*
X314667000Y-92531500I-51000J0D01*
G01*
X312967000Y-92531500D01*
G75*
G02*
X312916000Y-92480500I0J51000D01*
G01*
X312916000Y-90780500D01*
G75*
G02*
X312967000Y-90729500I51000J0D01*
G01*
X314667000Y-90729500D01*
G75*
G02*
X314718000Y-90780500I0J-51000D01*
G01*
G37*
D16*
X313817000Y-94170500D03*
X313817000Y-96710500D03*
X313817000Y-99250500D03*
X313817000Y-101790500D03*
G36*
G01*
X326041000Y-94151000D02*
X326041000Y-93301000D01*
G75*
G02*
X326092000Y-93250000I51000J0D01*
G01*
X326942000Y-93250000D01*
G75*
G02*
X326993000Y-93301000I0J-51000D01*
G01*
X326993000Y-94151000D01*
G75*
G02*
X326942000Y-94202000I-51000J0D01*
G01*
X326092000Y-94202000D01*
G75*
G02*
X326041000Y-94151000I0J51000D01*
G01*
G37*
D13*
X349106000Y-100275250D03*
X363106000Y-87775250D03*
X349106000Y-87775250D03*
D17*
X360408000Y-92575250D03*
D18*
X360408000Y-88375250D03*
D19*
X358998000Y-92024250D03*
X353218000Y-92024250D03*
D18*
X351808000Y-88375250D03*
D17*
X351808000Y-92575250D03*
D13*
X363106000Y-100275250D03*
D12*
G36*
X356111960Y-88137890D02*
G01*
X356121531Y-88140778D01*
X356130355Y-88145478D01*
X356138093Y-88151809D01*
X356144447Y-88159528D01*
X356149172Y-88168339D01*
X356152089Y-88177902D01*
X356153083Y-88187924D01*
X356153083Y-88316704D01*
X356152103Y-88326654D01*
X356149201Y-88336221D01*
X356144488Y-88345038D01*
X356138145Y-88352766D01*
X356130417Y-88359109D01*
X356121600Y-88363822D01*
X356112033Y-88366724D01*
X356102083Y-88367704D01*
X355749463Y-88367704D01*
X355710303Y-88367705D01*
X355673987Y-88367710D01*
X355640405Y-88367719D01*
X355609442Y-88367735D01*
X355580985Y-88367759D01*
X355554921Y-88367793D01*
X355531138Y-88367838D01*
X355509520Y-88367896D01*
X355489893Y-88367968D01*
X355489893Y-88367967D01*
X355472346Y-88368055D01*
X355456458Y-88368161D01*
X355442518Y-88368283D01*
X355429911Y-88368429D01*
X355419080Y-88368591D01*
X355409620Y-88368777D01*
X355401234Y-88368988D01*
X355394369Y-88369214D01*
X355388518Y-88369462D01*
X355383695Y-88369726D01*
X355379800Y-88370000D01*
X355376887Y-88370263D01*
X355374617Y-88370522D01*
X355373022Y-88370748D01*
X355371686Y-88370979D01*
X355370395Y-88371239D01*
X355370114Y-88371302D01*
X355361967Y-88373914D01*
X355356250Y-88376743D01*
X355351984Y-88379749D01*
X355349469Y-88382265D01*
X355348803Y-88383244D01*
X355348614Y-88385231D01*
X355348324Y-88389526D01*
X355348048Y-88395247D01*
X355347803Y-88402405D01*
X355347597Y-88411016D01*
X355347423Y-88421406D01*
X355347283Y-88433604D01*
X355347175Y-88447497D01*
X355347096Y-88463265D01*
X355347097Y-88463265D01*
X355347041Y-88481329D01*
X355347004Y-88501527D01*
X355346983Y-88524080D01*
X355346973Y-88549128D01*
X355346970Y-88576803D01*
X355346968Y-88607242D01*
X355346967Y-88622951D01*
X355346967Y-88622956D01*
X355346962Y-88654655D01*
X355346962Y-88654658D01*
X355346956Y-88683540D01*
X355346954Y-88709735D01*
X355346960Y-88733343D01*
X355346981Y-88754555D01*
X355347019Y-88773472D01*
X355347081Y-88790355D01*
X355347168Y-88804964D01*
X355347290Y-88817949D01*
X355347446Y-88829012D01*
X355347639Y-88838386D01*
X355347871Y-88846152D01*
X355348143Y-88852539D01*
X355348435Y-88857372D01*
X355348729Y-88860824D01*
X355348811Y-88861511D01*
X355350941Y-88864593D01*
X355352686Y-88866199D01*
X355357108Y-88868904D01*
X355365842Y-88872491D01*
X355370420Y-88873884D01*
X355377581Y-88875861D01*
X356102138Y-88876646D01*
X356112087Y-88877637D01*
X356121651Y-88880549D01*
X356130463Y-88885272D01*
X356138184Y-88891623D01*
X356144519Y-88899358D01*
X356149222Y-88908180D01*
X356152114Y-88917751D01*
X356153083Y-88927646D01*
X356153083Y-89056280D01*
X356152103Y-89066230D01*
X356149201Y-89075797D01*
X356144488Y-89084614D01*
X356138145Y-89092342D01*
X356130417Y-89098685D01*
X356121600Y-89103398D01*
X356112033Y-89106300D01*
X356102047Y-89107280D01*
X355734848Y-89107022D01*
X355734845Y-89107022D01*
X355702007Y-89106997D01*
X355702000Y-89106997D01*
X355669896Y-89106968D01*
X355669891Y-89106968D01*
X355638652Y-89106937D01*
X355638646Y-89106937D01*
X355608399Y-89106903D01*
X355608391Y-89106903D01*
X355579265Y-89106866D01*
X355579259Y-89106866D01*
X355551383Y-89106827D01*
X355551375Y-89106827D01*
X355524877Y-89106786D01*
X355524868Y-89106786D01*
X355499878Y-89106743D01*
X355499870Y-89106743D01*
X355476517Y-89106699D01*
X355476507Y-89106699D01*
X355454918Y-89106654D01*
X355454905Y-89106654D01*
X355435209Y-89106608D01*
X355435192Y-89106608D01*
X355417520Y-89106561D01*
X355417498Y-89106561D01*
X355401976Y-89106513D01*
X355401953Y-89106513D01*
X355388711Y-89106466D01*
X355388666Y-89106465D01*
X355377833Y-89106417D01*
X355377770Y-89106417D01*
X355369474Y-89106370D01*
X355369337Y-89106369D01*
X355363707Y-89106322D01*
X355363324Y-89106318D01*
X355360489Y-89106273D01*
X355359034Y-89106229D01*
X355358764Y-89106217D01*
X355355670Y-89105985D01*
X355324490Y-89102691D01*
X355321029Y-89102205D01*
X355292141Y-89097133D01*
X355288235Y-89096288D01*
X355261544Y-89089411D01*
X355257236Y-89088095D01*
X355232649Y-89079383D01*
X355228054Y-89077499D01*
X355205475Y-89066926D01*
X355200923Y-89064507D01*
X355181629Y-89052966D01*
X355177288Y-89050057D01*
X355168126Y-89043213D01*
X355165100Y-89040768D01*
X355155399Y-89032296D01*
X355153145Y-89030204D01*
X355143661Y-89020856D01*
X355141517Y-89018610D01*
X355133008Y-89009135D01*
X355130463Y-89006067D01*
X355123687Y-88997219D01*
X355121844Y-88994653D01*
X355121240Y-88993754D01*
X355119312Y-88990650D01*
X355108090Y-88971047D01*
X355105291Y-88965364D01*
X355096301Y-88943839D01*
X355094356Y-88938309D01*
X355087593Y-88914845D01*
X355086760Y-88911542D01*
X355085357Y-88905081D01*
X355085095Y-88903800D01*
X355084756Y-88902020D01*
X355084490Y-88900498D01*
X355084180Y-88898551D01*
X355083939Y-88896852D01*
X355083658Y-88894602D01*
X355083491Y-88893078D01*
X355083237Y-88890389D01*
X355083136Y-88889165D01*
X355082907Y-88885903D01*
X355082849Y-88884946D01*
X355082645Y-88880973D01*
X355082614Y-88880284D01*
X355082432Y-88875467D01*
X355082415Y-88874948D01*
X355082255Y-88869149D01*
X355082246Y-88868774D01*
X355082106Y-88861859D01*
X355082102Y-88861583D01*
X355081981Y-88853416D01*
X355081978Y-88853215D01*
X355081874Y-88843659D01*
X355081873Y-88843505D01*
X355081786Y-88832427D01*
X355081785Y-88832318D01*
X355081712Y-88819580D01*
X355081711Y-88819495D01*
X355081652Y-88804963D01*
X355081652Y-88804905D01*
X355081604Y-88788443D01*
X355081604Y-88788393D01*
X355081568Y-88769865D01*
X355081568Y-88769832D01*
X355081541Y-88749102D01*
X355081541Y-88749078D01*
X355081522Y-88726011D01*
X355081522Y-88725995D01*
X355081509Y-88700455D01*
X355081509Y-88700442D01*
X355081502Y-88672294D01*
X355081502Y-88672286D01*
X355081499Y-88641394D01*
X355081499Y-88363297D01*
X355082707Y-88352262D01*
X355086019Y-88337317D01*
X355086461Y-88335484D01*
X355091888Y-88314671D01*
X355093236Y-88310310D01*
X355099862Y-88291849D01*
X355102010Y-88286752D01*
X355110070Y-88270198D01*
X355113061Y-88264888D01*
X355122793Y-88249794D01*
X355126351Y-88244932D01*
X355137991Y-88230854D01*
X355140877Y-88227649D01*
X355148655Y-88219715D01*
X355151809Y-88216760D01*
X355167435Y-88203314D01*
X355171960Y-88199841D01*
X355189374Y-88187962D01*
X355194019Y-88185144D01*
X355213364Y-88174774D01*
X355217859Y-88172640D01*
X355239279Y-88163723D01*
X355243415Y-88162207D01*
X355267054Y-88154685D01*
X355270718Y-88153668D01*
X355296721Y-88147484D01*
X355299877Y-88146838D01*
X355328388Y-88141935D01*
X355330243Y-88141651D01*
X355340927Y-88140216D01*
X355343474Y-88139939D01*
X355345894Y-88139737D01*
X355347715Y-88139617D01*
X355351713Y-88139427D01*
X355352519Y-88139396D01*
X355358169Y-88139217D01*
X355358617Y-88139204D01*
X355366000Y-88139035D01*
X355366290Y-88139030D01*
X355375481Y-88138872D01*
X355375672Y-88138869D01*
X355386748Y-88138720D01*
X355386887Y-88138718D01*
X355399928Y-88138578D01*
X355400035Y-88138577D01*
X355415116Y-88138447D01*
X355415191Y-88138446D01*
X355432390Y-88138323D01*
X355432455Y-88138323D01*
X355451850Y-88138209D01*
X355451898Y-88138209D01*
X355473566Y-88138102D01*
X355473604Y-88138101D01*
X355497622Y-88138000D01*
X355497655Y-88138000D01*
X355524101Y-88137906D01*
X355524129Y-88137906D01*
X355553080Y-88137819D01*
X355553099Y-88137819D01*
X355584633Y-88137736D01*
X355584652Y-88137736D01*
X355618846Y-88137659D01*
X355618862Y-88137659D01*
X355655793Y-88137587D01*
X355655803Y-88137587D01*
X355695548Y-88137518D01*
X355695558Y-88137518D01*
X355731847Y-88137462D01*
X355731852Y-88137462D01*
X356102009Y-88136924D01*
X356111960Y-88137890D01*
G37*
G36*
X356664836Y-88137247D02*
G01*
X356664872Y-88137247D01*
X356694947Y-88137281D01*
X356694995Y-88137281D01*
X356722338Y-88137338D01*
X356722392Y-88137338D01*
X356746977Y-88137415D01*
X356747049Y-88137416D01*
X356768849Y-88137515D01*
X356768939Y-88137515D01*
X356787929Y-88137635D01*
X356788052Y-88137636D01*
X356804204Y-88137777D01*
X356804381Y-88137779D01*
X356817670Y-88137941D01*
X356817945Y-88137945D01*
X356828344Y-88138128D01*
X356828830Y-88138139D01*
X356836312Y-88138342D01*
X356837114Y-88138370D01*
X356840145Y-88138500D01*
X356841873Y-88138603D01*
X356873153Y-88141010D01*
X356875922Y-88141300D01*
X356904681Y-88145101D01*
X356907929Y-88145637D01*
X356934272Y-88150866D01*
X356938021Y-88151759D01*
X356962053Y-88158450D01*
X356966290Y-88159831D01*
X356988118Y-88168021D01*
X356992745Y-88170024D01*
X357012474Y-88179746D01*
X357017316Y-88182469D01*
X357035052Y-88193758D01*
X357039848Y-88197217D01*
X357055696Y-88210107D01*
X357058169Y-88212255D01*
X357059293Y-88213296D01*
X357062034Y-88216035D01*
X357075537Y-88230596D01*
X357080174Y-88236390D01*
X357091444Y-88252790D01*
X357095110Y-88259032D01*
X357104173Y-88277324D01*
X357106758Y-88283541D01*
X357113643Y-88303780D01*
X357115243Y-88309590D01*
X357119976Y-88331832D01*
X357120480Y-88334563D01*
X357120618Y-88335445D01*
X357120923Y-88337730D01*
X357121635Y-88344176D01*
X357121834Y-88346443D01*
X357122415Y-88355318D01*
X357122480Y-88356539D01*
X357122928Y-88367355D01*
X357122955Y-88368144D01*
X357123273Y-88380409D01*
X357123285Y-88381014D01*
X357123471Y-88394241D01*
X357123476Y-88394753D01*
X357123531Y-88408452D01*
X357123530Y-88408937D01*
X357123455Y-88422618D01*
X357123450Y-88423128D01*
X357123246Y-88436302D01*
X357123233Y-88436915D01*
X357122898Y-88449092D01*
X357122869Y-88449900D01*
X357122405Y-88460593D01*
X357122336Y-88461838D01*
X357121744Y-88470555D01*
X357121524Y-88472949D01*
X357120802Y-88479202D01*
X357120515Y-88481306D01*
X357120512Y-88481325D01*
X357119877Y-88484633D01*
X357115316Y-88504777D01*
X357113468Y-88511044D01*
X357106628Y-88529732D01*
X357103866Y-88535957D01*
X357094890Y-88553011D01*
X357091151Y-88559051D01*
X357080179Y-88574294D01*
X357075438Y-88579965D01*
X357072618Y-88582880D01*
X357083873Y-88593141D01*
X357087221Y-88596491D01*
X357096503Y-88606684D01*
X357100108Y-88611118D01*
X357107258Y-88620996D01*
X357110996Y-88626996D01*
X357116564Y-88637490D01*
X357119240Y-88643417D01*
X357123775Y-88655457D01*
X357124839Y-88658586D01*
X357126272Y-88663295D01*
X357126693Y-88664756D01*
X357128098Y-88669921D01*
X357128591Y-88671890D01*
X357129797Y-88677140D01*
X357130265Y-88679409D01*
X357131284Y-88684997D01*
X357131641Y-88687236D01*
X357132486Y-88693415D01*
X357132717Y-88695395D01*
X357133399Y-88702417D01*
X357133529Y-88704013D01*
X357134061Y-88712133D01*
X357134126Y-88713341D01*
X357134521Y-88722810D01*
X357134550Y-88723697D01*
X357134819Y-88734768D01*
X357134830Y-88735392D01*
X357134986Y-88748319D01*
X357134990Y-88748747D01*
X357135045Y-88763781D01*
X357135045Y-88764068D01*
X357135011Y-88781464D01*
X357135010Y-88781644D01*
X357134900Y-88801654D01*
X357134900Y-88801736D01*
X357134844Y-88809627D01*
X357134843Y-88809656D01*
X357134697Y-88828687D01*
X357134697Y-88828761D01*
X357134548Y-88845117D01*
X357134546Y-88845309D01*
X357134366Y-88859275D01*
X357134360Y-88859633D01*
X357134124Y-88871490D01*
X357134108Y-88872096D01*
X357133789Y-88882128D01*
X357133751Y-88883068D01*
X357133324Y-88891560D01*
X357133235Y-88892942D01*
X357132674Y-88900176D01*
X357132492Y-88902068D01*
X357131771Y-88908328D01*
X357131442Y-88910699D01*
X357130534Y-88916269D01*
X357130038Y-88918877D01*
X357128918Y-88924039D01*
X357128320Y-88926498D01*
X357126962Y-88931536D01*
X357126405Y-88933455D01*
X357124783Y-88938653D01*
X357124396Y-88939840D01*
X357122483Y-88945481D01*
X357122327Y-88945935D01*
X357120527Y-88951083D01*
X357119220Y-88954437D01*
X357111106Y-88973262D01*
X357107762Y-88979711D01*
X357097166Y-88997012D01*
X357092934Y-89002929D01*
X357079838Y-89018723D01*
X357075027Y-89023778D01*
X357059412Y-89038081D01*
X357054400Y-89042121D01*
X357036246Y-89054952D01*
X357031361Y-89058006D01*
X357010652Y-89069380D01*
X357006117Y-89071586D01*
X356982832Y-89081522D01*
X356980706Y-89082373D01*
X356980100Y-89082600D01*
X356977891Y-89083371D01*
X356957137Y-89090077D01*
X356953242Y-89091167D01*
X356930246Y-89096629D01*
X356926874Y-89097310D01*
X356901485Y-89101557D01*
X356898628Y-89101952D01*
X356870694Y-89105014D01*
X356869219Y-89105154D01*
X356863565Y-89105608D01*
X356861867Y-89105716D01*
X356857828Y-89105905D01*
X356856752Y-89105944D01*
X356849815Y-89106122D01*
X356849373Y-89106132D01*
X356839598Y-89106298D01*
X356839358Y-89106301D01*
X356826805Y-89106455D01*
X356826650Y-89106457D01*
X356811379Y-89106598D01*
X356811275Y-89106599D01*
X356793346Y-89106728D01*
X356793270Y-89106728D01*
X356772744Y-89106845D01*
X356772681Y-89106845D01*
X356749618Y-89106948D01*
X356749568Y-89106949D01*
X356724027Y-89107038D01*
X356723989Y-89107038D01*
X356696031Y-89107115D01*
X356695995Y-89107115D01*
X356665679Y-89107177D01*
X356665649Y-89107177D01*
X356633037Y-89107224D01*
X356633013Y-89107224D01*
X356598164Y-89107258D01*
X356598139Y-89107258D01*
X356561114Y-89107276D01*
X356561096Y-89107276D01*
X356532952Y-89107280D01*
X356226301Y-89107280D01*
X356216351Y-89106300D01*
X356206784Y-89103398D01*
X356197967Y-89098685D01*
X356190239Y-89092342D01*
X356183896Y-89084614D01*
X356179183Y-89075797D01*
X356176281Y-89066230D01*
X356175302Y-89055973D01*
X356175687Y-88992000D01*
X356176073Y-88928026D01*
X356177113Y-88918083D01*
X356180072Y-88908533D01*
X356184838Y-88899744D01*
X356191227Y-88892054D01*
X356198994Y-88885758D01*
X356207839Y-88881099D01*
X356217424Y-88878254D01*
X356226949Y-88877333D01*
X356533873Y-88876594D01*
X356833955Y-88875870D01*
X356840837Y-88873972D01*
X356852515Y-88870172D01*
X356859180Y-88867110D01*
X356862335Y-88865019D01*
X356863344Y-88864029D01*
X356864930Y-88861647D01*
X356865537Y-88860415D01*
X356866221Y-88858878D01*
X356866369Y-88858477D01*
X356866455Y-88858165D01*
X356866702Y-88856881D01*
X356867077Y-88853906D01*
X356867482Y-88848795D01*
X356867837Y-88841498D01*
X356868125Y-88831782D01*
X356868350Y-88819752D01*
X356868544Y-88804799D01*
X356868659Y-88794203D01*
X356868807Y-88775504D01*
X356868838Y-88759162D01*
X356868754Y-88745668D01*
X356868563Y-88735041D01*
X356868297Y-88727883D01*
X356868162Y-88726086D01*
X356867137Y-88721293D01*
X356866635Y-88720107D01*
X356866584Y-88720036D01*
X356865512Y-88719090D01*
X356861432Y-88716684D01*
X356852225Y-88712922D01*
X356851626Y-88712720D01*
X356848874Y-88711797D01*
X356848701Y-88711739D01*
X356846378Y-88710951D01*
X356844884Y-88710462D01*
X356844041Y-88710210D01*
X356843503Y-88710072D01*
X356842874Y-88709939D01*
X356841656Y-88709736D01*
X356839701Y-88709484D01*
X356836716Y-88709194D01*
X356832653Y-88708897D01*
X356827460Y-88708614D01*
X356820981Y-88708350D01*
X356813126Y-88708113D01*
X356804023Y-88707909D01*
X356793192Y-88707729D01*
X356780994Y-88707580D01*
X356766857Y-88707452D01*
X356750859Y-88707344D01*
X356733029Y-88707254D01*
X356733029Y-88707255D01*
X356712972Y-88707180D01*
X356690752Y-88707115D01*
X356666186Y-88707058D01*
X356639142Y-88707005D01*
X356609495Y-88706952D01*
X356577118Y-88706897D01*
X356577116Y-88706897D01*
X356549052Y-88706848D01*
X356549050Y-88706848D01*
X356263189Y-88706337D01*
X356253241Y-88705339D01*
X356243679Y-88702420D01*
X356234870Y-88697691D01*
X356227153Y-88691335D01*
X356220824Y-88683595D01*
X356216127Y-88674770D01*
X356213242Y-88665197D01*
X356212281Y-88655030D01*
X356213051Y-88527176D01*
X356214091Y-88517232D01*
X356217051Y-88507683D01*
X356221816Y-88498894D01*
X356228205Y-88491204D01*
X356235972Y-88484908D01*
X356244817Y-88480248D01*
X356254402Y-88477404D01*
X356263914Y-88476483D01*
X356840056Y-88474951D01*
X356844700Y-88473706D01*
X356853207Y-88470991D01*
X356855730Y-88469806D01*
X356855949Y-88469347D01*
X356856099Y-88468978D01*
X356856139Y-88468790D01*
X356856400Y-88466778D01*
X356856705Y-88462534D01*
X356856930Y-88455925D01*
X356857034Y-88446705D01*
X356857015Y-88434855D01*
X356856896Y-88420277D01*
X356856895Y-88420277D01*
X356856875Y-88418239D01*
X356856701Y-88403270D01*
X356856492Y-88391508D01*
X356856208Y-88382293D01*
X356855851Y-88375845D01*
X356855727Y-88374579D01*
X356854399Y-88373888D01*
X356849416Y-88372171D01*
X356840738Y-88370118D01*
X356840095Y-88370043D01*
X356838696Y-88369919D01*
X356836444Y-88369770D01*
X356833164Y-88369608D01*
X356828901Y-88369450D01*
X356823400Y-88369295D01*
X356817019Y-88369159D01*
X356809122Y-88369029D01*
X356799914Y-88368913D01*
X356789054Y-88368806D01*
X356789054Y-88368805D01*
X356776803Y-88368711D01*
X356762663Y-88368624D01*
X356746813Y-88368546D01*
X356746813Y-88368547D01*
X356728900Y-88368477D01*
X356708948Y-88368412D01*
X356686796Y-88368352D01*
X356662319Y-88368296D01*
X356635393Y-88368242D01*
X356605899Y-88368190D01*
X356573712Y-88368138D01*
X356538707Y-88368084D01*
X356532062Y-88368075D01*
X356532056Y-88368075D01*
X356226226Y-88367623D01*
X356216277Y-88366628D01*
X356206715Y-88363712D01*
X356197904Y-88358986D01*
X356190185Y-88352632D01*
X356183854Y-88344894D01*
X356179154Y-88336070D01*
X356176266Y-88326499D01*
X356175302Y-88316316D01*
X356175687Y-88252383D01*
X356176073Y-88188450D01*
X356177113Y-88178506D01*
X356180073Y-88168957D01*
X356184838Y-88160168D01*
X356191227Y-88152478D01*
X356198994Y-88146182D01*
X356207839Y-88141522D01*
X356217424Y-88138678D01*
X356226996Y-88137757D01*
X356517649Y-88137323D01*
X356517661Y-88137323D01*
X356558399Y-88137272D01*
X356558423Y-88137272D01*
X356596535Y-88137242D01*
X356596562Y-88137242D01*
X356632021Y-88137233D01*
X356632056Y-88137233D01*
X356664836Y-88137247D01*
G37*
G36*
X358582994Y-86597243D02*
G01*
X358583000Y-86597243D01*
X358626614Y-86597251D01*
X358626628Y-86597251D01*
X358668301Y-86597270D01*
X358668314Y-86597270D01*
X358707984Y-86597298D01*
X358708001Y-86597298D01*
X358745607Y-86597337D01*
X358745624Y-86597337D01*
X358781103Y-86597386D01*
X358781123Y-86597386D01*
X358814414Y-86597445D01*
X358814436Y-86597445D01*
X358845476Y-86597513D01*
X358845501Y-86597513D01*
X358874229Y-86597590D01*
X358874260Y-86597590D01*
X358900613Y-86597677D01*
X358900648Y-86597677D01*
X358924566Y-86597772D01*
X358924611Y-86597773D01*
X358946031Y-86597877D01*
X358946086Y-86597877D01*
X358964946Y-86597989D01*
X358965023Y-86597989D01*
X358981261Y-86598110D01*
X358981366Y-86598111D01*
X358994921Y-86598240D01*
X358995078Y-86598242D01*
X359005888Y-86598378D01*
X359006170Y-86598382D01*
X359014171Y-86598527D01*
X359014747Y-86598541D01*
X359019880Y-86598692D01*
X359021020Y-86598738D01*
X359022351Y-86598807D01*
X359024230Y-86598940D01*
X359057024Y-86601857D01*
X359059599Y-86602152D01*
X359089826Y-86606398D01*
X359092831Y-86606912D01*
X359120587Y-86612519D01*
X359124049Y-86613345D01*
X359149427Y-86620345D01*
X359153350Y-86621599D01*
X359176442Y-86630026D01*
X359180763Y-86631833D01*
X359201665Y-86641719D01*
X359206261Y-86644187D01*
X359225065Y-86655564D01*
X359229726Y-86658750D01*
X359246526Y-86671651D01*
X359250237Y-86674793D01*
X359260132Y-86684016D01*
X359263160Y-86687088D01*
X359274469Y-86699575D01*
X359277718Y-86703546D01*
X359287580Y-86716923D01*
X359290517Y-86721376D01*
X359299077Y-86735964D01*
X359301440Y-86740499D01*
X359308841Y-86756622D01*
X359310550Y-86760830D01*
X359316935Y-86778808D01*
X359318070Y-86782424D01*
X359323582Y-86802582D01*
X359324289Y-86805503D01*
X359329071Y-86828163D01*
X359329362Y-86829649D01*
X359330489Y-86835903D01*
X359330685Y-86837070D01*
X359331026Y-86839251D01*
X359331262Y-86840945D01*
X359331573Y-86843491D01*
X359331735Y-86845011D01*
X359332016Y-86848071D01*
X359332112Y-86849265D01*
X359332366Y-86852989D01*
X359332419Y-86853888D01*
X359332648Y-86858424D01*
X359332677Y-86859086D01*
X359332883Y-86864585D01*
X359332899Y-86865067D01*
X359333084Y-86871678D01*
X359333093Y-86872030D01*
X359333259Y-86879902D01*
X359333264Y-86880164D01*
X359333412Y-86889447D01*
X359333414Y-86889630D01*
X359333548Y-86900474D01*
X359333550Y-86900616D01*
X359333670Y-86913169D01*
X359333671Y-86913268D01*
X359333781Y-86927681D01*
X359333781Y-86927759D01*
X359333881Y-86944181D01*
X359333881Y-86944234D01*
X359333975Y-86962814D01*
X359333976Y-86962857D01*
X359334064Y-86983745D01*
X359334064Y-86983774D01*
X359334149Y-87007119D01*
X359334149Y-87007140D01*
X359334233Y-87033092D01*
X359334233Y-87033106D01*
X359334318Y-87061814D01*
X359334318Y-87061818D01*
X359334349Y-87072590D01*
X359334349Y-87072608D01*
X359334433Y-87105860D01*
X359334433Y-87105890D01*
X359334492Y-87136267D01*
X359334492Y-87136307D01*
X359334524Y-87163892D01*
X359334524Y-87163941D01*
X359334529Y-87188816D01*
X359334529Y-87188874D01*
X359334508Y-87211124D01*
X359334508Y-87211205D01*
X359334458Y-87230912D01*
X359334457Y-87231011D01*
X359334380Y-87248258D01*
X359334380Y-87248394D01*
X359334274Y-87263264D01*
X359334272Y-87263443D01*
X359334138Y-87276019D01*
X359334135Y-87276283D01*
X359333971Y-87286648D01*
X359333963Y-87287036D01*
X359333770Y-87295274D01*
X359333751Y-87295914D01*
X359333528Y-87302107D01*
X359333470Y-87303316D01*
X359333217Y-87307547D01*
X359333117Y-87308912D01*
X359333077Y-87309373D01*
X359332865Y-87311363D01*
X359329411Y-87338672D01*
X359328730Y-87342732D01*
X359323493Y-87367725D01*
X359322268Y-87372437D01*
X359315169Y-87395221D01*
X359313205Y-87400485D01*
X359304163Y-87421161D01*
X359301315Y-87426719D01*
X359290253Y-87445393D01*
X359286496Y-87450884D01*
X359273332Y-87467660D01*
X359268839Y-87472666D01*
X359253495Y-87487648D01*
X359248596Y-87491860D01*
X359230992Y-87505151D01*
X359226078Y-87508432D01*
X359206134Y-87520138D01*
X359201523Y-87522538D01*
X359179159Y-87532762D01*
X359175419Y-87534295D01*
X359155531Y-87541544D01*
X359152537Y-87542532D01*
X359132646Y-87548418D01*
X359129754Y-87549182D01*
X359108701Y-87554090D01*
X359105993Y-87554645D01*
X359083409Y-87558634D01*
X359081005Y-87558999D01*
X359056521Y-87562129D01*
X359054477Y-87562349D01*
X359027723Y-87564678D01*
X359026325Y-87564780D01*
X359007944Y-87565872D01*
X359006622Y-87565934D01*
X359002014Y-87566088D01*
X359001312Y-87566106D01*
X358993823Y-87566253D01*
X358993516Y-87566258D01*
X358983224Y-87566398D01*
X358983047Y-87566400D01*
X358970028Y-87566532D01*
X358969918Y-87566533D01*
X358954251Y-87566658D01*
X358954171Y-87566659D01*
X358935932Y-87566776D01*
X358935871Y-87566776D01*
X358915138Y-87566884D01*
X358915092Y-87566885D01*
X358891943Y-87566985D01*
X358891907Y-87566985D01*
X358866418Y-87567077D01*
X358866385Y-87567077D01*
X358838634Y-87567159D01*
X358838607Y-87567159D01*
X358808672Y-87567232D01*
X358808650Y-87567232D01*
X358776607Y-87567296D01*
X358776584Y-87567296D01*
X358742512Y-87567349D01*
X358742495Y-87567349D01*
X358706471Y-87567393D01*
X358706453Y-87567393D01*
X358668553Y-87567426D01*
X358668539Y-87567426D01*
X358628842Y-87567449D01*
X358628827Y-87567449D01*
X358587409Y-87567461D01*
X358587397Y-87567461D01*
X358571901Y-87567462D01*
X358168462Y-87567483D01*
X358158513Y-87566504D01*
X358148945Y-87563602D01*
X358140128Y-87558890D01*
X358132399Y-87552548D01*
X358126056Y-87544820D01*
X358121342Y-87536003D01*
X358118440Y-87526436D01*
X358117459Y-87516483D01*
X358117459Y-87336795D01*
X358383645Y-87336795D01*
X358654718Y-87336784D01*
X358693193Y-87336775D01*
X358729733Y-87336752D01*
X358764266Y-87336716D01*
X358796719Y-87336667D01*
X358827020Y-87336605D01*
X358855095Y-87336530D01*
X358880876Y-87336442D01*
X358904334Y-87336343D01*
X358904334Y-87336344D01*
X358925238Y-87336233D01*
X358943756Y-87336111D01*
X358959480Y-87335979D01*
X358972581Y-87335837D01*
X358982973Y-87335686D01*
X358990236Y-87335532D01*
X358993826Y-87335404D01*
X359011878Y-87333681D01*
X359026539Y-87331410D01*
X359037788Y-87328755D01*
X359045929Y-87325940D01*
X359051467Y-87323212D01*
X359055740Y-87320278D01*
X359057166Y-87318995D01*
X359059967Y-87315731D01*
X359061718Y-87312821D01*
X359063770Y-87307708D01*
X359065999Y-87299398D01*
X359067814Y-87291231D01*
X359067814Y-86876416D01*
X359066087Y-86868624D01*
X359062893Y-86857524D01*
X359059986Y-86851146D01*
X359056631Y-86846278D01*
X359055510Y-86845081D01*
X359051799Y-86841771D01*
X359049623Y-86840205D01*
X359047364Y-86838994D01*
X359041899Y-86836798D01*
X359038814Y-86835737D01*
X359035736Y-86834692D01*
X359035436Y-86834589D01*
X359032732Y-86833652D01*
X359030747Y-86832976D01*
X359029363Y-86832534D01*
X359028466Y-86832277D01*
X359027637Y-86832075D01*
X359026514Y-86831850D01*
X359024856Y-86831585D01*
X359022311Y-86831266D01*
X359018889Y-86830935D01*
X359014351Y-86830599D01*
X359008788Y-86830283D01*
X359001956Y-86829989D01*
X358993914Y-86829727D01*
X358984348Y-86829491D01*
X358973587Y-86829291D01*
X358961077Y-86829116D01*
X358946975Y-86828967D01*
X358931259Y-86828844D01*
X358913539Y-86828741D01*
X358913539Y-86828742D01*
X358893788Y-86828657D01*
X358872019Y-86828587D01*
X358848044Y-86828529D01*
X358821748Y-86828480D01*
X358793013Y-86828436D01*
X358761728Y-86828396D01*
X358727769Y-86828354D01*
X358691029Y-86828310D01*
X358691024Y-86828310D01*
X358671674Y-86828285D01*
X358383645Y-86827911D01*
X358383645Y-87336795D01*
X358117459Y-87336795D01*
X358117459Y-86648221D01*
X358118439Y-86638271D01*
X358121341Y-86628704D01*
X358126054Y-86619887D01*
X358132397Y-86612159D01*
X358140125Y-86605816D01*
X358148942Y-86601103D01*
X358158509Y-86598201D01*
X358168462Y-86597221D01*
X358582994Y-86597243D01*
G37*
G36*
X358039369Y-86598201D02*
G01*
X358048936Y-86601103D01*
X358057753Y-86605816D01*
X358065481Y-86612159D01*
X358071824Y-86619887D01*
X358076537Y-86628704D01*
X358079439Y-86638271D01*
X358080419Y-86648221D01*
X358080419Y-86776907D01*
X358079439Y-86786857D01*
X358076537Y-86796424D01*
X358071824Y-86805241D01*
X358065481Y-86812969D01*
X358057753Y-86819312D01*
X358048936Y-86824025D01*
X358039369Y-86826927D01*
X358029419Y-86827907D01*
X357351197Y-86827907D01*
X357351197Y-86941863D01*
X357992440Y-86941863D01*
X358002390Y-86942843D01*
X358011957Y-86945745D01*
X358020774Y-86950458D01*
X358028502Y-86956801D01*
X358034845Y-86964529D01*
X358039558Y-86973346D01*
X358042460Y-86982913D01*
X358043440Y-86992863D01*
X358043440Y-87121549D01*
X358042460Y-87131499D01*
X358039558Y-87141066D01*
X358034845Y-87149883D01*
X358028502Y-87157611D01*
X358020774Y-87163954D01*
X358011957Y-87168667D01*
X358002390Y-87171569D01*
X357992440Y-87172549D01*
X357351326Y-87172549D01*
X357351558Y-87254158D01*
X357351791Y-87336109D01*
X357665229Y-87336430D01*
X358029471Y-87336802D01*
X358039420Y-87337792D01*
X358048984Y-87340704D01*
X358057796Y-87345426D01*
X358065518Y-87351777D01*
X358071853Y-87359511D01*
X358076557Y-87368333D01*
X358079449Y-87377904D01*
X358080419Y-87387802D01*
X358080419Y-87516483D01*
X358079439Y-87526433D01*
X358076537Y-87536000D01*
X358071824Y-87544817D01*
X358065481Y-87552545D01*
X358057753Y-87558888D01*
X358048936Y-87563601D01*
X358039369Y-87566503D01*
X358029419Y-87567483D01*
X357583697Y-87567483D01*
X357547569Y-87567480D01*
X357547559Y-87567480D01*
X357512197Y-87567470D01*
X357512187Y-87567470D01*
X357477706Y-87567454D01*
X357477698Y-87567454D01*
X357444210Y-87567433D01*
X357444199Y-87567433D01*
X357411821Y-87567406D01*
X357411812Y-87567406D01*
X357380656Y-87567374D01*
X357380645Y-87567374D01*
X357350828Y-87567337D01*
X357350815Y-87567337D01*
X357322449Y-87567295D01*
X357322436Y-87567295D01*
X357295637Y-87567248D01*
X357295622Y-87567248D01*
X357270504Y-87567197D01*
X357270490Y-87567197D01*
X357247168Y-87567143D01*
X357247145Y-87567143D01*
X357225732Y-87567084D01*
X357225710Y-87567084D01*
X357206321Y-87567022D01*
X357206292Y-87567022D01*
X357189042Y-87566957D01*
X357188999Y-87566956D01*
X357174001Y-87566887D01*
X357173949Y-87566887D01*
X357161320Y-87566816D01*
X357161235Y-87566816D01*
X357151087Y-87566742D01*
X357150946Y-87566740D01*
X357143394Y-87566664D01*
X357143096Y-87566661D01*
X357138255Y-87566584D01*
X357137044Y-87566550D01*
X357135028Y-87566470D01*
X357124901Y-87565042D01*
X357124848Y-87565029D01*
X357115418Y-87561707D01*
X357106818Y-87556609D01*
X357099377Y-87549931D01*
X357093382Y-87541930D01*
X357089063Y-87532914D01*
X357086586Y-87523227D01*
X357086067Y-87518172D01*
X357085986Y-87516630D01*
X357085924Y-87514886D01*
X357085844Y-87510502D01*
X357085839Y-87510123D01*
X357085762Y-87503013D01*
X357085761Y-87502855D01*
X357085686Y-87493135D01*
X357085685Y-87493042D01*
X357085613Y-87480828D01*
X357085613Y-87480772D01*
X357085543Y-87466180D01*
X357085542Y-87466135D01*
X357085476Y-87449281D01*
X357085476Y-87449253D01*
X357085412Y-87430253D01*
X357085412Y-87430224D01*
X357085353Y-87409195D01*
X357085353Y-87409176D01*
X357085297Y-87386233D01*
X357085297Y-87386216D01*
X357085245Y-87361475D01*
X357085245Y-87361459D01*
X357085198Y-87335037D01*
X357085198Y-87335023D01*
X357085156Y-87307036D01*
X357085156Y-87307025D01*
X357085118Y-87277588D01*
X357085118Y-87277575D01*
X357085086Y-87246805D01*
X357085086Y-87246795D01*
X357085059Y-87214808D01*
X357085059Y-87214799D01*
X357085037Y-87181710D01*
X357085037Y-87181698D01*
X357085022Y-87147625D01*
X357085022Y-87147616D01*
X357085013Y-87112674D01*
X357085013Y-87112664D01*
X357085011Y-87081369D01*
X357085011Y-86648221D01*
X357085991Y-86638271D01*
X357088893Y-86628704D01*
X357093606Y-86619887D01*
X357099949Y-86612159D01*
X357107677Y-86605816D01*
X357116494Y-86601103D01*
X357126061Y-86598201D01*
X357136011Y-86597221D01*
X358029419Y-86597221D01*
X358039369Y-86598201D01*
G37*
G36*
X356980296Y-86598201D02*
G01*
X356989863Y-86601103D01*
X356998680Y-86605816D01*
X357006408Y-86612159D01*
X357012751Y-86619887D01*
X357017464Y-86628704D01*
X357020366Y-86638271D01*
X357021346Y-86648221D01*
X357021346Y-87516483D01*
X357020366Y-87526433D01*
X357017464Y-87536000D01*
X357012751Y-87544817D01*
X357006408Y-87552545D01*
X356998680Y-87558888D01*
X356989863Y-87563601D01*
X356980296Y-87566503D01*
X356970346Y-87567483D01*
X356806160Y-87567483D01*
X356796210Y-87566503D01*
X356786643Y-87563601D01*
X356777826Y-87558888D01*
X356770098Y-87552545D01*
X356763755Y-87544817D01*
X356759042Y-87536000D01*
X356756140Y-87526433D01*
X356755160Y-87516483D01*
X356755160Y-86648221D01*
X356756140Y-86638271D01*
X356759042Y-86628704D01*
X356763755Y-86619887D01*
X356770098Y-86612159D01*
X356777826Y-86605816D01*
X356786643Y-86601103D01*
X356796210Y-86598201D01*
X356806160Y-86597221D01*
X356970346Y-86597221D01*
X356980296Y-86598201D01*
G37*
G36*
X356721444Y-86598201D02*
G01*
X356731011Y-86601103D01*
X356739828Y-86605816D01*
X356747556Y-86612159D01*
X356753899Y-86619887D01*
X356758612Y-86628704D01*
X356761514Y-86638271D01*
X356762494Y-86648221D01*
X356762494Y-86776907D01*
X356761514Y-86786857D01*
X356758612Y-86796424D01*
X356753899Y-86805241D01*
X356747556Y-86812969D01*
X356739828Y-86819312D01*
X356731011Y-86824025D01*
X356721444Y-86826927D01*
X356711494Y-86827907D01*
X356034751Y-86827907D01*
X356034751Y-86978842D01*
X356662682Y-86978842D01*
X356672632Y-86979822D01*
X356682199Y-86982724D01*
X356691016Y-86987437D01*
X356698744Y-86993780D01*
X356705087Y-87001508D01*
X356709800Y-87010325D01*
X356712702Y-87019892D01*
X356713682Y-87029842D01*
X356713682Y-87158528D01*
X356712702Y-87168478D01*
X356709800Y-87178045D01*
X356705087Y-87186862D01*
X356698744Y-87194590D01*
X356691016Y-87200933D01*
X356682199Y-87205646D01*
X356672632Y-87208548D01*
X356662682Y-87209528D01*
X356034656Y-87209528D01*
X356034387Y-87337243D01*
X356034012Y-87515850D01*
X356033011Y-87525798D01*
X356030089Y-87535359D01*
X356025357Y-87544166D01*
X356018998Y-87551881D01*
X356011257Y-87558208D01*
X356002430Y-87562902D01*
X355992856Y-87565784D01*
X355983251Y-87566742D01*
X355901527Y-87567125D01*
X355819804Y-87567507D01*
X355809850Y-87566574D01*
X355800269Y-87563717D01*
X355791430Y-87559045D01*
X355783672Y-87552739D01*
X355777293Y-87545040D01*
X355772539Y-87536245D01*
X355769592Y-87526692D01*
X355768565Y-87516508D01*
X355768565Y-86648221D01*
X355769545Y-86638271D01*
X355772447Y-86628704D01*
X355777160Y-86619887D01*
X355783503Y-86612159D01*
X355791231Y-86605816D01*
X355800048Y-86601103D01*
X355809615Y-86598201D01*
X355819565Y-86597221D01*
X356711494Y-86597221D01*
X356721444Y-86598201D01*
G37*
G36*
X355662371Y-86598201D02*
G01*
X355671938Y-86601103D01*
X355680755Y-86605816D01*
X355688483Y-86612159D01*
X355694826Y-86619887D01*
X355699539Y-86628704D01*
X355702441Y-86638271D01*
X355703421Y-86648221D01*
X355703421Y-87516483D01*
X355702441Y-87526433D01*
X355699539Y-87536000D01*
X355694826Y-87544817D01*
X355688483Y-87552545D01*
X355680755Y-87558888D01*
X355671938Y-87563601D01*
X355662371Y-87566503D01*
X355652421Y-87567483D01*
X355571254Y-87567483D01*
X355556036Y-87567465D01*
X355555918Y-87567465D01*
X355541594Y-87567415D01*
X355541462Y-87567414D01*
X355528305Y-87567334D01*
X355528154Y-87567333D01*
X355516436Y-87567227D01*
X355516240Y-87567225D01*
X355506231Y-87567096D01*
X355505941Y-87567091D01*
X355497915Y-87566942D01*
X355497405Y-87566930D01*
X355491633Y-87566765D01*
X355490283Y-87566709D01*
X355487036Y-87566530D01*
X355480962Y-87565828D01*
X355480340Y-87565718D01*
X355470713Y-87563020D01*
X355461797Y-87558496D01*
X355453935Y-87552320D01*
X355447429Y-87544728D01*
X355442530Y-87536013D01*
X355439424Y-87526510D01*
X355438291Y-87518172D01*
X355438210Y-87516630D01*
X355438148Y-87514874D01*
X355438069Y-87510490D01*
X355438064Y-87510123D01*
X355437987Y-87503013D01*
X355437986Y-87502855D01*
X355437911Y-87493135D01*
X355437910Y-87493046D01*
X355437837Y-87480832D01*
X355437837Y-87480768D01*
X355437768Y-87466176D01*
X355437767Y-87466138D01*
X355437700Y-87449284D01*
X355437700Y-87449250D01*
X355437637Y-87430250D01*
X355437637Y-87430227D01*
X355437577Y-87409198D01*
X355437577Y-87409174D01*
X355437522Y-87386231D01*
X355437522Y-87386216D01*
X355437470Y-87361475D01*
X355437470Y-87361459D01*
X355437423Y-87335037D01*
X355437423Y-87335024D01*
X355437380Y-87307037D01*
X355437380Y-87307023D01*
X355437343Y-87277586D01*
X355437343Y-87277577D01*
X355437310Y-87246807D01*
X355437310Y-87246795D01*
X355437283Y-87214808D01*
X355437283Y-87214797D01*
X355437262Y-87181708D01*
X355437262Y-87181698D01*
X355437247Y-87147625D01*
X355437247Y-87147616D01*
X355437238Y-87112674D01*
X355437238Y-87112666D01*
X355437235Y-87081371D01*
X355437235Y-86648221D01*
X355438215Y-86638271D01*
X355441117Y-86628704D01*
X355445830Y-86619887D01*
X355452173Y-86612159D01*
X355459901Y-86605816D01*
X355468718Y-86601103D01*
X355478285Y-86598201D01*
X355488235Y-86597221D01*
X355652421Y-86597221D01*
X355662371Y-86598201D01*
G37*
G36*
X355332520Y-86598201D02*
G01*
X355342087Y-86601103D01*
X355350904Y-86605816D01*
X355358632Y-86612159D01*
X355364975Y-86619887D01*
X355369688Y-86628704D01*
X355372590Y-86638271D01*
X355373570Y-86648221D01*
X355373570Y-87516483D01*
X355372590Y-87526433D01*
X355369688Y-87536000D01*
X355364975Y-87544817D01*
X355358632Y-87552545D01*
X355350904Y-87558888D01*
X355342087Y-87563601D01*
X355332520Y-87566503D01*
X355322570Y-87567483D01*
X355242882Y-87567483D01*
X355232932Y-87566503D01*
X355223365Y-87563601D01*
X355212822Y-87557682D01*
X354943893Y-87361461D01*
X354915456Y-87340712D01*
X354885845Y-87319107D01*
X354855298Y-87296818D01*
X354824053Y-87274021D01*
X354792347Y-87250887D01*
X354760420Y-87227591D01*
X354728507Y-87204306D01*
X354696849Y-87181207D01*
X354665682Y-87158466D01*
X354635244Y-87136257D01*
X354605774Y-87114754D01*
X354577509Y-87094130D01*
X354550687Y-87074559D01*
X354525546Y-87056215D01*
X354525544Y-87056214D01*
X354502323Y-87039270D01*
X354481688Y-87024213D01*
X354460388Y-87008676D01*
X354439746Y-86993626D01*
X354419861Y-86979134D01*
X354400898Y-86965323D01*
X354382939Y-86952250D01*
X354368000Y-86941381D01*
X354367988Y-86946003D01*
X354367938Y-86968161D01*
X354367893Y-86991970D01*
X354367854Y-87017294D01*
X354367820Y-87044009D01*
X354367792Y-87071976D01*
X354367770Y-87101066D01*
X354367756Y-87131145D01*
X354367748Y-87162088D01*
X354367747Y-87179239D01*
X354367747Y-87516483D01*
X354366767Y-87526433D01*
X354363865Y-87536000D01*
X354359152Y-87544817D01*
X354352809Y-87552545D01*
X354345081Y-87558888D01*
X354336264Y-87563601D01*
X354326697Y-87566503D01*
X354316747Y-87567483D01*
X354173269Y-87567483D01*
X354163319Y-87566503D01*
X354153752Y-87563601D01*
X354144935Y-87558888D01*
X354137207Y-87552545D01*
X354130864Y-87544817D01*
X354126151Y-87536000D01*
X354123249Y-87526433D01*
X354122269Y-87516483D01*
X354122269Y-86648221D01*
X354123249Y-86638271D01*
X354126151Y-86628704D01*
X354130864Y-86619887D01*
X354137207Y-86612159D01*
X354144935Y-86605816D01*
X354153752Y-86601103D01*
X354163319Y-86598201D01*
X354173298Y-86597221D01*
X354316036Y-86597303D01*
X354325985Y-86598289D01*
X354335551Y-86601196D01*
X354346505Y-86607427D01*
X354777678Y-86929133D01*
X355127471Y-87190119D01*
X355127726Y-86969908D01*
X355128099Y-86648162D01*
X355129091Y-86638213D01*
X355132004Y-86628650D01*
X355136727Y-86619838D01*
X355143078Y-86612117D01*
X355150814Y-86605783D01*
X355159637Y-86601081D01*
X355169207Y-86598189D01*
X355179099Y-86597221D01*
X355322570Y-86597221D01*
X355332520Y-86598201D01*
G37*
G36*
X353107875Y-86598201D02*
G01*
X353117442Y-86601103D01*
X353126259Y-86605816D01*
X353133987Y-86612159D01*
X353140330Y-86619887D01*
X353145043Y-86628704D01*
X353147945Y-86638271D01*
X353148925Y-86648217D01*
X353148951Y-86982875D01*
X353148951Y-86982878D01*
X353148952Y-87020655D01*
X353148952Y-87055591D01*
X353148953Y-87087789D01*
X353148959Y-87117373D01*
X353148972Y-87144454D01*
X353148995Y-87169148D01*
X353149030Y-87191559D01*
X353149082Y-87211812D01*
X353149152Y-87230099D01*
X353149242Y-87246261D01*
X353149357Y-87260675D01*
X353149499Y-87273489D01*
X353149668Y-87284498D01*
X353149869Y-87294087D01*
X353150099Y-87302182D01*
X353150355Y-87308856D01*
X353150640Y-87314334D01*
X353150928Y-87318431D01*
X353151148Y-87320738D01*
X353153318Y-87323920D01*
X353155207Y-87325697D01*
X353159192Y-87328165D01*
X353166332Y-87331049D01*
X353177261Y-87333787D01*
X353188985Y-87335471D01*
X353189404Y-87335495D01*
X353194581Y-87335644D01*
X353202950Y-87335802D01*
X353213787Y-87335950D01*
X353227034Y-87336089D01*
X353242279Y-87336215D01*
X353259545Y-87336332D01*
X353278429Y-87336436D01*
X353298788Y-87336529D01*
X353298788Y-87336528D01*
X353320562Y-87336608D01*
X353343442Y-87336677D01*
X353367280Y-87336734D01*
X353391896Y-87336779D01*
X353417108Y-87336812D01*
X353442733Y-87336833D01*
X353468582Y-87336842D01*
X353494466Y-87336839D01*
X353520236Y-87336824D01*
X353545683Y-87336798D01*
X353570635Y-87336759D01*
X353594902Y-87336709D01*
X353618300Y-87336647D01*
X353640655Y-87336572D01*
X353661819Y-87336486D01*
X353661819Y-87336487D01*
X353681473Y-87336389D01*
X353699569Y-87336279D01*
X353715963Y-87336157D01*
X353730311Y-87336024D01*
X353742282Y-87335882D01*
X353752156Y-87335726D01*
X353759054Y-87335570D01*
X353761597Y-87335474D01*
X353775424Y-87333434D01*
X353785644Y-87330715D01*
X353792283Y-87327884D01*
X353795935Y-87325496D01*
X353797757Y-87323686D01*
X353799043Y-87321692D01*
X353800033Y-87319104D01*
X353800147Y-87316677D01*
X353800294Y-87312415D01*
X353800429Y-87307146D01*
X353800560Y-87300345D01*
X353800678Y-87292217D01*
X353800783Y-87282753D01*
X353800876Y-87271748D01*
X353800957Y-87259094D01*
X353801028Y-87244746D01*
X353801027Y-87244746D01*
X353801088Y-87228420D01*
X353801139Y-87210188D01*
X353801182Y-87189874D01*
X353801216Y-87167376D01*
X353801243Y-87142576D01*
X353801263Y-87115364D01*
X353801278Y-87085625D01*
X353801287Y-87053254D01*
X353801292Y-87018131D01*
X353801293Y-86985154D01*
X353801293Y-86648221D01*
X353802273Y-86638271D01*
X353805175Y-86628704D01*
X353809888Y-86619887D01*
X353816231Y-86612159D01*
X353823959Y-86605816D01*
X353832776Y-86601103D01*
X353842343Y-86598201D01*
X353852293Y-86597221D01*
X354018053Y-86597221D01*
X354028003Y-86598201D01*
X354037570Y-86601103D01*
X354046387Y-86605816D01*
X354054115Y-86612159D01*
X354060458Y-86619887D01*
X354065171Y-86628704D01*
X354068073Y-86638271D01*
X354069053Y-86648294D01*
X354068556Y-86993306D01*
X354068502Y-87031733D01*
X354068454Y-87067320D01*
X354068454Y-87067322D01*
X354068408Y-87100192D01*
X354068408Y-87100198D01*
X354068362Y-87130469D01*
X354068362Y-87130482D01*
X354068313Y-87158273D01*
X354068313Y-87158295D01*
X354068257Y-87183725D01*
X354068257Y-87183756D01*
X354068192Y-87206945D01*
X354068192Y-87206993D01*
X354068113Y-87228060D01*
X354068112Y-87228118D01*
X354068019Y-87247183D01*
X354068019Y-87247266D01*
X354067907Y-87264449D01*
X354067906Y-87264560D01*
X354067772Y-87279980D01*
X354067771Y-87280126D01*
X354067612Y-87293902D01*
X354067609Y-87294087D01*
X354067423Y-87306339D01*
X354067419Y-87306585D01*
X354067202Y-87317433D01*
X354067195Y-87317746D01*
X354066945Y-87327309D01*
X354066932Y-87327718D01*
X354066645Y-87336116D01*
X354066625Y-87336640D01*
X354066298Y-87343992D01*
X354066264Y-87344658D01*
X354065894Y-87351084D01*
X354065839Y-87351917D01*
X354065423Y-87357536D01*
X354065338Y-87358549D01*
X354064874Y-87363480D01*
X354064745Y-87364691D01*
X354064229Y-87369055D01*
X354064048Y-87370425D01*
X354063477Y-87374341D01*
X354063245Y-87375788D01*
X354062616Y-87379376D01*
X354062350Y-87380777D01*
X354061660Y-87384155D01*
X354061402Y-87385347D01*
X354060648Y-87388635D01*
X354060449Y-87389468D01*
X354059629Y-87392787D01*
X354059514Y-87393246D01*
X354058623Y-87396714D01*
X354058614Y-87396750D01*
X354057651Y-87400487D01*
X354056942Y-87403283D01*
X354056086Y-87406277D01*
X354049568Y-87426677D01*
X354047030Y-87433089D01*
X354038136Y-87451759D01*
X354034565Y-87458058D01*
X354023352Y-87474926D01*
X354018811Y-87480784D01*
X354005334Y-87495779D01*
X354000026Y-87500889D01*
X353984342Y-87513941D01*
X353978554Y-87518109D01*
X353960717Y-87529146D01*
X353957527Y-87530965D01*
X353956151Y-87531685D01*
X353954662Y-87532433D01*
X353940311Y-87539355D01*
X353937292Y-87540692D01*
X353923061Y-87546453D01*
X353919602Y-87547710D01*
X353904998Y-87552428D01*
X353901468Y-87553430D01*
X353885994Y-87557225D01*
X353882762Y-87557908D01*
X353865922Y-87560898D01*
X353863242Y-87561300D01*
X353844541Y-87563604D01*
X353842498Y-87563814D01*
X353821441Y-87565551D01*
X353820529Y-87565618D01*
X353817116Y-87565838D01*
X353815816Y-87565905D01*
X353811778Y-87566062D01*
X353810896Y-87566089D01*
X353804076Y-87566236D01*
X353803713Y-87566243D01*
X353794285Y-87566379D01*
X353794095Y-87566381D01*
X353782237Y-87566508D01*
X353782114Y-87566509D01*
X353768000Y-87566626D01*
X353767914Y-87566627D01*
X353751720Y-87566734D01*
X353751656Y-87566734D01*
X353733559Y-87566831D01*
X353733510Y-87566832D01*
X353713684Y-87566919D01*
X353713646Y-87566919D01*
X353692267Y-87566997D01*
X353692231Y-87566997D01*
X353669476Y-87567064D01*
X353669449Y-87567064D01*
X353645492Y-87567122D01*
X353645467Y-87567122D01*
X353620485Y-87567170D01*
X353620464Y-87567170D01*
X353594633Y-87567209D01*
X353594610Y-87567209D01*
X353568104Y-87567237D01*
X353568086Y-87567237D01*
X353541082Y-87567256D01*
X353541063Y-87567256D01*
X353513736Y-87567265D01*
X353486227Y-87567265D01*
X353458782Y-87567255D01*
X353458764Y-87567255D01*
X353431524Y-87567235D01*
X353431506Y-87567235D01*
X353404646Y-87567206D01*
X353404625Y-87567206D01*
X353378321Y-87567167D01*
X353378301Y-87567167D01*
X353352728Y-87567119D01*
X353352704Y-87567119D01*
X353328040Y-87567061D01*
X353328015Y-87567061D01*
X353304433Y-87566994D01*
X353304402Y-87566994D01*
X353282079Y-87566917D01*
X353282045Y-87566917D01*
X353261156Y-87566831D01*
X353261112Y-87566830D01*
X353241834Y-87566734D01*
X353241782Y-87566734D01*
X353224290Y-87566629D01*
X353224218Y-87566629D01*
X353208687Y-87566514D01*
X353208593Y-87566513D01*
X353195200Y-87566389D01*
X353195060Y-87566387D01*
X353183980Y-87566254D01*
X353183749Y-87566251D01*
X353175158Y-87566109D01*
X353174694Y-87566099D01*
X353168767Y-87565947D01*
X353167822Y-87565914D01*
X353165514Y-87565812D01*
X353163309Y-87565667D01*
X353134277Y-87563120D01*
X353131128Y-87562745D01*
X353104381Y-87558711D01*
X353100748Y-87558027D01*
X353075974Y-87552430D01*
X353071981Y-87551356D01*
X353048865Y-87544122D01*
X353044714Y-87542623D01*
X353022942Y-87533677D01*
X353020217Y-87532463D01*
X353013365Y-87529167D01*
X353011084Y-87527998D01*
X352994194Y-87518801D01*
X352990358Y-87516489D01*
X352975790Y-87506809D01*
X352971602Y-87503706D01*
X352958717Y-87493099D01*
X352955751Y-87490458D01*
X352949787Y-87484714D01*
X352946642Y-87481400D01*
X352932560Y-87465167D01*
X352928493Y-87459800D01*
X352916688Y-87441877D01*
X352913402Y-87436102D01*
X352903832Y-87416395D01*
X352901451Y-87410616D01*
X352894071Y-87389030D01*
X352892542Y-87383589D01*
X352887310Y-87360032D01*
X352886704Y-87356822D01*
X352885602Y-87349746D01*
X352885365Y-87348031D01*
X352885118Y-87345992D01*
X352884945Y-87344336D01*
X352884717Y-87341749D01*
X352884626Y-87340562D01*
X352884416Y-87337313D01*
X352884369Y-87336466D01*
X352884176Y-87332441D01*
X352884150Y-87331833D01*
X352883973Y-87326918D01*
X352883959Y-87326462D01*
X352883799Y-87320545D01*
X352883791Y-87320224D01*
X352883645Y-87313190D01*
X352883641Y-87312947D01*
X352883509Y-87304683D01*
X352883506Y-87304489D01*
X352883389Y-87294882D01*
X352883387Y-87294745D01*
X352883282Y-87283679D01*
X352883281Y-87283570D01*
X352883188Y-87270934D01*
X352883188Y-87270847D01*
X352883107Y-87256525D01*
X352883106Y-87256462D01*
X352883035Y-87240342D01*
X352883035Y-87240287D01*
X352882975Y-87222255D01*
X352882975Y-87222215D01*
X352882924Y-87202158D01*
X352882924Y-87202127D01*
X352882881Y-87179929D01*
X352882881Y-87179901D01*
X352882847Y-87155451D01*
X352882847Y-87155433D01*
X352882819Y-87128616D01*
X352882819Y-87128600D01*
X352882798Y-87099303D01*
X352882798Y-87099290D01*
X352882783Y-87067398D01*
X352882783Y-87067389D01*
X352882773Y-87032790D01*
X352882773Y-87032783D01*
X352882767Y-86995363D01*
X352882767Y-86987316D01*
X352882740Y-86648225D01*
X352883719Y-86638275D01*
X352886621Y-86628708D01*
X352891333Y-86619890D01*
X352897675Y-86612161D01*
X352905403Y-86605818D01*
X352914219Y-86601105D01*
X352923786Y-86598202D01*
X352933740Y-86597221D01*
X353097925Y-86597221D01*
X353107875Y-86598201D01*
G37*
D14*
X50800000Y-221456250D03*
D15*
X45720000Y-221456250D03*
X55880000Y-221456250D03*
D14*
X317500000Y-164306250D03*
D15*
X312420000Y-164306250D03*
X322580000Y-164306250D03*
D14*
X355600000Y-164306250D03*
D15*
X350520000Y-164306250D03*
X360680000Y-164306250D03*
D14*
X69850000Y-126206250D03*
D15*
X64770000Y-126206250D03*
X74930000Y-126206250D03*
D14*
X50800000Y-145256250D03*
D15*
X45720000Y-145256250D03*
X55880000Y-145256250D03*
D14*
X50800000Y-164306250D03*
D15*
X45720000Y-164306250D03*
X55880000Y-164306250D03*
D14*
X317500000Y-183356250D03*
D15*
X312420000Y-183356250D03*
X322580000Y-183356250D03*
D14*
X317500000Y-202406250D03*
D15*
X312420000Y-202406250D03*
X322580000Y-202406250D03*
D14*
X336550000Y-202406250D03*
D15*
X331470000Y-202406250D03*
X341630000Y-202406250D03*
D14*
X50800000Y-183356250D03*
D15*
X45720000Y-183356250D03*
X55880000Y-183356250D03*
D14*
X88900000Y-221456250D03*
D15*
X83820000Y-221456250D03*
X93980000Y-221456250D03*
D14*
X355600000Y-183356250D03*
D15*
X350520000Y-183356250D03*
X360680000Y-183356250D03*
D14*
X336550000Y-221456250D03*
D15*
X331470000Y-221456250D03*
X341630000Y-221456250D03*
D14*
X355600000Y-145256250D03*
D15*
X350520000Y-145256250D03*
X360680000Y-145256250D03*
D14*
X69850000Y-183356250D03*
D15*
X64770000Y-183356250D03*
X74930000Y-183356250D03*
D14*
X88900000Y-145256250D03*
D15*
X83820000Y-145256250D03*
X93980000Y-145256250D03*
D14*
X298450000Y-221456250D03*
D15*
X293370000Y-221456250D03*
X303530000Y-221456250D03*
D14*
X336550000Y-183356250D03*
D15*
X331470000Y-183356250D03*
X341630000Y-183356250D03*
D14*
X317500000Y-145256250D03*
D15*
X312420000Y-145256250D03*
X322580000Y-145256250D03*
D14*
X317500000Y-221456250D03*
D15*
X312420000Y-221456250D03*
X322580000Y-221456250D03*
D14*
X298450000Y-202406250D03*
D15*
X293370000Y-202406250D03*
X303530000Y-202406250D03*
D14*
X336550000Y-126206250D03*
D15*
X331470000Y-126206250D03*
X341630000Y-126206250D03*
D14*
X88900000Y-164306250D03*
D15*
X83820000Y-164306250D03*
X93980000Y-164306250D03*
D14*
X298450000Y-183356250D03*
D15*
X293370000Y-183356250D03*
X303530000Y-183356250D03*
D14*
X317500000Y-126206250D03*
D15*
X312420000Y-126206250D03*
X322580000Y-126206250D03*
D14*
X184150000Y-145256250D03*
D15*
X179070000Y-145256250D03*
X189230000Y-145256250D03*
D14*
X203200000Y-126206250D03*
D15*
X198120000Y-126206250D03*
X208280000Y-126206250D03*
G36*
G01*
X342607000Y-89356500D02*
X340907000Y-89356500D01*
G75*
G02*
X340856000Y-89305500I0J51000D01*
G01*
X340856000Y-87605500D01*
G75*
G02*
X340907000Y-87554500I51000J0D01*
G01*
X342607000Y-87554500D01*
G75*
G02*
X342658000Y-87605500I0J-51000D01*
G01*
X342658000Y-89305500D01*
G75*
G02*
X342607000Y-89356500I-51000J0D01*
G01*
G37*
D16*
X339217000Y-88455500D03*
X336677000Y-88455500D03*
X334137000Y-88455500D03*
X331597000Y-88455500D03*
X329057000Y-88455500D03*
X326517000Y-88455500D03*
X323977000Y-88455500D03*
X321437000Y-88455500D03*
X318897000Y-88455500D03*
X316357000Y-88455500D03*
X313817000Y-88455500D03*
G36*
G01*
X342607000Y-106247500D02*
X340907000Y-106247500D01*
G75*
G02*
X340856000Y-106196500I0J51000D01*
G01*
X340856000Y-104496500D01*
G75*
G02*
X340907000Y-104445500I51000J0D01*
G01*
X342607000Y-104445500D01*
G75*
G02*
X342658000Y-104496500I0J-51000D01*
G01*
X342658000Y-106196500D01*
G75*
G02*
X342607000Y-106247500I-51000J0D01*
G01*
G37*
X339217000Y-105346500D03*
X336677000Y-105346500D03*
X334137000Y-105346500D03*
X331597000Y-105346500D03*
X329057000Y-105346500D03*
X326517000Y-105346500D03*
X323977000Y-105346500D03*
X321437000Y-105346500D03*
X318897000Y-105346500D03*
X316357000Y-105346500D03*
X313817000Y-105346500D03*
G36*
G01*
X340856000Y-102577000D02*
X340856000Y-100877000D01*
G75*
G02*
X340907000Y-100826000I51000J0D01*
G01*
X342607000Y-100826000D01*
G75*
G02*
X342658000Y-100877000I0J-51000D01*
G01*
X342658000Y-102577000D01*
G75*
G02*
X342607000Y-102628000I-51000J0D01*
G01*
X340907000Y-102628000D01*
G75*
G02*
X340856000Y-102577000I0J51000D01*
G01*
G37*
D14*
X203200000Y-164306250D03*
D15*
X198120000Y-164306250D03*
X208280000Y-164306250D03*
D14*
X222250000Y-145256250D03*
D15*
X217170000Y-145256250D03*
X227330000Y-145256250D03*
D14*
X260350000Y-126206250D03*
D15*
X255270000Y-126206250D03*
X265430000Y-126206250D03*
D14*
X260350000Y-183356250D03*
D15*
X255270000Y-183356250D03*
X265430000Y-183356250D03*
D14*
X146050000Y-164306250D03*
D15*
X140970000Y-164306250D03*
X151130000Y-164306250D03*
D14*
X241300000Y-145256250D03*
D15*
X236220000Y-145256250D03*
X246380000Y-145256250D03*
D14*
X222250000Y-126206250D03*
D15*
X217170000Y-126206250D03*
X227330000Y-126206250D03*
D14*
X222250000Y-221456250D03*
D15*
X217170000Y-221456250D03*
X227330000Y-221456250D03*
D14*
X260350000Y-202406250D03*
D15*
X255270000Y-202406250D03*
X265430000Y-202406250D03*
D14*
X279400000Y-126206250D03*
D15*
X274320000Y-126206250D03*
X284480000Y-126206250D03*
D14*
X279400000Y-202406250D03*
D15*
X274320000Y-202406250D03*
X284480000Y-202406250D03*
D14*
X260350000Y-221456250D03*
D15*
X255270000Y-221456250D03*
X265430000Y-221456250D03*
D14*
X146050000Y-183356250D03*
D15*
X140970000Y-183356250D03*
X151130000Y-183356250D03*
D14*
X222250000Y-202406250D03*
D15*
X217170000Y-202406250D03*
X227330000Y-202406250D03*
D14*
X241300000Y-221456250D03*
D15*
X236220000Y-221456250D03*
X246380000Y-221456250D03*
D14*
X241300000Y-126206250D03*
D15*
X236220000Y-126206250D03*
X246380000Y-126206250D03*
D14*
X241300000Y-183356250D03*
D15*
X236220000Y-183356250D03*
X246380000Y-183356250D03*
D14*
X222250000Y-183356250D03*
D15*
X217170000Y-183356250D03*
X227330000Y-183356250D03*
D14*
X146050000Y-145256250D03*
D15*
X140970000Y-145256250D03*
X151130000Y-145256250D03*
D14*
X222250000Y-164306250D03*
D15*
X217170000Y-164306250D03*
X227330000Y-164306250D03*
D14*
X241300000Y-164306250D03*
D15*
X236220000Y-164306250D03*
X246380000Y-164306250D03*
D14*
X279400000Y-164306250D03*
D15*
X274320000Y-164306250D03*
X284480000Y-164306250D03*
D14*
X298450000Y-126206250D03*
D15*
X293370000Y-126206250D03*
X303530000Y-126206250D03*
D14*
X279400000Y-145256250D03*
D15*
X274320000Y-145256250D03*
X284480000Y-145256250D03*
D14*
X127000000Y-202406250D03*
D15*
X121920000Y-202406250D03*
X132080000Y-202406250D03*
D14*
X298450000Y-145256250D03*
D15*
X293370000Y-145256250D03*
X303530000Y-145256250D03*
D14*
X279400000Y-183356250D03*
D15*
X274320000Y-183356250D03*
X284480000Y-183356250D03*
D14*
X241300000Y-202406250D03*
D15*
X236220000Y-202406250D03*
X246380000Y-202406250D03*
D14*
X127000000Y-145256250D03*
D15*
X121920000Y-145256250D03*
X132080000Y-145256250D03*
D14*
X107950000Y-183356250D03*
D15*
X102870000Y-183356250D03*
X113030000Y-183356250D03*
D14*
X260350000Y-145256250D03*
D15*
X255270000Y-145256250D03*
X265430000Y-145256250D03*
D14*
X279400000Y-221456250D03*
D15*
X274320000Y-221456250D03*
X284480000Y-221456250D03*
D14*
X146050000Y-221456250D03*
D15*
X140970000Y-221456250D03*
X151130000Y-221456250D03*
D14*
X146050000Y-126206250D03*
D15*
X140970000Y-126206250D03*
X151130000Y-126206250D03*
D14*
X127000000Y-183356250D03*
D15*
X121920000Y-183356250D03*
X132080000Y-183356250D03*
D14*
X107950000Y-202406250D03*
D15*
X102870000Y-202406250D03*
X113030000Y-202406250D03*
D14*
X107950000Y-221456250D03*
D15*
X102870000Y-221456250D03*
X113030000Y-221456250D03*
D14*
X127000000Y-126206250D03*
D15*
X121920000Y-126206250D03*
X132080000Y-126206250D03*
D14*
X146050000Y-202406250D03*
D15*
X140970000Y-202406250D03*
X151130000Y-202406250D03*
D14*
X127000000Y-164306250D03*
D15*
X121920000Y-164306250D03*
X132080000Y-164306250D03*
D14*
X107950000Y-145256250D03*
D15*
X102870000Y-145256250D03*
X113030000Y-145256250D03*
D14*
X127000000Y-221456250D03*
D15*
X121920000Y-221456250D03*
X132080000Y-221456250D03*
D14*
X355600000Y-202406250D03*
D15*
X350520000Y-202406250D03*
X360680000Y-202406250D03*
D14*
X355600000Y-221456250D03*
D15*
X350520000Y-221456250D03*
X360680000Y-221456250D03*
D14*
X336550000Y-145256250D03*
D15*
X331470000Y-145256250D03*
X341630000Y-145256250D03*
M02*
